<svg width="81" height="80" viewBox="0 0 81 80" fill="none" xmlns="http://www.w3.org/2000/svg">
<path fill-rule="evenodd" clip-rule="evenodd" d="M70.5 69C69.9486 69 69.5 68.5514 69.5 68C69.5 67.4486 69.9486 67 70.5 67C71.0514 67 71.5 67.4486 71.5 68C71.5 68.5514 71.0514 69 70.5 69Z" fill="#CACAFB"/>
<path fill-rule="evenodd" clip-rule="evenodd" d="M68.5 13C67.9486 13 67.5 12.5514 67.5 12C67.5 11.4486 67.9486 11 68.5 11C69.0514 11 69.5 11.4486 69.5 12C69.5 12.5514 69.0514 13 68.5 13Z" fill="#CACAFB"/>
<path fill-rule="evenodd" clip-rule="evenodd" d="M14.5 69C13.9486 69 13.5 68.5514 13.5 68C13.5 67.4486 13.9486 67 14.5 67C15.0514 67 15.5 67.4486 15.5 68C15.5 68.5514 15.0514 69 14.5 69Z" fill="#CACAFB"/>
<path fill-rule="evenodd" clip-rule="evenodd" d="M19.8966 12.0063C20.0956 12.0021 20.2968 12 20.5 12L20.8032 12.0016C20.9038 12.0026 21.0039 12.0042 21.1034 12.0063L21.6937 12.025L22.2694 12.0562C22.5534 12.0749 22.8314 12.0983 23.1026 12.1264L23.6355 12.1887C26.514 12.5658 28.5 13.5066 28.5 15V21C28.5 21.5523 28.0523 22 27.5 22C26.9872 22 26.5645 21.614 26.5067 21.1166L26.5 21V17.1261C25.7189 17.4376 24.7433 17.6662 23.6355 17.8113L23.1026 17.8736C22.8314 17.9017 22.5534 17.9251 22.2694 17.9438L21.6937 17.975L21.1034 17.9938C20.9044 17.9979 20.7032 18 20.5 18C20.2968 18 20.0956 17.9979 19.8966 17.9938L19.3063 17.975L18.7306 17.9438C18.4466 17.9251 18.1686 17.9017 17.8974 17.8736L17.3645 17.8113C14.486 17.4342 12.5 16.4934 12.5 15C12.5 13.5066 14.486 12.5658 17.3645 12.1887L17.8974 12.1264C18.1686 12.0983 18.4466 12.0749 18.7306 12.0562L19.3063 12.025L19.8966 12.0063ZM26.5 15L26.4782 14.986C26.2511 14.8573 25.9307 14.727 25.5337 14.6066L25.3288 14.5473C24.0811 14.2021 22.3536 14 20.5005 14C18.6474 14 16.9199 14.2021 15.6722 14.5473C15.2501 14.6641 14.9018 14.7927 14.6441 14.9216L14.5 15L14.6702 15.0913C14.8811 15.1944 15.1497 15.2971 15.4674 15.3934L15.6722 15.4527C16.9199 15.7979 18.6474 16 20.5005 16C22.3536 16 24.0811 15.7979 25.3288 15.4527C25.7509 15.3359 26.0992 15.2073 26.3569 15.0784L26.5 15Z" fill="#E1000F"/>
<path d="M60.2317 49.8039C59.1723 48.6592 57.7227 48 56.1751 48C53.7002 48 51.6014 49.6722 50.8231 52H49.5L49.3834 52.0067C48.886 52.0645 48.5 52.4872 48.5 53C48.5 53.5523 48.9477 54 49.5 54H50.5C50.5 54.3406 50.5269 54.6747 50.5785 55H49.5L49.3834 55.0067C48.886 55.0645 48.5 55.4872 48.5 56C48.5 56.5523 48.9477 57 49.5 57H51.2594C52.2396 58.7919 54.0715 60 56.1751 60C57.587 60 58.9199 59.4516 59.9512 58.4792C60.346 58.1069 60.374 57.4744 60.0138 57.0665C59.6535 56.6585 59.0414 56.6295 58.6466 57.0018C57.9673 57.6423 57.0979 58 56.1751 58C55.2284 58 54.3618 57.6228 53.7017 57H55.5L55.6166 56.9933C56.114 56.9355 56.5 56.5128 56.5 56C56.5 55.4477 56.0523 55 55.5 55H52.5532C52.4764 54.6806 52.4355 54.3455 52.4355 54H55.5L55.6166 53.9933C56.114 53.9355 56.5 53.5128 56.5 53C56.5 52.4477 56.0523 52 55.5 52H52.9356C53.5832 50.8029 54.7939 50 56.1751 50C57.1867 50 58.1335 50.4306 58.8329 51.1862C59.2023 51.5854 59.8148 51.5995 60.2011 51.2178C60.5874 50.8361 60.6011 50.2031 60.2317 49.8039Z" fill="#E1000F"/>
<path d="M13.5 20C14.0128 20 14.4355 20.3509 14.4933 20.8031L14.5 20.9091V39.0909C14.5 39.593 14.0523 40 13.5 40C12.9872 40 12.5645 39.6491 12.5067 39.1969L12.5 39.0909V20.9091C12.5 20.407 12.9477 20 13.5 20Z" fill="#E1000F"/>
<path d="M13.5 44C14.0523 44 14.5 43.5523 14.5 43C14.5 42.4477 14.0523 42 13.5 42C12.9477 42 12.5 42.4477 12.5 43C12.5 43.5523 12.9477 44 13.5 44Z" fill="#E1000F"/>
<path fill-rule="evenodd" clip-rule="evenodd" d="M60.5 28C60.2968 28 60.0956 28.0021 59.8966 28.0063L59.3063 28.025L58.7306 28.0562C58.4466 28.0749 58.1686 28.0983 57.8974 28.1264L57.3645 28.1887C54.486 28.5658 52.5 29.5066 52.5 31C52.5 32.4934 54.486 33.4342 57.3645 33.8113L57.8974 33.8736C58.1686 33.9017 58.4466 33.9251 58.7306 33.9438L59.3063 33.975L59.8966 33.9937C60.0956 33.9979 60.2968 34 60.5 34C60.7032 34 60.9044 33.9979 61.1034 33.9937L61.6937 33.975L62.2694 33.9438C62.5534 33.9251 62.8314 33.9017 63.1026 33.8736L63.6355 33.8113C64.7433 33.6662 65.7189 33.4376 66.5 33.1261V37L66.5067 37.1166C66.5645 37.614 66.9872 38 67.5 38C68.0523 38 68.5 37.5523 68.5 37V31C68.5 29.5066 66.514 28.5658 63.6355 28.1887L63.1026 28.1264C62.8314 28.0983 62.5534 28.0749 62.2694 28.0562L61.6937 28.025L61.1034 28.0063C61.0039 28.0042 60.9038 28.0026 60.8032 28.0016L60.5 28ZM66.3569 31.0784L66.5 31L66.4782 30.986C66.2511 30.8573 65.9307 30.727 65.5337 30.6066L65.3288 30.5473C64.0811 30.2021 62.3536 30 60.5005 30C58.6474 30 56.9199 30.2021 55.6722 30.5473C55.2501 30.6641 54.9018 30.7927 54.6441 30.9216L54.5 31L54.6702 31.0913C54.8811 31.1944 55.1497 31.2971 55.4674 31.3934L55.6722 31.4527C56.9199 31.7979 58.6474 32 60.5005 32C62.3536 32 64.0811 31.7979 65.3288 31.4527C65.7509 31.3359 66.0992 31.2073 66.3569 31.0784Z" fill="#E1000F"/>
<path d="M54.4933 34.8834C54.4355 34.386 54.0128 34 53.5 34C52.9477 34 52.5 34.4477 52.5 35V39L52.5067 39.1166C52.5645 39.614 52.9872 40 53.5 40C54.0523 40 54.5 39.5523 54.5 39V35L54.4933 34.8834Z" fill="#E1000F"/>
<path fill-rule="evenodd" clip-rule="evenodd" d="M37.162 22L36.494 22.012C36.3836 22.015 36.2737 22.0185 36.1643 22.0225L35.5142 22.0523L34.8775 22.0938C34.5627 22.1175 34.2533 22.1455 33.95 22.1778L33.3516 22.2481C33.2533 22.2608 33.1557 22.2739 33.0588 22.2875L32.4868 22.3746C28.9228 22.9619 26.5 24.217 26.5 25.9992V30.5716L26.5049 30.7198C26.5073 30.7562 26.5106 30.7923 26.5147 30.8282C26.505 30.884 26.5 30.9415 26.5 31V35.5716L26.5049 35.7198C26.5073 35.7562 26.5106 35.7923 26.5147 35.8282C26.505 35.884 26.5 35.9415 26.5 36V40.5716L26.5049 40.7198C26.5073 40.756 26.5105 40.7919 26.5146 40.8277C26.505 40.8834 26.5 40.9407 26.5 40.9991V45.5707L26.5049 45.719C26.5141 45.8591 26.5365 45.9965 26.5715 46.1309C26.4231 46.1175 26.2734 46.1052 26.1225 46.0938L25.4858 46.0523L24.8357 46.0225C24.7263 46.0185 24.6164 46.015 24.506 46.012L23.838 46H23.162L22.494 46.012C22.3836 46.015 22.2737 46.0185 22.1643 46.0225L21.5142 46.0523L20.8775 46.0938C20.5627 46.1175 20.2533 46.1455 19.95 46.1778L19.3516 46.2481C19.2533 46.2608 19.1557 46.2739 19.0588 46.2875L18.4868 46.3746C14.9228 46.9619 12.5 48.217 12.5 49.9992V54.571L12.5049 54.7193C12.5073 54.7556 12.5106 54.7918 12.5147 54.8277C12.505 54.8836 12.5 54.941 12.5 54.9996V59.5712L12.5049 59.7194C12.6345 61.6818 15.338 63.0857 19.1512 63.6817L19.7313 63.765C19.9273 63.7907 20.1259 63.8144 20.3269 63.836L20.937 63.8945C21.7597 63.9641 22.6179 63.9999 23.5 63.9999C24.3821 63.9999 25.2403 63.9641 26.063 63.8945L26.6731 63.836C26.8741 63.8144 27.0727 63.7907 27.2687 63.765L27.8488 63.6817C31.5866 63.0975 34.2582 61.737 34.4844 59.8352C35.4383 59.944 36.4343 60 37.4499 60C39.9401 60 42.9907 59.6817 44.684 59.2037C46.6223 63.2251 50.7371 66 55.5 66C62.1274 66 67.5 60.6272 67.5 53.9996C67.5 47.3719 62.1274 41.9992 55.5 41.9992C52.8876 41.9992 50.4702 42.834 48.5 44.2513V40.9991L48.4933 40.8825C48.4922 40.8732 48.491 40.8639 48.4896 40.8547C48.4883 40.8457 48.4869 40.8367 48.4854 40.8277C48.4951 40.7434 48.5 40.658 48.5 40.5716V36L48.4933 35.8834C48.4911 35.8649 48.4885 35.8464 48.4853 35.8282C48.4951 35.7437 48.5 35.6582 48.5 35.5716V31L48.4933 30.8834C48.4911 30.8649 48.4885 30.8464 48.4853 30.8282C48.4951 30.7437 48.5 30.6582 48.5 30.5716V26C48.5 24.2647 46.203 23.0283 42.7922 22.4224L42.2295 22.3297C42.0388 22.3006 41.845 22.2734 41.6484 22.2481L41.05 22.1778C40.7467 22.1455 40.4373 22.1175 40.1225 22.0938L39.4858 22.0523L38.8357 22.0225C38.7263 22.0185 38.6164 22.015 38.506 22.012L37.838 22H37.162ZM44.5601 49.0607C43.7475 49.3188 42.8353 49.527 41.8488 49.6812L41.2687 49.7645C41.0727 49.7902 40.8741 49.8139 40.6731 49.8355L40.063 49.894C39.2403 49.9636 38.3821 49.9995 37.5 49.9995C36.6179 49.9995 35.7597 49.9636 34.937 49.894L34.4944 49.8516C34.4981 49.9004 34.5 49.9496 34.5 49.9992V52.593C35.4538 52.7117 36.46 52.7733 37.49 52.7733C39.5254 52.7733 41.9511 52.5396 43.637 52.1804C43.8036 51.0848 44.1183 50.0379 44.5601 49.0607ZM43.509 54.4676C41.735 54.7979 39.4505 55 37.49 55C36.4608 55 35.4516 54.9425 34.4858 54.8309L34.4889 54.8501L34.4916 54.8695L34.4933 54.883L34.5 54.9996V57.6052C35.4418 57.7208 36.4342 57.7807 37.4499 57.7807C39.6511 57.7807 42.3479 57.5125 43.9115 57.1269C43.682 56.2742 43.5441 55.3841 43.509 54.4676ZM28.5 30.5716V28.4455C29.4631 28.9334 30.7311 29.3138 32.2078 29.5761L32.7705 29.6688C32.9612 29.6979 33.155 29.7251 33.3516 29.7504L33.95 29.8207C34.2533 29.853 34.5627 29.881 34.8775 29.9047L35.5142 29.9462L36.1643 29.976C36.2737 29.98 36.3836 29.9835 36.494 29.9865L37.162 29.9985C37.2742 29.9995 37.3869 30 37.5 30L37.838 29.9985L38.506 29.9865C38.6164 29.9835 38.7263 29.98 38.8357 29.976L39.4858 29.9462L40.1225 29.9047C40.4373 29.881 40.7467 29.853 41.05 29.8207L41.6484 29.7504C41.7467 29.7377 41.8443 29.7246 41.9412 29.711L42.5132 29.6238C44.1094 29.3608 45.4767 28.9638 46.5 28.4455V30.5716L46.493 30.6327C46.4138 30.9919 45.6613 31.5651 44.2467 32.0501C42.4954 32.6506 40.084 33.0003 37.5 33.0003C34.916 33.0003 32.5046 32.6506 30.7533 32.0501C29.2555 31.5365 28.5 30.9241 28.5 30.5716ZM29.2727 26.6719C28.7764 26.4379 28.5 26.2043 28.5 26.0004C28.5 25.7965 28.7764 25.5628 29.2727 25.3288L29.5389 25.2119C29.6336 25.173 29.7341 25.1343 29.8402 25.0958L30.1749 24.9812C30.2919 24.9434 30.4143 24.906 30.5417 24.8691L30.9387 24.7601C31.0073 24.7423 31.0772 24.7246 31.1481 24.7071L31.5878 24.6045C31.7389 24.5711 31.8943 24.5386 32.0539 24.5071L32.5449 24.4158L33.0591 24.3314C33.1467 24.3179 33.2352 24.3048 33.3245 24.292L33.8708 24.2194L34.4364 24.1558L35.0198 24.1019C35.2171 24.0856 35.417 24.0711 35.6194 24.0585L36.2337 24.0266L36.8611 24.0068C36.9667 24.0045 37.0727 24.0028 37.1792 24.0017L37.5 24C37.7147 24 37.9278 24.0023 38.1389 24.0068L38.7663 24.0266L39.3806 24.0585C39.583 24.0711 39.7829 24.0856 39.9802 24.1019L40.5636 24.1558L41.1292 24.2194L41.6755 24.292L42.2008 24.3727C42.2865 24.3867 42.3713 24.4011 42.4551 24.4158L42.9461 24.5071C43.0259 24.5228 43.1046 24.5388 43.1823 24.5551L43.6354 24.6552C43.782 24.6894 43.924 24.7244 44.0613 24.7601L44.4583 24.8691C44.522 24.8875 44.5845 24.9061 44.6456 24.9248L44.9965 25.0383C45.164 25.0956 45.3191 25.1536 45.4611 25.2119L45.7273 25.3288C46.2236 25.5628 46.5 25.7965 46.5 26.0004C46.5 26.2043 46.2236 26.4379 45.7273 26.6719L45.4611 26.7888C45.3664 26.8277 45.2659 26.8665 45.1598 26.905L44.8251 27.0195C44.7081 27.0574 44.5857 27.0948 44.4583 27.1317L44.0613 27.2407C43.9927 27.2585 43.9228 27.2762 43.8519 27.2937L43.4122 27.3963C43.2611 27.4297 43.1057 27.4622 42.9461 27.4937L42.4551 27.585L41.9409 27.6694C41.8533 27.6828 41.7648 27.696 41.6755 27.7088L41.1292 27.7813L40.5636 27.845L39.9802 27.8989C39.7829 27.9151 39.583 27.9296 39.3806 27.9422L38.7663 27.9742L38.1389 27.994C37.9278 27.9984 37.7147 28.0008 37.5 28.0008C37.2853 28.0008 37.0722 27.9984 36.8611 27.994L36.2337 27.9742L35.6194 27.9422C35.417 27.9296 35.2171 27.9151 35.0198 27.8989L34.4364 27.845L33.8708 27.7813L33.3245 27.7088L32.7992 27.6281C32.7135 27.614 32.6287 27.5996 32.5449 27.585L32.0539 27.4937C31.9741 27.4779 31.8954 27.4619 31.8177 27.4457L31.3646 27.3456C31.218 27.3114 31.076 27.2763 30.9387 27.2407L30.5417 27.1317C30.478 27.1132 30.4155 27.0947 30.3544 27.076L30.0035 26.9625C29.836 26.9052 29.6809 26.8472 29.5389 26.7888L29.2727 26.6719ZM28.5 35.5716V33.2437C29.6647 33.8992 31.2734 34.3886 33.1512 34.6821L33.7313 34.7654C33.9273 34.7911 34.1259 34.8148 34.3269 34.8364L34.937 34.8949C35.7597 34.9645 36.6179 35.0003 37.5 35.0003C38.3821 35.0003 39.2403 34.9645 40.063 34.8949L40.6731 34.8364C40.8741 34.8148 41.0727 34.7911 41.2687 34.7654L41.8488 34.6821C43.7266 34.3886 45.3353 33.8992 46.5 33.2437V35.5716L46.493 35.6327C46.4138 35.9919 45.6613 36.5651 44.2467 37.0501C42.4954 37.6506 40.084 38.0003 37.5 38.0003C34.916 38.0003 32.5046 37.6506 30.7533 37.0501C29.2555 36.5365 28.5 35.9241 28.5 35.5716ZM32.5 57.2431C31.3353 57.8986 29.7266 58.388 27.8488 58.6815L27.2687 58.7648C27.0727 58.7906 26.8741 58.8142 26.6731 58.8358L26.063 58.8943C25.2403 58.964 24.3821 58.9998 23.5 58.9998C22.6179 58.9998 21.7597 58.964 20.937 58.8943L20.3269 58.8358C20.1259 58.8142 19.9273 58.7906 19.7313 58.7648L19.1512 58.6815C17.2734 58.388 15.6647 57.8986 14.5 57.2431V59.5712C14.5 59.9237 15.2555 60.5361 16.7533 61.0497C18.5046 61.6502 20.916 61.9999 23.5 61.9999C26.084 61.9999 28.4954 61.6502 30.2467 61.0497C31.6613 60.5647 32.4138 59.9915 32.493 59.6323L32.5 59.5712V57.2431ZM28.5 38.2437C29.6647 38.8992 31.2734 39.3886 33.1512 39.6821L33.7313 39.7654C33.9273 39.7911 34.1259 39.8148 34.3269 39.8364L34.937 39.8949C35.7597 39.9645 36.6179 40.0003 37.5 40.0003C38.3821 40.0003 39.2403 39.9645 40.063 39.8949L40.6731 39.8364C40.8741 39.8148 41.0727 39.7911 41.2687 39.7654L41.8488 39.6821C43.7266 39.3886 45.3353 38.8992 46.5 38.2437V40.5716L46.493 40.6327C46.4138 40.9919 45.6613 41.5651 44.2467 42.0501C42.4954 42.6506 40.084 43.0003 37.5 43.0003C34.916 43.0003 32.5046 42.6506 30.7533 42.0501C29.2555 41.5365 28.5 40.9241 28.5 40.5716V38.2437ZM46.5 45.5707V43.2437C45.3353 43.8992 43.7266 44.3886 41.8488 44.6821L41.2687 44.7654C41.0727 44.7911 40.8741 44.8148 40.6731 44.8364L40.063 44.8949C39.2403 44.9645 38.3821 45.0003 37.5 45.0003C36.6179 45.0003 35.7597 44.9645 34.937 44.8949L34.3269 44.8364C34.1259 44.8148 33.9273 44.7911 33.7313 44.7654L33.1512 44.6821C31.2734 44.3886 29.6647 43.8992 28.5 43.2437V45.5707C28.5 45.8227 28.886 46.2075 29.6534 46.5941C30.7099 46.8292 31.6345 47.1314 32.3851 47.4959C33.8812 47.8194 35.6462 47.9994 37.5 47.9994C40.084 47.9994 42.4954 47.6497 44.2467 47.0492C45.6613 46.5642 46.4138 45.991 46.493 45.6318L46.5 45.5707ZM31.9988 49.4692C30.8806 49.2305 29.8864 48.9149 29.0615 48.5302C29.0233 48.5224 28.9848 48.5147 28.9461 48.5071L28.4551 48.4158C28.3713 48.4011 28.2865 48.3867 28.2008 48.3727L27.6755 48.292L27.1292 48.2194L26.5636 48.1558L25.9802 48.1019C25.7829 48.0856 25.583 48.0711 25.3806 48.0585L24.7663 48.0266L24.1389 48.0068C23.9278 48.0023 23.7147 48 23.5 48L23.1792 48.0017C23.0727 48.0028 22.9667 48.0045 22.8611 48.0068L22.2337 48.0266L21.6194 48.0585C21.417 48.0711 21.2171 48.0856 21.0198 48.1019L20.4364 48.1558L19.8708 48.2194L19.3245 48.292C19.2352 48.3048 19.1467 48.3179 19.0591 48.3314L18.5449 48.4158L18.0539 48.5071C17.8943 48.5386 17.7389 48.5711 17.5878 48.6045L17.1481 48.7071C17.0772 48.7246 17.0073 48.7423 16.9387 48.7601L16.5417 48.8691C16.4143 48.906 16.2919 48.9434 16.1749 48.9812L15.8402 49.0958C15.7341 49.1343 15.6336 49.173 15.5389 49.2119L15.2727 49.3288C14.7764 49.5628 14.5 49.7965 14.5 50.0004C14.5 50.2043 14.7764 50.4379 15.2727 50.6719L15.5389 50.7888C15.6809 50.8472 15.836 50.9052 16.0035 50.9625L16.3544 51.076C16.4155 51.0947 16.478 51.1132 16.5417 51.1317L16.9387 51.2407C17.076 51.2763 17.218 51.3114 17.3646 51.3456L17.8177 51.4457C17.8954 51.4619 17.9741 51.4779 18.0539 51.4937L18.5449 51.585C18.6287 51.5996 18.7135 51.614 18.7992 51.6281L19.3245 51.7088L19.8708 51.7813L20.4364 51.845L21.0198 51.8989C21.2171 51.9151 21.417 51.9296 21.6194 51.9422L22.2337 51.9742L22.8611 51.994C23.0722 51.9984 23.2853 52.0008 23.5 52.0008C23.7147 52.0008 23.9278 51.9984 24.1389 51.994L24.7663 51.9742L25.3806 51.9422C25.583 51.9296 25.7829 51.9151 25.9802 51.8989L26.5636 51.845L27.1292 51.7813L27.6755 51.7088C27.7648 51.696 27.8533 51.6828 27.9409 51.6694L28.4551 51.585L28.9461 51.4937C29.1057 51.4622 29.2611 51.4297 29.4122 51.3963L29.8519 51.2937C29.9228 51.2762 29.9927 51.2585 30.0613 51.2407L30.4583 51.1317C30.5857 51.0948 30.7081 51.0574 30.8251 51.0195L31.1598 50.905C31.2659 50.8665 31.3664 50.8277 31.4611 50.7888L31.7273 50.6719C32.2236 50.4379 32.5 50.2043 32.5 50.0004C32.5 49.8373 32.3233 49.6553 31.9988 49.4692ZM32.5 54.571V52.4455C31.4767 52.9638 30.1094 53.3608 28.5132 53.6238L27.9412 53.711C27.8443 53.7246 27.7467 53.7377 27.6484 53.7504L27.05 53.8207C26.7467 53.853 26.4373 53.881 26.1225 53.9046L25.4858 53.9462L24.8357 53.976C24.7263 53.98 24.6164 53.9835 24.506 53.9865L23.838 53.9985L23.5 54C23.3869 54 23.2742 53.9995 23.162 53.9985L22.494 53.9865C22.3836 53.9835 22.2737 53.98 22.1643 53.976L21.5142 53.9462L20.8775 53.9046C20.5627 53.881 20.2533 53.853 19.95 53.8207L19.3516 53.7504C19.155 53.7251 18.9612 53.6979 18.7705 53.6688L18.2078 53.5761C16.7311 53.3138 15.4631 52.9334 14.5 52.4455V54.571C14.5 54.9236 15.2555 55.536 16.7533 56.0495C18.5046 56.65 20.916 56.9997 23.5 56.9997C26.084 56.9997 28.4954 56.65 30.2467 56.0495C31.6613 55.5645 32.4138 54.9913 32.493 54.6321L32.5 54.571ZM55.5 43.9992C61.0229 43.9992 65.5 48.4766 65.5 53.9996C65.5 59.5226 61.0229 63.9999 55.5 63.9999C49.9772 63.9999 45.5 59.5226 45.5 53.9996C45.5 48.4766 49.9772 43.9992 55.5 43.9992Z" fill="#000091"/>
<path d="M61.9214 40.0933C61.4205 39.8606 60.8259 40.0781 60.5933 40.5791C60.3606 41.08 60.5781 41.6747 61.0791 41.9073C65.5635 43.9899 68.5002 48.355 68.5002 53.0007C68.5002 53.553 68.948 54.0007 69.5002 54.0007C70.0525 54.0007 70.5002 53.553 70.5002 53.0007C70.5002 47.5569 67.0954 42.4961 61.9214 40.0933Z" fill="#000091"/>
</svg>
