<svg width="140" height="100" viewBox="0 0 140 100" fill="none" xmlns="http://www.w3.org/2000/svg">
<path d="M42.3175 24.8635C42.8893 22.7296 45.0826 21.4633 47.2165 22.035L111.934 39.3759C114.067 39.9477 115.334 42.141 114.762 44.2749L106.48 75.1845C105.908 77.3184 103.715 78.5847 101.581 78.0129L36.8637 60.6721C34.7299 60.1003 33.4635 57.907 34.0353 55.7731L42.3175 24.8635Z" fill="white"/>
<path fill-rule="evenodd" clip-rule="evenodd" d="M110.898 43.2396L46.1812 25.8987L37.899 56.8084L102.616 74.1492L110.898 43.2396ZM47.2165 22.035C45.0826 21.4633 42.8893 22.7296 42.3175 24.8635L34.0353 55.7731C33.4635 57.907 34.7299 60.1003 36.8637 60.6721L101.581 78.0129C103.715 78.5847 105.908 77.3184 106.48 75.1845L114.762 44.2749C115.334 42.141 114.067 39.9477 111.934 39.3759L47.2165 22.035Z" fill="#E0E0E0"/>
<path d="M25.3543 30.6273C25.1586 28.4269 26.7838 26.4844 28.9843 26.2888L95.7209 20.3543C97.9214 20.1586 99.8638 21.7838 100.06 23.9843L102.894 55.8585C103.09 58.059 101.464 60.0014 99.2639 60.1971L32.5272 66.1316C30.3268 66.3272 28.3843 64.702 28.1887 62.5016L25.3543 30.6273Z" fill="white"/>
<path fill-rule="evenodd" clip-rule="evenodd" d="M96.0752 24.3386L29.3386 30.273L32.1729 62.1473L98.9096 56.2128L96.0752 24.3386ZM28.9843 26.2888C26.7838 26.4844 25.1586 28.4269 25.3543 30.6273L28.1887 62.5016C28.3843 64.702 30.3268 66.3272 32.5272 66.1316L99.2639 60.1971C101.464 60.0014 103.09 58.059 102.894 55.8585L100.06 23.9843C99.8638 21.7838 97.9214 20.1586 95.7209 20.3543L28.9843 26.2888Z" fill="#E0E0E0"/>
<path d="M33 30C33 27.7909 34.7909 26 37 26H104C106.209 26 108 27.7909 108 30V62C108 64.2091 106.209 66 104 66H37C34.7909 66 33 64.2091 33 62V30Z" fill="white"/>
<path fill-rule="evenodd" clip-rule="evenodd" d="M104 30H37L37 62H104V30ZM37 26C34.7909 26 33 27.7909 33 30V62C33 64.2091 34.7909 66 37 66H104C106.209 66 108 64.2091 108 62V30C108 27.7909 106.209 26 104 26H37Z" fill="#1B4991"/>
<path d="M37 30H58V62H37V30Z" fill="#FAD776"/>
<path d="M62 49H87V51H62V49Z" fill="#E0E0E0"/>
<path d="M62 53H83V55H62V53Z" fill="#E0E0E0"/>
<path d="M62 57H85V59H62V57Z" fill="#E0E0E0"/>
<path d="M54.032 38.4399L52.044 40.1899L50.854 38.8179L54.088 36.0879H56.048V45.9999H54.032V38.4399Z" fill="#1B4991"/>
<path d="M58.7472 41.0439C58.7472 40.4559 58.7985 39.8586 58.9012 39.2519C59.0132 38.6453 59.2045 38.0946 59.4752 37.5999C59.7552 37.1053 60.1332 36.7039 60.6092 36.3959C61.0852 36.0786 61.6918 35.9199 62.4292 35.9199C63.1665 35.9199 63.7732 36.0786 64.2492 36.3959C64.7252 36.7039 65.0985 37.1053 65.3692 37.5999C65.6492 38.0946 65.8405 38.6453 65.9432 39.2519C66.0552 39.8586 66.1112 40.4559 66.1112 41.0439C66.1112 41.6319 66.0552 42.2293 65.9432 42.8359C65.8405 43.4426 65.6492 43.9933 65.3692 44.4879C65.0985 44.9826 64.7252 45.3886 64.2492 45.7059C63.7732 46.0139 63.1665 46.1679 62.4292 46.1679C61.6918 46.1679 61.0852 46.0139 60.6092 45.7059C60.1332 45.3886 59.7552 44.9826 59.4752 44.4879C59.2045 43.9933 59.0132 43.4426 58.9012 42.8359C58.7985 42.2293 58.7472 41.6319 58.7472 41.0439ZM60.8472 41.0439C60.8472 41.3053 60.8565 41.6179 60.8752 41.9819C60.9032 42.3459 60.9685 42.6959 61.0712 43.0319C61.1738 43.3679 61.3278 43.6526 61.5332 43.8859C61.7478 44.1193 62.0465 44.2359 62.4292 44.2359C62.8025 44.2359 63.0965 44.1193 63.3112 43.8859C63.5258 43.6526 63.6845 43.3679 63.7872 43.0319C63.8898 42.6959 63.9505 42.3459 63.9692 41.9819C63.9972 41.6179 64.0112 41.3053 64.0112 41.0439C64.0112 40.7826 63.9972 40.4699 63.9692 40.1059C63.9505 39.7419 63.8898 39.3919 63.7872 39.0559C63.6845 38.7199 63.5258 38.4353 63.3112 38.2019C63.0965 37.9686 62.8025 37.8519 62.4292 37.8519C62.0465 37.8519 61.7478 37.9686 61.5332 38.2019C61.3278 38.4353 61.1738 38.7199 61.0712 39.0559C60.9685 39.3919 60.9032 39.7419 60.8752 40.1059C60.8565 40.4699 60.8472 40.7826 60.8472 41.0439Z" fill="#1B4991"/>
</svg>
