<svg width="81" height="80" viewBox="0 0 81 80" fill="none" xmlns="http://www.w3.org/2000/svg">
<path d="M41.0002 20.9001H46.8002C47.6002 20.9001 48.3002 21.2001 48.9002 21.8001C49.8002 22.7001 51.0002 23.2001 52.4002 23.2001H57.8002C58.3002 23.2001 58.7002 22.8001 58.7002 22.3001C58.7002 21.8001 58.3002 21.4001 57.8002 21.4001H52.4002C51.6002 21.4001 50.9002 21.1001 50.3002 20.5001C49.4002 19.6001 48.2002 19.1001 46.8002 19.1001H41.0002C37.8002 19.1001 35.2002 21.7001 35.2002 24.9001V28.3001C35.2002 31.4001 37.7002 34.0001 40.9002 34.0001L43.3002 34.1001C44.8002 34.1001 46.0002 35.4001 46.0002 36.8001V41.6001C46.0002 42.1001 46.4002 42.5001 46.9002 42.5001C47.4002 42.5001 47.8002 42.1001 47.8002 41.6001V36.8001C47.8002 34.3001 45.7002 32.1001 43.2002 32.1001L40.8002 32.0001C38.7002 31.9001 37.0002 30.2001 37.0002 28.1001V24.7001C37.1002 22.7001 38.9002 20.9001 41.0002 20.9001Z" fill="#000091"/>
<path d="M36.1005 58.5C34.0005 58.2 32.0005 57.7 29.8005 56.8C20.0005 52.7 14.2005 42.9 14.7005 32.8H17.0005C18.7005 32.8 20.5005 33.4 21.8005 34.5C24.8005 37 25.3005 41.4 23.1005 44.6L22.0005 46.2C21.7005 46.6 21.8005 47.2 22.2005 47.5C22.3005 47.6 22.5005 47.7 22.7005 47.7C23.0005 47.7 23.3005 47.6 23.5005 47.3L24.6005 45.7C27.4005 41.8 26.7005 36.2 23.0005 33C21.3005 31.6 19.1005 30.8 16.9005 30.8H14.7005C15.0005 28.5 15.6005 26.3 16.5005 24.1C19.1005 18 23.9005 13.2 30.0005 10.8C34.7005 8.90001 39.8005 8.50001 44.7005 9.50001V10.1C44.7005 10.6 44.3005 11.1 43.7005 11.1C42.1005 11.1 40.8005 12.4 40.8005 14V14.8C40.8005 16.4 42.1005 17.7 43.7005 17.7H44.2005C44.9005 17.7 45.7005 17.4 46.2005 16.9L48.6005 14.5C48.8005 14.4 49.1005 14.4 49.4005 14.6L53.0005 18.2C53.2005 18.4 53.4005 18.5 53.7005 18.5C54.0005 18.5 54.2005 18.4 54.4005 18.2C54.8005 17.8 54.8005 17.2 54.4005 16.9L50.8005 13.3C49.9005 12.4 48.5005 12.3 47.5005 13.1C47.4005 13.1 47.4005 13.2 47.4005 13.2L44.9005 15.7C44.7005 15.9 44.5005 16 44.2005 16H43.7005C43.2005 16 42.7005 15.5 42.7005 15V14.2C42.7005 13.7 43.1005 13.2 43.7005 13.2C45.3005 13.2 46.6005 11.9 46.6005 10.3V10.2C47.4005 10.5 48.2005 10.7 49.0005 11.1C58.8005 15.1 64.9005 24.8 64.3005 35.2C64.3005 35.7 64.7005 36.1 65.2005 36.2C65.7005 36.2 66.1005 35.8 66.2005 35.3C66.8005 24.1 60.3005 13.6 49.9005 9.30001C43.3005 6.50001 36.1005 6.50001 29.5005 9.10001C22.9005 11.8 17.7005 16.9 15.0005 23.5C9.30049 37.1 15.7005 52.8 29.2005 58.5C31.5005 59.5 33.7005 60.1 36.0005 60.4C36.1005 60.4 36.1005 60.4 36.1005 60.4C36.6005 60.4 37.0005 60.1 37.0005 59.6C37.1005 59.1 36.7005 58.6 36.1005 58.5Z" fill="#000091"/>
<path d="M63.1998 73.8002H45.7998C43.5998 73.8002 41.7998 72.0002 41.7998 69.8002V45.7002C41.7998 43.5002 43.5998 41.7002 45.7998 41.7002H63.1998C65.3998 41.7002 67.1998 43.5002 67.1998 45.7002V69.8002C67.1998 72.0002 65.3998 73.8002 63.1998 73.8002ZM45.7998 43.7002C44.6998 43.7002 43.7998 44.6002 43.7998 45.7002V69.8002C43.7998 70.9002 44.6998 71.8002 45.7998 71.8002H63.1998C64.2998 71.8002 65.1998 70.9002 65.1998 69.8002V45.7002C65.1998 44.6002 64.2998 43.7002 63.1998 43.7002H45.7998Z" fill="#000091"/>
<path d="M44.7996 43.9C44.3996 43.9 43.9996 43.6 43.8996 43.2C43.6996 42.7 43.9996 42.1 44.4996 41.9L57.8996 37.3C58.8996 37 59.9996 37.1 60.8996 37.7C61.7996 38.3 62.2996 39.3 62.2996 40.4V42.6C62.2996 43.2 61.8996 43.6 61.2996 43.6C60.6996 43.6 60.2996 43.2 60.2996 42.6V40.4C60.2996 40 60.0996 39.6 59.6996 39.3C59.2996 39 58.8996 39 58.4996 39.1L45.0996 43.7C44.9996 43.9 44.8996 43.9 44.7996 43.9Z" fill="#000091"/>
<path d="M54.5004 61.3001C50.3004 61.3001 46.9004 57.9001 46.9004 53.7001C46.9004 49.5001 50.3004 46.1001 54.5004 46.1001C58.7004 46.1001 62.1004 49.5001 62.1004 53.7001C62.1004 57.9001 58.6004 61.3001 54.5004 61.3001ZM54.5004 48.1001C51.4004 48.1001 48.9004 50.6001 48.9004 53.7001C48.9004 56.8001 51.4004 59.3001 54.5004 59.3001C57.6004 59.3001 60.1004 56.8001 60.1004 53.7001C60.1004 50.6001 57.5004 48.1001 54.5004 48.1001Z" fill="#E1000F"/>
<path d="M55.9003 61.2001C55.7003 61.2001 55.6003 61.2001 55.4003 61.1001C54.9003 60.8001 54.7003 60.2001 55.0003 59.7001C55.7003 58.4001 56.1003 56.2001 56.1003 53.7001C56.1003 51.2001 55.7003 49.0001 55.0003 47.7001C54.7003 47.2001 54.9003 46.6001 55.4003 46.3001C55.9003 46.0001 56.5003 46.2001 56.8003 46.7001C57.6003 48.3001 58.1003 50.8001 58.1003 53.6001C58.1003 56.4001 57.6003 59.0001 56.8003 60.5001C56.6003 61.0001 56.2003 61.2001 55.9003 61.2001Z" fill="#E1000F"/>
<path d="M53.1004 61.1998C52.7004 61.1998 52.4004 60.9998 52.2004 60.6998C51.4004 59.1998 50.9004 56.5998 50.9004 53.7998C50.9004 50.9998 51.4004 48.3998 52.2004 46.8998C52.5004 46.3998 53.1004 46.1998 53.6004 46.4998C54.1004 46.7998 54.3004 47.3998 54.0004 47.8998C53.3004 49.1998 52.9004 51.3998 52.9004 53.8998C52.9004 56.2998 53.3004 58.5998 54.0004 59.8998C54.3004 60.3998 54.1004 60.9998 53.6004 61.2998C53.4004 61.0998 53.2004 61.1998 53.1004 61.1998Z" fill="#E1000F"/>
<path d="M60.6998 54.6001H48.2998C47.6998 54.6001 47.2998 54.2001 47.2998 53.6001C47.2998 53.0001 47.6998 52.6001 48.2998 52.6001H60.6998C61.2998 52.6001 61.6998 53.0001 61.6998 53.6001C61.6998 54.2001 61.2998 54.6001 60.6998 54.6001Z" fill="#E1000F"/>
<path d="M58.4 65.3999H50.5C49.9 65.3999 49.5 64.9999 49.5 64.3999C49.5 63.7999 49.9 63.3999 50.5 63.3999H58.4C59 63.3999 59.4 63.7999 59.4 64.3999C59.4 64.9999 59 65.3999 58.4 65.3999Z" fill="#000091"/>
<path d="M59.5004 69.4998H49.5004C48.9004 69.4998 48.4004 68.9998 48.4004 68.3998C48.4004 67.7998 48.9004 67.2998 49.5004 67.2998H59.5004C60.1004 67.2998 60.6004 67.7998 60.6004 68.3998C60.6004 68.9998 60.1004 69.4998 59.5004 69.4998Z" fill="#E1000F"/>
</svg>
