<svg width="140" height="100" viewBox="0 0 140 100" fill="none" xmlns="http://www.w3.org/2000/svg">
<path fill-rule="evenodd" clip-rule="evenodd" d="M73 64C74.1046 64 75 64.8954 75 66L75 75C75 76.1046 74.1046 77 73 77C71.8954 77 71 76.1046 71 75L71 66C71 64.8954 71.8954 64 73 64Z" fill="#FAD776"/>
<path d="M53 76C53 74.8954 53.8954 74 55 74H91C92.1046 74 93 74.8954 93 76V80C93 81.1046 92.1046 82 91 82H55C53.8954 82 53 81.1046 53 80V76Z" fill="#FAD776"/>
<path fill-rule="evenodd" clip-rule="evenodd" d="M57.8474 18.7775C58.5563 19.6246 58.4443 20.886 57.5972 21.5949C55.1802 23.6176 53.1852 26.0966 51.7263 28.8903C50.2673 31.684 49.3729 34.7377 49.0941 37.8771C48.8153 41.0164 49.1576 44.18 50.1014 47.1871C51.0452 50.1942 52.572 52.9859 54.5947 55.4029C56.6175 57.8199 59.0965 59.8149 61.8902 61.2738C64.6839 62.7328 67.7376 63.6272 70.8769 63.906C74.0163 64.1848 77.1799 63.8426 80.187 62.8988C83.194 61.955 85.9858 60.4281 88.4028 58.4054C89.2499 57.6965 90.5112 57.8085 91.2201 58.6556C91.929 59.5027 91.817 60.764 90.9699 61.4729C88.1501 63.8328 84.893 65.6141 81.3848 66.7152C77.8765 67.8163 74.1857 68.2156 70.5231 67.8904C66.8605 67.5651 63.2978 66.5216 60.0385 64.8195C56.7792 63.1173 53.887 60.7899 51.5272 57.9701C49.1674 55.1502 47.386 51.8932 46.2849 48.3849C45.1838 44.8766 44.7845 41.1858 45.1098 37.5232C45.435 33.8606 46.4785 30.298 48.1807 27.0386C49.8828 23.7793 52.2102 20.8872 55.0301 18.5273C55.8771 17.8184 57.1385 17.9304 57.8474 18.7775Z" fill="#E0E0E0"/>
<path d="M95 40C95 52.1503 85.1503 62 73 62C60.8497 62 51 52.1503 51 40C51 27.8497 60.8497 18 73 18C85.1503 18 95 27.8497 95 40Z" fill="#1B4991"/>
<mask id="mask0_1451_1952" style="mask-type:alpha" maskUnits="userSpaceOnUse" x="51" y="18" width="44" height="44">
<path d="M95 40C95 52.1503 85.1503 62 73 62C60.8497 62 51 52.1503 51 40C51 27.8497 60.8497 18 73 18C85.1503 18 95 27.8497 95 40Z" fill="#1B4991"/>
</mask>
<g mask="url(#mask0_1451_1952)">
<path d="M71 29.9907V18.7483C71 18.5852 71.0399 18.4246 71.1162 18.2805L75.0551 10.8404C75.3043 10.3696 75.879 10.1768 76.3617 10.4021L104.87 23.7061C105.249 23.8828 105.478 24.2762 105.444 24.6927L103.074 54.0803C103.032 54.5998 102.599 55 102.077 55H89.4142C89.149 55 88.8946 54.8946 88.7071 54.7071L86.6959 52.6958C86.5677 52.5677 86.4071 52.4767 86.2313 52.4328L83.2575 51.6893C82.8123 51.578 82.5 51.1781 82.5 50.7192V42.0827C82.5 42.0276 82.5046 41.9727 82.5136 41.9183L83.7618 34.4291C83.8769 33.7388 83.2655 33.1469 82.5793 33.2841L76.9298 34.414C76.6558 34.4688 76.3715 34.4065 76.1455 34.2422L71.4118 30.7995C71.1531 30.6113 71 30.3107 71 29.9907Z" fill="#FAD776"/>
<path d="M65.9681 49.6115L64.3874 60.7422C64.3645 60.9037 64.3024 61.0572 64.2066 61.1891L59.2607 68.0015C58.9478 68.4326 58.3517 68.5426 57.9054 68.2517L31.5507 51.0714C31.2007 50.8433 31.0294 50.4216 31.1212 50.014L37.5997 21.2515C37.7142 20.7431 38.1999 20.4079 38.7159 20.4811L51.2533 22.2616C51.5158 22.2989 51.7529 22.439 51.9122 22.651L53.6206 24.9251C53.7295 25.07 53.8757 25.1826 54.0436 25.2508L56.8834 26.405C57.3085 26.5778 57.5614 27.0177 57.4969 27.4721L56.2826 36.0227C56.2748 36.0772 56.2626 36.1311 56.246 36.1836L53.9572 43.4229C53.7462 44.0902 54.2682 44.7622 54.9669 44.7228L60.7192 44.3984C60.9981 44.3827 61.2709 44.4844 61.4715 44.6789L65.6741 48.7529C65.9038 48.9756 66.0131 49.2948 65.9681 49.6115Z" fill="#FAD776"/>
</g>
</svg>
