<svg width="140" height="100" viewBox="0 0 140 100" fill="none" xmlns="http://www.w3.org/2000/svg">
<path d="M95 28C95 33.5228 90.5228 38 85 38C79.4772 38 75 33.5228 75 28C75 22.4772 79.4772 18 85 18C90.5228 18 95 22.4772 95 28Z" fill="white"/>
<path fill-rule="evenodd" clip-rule="evenodd" d="M85 34C88.3137 34 91 31.3137 91 28C91 24.6863 88.3137 22 85 22C81.6863 22 79 24.6863 79 28C79 31.3137 81.6863 34 85 34ZM85 38C90.5228 38 95 33.5228 95 28C95 22.4772 90.5228 18 85 18C79.4772 18 75 22.4772 75 28C75 33.5228 79.4772 38 85 38Z" fill="#1B4991"/>
<path d="M73 52C73 45.3726 78.3726 40 85 40C91.6274 40 97 45.3726 97 52V60C97 66.6274 91.6274 72 85 72C78.3726 72 73 66.6274 73 60V52Z" fill="#1B4991"/>
<path fill-rule="evenodd" clip-rule="evenodd" d="M93 60V52C93 47.5817 89.4183 44 85 44C80.5817 44 77 47.5817 77 52V60C77 64.4183 80.5817 68 85 68C89.4183 68 93 64.4183 93 60ZM85 40C78.3726 40 73 45.3726 73 52V60C73 66.6274 78.3726 72 85 72C91.6274 72 97 66.6274 97 60V52C97 45.3726 91.6274 40 85 40Z" fill="#1B4991"/>
<path d="M65 28C65 33.5228 60.5228 38 55 38C49.4772 38 45 33.5228 45 28C45 22.4772 49.4772 18 55 18C60.5228 18 65 22.4772 65 28Z" fill="white"/>
<path fill-rule="evenodd" clip-rule="evenodd" d="M55 34C58.3137 34 61 31.3137 61 28C61 24.6863 58.3137 22 55 22C51.6863 22 49 24.6863 49 28C49 31.3137 51.6863 34 55 34ZM55 38C60.5228 38 65 33.5228 65 28C65 22.4772 60.5228 18 55 18C49.4772 18 45 22.4772 45 28C45 33.5228 49.4772 38 55 38Z" fill="#1B4991"/>
<path d="M43 52C43 45.3726 48.3726 40 55 40C61.6274 40 67 45.3726 67 52V60C67 66.6274 61.6274 72 55 72C48.3726 72 43 66.6274 43 60V52Z" fill="#1B4991"/>
<path fill-rule="evenodd" clip-rule="evenodd" d="M63 60V52C63 47.5817 59.4183 44 55 44C50.5817 44 47 47.5817 47 52V60C47 64.4183 50.5817 68 55 68C59.4183 68 63 64.4183 63 60ZM55 40C48.3726 40 43 45.3726 43 52V60C43 66.6274 48.3726 72 55 72C61.6274 72 67 66.6274 67 60V52C67 45.3726 61.6274 40 55 40Z" fill="#1B4991"/>
<path d="M78 42C78 46.4183 74.4183 50 70 50C65.5817 50 62 46.4183 62 42C62 37.5817 65.5817 34 70 34C74.4183 34 78 37.5817 78 42Z" fill="white"/>
<path fill-rule="evenodd" clip-rule="evenodd" d="M70 46C72.2091 46 74 44.2091 74 42C74 39.7909 72.2091 38 70 38C67.7909 38 66 39.7909 66 42C66 44.2091 67.7909 46 70 46ZM70 50C74.4183 50 78 46.4183 78 42C78 37.5817 74.4183 34 70 34C65.5817 34 62 37.5817 62 42C62 46.4183 65.5817 50 70 50Z" fill="#FAD776"/>
<path d="M62 59.5C62 55.3579 65.3579 52 69.5 52H70.5C74.6421 52 78 55.3579 78 59.5V66.5C78 70.6421 74.6421 74 70.5 74H69.5C65.3579 74 62 70.6421 62 66.5V59.5Z" fill="#FAD776"/>
</svg>
