<svg width="81" height="80" viewBox="0 0 81 80" fill="none" xmlns="http://www.w3.org/2000/svg">
<path d="M58.8003 38C58.2003 38 57.8003 37.6 57.8003 37V28.2H45.2003C44.9003 28.2 44.6003 28.1 44.4003 27.8L31.5003 12.6L23.1003 22.8C22.7003 23.2 22.1003 23.3 21.7003 22.9C21.3003 22.5 21.2003 21.9 21.6003 21.5L30.8003 10.4C31.0003 10.2 31.2003 10 31.6003 10C31.9003 10 32.2003 10.1 32.4003 10.4L45.8003 26.3H59.0003C59.6003 26.3 60.0003 26.7 60.0003 27.3V37C59.8003 37.6 59.3003 38 58.8003 38Z" fill="#000091"/>
<path d="M5.5 60.3998C4.9 60.3998 4.5 59.9998 4.5 59.3998V27.1998C4.5 26.5998 4.9 26.1998 5.5 26.1998H17.3L19 24.7998C19.4 24.4998 20.1 24.4998 20.4 24.8998C20.7 25.2998 20.7 25.9998 20.3 26.2998L18.3 27.8998C18.1 27.9998 17.9 28.0998 17.7 28.0998H6.5V59.2998C6.5 59.9998 6 60.3998 5.5 60.3998Z" fill="#000091"/>
<path d="M17.1004 66H8.90039C8.30039 66 7.90039 65.6 7.90039 65C7.90039 64.4 8.30039 64 8.90039 64H17.1004C17.7004 64 18.1004 64.4 18.1004 65C18.1004 65.6 17.7004 66 17.1004 66Z" fill="#000091"/>
<path d="M58.7998 66.0001H22.2998C21.6998 66.0001 21.2998 65.6001 21.2998 65.0001C21.2998 64.4001 21.6998 64.0001 22.2998 64.0001H57.7998V60.6001C57.7998 60.0001 58.1998 59.6001 58.7998 59.6001C59.3998 59.6001 59.7998 60.0001 59.7998 60.6001V65.0001C59.7998 65.5001 59.2998 66.0001 58.7998 66.0001Z" fill="#000091"/>
<path d="M32.0002 33.9999C28.8002 33.9999 26.2002 31.3999 26.2002 28.1999C26.2002 24.9999 28.8002 22.3999 32.0002 22.3999C35.2002 22.3999 37.8002 24.9999 37.8002 28.1999C37.8002 31.3999 35.2002 33.9999 32.0002 33.9999ZM32.0002 24.3999C29.9002 24.3999 28.2002 26.0999 28.2002 28.1999C28.2002 30.2999 29.9002 31.9999 32.0002 31.9999C34.1002 31.9999 35.8002 30.2999 35.8002 28.1999C35.8002 26.0999 34.1002 24.3999 32.0002 24.3999Z" fill="#000091"/>
<path d="M33.2004 30.4999H30.9004C30.3004 30.4999 29.9004 30.0999 29.9004 29.4999V26.8999C29.9004 26.2999 30.3004 25.8999 30.9004 25.8999C31.5004 25.8999 31.9004 26.2999 31.9004 26.8999V28.4999H33.2004C33.8004 28.4999 34.2004 28.8999 34.2004 29.4999C34.2004 30.0999 33.7004 30.4999 33.2004 30.4999Z" fill="#000091"/>
<path d="M15.0998 23.4998C14.8998 23.4998 14.5998 23.3998 14.3998 23.1998C13.9998 22.7998 13.9998 22.1998 14.2998 21.7998L22.6998 12.3998C23.0998 11.9998 23.6998 11.9998 24.0998 12.2998C24.4998 12.6998 24.4998 13.2998 24.1998 13.6998L15.7998 23.0998C15.6998 23.3998 15.3998 23.4998 15.0998 23.4998Z" fill="#E1000F"/>
<path d="M46 42C43 42 40.5 39.5 40.5 36.5C40.5 33.5 43 31 46 31C49 31 51.5 33.5 51.5 36.5C51.5 39.5 49.1 42 46 42ZM46 33.1C44.1 33.1 42.5 34.7 42.5 36.6C42.5 38.5 44.1 40.1 46 40.1C47.9 40.1 49.5 38.5 49.5 36.6C49.5 34.6 48 33.1 46 33.1Z" fill="#E1000F"/>
<path d="M37.9004 60.7998C37.3004 60.7998 36.9004 60.3998 36.9004 59.7998C36.9004 51.8998 38.2004 46.7998 40.9004 44.4998C42.3004 43.2998 43.5004 43.2998 43.9004 43.2998H48.7004C49.3004 43.2998 52.3004 43.3998 54.1004 48.4998C54.3004 48.9998 54.0004 49.5998 53.5004 49.7998C53.0004 49.9998 52.4004 49.6998 52.2004 49.1998C50.8004 45.1998 48.8004 45.2998 48.8004 45.2998H48.7004H43.9004H43.8004C43.7004 45.2998 43.1004 45.2998 42.2004 46.0998C41.0004 47.1998 39.0004 50.4998 39.0004 59.7998C38.9004 60.2998 38.5004 60.7998 37.9004 60.7998Z" fill="#E1000F"/>
<path d="M68.3 43.3002C65.6 43.3002 63.5 41.1002 63.5 38.5002C63.5 35.8002 65.7 33.7002 68.3 33.7002C71 33.7002 73.1 35.9002 73.1 38.5002C73.2 41.2002 71 43.3002 68.3 43.3002ZM68.3 35.7002C66.7 35.7002 65.5 37.0002 65.5 38.5002C65.5 40.0002 66.8 41.3002 68.3 41.3002C69.9 41.3002 71.1 40.0002 71.1 38.5002C71.1 37.0002 69.9 35.7002 68.3 35.7002Z" fill="#E1000F"/>
<path d="M75.5003 59.3001C74.9003 59.3001 74.5003 58.9001 74.5003 58.3001C74.5003 50.5001 72.8003 47.7001 71.8003 46.8001C71.1003 46.1001 70.5003 46.1001 70.4003 46.1001H66.1003H66.0003C66.0003 46.1001 64.3003 46.0001 63.1003 49.3001C62.9003 49.8001 62.3003 50.1001 61.8003 49.9001C61.3003 49.7001 61.0003 49.1001 61.2003 48.6001C62.8003 44.2001 65.5003 44.1001 66.1003 44.1001H70.3003C70.6003 44.1001 71.8003 44.1001 73.0003 45.2001C75.3003 47.2001 76.5003 51.6001 76.5003 58.3001C76.5003 58.9001 76.1003 59.3001 75.5003 59.3001Z" fill="#E1000F"/>
<path d="M57.7002 48.3999C55.8002 48.3999 54.2002 46.7999 54.2002 44.8999C54.2002 42.9999 55.8002 41.3999 57.7002 41.3999C59.6002 41.3999 61.2002 42.9999 61.2002 44.8999C61.2002 46.7999 59.6002 48.3999 57.7002 48.3999ZM57.7002 43.2999C56.9002 43.2999 56.2002 43.9999 56.2002 44.7999C56.2002 45.5999 56.9002 46.2999 57.7002 46.2999C58.5002 46.2999 59.2002 45.5999 59.2002 44.7999C59.2002 43.9999 58.5002 43.2999 57.7002 43.2999Z" fill="#E1000F"/>
<path d="M62.1998 59.7002C61.5998 59.7002 61.1998 59.3002 61.1998 58.7002C61.1998 51.3002 59.0998 51.0002 59.0998 51.0002H56.4998H56.3998C56.3998 51.0002 54.2998 51.3002 54.2998 58.7002C54.2998 59.3002 53.8998 59.7002 53.2998 59.7002C52.6998 59.7002 52.2998 59.3002 52.2998 58.7002C52.2998 54.1002 53.0998 51.1002 54.5998 49.8002C55.3998 49.1002 56.1998 49.0002 56.4998 49.1002H58.9998C59.2998 49.1002 60.0998 49.1002 60.8998 49.8002C62.4998 51.2002 63.1998 54.2002 63.1998 58.7002C63.1998 59.3002 62.6998 59.7002 62.1998 59.7002Z" fill="#E1000F"/>
<path d="M30.1 60.6001H13C12.4 60.6001 12 60.2001 12 59.6001C12 59.0001 12.4 58.6001 13 58.6001H30.1C30.7 58.6001 31.1 59.0001 31.1 59.6001C31.1 60.2001 30.6 60.6001 30.1 60.6001Z" fill="#000091"/>
<path d="M27.9 59.7C27.3 59.7 26.9 59.3 26.9 58.7V46.5H16V58.7C16 59.3 15.6 59.7 15 59.7C14.4 59.7 14 59.3 14 58.7V45.5C14 44.9 14.4 44.5 15 44.5H27.9C28.5 44.5 28.9 44.9 28.9 45.5V58.7C28.9 59.2 28.4 59.7 27.9 59.7Z" fill="#000091"/>
<path d="M21.4004 59.6C20.8004 59.6 20.4004 59.2 20.4004 58.6V45.5C20.4004 44.9 20.8004 44.5 21.4004 44.5C22.0004 44.5 22.4004 44.9 22.4004 45.5V58.6C22.4004 59.2 22.0004 59.6 21.4004 59.6Z" fill="#000091"/>
</svg>
