<svg width="282" height="248" viewBox="0 0 282 248" fill="none" xmlns="http://www.w3.org/2000/svg">
<path fill-rule="evenodd" clip-rule="evenodd" d="M221.715 40.3004C220.006 40.3004 218.615 38.9097 218.615 37.2004C218.615 35.4909 220.006 34.1004 221.715 34.1004C223.425 34.1004 224.815 35.4909 224.815 37.2004C224.815 38.9097 223.425 40.3004 221.715 40.3004Z" fill="#CACAFB"/>
<path fill-rule="evenodd" clip-rule="evenodd" d="M138.015 235.6C136.306 235.6 134.915 234.21 134.915 232.5C134.915 230.791 136.306 229.4 138.015 229.4C139.724 229.4 141.115 230.791 141.115 232.5C141.115 234.21 139.724 235.6 138.015 235.6Z" fill="#CACAFB"/>
<path fill-rule="evenodd" clip-rule="evenodd" d="M57.4154 31.0004C55.7061 31.0004 54.3154 29.6098 54.3154 27.9004C54.3154 26.1909 55.7061 24.8004 57.4154 24.8004C59.1248 24.8004 60.5154 26.1909 60.5154 27.9004C60.5154 29.6098 59.1248 31.0004 57.4154 31.0004Z" fill="#CACAFB"/>
<path d="M127.616 142.884C125.507 142.884 123.761 141.248 123.624 139.144L122.828 126.916C122.69 124.788 124.252 122.938 126.358 122.604C142.095 120.108 150.632 113.907 150.632 102.438C150.632 93.0749 143.684 86.0522 134.29 86.0522C127.442 86.0522 122.49 88.8309 117.807 94.3885C116.444 96.0057 114.107 96.4892 112.316 95.3641L109.53 93.6137C107.598 92.3996 107.055 89.8013 108.513 88.0453C114.863 80.3965 123.031 75.7782 134.676 75.7782C150.117 75.7782 162.47 86.9625 162.47 102.308C162.47 117.322 151.702 126.951 136.123 130.55C134.308 130.97 132.931 132.497 132.829 134.357L132.568 139.104C132.451 141.224 130.698 142.884 128.574 142.884H127.616ZM128.242 170.845C123.739 170.845 120.007 167.073 120.007 162.522C120.007 158.1 123.739 154.328 128.242 154.328C132.746 154.328 136.478 158.1 136.478 162.522C136.478 167.073 132.746 170.845 128.242 170.845Z" fill="#E1000F"/>
<path d="M46.3808 139.611C37.7591 90.7152 70.408 44.0879 119.304 35.4662C150.369 29.9885 181.505 41.1317 202.103 64.2517C203.242 65.53 203.129 67.4895 201.851 68.6284C200.573 69.7673 198.613 69.6543 197.474 68.3759C178.292 46.8447 149.307 36.4715 120.381 41.572C74.8567 49.5991 44.4595 93.0108 52.4866 138.535C60.5137 184.059 103.925 214.456 149.449 206.429C194.973 198.402 225.371 154.99 217.343 109.466C217.046 107.78 218.172 106.172 219.858 105.875C221.544 105.577 223.152 106.703 223.449 108.389C232.071 157.285 199.422 203.913 150.526 212.535C101.63 221.156 55.0025 188.507 46.3808 139.611Z" fill="#000091"/>
<path d="M228.609 145.466C228.99 143.797 230.652 142.752 232.321 143.133C233.99 143.514 235.035 145.175 234.654 146.845C230.484 165.123 221.35 181.816 208.363 195.209C207.171 196.438 205.208 196.469 203.979 195.277C202.75 194.085 202.72 192.122 203.912 190.893C216.114 178.309 224.694 162.63 228.609 145.466Z" fill="#000091"/>
<path d="M234.115 130.2C232.403 130.2 231.015 131.588 231.015 133.3C231.015 135.012 232.403 136.4 234.115 136.4C235.827 136.4 237.215 135.012 237.215 133.3C237.215 131.588 235.827 130.2 234.115 130.2Z" fill="#000091"/>
</svg>
