<svg width="140" height="100" viewBox="0 0 140 100" fill="none" xmlns="http://www.w3.org/2000/svg">
<path fill-rule="evenodd" clip-rule="evenodd" d="M43.4371 30.8921C44.4251 31.3812 44.8255 32.5706 44.3315 33.5488L33.3315 55.331C32.8376 56.3092 31.6362 56.7057 30.6482 56.2166C29.6603 55.7275 29.2598 54.538 29.7538 53.5599L40.7538 31.7777C41.2478 30.7995 42.4491 30.403 43.4371 30.8921Z" fill="#E0E0E0"/>
<path fill-rule="evenodd" clip-rule="evenodd" d="M40.6482 30.8921C39.6603 31.3812 39.2598 32.5706 39.7538 33.5488L50.7538 55.331C51.2478 56.3092 52.4491 56.7057 53.4371 56.2166C54.425 55.7275 54.8255 54.538 54.3315 53.5599L43.3315 31.7777C42.8375 30.7995 41.6362 30.403 40.6482 30.8921Z" fill="#E0E0E0"/>
<path d="M52.5427 52.4653C54.7518 52.4653 56.5984 54.2757 55.956 56.3684C55.8102 56.8431 55.6377 57.311 55.4389 57.7699C54.7102 59.4516 53.6422 60.9797 52.2957 62.2668C50.9493 63.554 49.3508 64.575 47.5916 65.2716C45.8323 65.9682 43.9468 66.3267 42.0427 66.3267C40.1385 66.3267 38.253 65.9682 36.4937 65.2716C34.7345 64.575 33.1361 63.554 31.7896 62.2668C30.4432 60.9797 29.3751 59.4516 28.6464 57.7699C28.4476 57.311 28.2751 56.8431 28.1294 56.3684C27.4869 54.2757 29.3335 52.4653 31.5427 52.4653L52.5427 52.4653Z" fill="white"/>
<path fill-rule="evenodd" clip-rule="evenodd" d="M51.6655 56.4257L32.4198 56.4257C32.9324 57.5327 33.6585 58.5483 34.568 59.4177C35.537 60.344 36.6949 61.0859 37.9791 61.5944C39.2635 62.1029 40.6447 62.3663 42.0427 62.3663C43.4406 62.3663 44.8218 62.1029 46.1062 61.5944C47.3904 61.0859 48.5483 60.344 49.5173 59.4177C50.4268 58.5483 51.1529 57.5327 51.6655 56.4257ZM31.5427 56.4257H31.5447C31.5348 56.4276 31.5336 56.4257 31.5427 56.4257ZM52.5406 56.4257H52.5427C52.5517 56.4257 52.5505 56.4276 52.5406 56.4257ZM55.956 56.3684C56.5984 54.2757 54.7518 52.4653 52.5427 52.4653H31.5427C29.3335 52.4653 27.4869 54.2757 28.1294 56.3684C28.2751 56.8431 28.4476 57.311 28.6464 57.7699C29.3751 59.4516 30.4432 60.9797 31.7896 62.2668C33.1361 63.554 34.7345 64.575 36.4937 65.2716C38.253 65.9682 40.1385 66.3267 42.0427 66.3267C43.9468 66.3267 45.8323 65.9682 47.5916 65.2716C49.3508 64.575 50.9493 63.554 52.2957 62.2668C53.6422 60.9797 54.7102 59.4516 55.4389 57.7699C55.6377 57.311 55.8102 56.8431 55.956 56.3684Z" fill="#1B4991"/>
<path fill-rule="evenodd" clip-rule="evenodd" d="M98.4371 30.8921C99.4251 31.3812 99.8255 32.5706 99.3315 33.5488L88.3315 55.331C87.8376 56.3092 86.6362 56.7057 85.6482 56.2166C84.6603 55.7275 84.2598 54.538 84.7538 53.5599L95.7538 31.7777C96.2478 30.7995 97.4491 30.403 98.4371 30.8921Z" fill="#E0E0E0"/>
<path fill-rule="evenodd" clip-rule="evenodd" d="M95.6482 30.8921C94.6603 31.3812 94.2598 32.5706 94.7538 33.5488L105.754 55.331C106.248 56.3092 107.449 56.7057 108.437 56.2166C109.425 55.7275 109.825 54.538 109.332 53.5599L98.3315 31.7777C97.8375 30.7995 96.6362 30.403 95.6482 30.8921Z" fill="#E0E0E0"/>
<path d="M107.543 52.4653C109.752 52.4653 111.598 54.2757 110.956 56.3684C110.81 56.8431 110.638 57.311 110.439 57.7699C109.71 59.4516 108.642 60.9797 107.296 62.2668C105.949 63.554 104.351 64.575 102.592 65.2716C100.832 65.9682 98.9468 66.3267 97.0427 66.3267C95.1385 66.3267 93.253 65.9682 91.4937 65.2716C89.7345 64.575 88.1361 63.554 86.7896 62.2668C85.4432 60.9797 84.3751 59.4516 83.6464 57.7699C83.4476 57.311 83.2751 56.8431 83.1294 56.3684C82.4869 54.2757 84.3335 52.4653 86.5427 52.4653L107.543 52.4653Z" fill="white"/>
<path fill-rule="evenodd" clip-rule="evenodd" d="M106.666 56.4257L87.4198 56.4257C87.9324 57.5327 88.6585 58.5483 89.568 59.4177C90.537 60.344 91.6949 61.0859 92.9791 61.5944C94.2635 62.1029 95.6447 62.3663 97.0427 62.3663C98.4406 62.3663 99.8218 62.1029 101.106 61.5944C102.39 61.0859 103.548 60.344 104.517 59.4177C105.427 58.5483 106.153 57.5327 106.666 56.4257ZM86.5427 56.4257H86.5447C86.5348 56.4276 86.5336 56.4257 86.5427 56.4257ZM107.541 56.4257H107.543C107.552 56.4257 107.551 56.4276 107.541 56.4257ZM110.956 56.3684C111.598 54.2757 109.752 52.4653 107.543 52.4653H86.5427C84.3335 52.4653 82.4869 54.2757 83.1294 56.3684C83.2751 56.8431 83.4476 57.311 83.6464 57.7699C84.3751 59.4516 85.4432 60.9797 86.7896 62.2668C88.1361 63.554 89.7345 64.575 91.4937 65.2716C93.253 65.9682 95.1385 66.3267 97.0427 66.3267C98.9468 66.3267 100.832 65.9682 102.592 65.2716C104.351 64.575 105.949 63.554 107.296 62.2668C108.642 60.9797 109.71 59.4516 110.439 57.7699C110.638 57.311 110.81 56.8431 110.956 56.3684Z" fill="#1B4991"/>
<path fill-rule="evenodd" clip-rule="evenodd" d="M69.5427 21.7722C70.6473 21.7722 71.5427 22.6588 71.5427 23.7524V70.2871C71.5427 71.3807 70.6473 72.2673 69.5427 72.2673C68.4382 72.2673 67.5427 71.3807 67.5427 70.2871V23.7524C67.5427 22.6588 68.4382 21.7722 69.5427 21.7722Z" fill="#FAD776"/>
<path fill-rule="evenodd" clip-rule="evenodd" d="M35.5427 32.6634C35.5427 31.5697 36.4382 30.6832 37.5427 30.6832L101.543 30.6832C102.647 30.6832 103.543 31.5697 103.543 32.6634C103.543 33.757 102.647 34.6436 101.543 34.6436L37.5427 34.6436C36.4382 34.6436 35.5427 33.757 35.5427 32.6634Z" fill="#1B4991"/>
<path d="M49.5427 71.2771C49.5427 70.1834 50.4382 69.2969 51.5427 69.2969H87.5427C88.6473 69.2969 89.5427 70.1834 89.5427 71.2771V75.2375C89.5427 76.3311 88.6473 77.2177 87.5427 77.2177H51.5427C50.4382 77.2177 49.5427 76.3311 49.5427 75.2375V71.2771Z" fill="#FAD776"/>
</svg>
