<svg width="81" height="80" viewBox="0 0 81 80" fill="none" xmlns="http://www.w3.org/2000/svg">
<path fill-rule="evenodd" clip-rule="evenodd" d="M6.5 14C5.9486 14 5.5 13.5514 5.5 13C5.5 12.4486 5.9486 12 6.5 12C7.0514 12 7.5 12.4486 7.5 13C7.5 13.5514 7.0514 14 6.5 14Z" fill="#CACAFB"/>
<path fill-rule="evenodd" clip-rule="evenodd" d="M59.5 73C58.9486 73 58.5 72.5514 58.5 72C58.5 71.4486 58.9486 71 59.5 71C60.0514 71 60.5 71.4486 60.5 72C60.5 72.5514 60.0514 73 59.5 73Z" fill="#CACAFB"/>
<path fill-rule="evenodd" clip-rule="evenodd" d="M63.5 9C62.9486 9 62.5 8.5514 62.5 8C62.5 7.44855 62.9486 7 63.5 7C64.0514 7 64.5 7.44855 64.5 8C64.5 8.5514 64.0514 9 63.5 9Z" fill="#CACAFB"/>
<path fill-rule="evenodd" clip-rule="evenodd" d="M75.5 51C74.9486 51 74.5 50.5514 74.5 50C74.5 49.4486 74.9486 49 75.5 49C76.0514 49 76.5 49.4486 76.5 50C76.5 50.5514 76.0514 51 75.5 51Z" fill="#CACAFB"/>
<path fill-rule="evenodd" clip-rule="evenodd" d="M28.5306 46.7556C28.6655 46.2201 29.2091 45.8954 29.7446 46.0303C30.2802 46.1653 30.6049 46.7088 30.4699 47.2444C29.4696 51.2141 25.8205 54 21.5003 54C17.2917 54 13.716 51.227 12.5419 47.2855C12.3842 46.7562 12.6855 46.1993 13.2148 46.0416C13.7441 45.884 14.301 46.1852 14.4586 46.7145C15.3845 49.8226 18.1922 52 21.5003 52C24.9122 52 27.7562 49.8288 28.5306 46.7556ZM66.5306 46.7556C66.6655 46.2201 67.2091 45.8954 67.7446 46.0303C68.2802 46.1653 68.6049 46.7088 68.4699 47.2444C67.4696 51.2141 63.8205 54 59.5003 54C55.2917 54 51.716 51.227 50.5419 47.2855C50.3842 46.7562 50.6855 46.1993 51.2148 46.0416C51.7441 45.884 52.301 46.1852 52.4586 46.7145C53.3845 49.8226 56.1922 52 59.5003 52C62.9122 52 65.7562 49.8288 66.5306 46.7556ZM59.5003 32C60.0131 32 60.4358 32.386 60.4935 32.8834L60.5003 33V36.585L66.2074 42.2929C66.5979 42.6834 66.5979 43.3166 66.2074 43.7071C65.8469 44.0676 65.2797 44.0953 64.8874 43.7903L64.7932 43.7071L59.5003 38.415L54.2074 43.7071C53.8168 44.0976 53.1837 44.0976 52.7932 43.7071C52.4327 43.3466 52.4049 42.7794 52.71 42.3871L52.7932 42.2929L58.5003 36.584V33C58.5003 32.4477 58.948 32 59.5003 32ZM21.5003 32C22.0131 32 22.4358 32.386 22.4935 32.8834L22.5003 33V36.585L26.2467 40.3322C26.6372 40.7228 26.6372 41.3559 26.2467 41.7465C25.8862 42.1069 25.319 42.1347 24.9267 41.8296L24.8325 41.7465L21.5003 38.414L16.2074 43.7071C15.8168 44.0976 15.1837 44.0976 14.7932 43.7071C14.4327 43.3466 14.4049 42.7794 14.71 42.3871L14.7932 42.2929L20.5003 36.584V33C20.5003 32.4477 20.948 32 21.5003 32ZM28.2074 42.2929C28.5979 42.6834 28.5979 43.3166 28.2074 43.7071C27.8168 44.0976 27.1837 44.0976 26.7932 43.7071C26.4026 43.3166 26.4026 42.6834 26.7932 42.2929C27.1837 41.9024 27.8168 41.9024 28.2074 42.2929Z" fill="#E1000F"/>
<path fill-rule="evenodd" clip-rule="evenodd" d="M40.5 12C38.2909 12 36.5 13.7909 36.5 16C36.5 17.8324 37.7321 19.377 39.413 19.8505C38.867 22.4675 35.7712 24.4873 30.7094 25.8844L29.9819 26.0774L29.2286 26.2622C28.4626 26.4429 27.6585 26.6111 26.8179 26.7667C23.9091 27.3054 20.7838 27.6526 17.6571 27.8456C17.2921 27.8682 16.9357 27.888 16.5891 27.9054L15.5793 27.9501C15.2531 27.9626 14.9376 27.9728 14.6337 27.9808L14.1839 27.9913L13.5457 27.9999L13.3834 28.0067C12.886 28.0645 12.5 28.4872 12.5 29C12.5 29.5523 12.9477 30 13.5 30L14.4476 29.9861L15.1624 29.9661L16.1639 29.9276L17.2273 29.8744L17.7804 29.8419C20.9819 29.6442 24.1847 29.2884 27.1821 28.7333C27.7556 28.6271 28.3147 28.5152 28.8589 28.3974L29.6639 28.2162C34.1332 27.1712 37.5179 25.6998 39.5 23.6909V41L39.5067 41.1166C39.5645 41.614 39.9872 42 40.5 42C41.0523 42 41.5 41.5523 41.5 41V23.6909C43.4821 25.6998 46.8668 27.1712 51.3361 28.2162L52.1411 28.3974C52.6853 28.5152 53.2444 28.6271 53.8179 28.7333C56.8153 29.2884 60.0181 29.6442 63.2196 29.8419L63.7727 29.8744L64.8361 29.9276L65.8376 29.9661L66.5524 29.9861L67.5 30C68.0523 30 68.5 29.5523 68.5 29C68.5 28.4872 68.114 28.0645 67.6166 28.0067L67.4543 27.9999L66.8161 27.9913L66.3663 27.9808C66.0624 27.9728 65.7469 27.9626 65.4207 27.9501L64.4109 27.9054C64.0643 27.888 63.7079 27.8682 63.3429 27.8456C60.2162 27.6526 57.0909 27.3054 54.1821 26.7667C53.3415 26.6111 52.5374 26.4429 51.7714 26.2622L51.0181 26.0774L50.2906 25.8844C45.2288 24.4873 42.133 22.4675 41.587 19.8505C43.2679 19.377 44.5 17.8324 44.5 16C44.5 13.7909 42.7091 12 40.5 12ZM42.5 16C42.5 14.8954 41.6046 14 40.5 14C39.3954 14 38.5 14.8954 38.5 16C38.5 17.1046 39.3954 18 40.5 18C41.6046 18 42.5 17.1046 42.5 16Z" fill="#000091"/>
<path d="M40.5 52C41.0128 52 41.4355 52.386 41.4933 52.8834L41.5 53V58H51.5C52.0523 58 52.5 58.4477 52.5 59C52.5 59.5128 52.114 59.9355 51.6166 59.9933L51.5 60H31.4091C30.9528 60 30.5601 60.3773 30.5063 60.8815L30.5 61V62H61.5C63.0977 62 64.4037 63.2489 64.4949 64.8237L64.5 65V66H67.5C68.0523 66 68.5 66.4477 68.5 67C68.5 67.5128 68.114 67.9355 67.6166 67.9933L67.5 68H49.5C48.9477 68 48.5 67.5523 48.5 67C48.5 66.4872 48.886 66.0645 49.3834 66.0067L49.5 66H62.5V65C62.5 64.4872 62.114 64.0645 61.6166 64.0067L61.5 64H19.5C18.9872 64 18.5645 64.386 18.5067 64.8834L18.5 65V66H25.5C26.0523 66 26.5 66.4477 26.5 67C26.5 67.5128 26.114 67.9355 25.6166 67.9933L25.5 68H13.5C12.9477 68 12.5 67.5523 12.5 67C12.5 66.4872 12.886 66.0645 13.3834 66.0067L13.5 66H16.5V65C16.5 63.4023 17.7489 62.0963 19.3237 62.0051L19.5 62H28.5V61C28.5 59.4121 29.7012 58.097 31.2371 58.0051L31.4091 58H39.5V53C39.5 52.4477 39.9477 52 40.5 52Z" fill="#000091"/>
<path d="M40.5 50C41.0523 50 41.5 49.5523 41.5 49C41.5 48.4477 41.0523 48 40.5 48C39.9477 48 39.5 48.4477 39.5 49C39.5 49.5523 39.9477 50 40.5 50Z" fill="#000091"/>
</svg>
