<svg width="81" height="80" viewBox="0 0 81 80" fill="none" xmlns="http://www.w3.org/2000/svg">
<path fill-rule="evenodd" clip-rule="evenodd" d="M53.5 44C54.0523 44 54.5 44.4477 54.5 45V55C54.5 55.5523 54.0523 56 53.5 56H43.5C42.9477 56 42.5 55.5523 42.5 55V45C42.5 44.4477 42.9477 44 43.5 44H53.5ZM47.5 51H44.5V54H47.5V51ZM52.5 51H49.5V54H52.5V51ZM47.5 46H44.5V49H47.5V46ZM52.5 46H49.5V49H52.5V46ZM45.5 32C46.0523 32 46.5 32.4477 46.5 33C46.5 33.5523 46.0523 34 45.5 34H35.5C34.9477 34 34.5 33.5523 34.5 33C34.5 32.4477 34.9477 32 35.5 32H45.5Z" fill="#E1000F"/>
<path fill-rule="evenodd" clip-rule="evenodd" d="M29.5 18C30.0523 18 30.5 18.4477 30.5 19C30.5 19.5523 30.0523 20 29.5 20H22.5V22H25.5C26.0128 22 26.4355 22.386 26.4933 22.8834L26.5 23C26.5 23.5523 26.0523 24 25.5 24H24.5V26.722L40.0601 19.1019L40.1678 19.0567C40.1846 19.051 40.1932 19.0482 40.2018 19.0455C40.3005 19.0145 40.4007 18.9997 40.4998 18.9998C40.5993 18.9997 40.6995 19.0145 40.7974 19.0451L40.811 19.0496L40.8322 19.0567L40.9399 19.1019L65.4399 31.1019C65.9258 31.3399 66.1343 31.9212 65.9104 32.4138L63.4104 37.9138C63.1729 38.4363 62.5454 38.6521 62.0367 38.3862L60.5 37.583V42.4706C60.5 43.0229 60.0523 43.4706 59.5 43.4706C58.9477 43.4706 58.5 43.0229 58.5 42.4706V36.649L40.5 27.131L22.5 36.648V60H26.5V45C26.5 44.4477 26.9477 44 27.5 44H37.5C38.0523 44 38.5 44.4477 38.5 45V60H49.5C50.0523 60 50.5 60.4477 50.5 61C50.5 61.5523 50.0523 62 49.5 62H9.5C8.94772 62 8.5 61.5523 8.5 61C8.5 60.4477 8.94772 60 9.5 60H12.5L12.5003 57.9371C9.91439 57.5952 8.5 55.8685 8.5 53C8.5 50.1387 9.87478 46.0144 12.6056 40.5528L12.619 40.526L12.646 40.479L12.682 40.4245C12.6933 40.4083 12.7053 40.3923 12.7177 40.3767C12.7301 40.3612 12.7429 40.346 12.7561 40.3313C12.7676 40.3185 12.7799 40.3055 12.7925 40.2929C12.8055 40.2799 12.8185 40.2676 12.8317 40.2558C12.846 40.2429 12.8612 40.2301 12.8768 40.2177L12.9246 40.1819L12.978 40.146L13.0528 40.1056L13.0646 40.0998C13.086 40.0894 13.108 40.0797 13.1302 40.0709L13.1505 40.063L13.1711 40.0555C13.1873 40.05 13.2033 40.0449 13.2193 40.0402C13.2412 40.0336 13.2634 40.0279 13.2856 40.023L13.3053 40.0191C13.3674 40.0065 13.4297 40.0003 13.4916 39.9998H13.5084C13.5454 40.0001 13.5824 40.0024 13.6195 40.0069L13.6947 40.0191L13.7145 40.0232C13.7366 40.0279 13.7588 40.0336 13.7808 40.0401L13.8047 40.0475L13.8284 40.0555C13.8427 40.0603 13.8563 40.0655 13.87 40.0709C13.892 40.0797 13.914 40.0894 13.9356 40.0998L13.9472 40.1056L14.02 40.146L14.0755 40.182C14.0917 40.1933 14.1077 40.2053 14.1233 40.2177C14.1388 40.2301 14.154 40.2429 14.1687 40.2561C14.1815 40.2676 14.1945 40.2799 14.2071 40.2925C14.2201 40.3055 14.2324 40.3185 14.2442 40.3317C14.2571 40.346 14.2699 40.3612 14.2823 40.3768L14.3181 40.4246L14.353 40.478L14.38 40.526L14.3944 40.5528C17.1252 46.0144 18.5 50.1387 18.5 53C18.5 55.8682 17.086 57.5948 14.5007 57.937L14.5 60H20.5V37.583L18.9633 38.3862C18.4546 38.6521 17.8271 38.4363 17.5896 37.9138L15.0896 32.4138C14.8657 31.9212 15.0742 31.3399 15.5601 31.1019L22.7022 27.6031C22.5753 27.4354 22.5 27.2265 22.5 27V24H21.5C20.9477 24 20.5 23.5523 20.5 23V19C20.5 18.4477 20.9477 18 21.5 18H29.5ZM65.559 46.0017C65.7949 46.0156 66.0269 46.1126 66.2071 46.2929C67.7487 47.8345 68.5 50.0884 68.5 53C68.5 55.5869 67.8748 57.2985 66.5011 57.8266L66.5 60H69.5C70.0523 60 70.5 60.4477 70.5 61C70.5 61.5523 70.0523 62 69.5 62H55.5C54.9477 62 54.5 61.5523 54.5 61C54.5 60.4477 54.9477 60 55.5 60H58.5V49C58.5 48.4477 58.9477 48 59.5 48C60.0523 48 60.5 48.4477 60.5 49V60H64.5L64.4999 57.827C63.1255 57.2993 62.5 55.5875 62.5 53C62.5 50.0884 63.2513 47.8345 64.7929 46.2929C64.9731 46.1126 65.2051 46.0156 65.441 46.0017H65.559ZM36.5 46H28.5V60H36.5V46ZM65.5007 48.6123L65.4657 48.6682C64.8274 49.7475 64.5 51.1837 64.5 53C64.5 55.1012 64.8766 55.9353 65.4325 55.9964L65.5 56L65.5675 55.9964C66.1234 55.9353 66.5 55.1012 66.5 53C66.5 51.1522 66.1611 49.6977 65.5007 48.6123ZM13.4999 43.2933L13.3017 43.7213C11.4301 47.7945 10.5 50.9025 10.5 53C10.5 55.1144 11.3856 56 13.5 56L13.7074 55.997C15.6724 55.9396 16.5 55.0439 16.5 53C16.5 50.8296 15.5042 47.5774 13.4999 43.2933ZM33.5 50C34.0523 50 34.5 50.4477 34.5 51V53C34.5 53.5523 34.0523 54 33.5 54C32.9477 54 32.5 53.5523 32.5 53V51C32.5 50.4477 32.9477 50 33.5 50ZM40.499 21.113L17.312 32.47L18.972 36.123L40.0367 25.1138L40.0747 25.0949L40.091 25.087L40.1038 25.0818L40.114 25.077L40.172 25.0552C40.1899 25.0491 40.2076 25.0435 40.2255 25.0384C40.2341 25.0358 40.2431 25.0333 40.2522 25.031L40.2861 25.0231C40.302 25.0196 40.3179 25.0165 40.334 25.0138C40.3472 25.0114 40.3599 25.0095 40.3726 25.0079L40.3959 25.0053C40.4112 25.0037 40.4266 25.0024 40.442 25.0015L40.458 25.0007L40.5264 25.0001L40.55 25.0011C40.5691 25.0021 40.5881 25.0036 40.6071 25.0056C40.611 25.0062 40.6156 25.0067 40.6202 25.0072C40.6394 25.0094 40.6525 25.0113 40.6656 25.0135C40.675 25.0153 40.6839 25.017 40.6928 25.0187L40.7108 25.0222L40.7248 25.0253C40.7292 25.0266 40.7342 25.0278 40.7391 25.029C40.7572 25.0334 40.7666 25.0359 40.776 25.0386C40.7834 25.041 40.7913 25.0433 40.7991 25.0458L40.828 25.0552L40.8962 25.0818L40.914 25.09L40.9313 25.0977L40.9633 25.1138L62.028 36.123L63.688 32.47L40.499 21.113Z" fill="#000091"/>
</svg>
