<svg width="140" height="100" viewBox="0 0 140 100" fill="none" xmlns="http://www.w3.org/2000/svg">
<path d="M36.22 31.3601C36.22 29.151 38.0108 27.3601 40.22 27.3601H94.94C97.1491 27.3601 98.94 29.151 98.94 31.3601V71.5201C98.94 73.7293 97.1491 75.5201 94.94 75.5201H40.22C38.0108 75.5201 36.22 73.7292 36.22 71.5201V31.3601Z" fill="white"/>
<path fill-rule="evenodd" clip-rule="evenodd" d="M94.94 31.3601L40.22 31.3601V71.5201L94.94 71.5201L94.94 31.3601ZM40.22 27.3601C38.0108 27.3601 36.22 29.151 36.22 31.3601V71.5201C36.22 73.7292 38.0108 75.5201 40.22 75.5201H94.94C97.1491 75.5201 98.94 73.7293 98.94 71.5201V31.3601C98.94 29.151 97.1491 27.3601 94.94 27.3601H40.22Z" fill="#1B4991"/>
<path d="M36.4461 25.0176C36.8006 24.3889 37.4664 24 38.1882 24H95.8517C96.5735 24 97.2392 24.3889 97.5938 25.0176L107.338 42.2976C108.09 43.6308 107.127 45.28 105.596 45.28H28.4438C26.9132 45.28 25.9499 43.6308 26.7017 42.2976L36.4461 25.0176Z" fill="#FAD776"/>
<path d="M45.1799 52H58.6199V71.04H45.1799V52Z" fill="#FAD776"/>
<path d="M63.1001 52H74.3001V65.44H63.1001V52Z" fill="#E0E0E0"/>
<path d="M78.78 52H89.98V65.44H78.78V52Z" fill="#E0E0E0"/>
</svg>
