<svg width="140" height="100" viewBox="0 0 140 100" fill="none" xmlns="http://www.w3.org/2000/svg">
<path d="M59.8397 32.119C59.8397 37.7076 55.3092 42.2381 49.7206 42.2381C44.132 42.2381 39.6016 37.7076 39.6016 32.119C39.6016 26.5305 44.132 22 49.7206 22C55.3092 22 59.8397 26.5305 59.8397 32.119Z" fill="#FAD776"/>
<path fill-rule="evenodd" clip-rule="evenodd" d="M61.3321 35.6265C58.5083 39.6154 52.4135 48.2379 46.9765 56.0164C44.2541 59.9112 41.7011 63.5879 39.8073 66.3636C38.8593 67.7531 38.0837 68.9062 37.5367 69.7441C37.2619 70.165 37.055 70.4908 36.9159 70.7203C36.8583 70.8154 36.8198 70.8817 36.7961 70.924C36.3279 72.0398 35.08 72.6394 33.8996 72.2751C32.643 71.8874 31.9387 70.5545 32.3264 69.298C32.4137 69.0152 32.5474 68.769 32.593 68.6851L32.5966 68.6785C32.6689 68.5451 32.7543 68.3994 32.8434 68.2525C33.0232 67.9557 33.2637 67.5784 33.5493 67.1409C34.123 66.2621 34.9202 65.0774 35.8737 63.6798C37.7831 60.8814 40.3484 57.187 43.0735 53.2883C48.5252 45.4889 54.6344 36.8461 57.4552 32.8614L59.3985 34.2371L57.4552 32.8614C59.1464 30.4723 62.5349 30.1895 64.6206 32.1825L63.0145 33.8634L64.6206 32.1825L76.6606 43.6871L80.5133 40.3055C82.5706 38.4997 85.7233 38.7961 87.408 40.9539L108.478 67.941C109.287 68.9775 109.103 70.4737 108.067 71.283C107.03 72.0922 105.534 71.908 104.725 70.8715L83.6546 43.8843L78.2212 48.6534L69.2851 57.5895C68.3553 58.5193 66.8478 58.5193 65.918 57.5895C64.9881 56.6596 64.9881 55.1521 65.918 54.2223L73.1865 46.9538L61.3321 35.6265ZM36.766 70.9806C36.7656 70.981 36.7694 70.973 36.7788 70.9554C36.7711 70.9715 36.7664 70.9803 36.766 70.9806Z" fill="#E0E0E0"/>
<path d="M56.7504 44.4135L60.7157 38.9377C61.0736 38.4435 61.7867 38.3822 62.2237 38.8081L67.8411 44.284C68.4835 44.9101 68.0402 46 67.1431 46H57.5604C56.744 46 56.2716 45.0747 56.7504 44.4135Z" fill="#E0E0E0"/>
<path fill-rule="evenodd" clip-rule="evenodd" d="M31.1492 71.4287C29.7407 71.4287 28.1036 72.058 26.2032 73.7857L23 70.2621C25.4647 68.0215 28.1927 66.6667 31.1492 66.6667C34.1057 66.6667 36.8338 68.0215 39.2984 70.2621C41.1988 71.9898 42.8359 72.6191 44.2445 72.6191C45.653 72.6191 47.2901 71.9898 49.1905 70.2621C51.6551 68.0215 54.3832 66.6667 57.3397 66.6667C60.2962 66.6667 63.0242 68.0215 65.4889 70.2621C67.3893 71.9898 69.0264 72.6191 70.4349 72.6191C71.8435 72.6191 73.4805 71.9898 75.381 70.2621C77.8456 68.0215 80.5736 66.6667 83.5302 66.6667C86.4867 66.6667 89.2147 68.0215 91.6794 70.2621C93.5798 71.9898 95.2169 72.6191 96.6254 72.6191C98.034 72.6191 99.671 71.9898 101.571 70.2621C104.036 68.0215 106.764 66.6667 109.721 66.6667C112.677 66.6667 115.405 68.0215 117.87 70.2621L114.667 73.7857C112.766 72.058 111.129 71.4287 109.721 71.4287C108.312 71.4287 106.675 72.058 104.775 73.7857C102.31 76.0263 99.5819 77.381 96.6254 77.381C93.6689 77.381 90.9409 76.0263 88.4762 73.7857C86.5758 72.058 84.9387 71.4287 83.5302 71.4287C82.1216 71.4287 80.4846 72.058 78.5842 73.7857C76.1195 76.0263 73.3915 77.381 70.4349 77.381C67.4784 77.381 64.7504 76.0263 62.2857 73.7857C60.3853 72.058 58.7482 71.4287 57.3397 71.4287C55.9311 71.4287 54.2941 72.058 52.3937 73.7857C49.929 76.0263 47.201 77.381 44.2445 77.381C41.2879 77.381 38.5599 76.0263 36.0952 73.7857C34.1948 72.058 32.5578 71.4287 31.1492 71.4287Z" fill="#1B4991"/>
</svg>
