<svg width="81" height="80" viewBox="0 0 81 80" fill="none" xmlns="http://www.w3.org/2000/svg">
<path fill-rule="evenodd" clip-rule="evenodd" d="M56.5 77C55.9486 77 55.5 76.5514 55.5 76C55.5 75.4486 55.9486 75 56.5 75C57.0514 75 57.5 75.4486 57.5 76C57.5 76.5514 57.0514 77 56.5 77Z" fill="#CACAFB"/>
<path fill-rule="evenodd" clip-rule="evenodd" d="M8.5 65C7.9486 65 7.5 64.5514 7.5 64C7.5 63.4486 7.9486 63 8.5 63C9.0514 63 9.5 63.4486 9.5 64C9.5 64.5514 9.0514 65 8.5 65Z" fill="#CACAFB"/>
<path fill-rule="evenodd" clip-rule="evenodd" d="M76.5 58C75.9486 58 75.5 57.5514 75.5 57C75.5 56.4486 75.9486 56 76.5 56C77.0514 56 77.5 56.4486 77.5 57C77.5 57.5514 77.0514 58 76.5 58Z" fill="#CACAFB"/>
<path fill-rule="evenodd" clip-rule="evenodd" d="M65.5 10C64.9486 10 64.5 9.5514 64.5 9C64.5 8.44855 64.9486 8 65.5 8C66.0514 8 66.5 8.44855 66.5 9C66.5 9.5514 66.0514 10 65.5 10Z" fill="#CACAFB"/>
<path fill-rule="evenodd" clip-rule="evenodd" d="M24.5 4C23.9486 4 23.5 3.5514 23.5 3C23.5 2.44855 23.9486 2 24.5 2C25.0514 2 25.5 2.44855 25.5 3C25.5 3.5514 25.0514 4 24.5 4Z" fill="#CACAFB"/>
<path d="M37.5965 15.6808C38.0133 16.8193 37.6306 18.1563 36.8764 18.7891C36.5552 19.0587 36.2719 19.2178 35.7898 19.3644L35.4748 19.4516C35.4177 19.4661 35.3582 19.4807 35.2959 19.4955L34.8881 19.587L32.9647 19.9802L32.723 20.0317L32.8579 20.1023L33.1033 20.2354L33.5717 20.499C34.05 20.7751 34.2139 21.3867 33.9377 21.865C33.6616 22.3433 33.05 22.5071 32.5717 22.231L32.3581 22.1093L31.9121 21.8645L30.3783 21.0623L29.6924 20.6967C29.5791 20.6354 29.4656 20.5737 29.3511 20.511L28.6468 20.1193L27.8802 19.6817C27.402 19.4056 27.2381 18.794 27.5142 18.3157C27.7904 17.8374 28.402 17.6735 28.8802 17.9496L29.6269 18.3759C29.7451 18.4426 29.8608 18.5073 29.9747 18.5707L30.1095 18.6446C30.2108 18.5736 30.327 18.5203 30.4547 18.4903L31.0015 18.3634L32.0454 18.1312L32.8146 17.9685L34.3962 17.6469L34.8428 17.5478L35.0646 17.4914L35.2369 17.4397C35.2621 17.4314 35.2856 17.4231 35.3076 17.4148L35.424 17.3651L35.5152 17.3134L35.5908 17.257C35.7106 17.1566 35.8406 16.7022 35.7184 16.3683C35.5126 15.8062 34.7005 15.3239 32.9885 15.1306L29.6052 14.7832L27.7406 14.5986L25.6616 14.4015L23.5364 14.2143L22.5773 14.1381L22.4219 14.1406L22.3057 14.1522L22.108 14.1861L21.958 14.2206L21.7913 14.2654L21.506 14.3534L21.0502 14.513L20.4952 14.7255L19.8263 14.9964L18.578 15.5233L16.3063 16.5098L16.1983 16.5473L16.125 16.5651L16.0483 16.5763C16.0351 16.5776 16.0216 16.5785 16.0079 16.5791L15.9218 16.5788L15.8269 16.5699L15.7209 16.5515L15.6018 16.5229L15.3937 16.4591L15.2322 16.4014L14.9506 16.2904L14.7334 16.1988L14.2186 15.9698L13.4025 15.5898L11.0668 14.47C10.5693 14.2302 10.3604 13.6324 10.6003 13.135C10.8401 12.6375 11.4378 12.4286 11.9353 12.6684L13.6881 13.5048L14.3995 13.8369L15.1764 14.1902L15.6478 14.3955L15.9078 14.5009L17.928 13.6236L19.0656 13.1418L19.6411 12.9063L20.3004 12.6495L20.5891 12.5438L20.9777 12.4115L21.3203 12.3084L21.5271 12.2545L21.7194 12.2116L21.8995 12.1789L22.07 12.1557L22.2332 12.1411C22.2599 12.1393 22.2864 12.1379 22.3128 12.1368L22.5472 12.1348L22.7796 12.1468L24.0273 12.2485L26.2329 12.4459L28.8385 12.6968L32.3827 13.0571L32.9333 13.1145C35.4973 13.3502 37.0712 14.2457 37.5965 15.6808Z" fill="#E1000F"/>
<path d="M26.2933 36.048C26.7529 36.2467 27.2986 36.0736 27.555 35.6295C27.8311 35.1512 27.6673 34.5396 27.189 34.2635L24.2504 32.5669L24.146 32.5144C23.6864 32.3157 23.1408 32.4888 22.8844 32.9329C22.6082 33.4112 22.7721 34.0228 23.2504 34.2989L26.189 35.9955L26.2933 36.048Z" fill="#E1000F"/>
<path d="M20.9853 38.2483C20.7289 38.6924 20.1832 38.8655 19.7236 38.6668L19.6193 38.6143L15.1434 36.0302C14.9922 35.9429 14.7866 35.7403 14.5428 35.4455L14.3248 35.1709C14.287 35.1216 14.2485 35.0705 14.2094 35.0177L13.9675 34.6815L13.7124 34.3082L13.4464 33.9012L13.1717 33.4637C13.1254 33.3884 13.0787 33.312 13.0319 33.2345L12.7484 32.7572L12.4618 32.2576L12.1745 31.7387C12.1266 31.6508 12.0788 31.5623 12.0312 31.4731L11.7468 30.9316C11.6997 30.8403 11.6528 30.7486 11.6062 30.6565L11.3298 30.0996L11.0615 29.5365L10.8035 28.9704L10.5582 28.4045C10.4788 28.2163 10.4019 28.0287 10.3278 27.8422L10.204 27.5233L9.24679 26.7962L7.23227 25.2893L6.86762 25.0073L6.6603 24.8381L6.57033 24.7571L6.48235 24.6701L6.45006 24.628L6.37657 24.4989L6.28878 24.3329C6.10488 23.8121 6.37797 23.2409 6.89874 23.057C7.25927 22.9297 7.644 23.0214 7.90764 23.2627L7.96946 23.3257L8.24893 23.5485L11.1852 25.7537L11.5037 26.0028L11.6683 26.141L11.7965 26.264L11.8284 26.3048L11.8714 26.376L11.9899 26.5921C12.7086 28.5328 13.6719 30.4476 14.7298 32.1668L14.901 32.4418L15.2368 32.963C15.4016 33.213 15.561 33.4458 15.7112 33.6566L15.9579 33.9944L16.1335 34.2213L16.2211 34.3292C16.2254 34.337 16.2209 34.3395 16.1874 34.3224L20.6193 36.8823C21.0976 37.1584 21.2614 37.77 20.9853 38.2483Z" fill="#E1000F"/>
<path d="M23.5004 39.9999C24.0527 39.9999 24.5004 39.5522 24.5004 38.9999C24.5004 38.4476 24.0527 37.9999 23.5004 37.9999C22.9481 37.9999 22.5004 38.4476 22.5004 38.9999C22.5004 39.5522 22.9481 39.9999 23.5004 39.9999Z" fill="#E1000F"/>
<path d="M54.9188 42.6614C54.6427 42.1831 54.8066 41.5715 55.2849 41.2954L55.497 41.1713L55.9321 40.9074L57.7245 39.7727C57.8342 39.7043 57.9435 39.6366 58.0532 39.569L58.724 39.1617L59.4459 38.735C59.5726 38.661 59.7032 38.5852 59.8384 38.5071C60.3167 38.231 60.9282 38.3949 61.2044 38.8732C61.4805 39.3515 61.3167 39.963 60.8384 40.2392L60.0958 40.6727L59.7077 40.9052C59.7013 40.9374 59.6933 40.9696 59.6837 41.0017C59.5734 41.3675 59.466 41.7164 59.3592 42.0559L59.0389 43.0532L58.3912 44.998L58.3059 45.2731L58.2438 45.4934L58.2023 45.6685L58.1961 45.7002C58.1933 45.7146 58.1908 45.7286 58.1886 45.7422L58.1734 45.8678L58.1726 45.9726L58.1836 46.0663C58.2108 46.2203 58.5392 46.5601 58.8895 46.6212C59.4792 46.724 60.3029 46.2618 61.3264 44.8759L63.6022 41.7255L65.3929 39.2176L66.4653 37.6947L67.199 36.6376C67.2556 36.5555 67.311 36.4748 67.3652 36.3957C67.525 36.1626 67.6835 35.7848 67.8374 35.2674L67.9393 34.9018L68.0396 34.4951L68.1381 34.0477L68.2346 33.5599L68.3289 33.032L68.4207 32.4644L68.5099 31.8574C68.5245 31.7529 68.539 31.6469 68.5534 31.5392L68.6381 30.8737L68.7196 30.1696C68.7239 30.1309 68.7286 30.094 68.7348 30.0582L68.7584 29.9531L68.7819 29.8838L68.8327 29.7773L68.8797 29.7023L68.9391 29.6223L69.0553 29.4896L69.1534 29.3904L69.3358 29.2215L69.654 28.9509L70.3198 28.4222L71.6326 27.4234L72.9965 26.3995C73.4384 26.0683 74.0652 26.158 74.3965 26.5999C74.7277 27.0418 74.638 27.6686 74.1961 27.9998L72.4058 29.354L71.469 30.0797L71.0311 30.4287L70.6696 30.7305L70.5678 31.5639C70.5516 31.6906 70.5351 31.8153 70.5185 31.9382L70.4165 32.6529C70.0685 34.9608 69.6415 36.5239 69.0946 37.4043L69.0149 37.5265L68.3029 38.5562L67.4812 39.7283L66.0432 41.7529L63.7431 44.9487L63.0999 45.836C61.6138 47.9387 60.0514 48.854 58.5459 48.5914C57.3515 48.3831 56.385 47.3832 56.214 46.4136C56.1339 45.9594 56.1466 45.6116 56.2967 45.0325L56.3925 44.6917L56.5172 44.2928L57.1044 42.5323L56.9853 42.6077L56.5155 42.8926C56.4387 42.9381 56.3621 42.9829 56.2849 43.0275C55.8066 43.3036 55.195 43.1397 54.9188 42.6614Z" fill="#E1000F"/>
<path d="M64.8275 19.8271L62.2843 20.9492L61.8005 21.1502L61.6042 21.2211C61.4243 21.2789 61.334 21.302 61.172 21.2849L61.0648 21.2698C59.0305 20.9256 56.8984 20.8045 54.8894 20.8617L54.567 20.8725L53.9504 20.9027L53.3804 20.9432C53.2899 20.9507 53.2018 20.9585 53.1164 20.9667L52.7025 21.0114L52.4196 21.0499L52.2834 21.0716C52.2748 21.0714 52.275 21.0663 52.3066 21.0458L46.0004 24.6856C45.5221 24.9617 44.9105 24.7978 44.6343 24.3195C44.3779 23.8754 44.5009 23.3163 44.9027 23.0176L45.0004 22.9535L51.3496 19.2877C51.5481 19.1732 51.9661 19.0768 52.5398 19.0039L52.9446 18.9589C53.0157 18.952 53.0885 18.9454 53.163 18.9391L53.6291 18.9051L54.1309 18.8789L54.664 18.8609C54.7552 18.8586 54.8476 18.8566 54.941 18.855L55.5134 18.8498L56.1066 18.8536L56.7165 18.8668L57.339 18.8897L57.9697 18.9225L58.6044 18.9658L59.239 19.0197L59.8693 19.0847C60.1827 19.12 60.4928 19.1596 60.7974 19.2037L61.1485 19.2574L61.365 19.1671L64.1295 17.9502L64.4 17.836L64.6109 17.7512L64.7482 17.7005L64.8081 17.6806C65.0272 17.6114 65.1177 17.5919 65.359 17.6368C65.9019 17.738 66.2601 18.2601 66.1589 18.803C66.0578 19.346 65.5357 19.7042 64.9928 19.603C65.0602 19.6156 65.1022 19.6277 65.1305 19.6375L65.1863 19.6585C65.2054 19.6638 65.22 19.66 65.2696 19.6409L64.8275 19.8271Z" fill="#E1000F"/>
<path d="M49.5004 27.9999C50.0527 27.9999 50.5004 27.5522 50.5004 26.9999C50.5004 26.4476 50.0527 25.9999 49.5004 25.9999C48.9481 25.9999 48.5004 26.4476 48.5004 26.9999C48.5004 27.5522 48.9481 27.9999 49.5004 27.9999Z" fill="#E1000F"/>
<path d="M42.4952 27.308C42.3955 25.4643 40.8689 24 39.0003 24C37.0673 24 35.5003 25.567 35.5003 27.5V29.3368C35.0457 29.1208 34.5371 29 34.0003 29C32.0673 29 30.5003 30.567 30.5003 32.5V47.385L29.892 46.6707L28.67 45.2122L28.0489 44.4827L27.6738 44.0583L27.4588 43.8263L27.2668 43.6304C27.2365 43.6005 27.207 43.572 27.1781 43.5447L27.0126 43.3954C26.9333 43.3276 26.8585 43.2696 26.786 43.2191L26.643 43.1276C26.5722 43.0862 26.502 43.0508 26.4299 43.0192L26.2825 42.9604C25.3574 42.6236 24.0082 42.9607 23.2306 43.8909C22.2504 45.0634 22.2618 46.8742 23.3397 49.2125L24.8295 52.5344L26.2768 55.7103L27.0428 57.3583L27.5785 58.4898L27.649 58.629C27.9889 59.2677 28.6205 60.0294 29.5527 60.9323L30.0043 61.3591C30.3196 61.6504 30.6635 61.9553 31.0362 62.2744L31.6169 62.7637C31.8177 62.9304 32.0258 63.1007 32.2411 63.2747L32.4997 63.4826L32.4999 67.0002L32.5077 67.1256C32.5694 67.6187 32.9901 68.0002 33.4999 68.0002C34.0522 68.0002 34.4999 67.5524 34.4999 67.0002V62.5156L33.8322 61.9872L33.0214 61.3293L32.5242 60.9133L32.0617 60.5159L31.6342 60.1372L31.2417 59.7776L30.8845 59.4375C30.7713 59.3274 30.664 59.2206 30.5626 59.1171L30.2763 58.8168L30.0256 58.5368L29.8108 58.2774C29.6139 58.0285 29.471 57.8111 29.3827 57.6266L28.9906 56.8006L28.251 55.2149L27.0347 52.5563L25.0581 48.1567C24.3695 46.5774 24.3811 45.6329 24.765 45.1736C24.9931 44.9008 25.4516 44.7863 25.5985 44.8397C25.6118 44.8446 25.6287 44.8542 25.6495 44.8689L25.7237 44.9286L25.8229 45.0211L26.1028 45.3124L26.5026 45.7596L27.0357 46.3792L28.3697 47.968L28.9044 48.5981L29.3895 49.1599L29.8473 49.6784L30.3005 50.1785L30.7713 50.6851C31.018 50.9476 31.3731 51.0471 31.7019 50.9797C31.7263 50.9747 31.7504 50.9688 31.7741 50.9621C32.1933 50.843 32.5003 50.4574 32.5003 50V32.5L32.5072 32.3555C32.5799 31.5949 33.2206 31 34.0003 31C34.8288 31 35.5003 31.6716 35.5003 32.5V45L35.5071 45.1166C35.5648 45.614 35.9875 46 36.5003 46C37.0526 46 37.5003 45.5523 37.5003 45V27.5L37.5072 27.3555C37.5799 26.5949 38.2206 26 39.0003 26C39.8288 26 40.5003 26.6716 40.5003 27.5V45L40.5071 45.1166C40.5648 45.614 40.9875 46 41.5003 46C42.0526 46 42.5003 45.5523 42.5003 45V30.4706L42.5072 30.3294C42.5796 29.5856 43.2182 29 44.0003 29C44.8314 29 45.5003 29.6611 45.5003 30.4706V45L45.5071 45.1166C45.5648 45.614 45.9875 46 46.5003 46C47.0526 46 47.5003 45.5523 47.5003 45V34.4706L47.5072 34.3294C47.5796 33.5856 48.2182 33 49.0003 33C49.8314 33 50.5003 33.6611 50.5003 34.4706V53L50.497 53.291C50.454 55.1073 49.9916 56.4403 48.6657 58.4492C48.5221 58.6667 48.2758 58.9554 47.929 59.3158L47.6073 59.6423L47.2366 60.0041L46.8666 60.3552L45.4989 61.6198L44.989 62.1007L44.5003 62.5858V67L44.5071 67.1166C44.5648 67.614 44.9875 68 45.5003 68L45.617 67.9933C46.1143 67.9355 46.5003 67.5128 46.5003 67V63.422L46.5997 63.3284L48.2358 61.813L48.6389 61.4304L49.0595 61.0193C49.6508 60.4298 50.0659 59.9585 50.3349 59.5508C51.9395 57.1198 52.5003 55.3747 52.5003 53V34.4706L52.4951 34.2799C52.3953 32.4495 50.8664 31 49.0003 31C48.4638 31 47.9552 31.1198 47.5003 31.3341V30.4706L47.4951 30.2799C47.3953 28.4495 45.8664 27 44.0003 27C43.4621 27 42.9519 27.1206 42.4959 27.3362L42.4952 27.308Z" fill="#000091"/>
</svg>
