<svg width="256" height="256" viewBox="0 0 256 256" fill="none" xmlns="http://www.w3.org/2000/svg">
<path fill-rule="evenodd" clip-rule="evenodd" d="M185.6 16.0001C183.836 16.0001 182.4 14.5646 182.4 12.8001C182.4 11.0355 183.836 9.6001 185.6 9.6001C187.365 9.6001 188.8 11.0355 188.8 12.8001C188.8 14.5646 187.365 16.0001 185.6 16.0001Z" fill="#CACAFB"/>
<path fill-rule="evenodd" clip-rule="evenodd" d="M70.4002 246.4C68.6357 246.4 67.2002 244.964 67.2002 243.2C67.2002 241.435 68.6357 240 70.4002 240C72.1647 240 73.6002 241.435 73.6002 243.2C73.6002 244.964 72.1647 246.4 70.4002 246.4Z" fill="#CACAFB"/>
<path fill-rule="evenodd" clip-rule="evenodd" d="M38.4002 41.6002C36.6357 41.6002 35.2002 40.1647 35.2002 38.4002C35.2002 36.6356 36.6357 35.2002 38.4002 35.2002C40.1647 35.2002 41.6002 36.6356 41.6002 38.4002C41.6002 40.1647 40.1647 41.6002 38.4002 41.6002Z" fill="#CACAFB"/>
<path d="M131.2 41.6001C132.967 41.6001 134.4 43.0328 134.4 44.8001C134.4 46.5674 132.967 48.0001 131.2 48.0001C109.992 48.0001 92.7999 65.1924 92.7999 86.4001C92.7999 107.608 109.992 124.8 131.2 124.8C152.408 124.8 169.6 107.608 169.6 86.4001C169.6 79.9257 167.998 73.69 164.983 68.1271C164.14 66.5734 164.717 64.6311 166.271 63.7888C167.824 62.9465 169.767 63.5232 170.609 65.0769C174.129 71.5705 176 78.8537 176 86.4001C176 111.142 155.942 131.2 131.2 131.2C106.458 131.2 86.3999 111.142 86.3999 86.4001C86.3999 61.6577 106.458 41.6001 131.2 41.6001Z" fill="#E1000F"/>
<path fill-rule="evenodd" clip-rule="evenodd" d="M108.533 88.6106L108.806 88.3955L142.724 64.3092C145.043 62.6622 148.197 64.6334 147.734 67.4398L140.954 108.484C140.492 111.281 136.889 112.14 135.214 109.852L125.793 96.9785L110.092 94.154C107.418 93.6729 106.565 90.333 108.533 88.6106ZM135.88 99.9235L140.168 73.974L118.724 89.203L126.051 90.5221L128.295 86.9319C129.231 85.4331 131.205 84.9773 132.704 85.9139C134.096 86.7835 134.588 88.5478 133.902 89.9955L133.722 90.3233L131.48 93.912L135.88 99.9235Z" fill="#E1000F"/>
<path d="M214.4 211.2C216.167 211.2 217.6 212.633 217.6 214.4C217.6 216.041 216.365 217.394 214.773 217.578L214.4 217.6H188.8C187.033 217.6 185.6 216.167 185.6 214.4C185.6 212.759 186.835 211.406 188.427 211.221L188.8 211.2H214.4Z" fill="#000091"/>
<path d="M102.615 147.553C103.922 146.364 105.946 146.46 107.135 147.768C108.232 148.975 108.235 150.792 107.2 152L106.92 152.288L30.9527 216.768C29.645 217.956 27.6211 217.86 26.4323 216.552C25.3349 215.345 25.3326 213.528 26.3673 212.321L26.6476 212.032L102.615 147.553Z" fill="#000091"/>
<path d="M227.2 83.2C228.841 83.2 230.194 84.4353 230.379 86.0268L230.4 86.4V201.6C230.4 203.367 228.967 204.8 227.2 204.8C225.559 204.8 224.206 203.565 224.022 201.973L224 201.6V89.6H188.8C187.159 89.6 185.806 88.3646 185.622 86.7731L185.6 86.4C185.6 84.7589 186.835 83.4063 188.427 83.2215L188.8 83.2H227.2Z" fill="#000091"/>
<path d="M73.6001 83.2C75.3674 83.2 76.8001 84.6326 76.8001 86.4C76.8001 88.041 75.5648 89.3936 73.9733 89.5784L73.6001 89.6H32.0001V211.2H150.4C152.041 211.2 153.394 212.435 153.579 214.027L153.6 214.4C153.6 216.041 152.365 217.394 150.773 217.578L150.4 217.6H28.8001C27.159 217.6 25.8065 216.365 25.6216 214.773L25.6001 214.4V86.4C25.6001 84.7589 26.8354 83.4063 28.4269 83.2215L28.8001 83.2H73.6001Z" fill="#000091"/>
<path d="M224 214.4C224 212.633 225.433 211.2 227.2 211.2C228.967 211.2 230.4 212.633 230.4 214.4C230.4 216.167 228.967 217.6 227.2 217.6C225.433 217.6 224 216.167 224 214.4Z" fill="#000091"/>
<path d="M225.104 83.9818C226.44 82.8244 228.461 82.9687 229.618 84.3043C230.687 85.5371 230.646 87.3539 229.583 88.5365L229.296 88.8183L133.296 172.018C132.229 172.943 130.698 173.05 129.523 172.326L129.182 172.084L26.7823 88.8836C25.4107 87.7692 25.2022 85.7538 26.3167 84.3822C27.3454 83.116 29.1418 82.841 30.4909 83.6827L30.8181 83.9165L131.133 165.421L225.104 83.9818Z" fill="#000091"/>
<path d="M158.926 148.008C157.605 146.834 155.583 146.953 154.408 148.274C153.325 149.493 153.343 151.311 154.391 152.506L154.674 152.792L212.274 203.992C213.595 205.166 215.618 205.047 216.792 203.726C217.876 202.507 217.858 200.689 216.81 199.494L216.526 199.208L158.926 148.008Z" fill="#000091"/>
</svg>
