<svg width="81" height="80" viewBox="0 0 81 80" fill="none" xmlns="http://www.w3.org/2000/svg">
<path fill-rule="evenodd" clip-rule="evenodd" d="M31.9036 38.6627C34.5364 39.7453 36.3969 42.0476 36.4959 44.7714L36.5 45H34.5C34.5 42.2757 31.845 40 28.5 40C25.2347 40 22.6268 42.1687 22.5045 44.8062L22.5 45H20.5C20.5 42.1768 22.3902 39.7755 25.0964 38.6627C24.1144 37.7498 23.5 36.4466 23.5 35C23.5 32.2386 25.7386 30 28.5 30C31.2614 30 33.5 32.2386 33.5 35C33.5 36.4466 32.8856 37.7498 31.9036 38.6627ZM28.5 38C30.1569 38 31.5 36.6569 31.5 35C31.5 33.3431 30.1569 32 28.5 32C26.8431 32 25.5 33.3431 25.5 35C25.5 36.6569 26.8431 38 28.5 38Z" fill="#E1000F"/>
<path fill-rule="evenodd" clip-rule="evenodd" d="M19.5 24H37.5C39.1569 24 40.5 25.3431 40.5 27V47C40.5 48.6569 39.1569 50 37.5 50H19.5C17.8431 50 16.5 48.6569 16.5 47V27C16.5 25.3431 17.8431 24 19.5 24ZM37.5 26H19.5C18.9477 26 18.5 26.4477 18.5 27V47C18.5 47.5523 18.9477 48 19.5 48H37.5C38.0523 48 38.5 47.5523 38.5 47V27C38.5 26.4477 38.0523 26 37.5 26Z" fill="#E1000F"/>
<path d="M8.5046 59.2217C8.61474 61.868 10.687 64 13.2576 64H15.5L15.6166 63.9933C16.114 63.9355 16.5 63.5128 16.5 63L16.4933 62.8834C16.4355 62.386 16.0128 62 15.5 62H13.2576L13.097 61.995C11.6614 61.9046 10.5 60.6107 10.5 59V21L10.5047 20.8224C10.5896 19.2364 11.8029 18 13.2576 18H57.5L57.6166 17.9933C58.114 17.9355 58.5 17.5128 58.5 17C58.5 16.4477 58.0523 16 57.5 16H13.2576L13.0445 16.0049C10.5028 16.1221 8.5 18.3263 8.5 21V59L8.5046 59.2217Z" fill="#000091"/>
<path d="M72.4954 20.7783C72.3853 18.132 70.313 16 67.7424 16H63.5L63.3834 16.0067C62.886 16.0645 62.5 16.4872 62.5 17C62.5 17.5523 62.9477 18 63.5 18H67.7424L67.903 18.005C69.3386 18.0954 70.5 19.3893 70.5 21V59L70.4953 59.1776C70.4104 60.7636 69.1971 62 67.7424 62H39.5L39.3834 62.0067C38.886 62.0645 38.5 62.4872 38.5 63C38.5 63.5523 38.9477 64 39.5 64H67.7424L67.9555 63.9951C70.4972 63.8779 72.5 61.6737 72.5 59V21L72.4954 20.7783Z" fill="#000091"/>
<path d="M35.5 56C36.0523 56 36.5 56.4477 36.5 57C36.5 57.5128 36.114 57.9355 35.6166 57.9933L35.5 58H15.5C14.9477 58 14.5 57.5523 14.5 57C14.5 56.4872 14.886 56.0645 15.3834 56.0067L15.5 56H35.5Z" fill="#000091"/>
<path d="M56.5 57C56.5 56.4477 56.0523 56 55.5 56H53.5L53.3834 56.0067C52.886 56.0645 52.5 56.4872 52.5 57C52.5 57.5523 52.9477 58 53.5 58H55.5L55.6166 57.9933C56.114 57.9355 56.5 57.5128 56.5 57Z" fill="#000091"/>
<path d="M65.5 56C66.0523 56 66.5 56.4477 66.5 57C66.5 57.5128 66.114 57.9355 65.6166 57.9933L65.5 58H59.5C58.9477 58 58.5 57.5523 58.5 57C58.5 56.4872 58.886 56.0645 59.3834 56.0067L59.5 56H65.5Z" fill="#000091"/>
<path d="M38.5 57C38.5 57.5514 38.9486 58 39.5 58C40.0514 58 40.5 57.5514 40.5 57C40.5 56.4486 40.0514 56 39.5 56C38.9486 56 38.5 56.4486 38.5 57Z" fill="#000091"/>
<path d="M43.5 58C42.9486 58 42.5 57.5514 42.5 57C42.5 56.4486 42.9486 56 43.5 56C44.0514 56 44.5 56.4486 44.5 57C44.5 57.5514 44.0514 58 43.5 58Z" fill="#000091"/>
<path d="M64.5 25C64.5 24.4477 64.0523 24 63.5 24H45.5L45.3834 24.0067C44.886 24.0645 44.5 24.4872 44.5 25C44.5 25.5523 44.9477 26 45.5 26H63.5L63.6166 25.9933C64.114 25.9355 64.5 25.5128 64.5 25Z" fill="#000091"/>
<path d="M53.5 28C54.0523 28 54.5 28.4477 54.5 29C54.5 29.5128 54.114 29.9355 53.6166 29.9933L53.5 30H45.5C44.9477 30 44.5 29.5523 44.5 29C44.5 28.4872 44.886 28.0645 45.3834 28.0067L45.5 28H53.5Z" fill="#000091"/>
<path d="M56.5 29C56.5 29.5514 56.9486 30 57.5 30C58.0514 30 58.5 29.5514 58.5 29C58.5 28.4486 58.0514 28 57.5 28C56.9486 28 56.5 28.4486 56.5 29Z" fill="#000091"/>
<path d="M57.5 32C58.0523 32 58.5 32.4477 58.5 33C58.5 33.5128 58.114 33.9355 57.6166 33.9933L57.5 34H45.5C44.9477 34 44.5 33.5523 44.5 33C44.5 32.4872 44.886 32.0645 45.3834 32.0067L45.5 32H57.5Z" fill="#000091"/>
<path fill-rule="evenodd" clip-rule="evenodd" d="M48 38C46.067 38 44.5 39.567 44.5 41.5C44.5 43.433 46.067 45 48 45C49.933 45 51.5 43.433 51.5 41.5C51.5 39.567 49.933 38 48 38ZM48 40C48.8284 40 49.5 40.6716 49.5 41.5C49.5 42.3284 48.8284 43 48 43C47.1716 43 46.5 42.3284 46.5 41.5C46.5 40.6716 47.1716 40 48 40Z" fill="#000091"/>
<path d="M63.5 48C64.0523 48 64.5 48.4477 64.5 49C64.5 49.5128 64.114 49.9355 63.6166 49.9933L63.5 50H45.5C44.9477 50 44.5 49.5523 44.5 49C44.5 48.4872 44.886 48.0645 45.3834 48.0067L45.5 48H63.5Z" fill="#000091"/>
<path d="M50.5 57C50.5 56.4477 50.0523 56 49.5 56H47.5L47.3834 56.0067C46.886 56.0645 46.5 56.4872 46.5 57C46.5 57.5523 46.9477 58 47.5 58H49.5L49.6166 57.9933C50.114 57.9355 50.5 57.5128 50.5 57Z" fill="#000091"/>
</svg>
