<svg width="64" height="65" viewBox="0 0 64 65" fill="none" xmlns="http://www.w3.org/2000/svg">
<rect x="2" y="2.5" width="41" height="60" rx="1" fill="white" stroke="#1B4991" stroke-width="2"/>
<path d="M6 22.5H39" stroke="#E0E0E0" stroke-width="2"/>
<path d="M6 26.5H39" stroke="#E0E0E0" stroke-width="2"/>
<path d="M6 30.5H39" stroke="#E0E0E0" stroke-width="2"/>
<path d="M6 34.5H37" stroke="#E0E0E0" stroke-width="2"/>
<path d="M6 38.5H31" stroke="#E0E0E0" stroke-width="2"/>
<path d="M6 48.5H28.5" stroke="#E0E0E0" stroke-width="2"/>
<path d="M61.7871 31.5996C62.91 30.4767 62.91 28.6561 61.7871 27.5332C60.6642 26.4103 58.8437 26.4103 57.7208 27.5332L43.1497 42.1043C42.0268 43.2272 42.0268 45.0478 43.1497 46.1707C44.2726 47.2936 46.0932 47.2936 47.2161 46.1707L61.7871 31.5996Z" fill="#1B4991"/>
<path fill-rule="evenodd" clip-rule="evenodd" d="M43.1504 43.4595L45.8613 46.1704L42.981 50.4062C42.981 50.4062 40.0193 50.8738 36.7872 52.7062C36.8944 52.8897 36.8694 53.1292 36.712 53.2866C36.5249 53.4737 36.2215 53.4737 36.0343 53.2866C35.8472 53.0994 35.8472 52.796 36.0343 52.6089C36.1916 52.4515 36.4311 52.4265 36.6147 52.5337C38.447 49.3015 38.9147 46.3399 38.9147 46.3399L43.1504 43.4595ZM41.1173 46.8482C40.743 47.2225 40.743 47.8293 41.1173 48.2036C41.4915 48.5779 42.0984 48.5779 42.4727 48.2036C42.847 47.8293 42.847 47.2225 42.4727 46.8482C42.0984 46.4739 41.4915 46.4739 41.1173 46.8482Z" fill="#FAD776"/>
</svg>
