<svg width="140" height="100" viewBox="0 0 140 100" fill="none" xmlns="http://www.w3.org/2000/svg">
<path d="M35 32C35 29.7909 36.7909 28 39 28H101C103.209 28 105 29.7909 105 32V68C105 70.2091 103.209 72 101 72H39C36.7909 72 35 70.2091 35 68V32Z" fill="white"/>
<path fill-rule="evenodd" clip-rule="evenodd" d="M101 32H39L39 68H101V32ZM39 28C36.7909 28 35 29.7909 35 32V68C35 70.2091 36.7909 72 39 72H101C103.209 72 105 70.2091 105 68V32C105 29.7909 103.209 28 101 28H39Z" fill="#1B4991"/>
<path d="M39 32H101V41H39V32Z" fill="#FAD776"/>
<path d="M43.75 44.5H56.875V63.2H43.75V44.5Z" fill="#E0E0E0"/>
<path d="M61.25 44.5H88.5938V46.7H61.25V44.5Z" fill="#E0E0E0"/>
<path d="M61.25 48.8999H84.2188V51.0999H61.25V48.8999Z" fill="#E0E0E0"/>
<path d="M61.25 53.3H86.4062V55.5H61.25V53.3Z" fill="#E0E0E0"/>
</svg>
