<svg width="140" height="100" viewBox="0 0 140 100" fill="none" xmlns="http://www.w3.org/2000/svg">
<path d="M70.1765 27.8235C70.1765 32.6966 66.226 36.6471 61.3529 36.6471C56.4798 36.6471 52.5294 32.6966 52.5294 27.8235C52.5294 22.9504 56.4798 19 61.3529 19C66.226 19 70.1765 22.9504 70.1765 27.8235Z" fill="white"/>
<path fill-rule="evenodd" clip-rule="evenodd" d="M61.3529 32.6471C64.0169 32.6471 66.1765 30.4875 66.1765 27.8235C66.1765 25.1596 64.0169 23 61.3529 23C58.689 23 56.5294 25.1596 56.5294 27.8235C56.5294 30.4875 58.689 32.6471 61.3529 32.6471ZM61.3529 36.6471C66.226 36.6471 70.1765 32.6966 70.1765 27.8235C70.1765 22.9504 66.226 19 61.3529 19C56.4798 19 52.5294 22.9504 52.5294 27.8235C52.5294 32.6966 56.4798 36.6471 61.3529 36.6471Z" fill="#FAD776"/>
<path d="M50.7646 49.0001C50.7646 43.1524 55.5052 38.4119 61.3529 38.4119C67.2006 38.4119 71.9411 43.1524 71.9411 49.0001V56.0589C71.9411 61.9066 67.2006 66.6472 61.3529 66.6472C55.5052 66.6472 50.7646 61.9066 50.7646 56.0589V49.0001Z" fill="#FAD776"/>
<path fill-rule="evenodd" clip-rule="evenodd" d="M67.9411 56.0589V49.0001C67.9411 45.3615 64.9915 42.4119 61.3529 42.4119C57.7143 42.4119 54.7646 45.3615 54.7646 49.0001V56.0589C54.7646 59.6975 57.7143 62.6472 61.3529 62.6472C64.9915 62.6472 67.9411 59.6975 67.9411 56.0589ZM61.3529 38.4119C55.5052 38.4119 50.7646 43.1524 50.7646 49.0001V56.0589C50.7646 61.9066 55.5052 66.6472 61.3529 66.6472C67.2006 66.6472 71.9411 61.9066 71.9411 56.0589V49.0001C71.9411 43.1524 67.2006 38.4119 61.3529 38.4119Z" fill="#FAD776"/>
<path d="M53.4117 40.1766C53.4117 45.0497 49.4613 49.0001 44.5882 49.0001C39.7151 49.0001 35.7646 45.0497 35.7646 40.1766C35.7646 35.3035 39.7151 31.353 44.5882 31.353C49.4613 31.353 53.4117 35.3035 53.4117 40.1766Z" fill="white"/>
<path fill-rule="evenodd" clip-rule="evenodd" d="M44.5882 45.0001C47.2521 45.0001 49.4117 42.8405 49.4117 40.1766C49.4117 37.5126 47.2521 35.353 44.5882 35.353C41.9242 35.353 39.7646 37.5126 39.7646 40.1766C39.7646 42.8405 41.9242 45.0001 44.5882 45.0001ZM44.5882 49.0001C49.4613 49.0001 53.4117 45.0497 53.4117 40.1766C53.4117 35.3035 49.4613 31.353 44.5882 31.353C39.7151 31.353 35.7646 35.3035 35.7646 40.1766C35.7646 45.0497 39.7151 49.0001 44.5882 49.0001Z" fill="#E0E0E0"/>
<path d="M34 61.3531C34 55.5054 38.7405 50.7649 44.5882 50.7649C50.436 50.7649 55.1765 55.5054 55.1765 61.3531V68.4119C55.1765 74.2597 50.436 79.0002 44.5882 79.0002C38.7405 79.0002 34 74.2597 34 68.412V61.3531Z" fill="#E0E0E0"/>
<path d="M87.8231 33.1177C87.8231 37.5035 84.2678 41.0589 79.882 41.0589C75.4962 41.0589 71.9408 37.5035 71.9408 33.1177C71.9408 28.7319 75.4962 25.1765 79.882 25.1765C84.2678 25.1765 87.8231 28.7319 87.8231 33.1177Z" fill="white"/>
<path fill-rule="evenodd" clip-rule="evenodd" d="M79.882 37.0589C82.0586 37.0589 83.8231 35.2943 83.8231 33.1177C83.8231 30.941 82.0586 29.1765 79.882 29.1765C77.7053 29.1765 75.9408 30.941 75.9408 33.1177C75.9408 35.2943 77.7053 37.0589 79.882 37.0589ZM79.882 41.0589C84.2678 41.0589 87.8231 37.5035 87.8231 33.1177C87.8231 28.7319 84.2678 25.1765 79.882 25.1765C75.4962 25.1765 71.9408 28.7319 71.9408 33.1177C71.9408 37.5035 75.4962 41.0589 79.882 41.0589Z" fill="#1B4991"/>
<path fill-rule="evenodd" clip-rule="evenodd" d="M78.5585 57.1765C76.5981 57.1765 74.6818 57.7578 73.0518 58.8469C71.4218 59.9361 70.1514 61.4841 69.4012 63.2952C68.651 65.1063 68.4547 67.0993 68.8372 69.022C69.2196 70.9447 70.1636 72.7108 71.5498 74.097C72.936 75.4831 74.7021 76.4271 76.6248 76.8096C78.5475 77.192 80.5404 76.9958 82.3516 76.2456C84.1627 75.4954 85.7107 74.2249 86.7998 72.595C87.889 70.965 88.4703 69.0486 88.4703 67.0883H92.4703C92.4703 69.8398 91.6544 72.5295 90.1257 74.8172C88.5971 77.105 86.4243 78.8881 83.8823 79.9411C81.3403 80.994 78.5431 81.2695 75.8444 80.7327C73.1458 80.1959 70.667 78.871 68.7214 76.9254C66.7758 74.9798 65.4508 72.5009 64.914 69.8023C64.3773 67.1037 64.6528 64.3065 65.7057 61.7645C66.7587 59.2224 68.5418 57.0497 70.8295 55.5211C73.1173 53.9924 75.807 53.1765 78.5585 53.1765V57.1765Z" fill="#1B4991"/>
<path d="M73.7056 48.5588C73.7056 45.3913 76.2733 42.8235 79.4409 42.8235C82.6084 42.8235 85.1762 45.3913 85.1762 48.5588V61.7941C85.1762 64.9616 82.6084 67.5294 79.4409 67.5294C76.2733 67.5294 73.7056 64.9616 73.7056 61.7941V48.5588Z" fill="#1B4991"/>
<path fill-rule="evenodd" clip-rule="evenodd" d="M81.1762 61.7941V48.5588C81.1762 47.6004 80.3992 46.8235 79.4409 46.8235C78.4825 46.8235 77.7056 47.6004 77.7056 48.5588V61.7941C77.7056 62.7525 78.4825 63.5294 79.4409 63.5294C80.3992 63.5294 81.1762 62.7525 81.1762 61.7941ZM79.4409 42.8235C76.2733 42.8235 73.7056 45.3913 73.7056 48.5588V61.7941C73.7056 64.9616 76.2733 67.5294 79.4409 67.5294C82.6084 67.5294 85.1762 64.9616 85.1762 61.7941V48.5588C85.1762 45.3913 82.6084 42.8235 79.4409 42.8235Z" fill="#1B4991"/>
<path fill-rule="evenodd" clip-rule="evenodd" d="M82.1761 52.5295C82.1761 50.8727 83.5193 49.5295 85.1761 49.5295H95.7644C97.4212 49.5295 98.7644 50.8727 98.7644 52.5295C98.7644 54.1864 97.4212 55.5295 95.7644 55.5295H85.1761C83.5193 55.5295 82.1761 54.1864 82.1761 52.5295Z" fill="#1B4991"/>
<path fill-rule="evenodd" clip-rule="evenodd" d="M75.8821 64C75.8821 61.7909 77.6729 60 79.8821 60H93.0585C93.9432 60 94.8028 60.2932 95.503 60.8338L103.503 67.0103C105.252 68.3603 105.575 70.8723 104.225 72.6209C102.875 74.3696 100.363 74.6927 98.6141 73.3426L91.6941 68H79.8821C77.6729 68 75.8821 66.2091 75.8821 64Z" fill="#1B4991"/>
</svg>
