<svg width="81" height="80" viewBox="0 0 81 80" fill="none" xmlns="http://www.w3.org/2000/svg">
<path d="M41.2318 18.2818C44.1285 15.2246 48.8616 15.2525 51.7314 18.2873C52.8324 19.4516 53.4425 21.1463 53.4962 23.0966C53.5114 23.6487 53.9712 24.0839 54.5233 24.0687C55.0754 24.0535 55.5106 23.5936 55.4954 23.0416C55.429 20.6281 54.6492 18.4619 53.1845 16.9131C49.7585 13.2901 44.2192 13.0318 40.5 16.2207C36.7809 13.0318 31.2415 13.2901 27.8155 16.9131C24.3057 20.6246 24.931 27.8823 28.7353 31.9053C30.4796 33.7499 33.0623 35.7191 36.4888 37.8241L37.4442 38.4016C37.9324 38.692 38.4363 38.985 38.9559 39.2806L39.9947 39.8632C40.0263 39.8816 40.0589 39.8983 40.0922 39.9132C40.2238 39.9721 40.3626 40.0003 40.4998 40.0002C40.6371 40.0004 40.776 39.9722 40.9078 39.9132C40.9411 39.8983 40.9736 39.8816 41.0052 39.8632L42.0441 39.2806C42.5637 38.985 43.0676 38.692 43.5558 38.4016L44.5112 37.8241C47.9377 35.7191 50.5204 33.7499 52.2647 31.9053C52.6441 31.5041 52.6265 30.8712 52.2252 30.4917C51.8239 30.1122 51.191 30.1299 50.8115 30.5312C49.194 32.2417 46.7303 34.1162 43.4257 36.1436L42.5036 36.7003C41.8644 37.0802 41.1965 37.4653 40.5 37.8555C39.8035 37.4653 39.1356 37.0802 38.4965 36.7003L37.5743 36.1436C34.2697 34.1162 31.806 32.2417 30.1885 30.5312C27.067 27.2302 26.5447 21.1678 29.2686 18.2873C32.1384 15.2525 36.8714 15.2246 39.7681 18.2816C39.7762 18.2903 39.7844 18.2989 39.7929 18.3073C39.8751 18.3896 39.9682 18.4546 40.0678 18.5023C40.3396 18.6324 40.6589 18.6333 40.9322 18.5023C41.0318 18.4546 41.1249 18.3896 41.2071 18.3073C41.2155 18.2989 41.2237 18.2904 41.2318 18.2818Z" fill="#E1000F"/>
<path d="M17.5 26C18.0523 26 18.5 26.4477 18.5 27C18.5 27.5129 18.114 27.9355 17.6166 27.9933L17.5 28H11.5C10.9477 28 10.5 27.5523 10.5 27C10.5 26.4872 10.886 26.0645 11.3834 26.0068L11.5 26H17.5Z" fill="#E1000F"/>
<path d="M21.5 28C22.0523 28 22.5 27.5523 22.5 27C22.5 26.4477 22.0523 26 21.5 26C20.9477 26 20.5 26.4477 20.5 27C20.5 27.5523 20.9477 28 21.5 28Z" fill="#E1000F"/>
<path d="M46.5712 20.6287C46.8545 19.9205 47.7803 19.7884 48.2567 20.3461L48.3317 20.4454L52.0347 26.0001H59.4997C60.0125 26.0001 60.4352 26.3862 60.493 26.8835L60.4997 27.0001C60.4997 27.513 60.1136 27.9356 59.6163 27.9934L59.4997 28.0001H51.4997C51.2071 28.0001 50.9315 27.8722 50.7429 27.6538L50.6676 27.5548L47.7217 23.1361L44.4282 31.3715C44.1449 32.0798 43.2191 32.2119 42.7427 31.6542L42.6676 31.5548L39.3437 26.5701L38.2068 27.7072C38.0505 27.8635 37.8478 27.9627 37.6311 27.9915L37.4997 28.0001H33.4997C32.9474 28.0001 32.4997 27.5524 32.4997 27.0001C32.4997 26.4873 32.8857 26.0646 33.3831 26.0069L33.4997 26.0001H37.0837L38.7926 24.293C39.209 23.8766 39.884 23.9129 40.2567 24.3465L40.3317 24.4454L43.2767 28.8631L46.5712 20.6287Z" fill="#000091"/>
<path d="M61.4316 42.6893C63.7821 41.3323 66.7204 41.9283 67.9777 44.1061C69.2351 46.2839 68.2821 49.1265 65.9316 50.4836L49.8883 60.9354L49.6483 61.0568C47.6235 62.034 44.9678 62.1624 41.2359 61.7471L40.9375 61.7131L40.3275 61.6385L39.6867 61.5538L38.9995 61.4572L37.0954 61.1717L34.785 60.833L33.4158 60.6484L32.6956 60.5603L32.0456 60.4893L31.4606 60.4352L30.9358 60.3979L30.617 60.3823L30.3212 60.3742L29.9176 60.3759C29.8753 60.377 29.8338 60.3784 29.7931 60.3801L29.5578 60.3942L29.3398 60.4155L29.1375 60.4442L28.9495 60.4802L28.7744 60.5235L28.6107 60.574L28.4569 60.6317C28.4321 60.642 28.4075 60.6525 28.3833 60.6633L28.2417 60.7319L28.1063 60.8076L28.0834 60.8218L28.6767 62.452L28.7321 62.6186C29.1852 64.1233 28.4198 65.738 26.9438 66.2752L21.486 68.2617L21.3741 68.2953C20.887 68.4111 20.3797 68.1459 20.2043 67.664C20.0154 67.145 20.283 66.5712 20.802 66.3823L26.2598 64.3958L26.3588 64.3527C26.7721 64.1418 26.975 63.6241 26.7973 63.136L20.641 46.2215L20.5946 46.1129C20.3712 45.6598 19.864 45.4402 19.4194 45.602L13.9616 47.5885L13.8626 47.6315C13.4493 47.8425 13.2464 48.3601 13.424 48.8483L16.5621 58.407L16.5921 58.5199C16.6923 59.0104 16.4111 59.509 15.9239 59.6689C15.3991 59.8412 14.8341 59.5554 14.6619 59.0307L11.4799 49.3386C11.0361 47.861 11.8015 46.2463 13.2775 45.7091L18.7353 43.7226L18.8999 43.6682C20.3853 43.2251 21.9763 44.0426 22.5203 45.5375L22.7892 46.2763C22.8385 46.2267 22.8937 46.1816 22.9547 46.1419C28.8042 42.3398 36.77 42.8522 41.224 46.0149L41.4512 46.1808C43.3355 47.5962 45.0103 47.5381 47.9162 45.9483L48.3984 45.677L48.9036 45.3789L49.4331 45.0538C49.6138 44.9409 49.7988 44.8235 49.9882 44.7017C50.0013 44.6933 50.0145 44.6852 50.0277 44.6775L50.0421 44.6683L50.0518 44.6622L51.9273 43.5077L52.102 43.4046C53.9247 42.3905 56.2491 42.9751 57.3702 44.7692C58.7324 46.9492 58.8948 48.3372 57.052 49.4887L56.6173 49.7786L53.8129 51.6393L51.7433 52.9989L49.4661 54.4724L48.3241 55.1954C46.7751 56.1647 44.203 55.9982 40.5065 54.7889L39.8002 54.5499C39.5604 54.4662 39.3161 54.3784 39.0674 54.2866L38.308 53.9992C37.9216 53.8495 37.5251 53.6907 37.1185 53.523C36.6079 53.3125 36.3647 52.7279 36.5753 52.2173C36.7859 51.7067 37.3705 51.4635 37.881 51.6741C38.0116 51.728 38.141 51.7808 38.2691 51.8326L39.0233 52.1308C39.1465 52.1785 39.2685 52.2251 39.3892 52.2707L40.0989 52.5319C40.3305 52.6149 40.5571 52.6938 40.7787 52.7687L41.4284 52.9811L42.0479 53.1695C44.6664 53.9336 46.4276 54.0229 47.2632 53.5L48.6473 52.6218L50.3459 51.5226L53.0998 49.7135L56.1006 47.7188C56.4613 47.4517 56.4667 47.1895 56.0309 46.4215L55.8692 46.1461L55.6741 45.829C55.1022 44.9138 53.8966 44.6355 52.9814 45.2074L51.1002 46.3654L51.0883 46.3718L51.0702 46.3837L50.7729 46.5736L50.1938 46.9343C50.099 46.9923 50.005 47.0492 49.9119 47.1051L49.3625 47.4275C45.5823 49.5941 43.156 49.8648 40.4442 47.9224L40.25 47.7799C36.4921 44.9571 29.2629 44.427 24.0447 47.8188C23.8485 47.9463 23.6242 47.9963 23.408 47.9762L27.3891 58.9142L27.4453 58.8836L27.6377 58.7893L27.8336 58.7043L28.0347 58.6283L28.2428 58.5615L28.4597 58.5038L28.6871 58.4551C28.7649 58.4404 28.8447 58.4272 28.9268 58.4154L29.1805 58.3847L29.45 58.3628L29.737 58.3498C29.7864 58.3483 29.8366 58.3473 29.8877 58.3466L30.2043 58.3468L30.5429 58.3557L30.9052 58.3733L31.2929 58.3995L31.7078 58.4344L32.3851 58.5027L33.1334 58.5902L34.252 58.7362L35.8642 58.9656L38.5444 59.3685L39.6218 59.5257L40.5755 59.654L41.1681 59.7264L41.8727 59.8037C45.1548 60.1376 47.4206 59.9801 48.8762 59.2129L64.8858 48.7796L65.0468 48.6811C66.409 47.7999 66.8963 46.233 66.2457 45.1061C65.57 43.9358 63.8699 43.591 62.4316 44.4214C61.9533 44.6975 61.3417 44.5337 61.0655 44.0554C60.7894 43.5771 60.9533 42.9655 61.4316 42.6893Z" fill="#000091"/>
<path d="M17.4997 50.0001C18.052 50.0001 18.4997 49.5524 18.4997 49.0001C18.4997 48.4478 18.052 48.0001 17.4997 48.0001C16.9474 48.0001 16.4997 48.4478 16.4997 49.0001C16.4997 49.5524 16.9474 50.0001 17.4997 50.0001Z" fill="#000091"/>
<path d="M63.4997 28.0001C64.052 28.0001 64.4997 27.5524 64.4997 27.0001C64.4997 26.4478 64.052 26.0001 63.4997 26.0001C62.9474 26.0001 62.4997 26.4478 62.4997 27.0001C62.4997 27.5524 62.9474 28.0001 63.4997 28.0001Z" fill="#000091"/>
</svg>
