<svg width="27" height="28" viewBox="0 0 27 28" fill="none" xmlns="http://www.w3.org/2000/svg">
<path fill-rule="evenodd" clip-rule="evenodd" d="M22.6667 0.666748C23.4027 0.666748 24 1.26408 24 2.00008V7.00941L21.3333 9.67608V3.33341H2.66667V24.6667H21.3333V20.9894L24 18.3227V26.0001C24 26.7361 23.4027 27.3334 22.6667 27.3334H1.33333C0.597333 27.3334 0 26.7361 0 26.0001V2.00008C0 1.26408 0.597333 0.666748 1.33333 0.666748H22.6667ZM25.0373 9.74408L26.9227 11.6294L16.552 22.0001L14.664 21.9974L14.6667 20.1147L25.0373 9.74408ZM13.3333 14.0001V16.6667H6.66667V14.0001H13.3333ZM17.3333 8.66675V11.3334H6.66667V8.66675H17.3333Z" fill="#00008F"/>
</svg>
