<svg width="32" height="32" viewBox="0 0 32 32" fill="none" xmlns="http://www.w3.org/2000/svg">
<path fill-rule="evenodd" clip-rule="evenodd" d="M16.8642 2.64724C17.2561 2.55137 17.6688 2.70386 17.892 3.02619L18.1805 3.44065H18.3305C18.7538 3.44065 19.1205 3.70744 19.2424 4.10508L19.2947 4.27252C19.5119 4.31872 19.706 4.43835 19.8429 4.61034C19.9289 4.62663 20.0117 4.65467 20.0909 4.69419L20.4733 4.88139C20.6394 4.96418 20.7736 5.08755 20.8653 5.23764L21.18 5.1634C21.4576 5.09503 21.7614 5.16019 21.9917 5.33751C22.223 5.51644 22.3556 5.78429 22.3556 6.07244V6.40679L23.0021 6.83647C23.1485 6.82819 23.3007 6.85436 23.4387 6.91418L23.5424 6.95825L23.6744 6.9051C23.8789 6.82445 24.1034 6.8135 24.3087 6.87386L24.8264 7.02608C25.0085 7.07975 25.1686 7.18417 25.2889 7.32838L25.6629 7.77622L26.1599 7.72628C26.3597 7.70973 26.5421 7.74578 26.7062 7.83177L27.0089 7.99173L27.4499 7.99948C27.6266 8.00322 27.7975 8.05396 27.9448 8.14636L28.3294 8.3851C28.7461 8.64601 28.892 9.18438 28.662 9.6114L28.2474 10.3829L28.2262 10.6147C28.2189 10.69 28.2039 10.7592 28.1805 10.8275L27.8841 11.6677L27.9072 13.0606C27.9129 13.3432 27.7885 13.6105 27.5656 13.7931L27.0223 14.2375C26.9273 14.315 26.8173 14.3734 26.6994 14.4103L25.7666 15.5901C26.0862 15.6694 26.3515 15.9074 26.4487 16.2329L26.5503 16.5739L26.6801 16.7342L26.985 17.1799C27.2052 17.5051 27.1965 17.9335 26.9637 18.2481L27.3239 18.67C27.4774 18.8522 27.5555 19.0805 27.5443 19.3139L27.5185 19.7999C27.5024 20.076 27.3617 20.3297 27.1442 20.4937L27.2117 20.5567C27.4208 20.7512 27.5275 21.0265 27.5032 21.3109C27.4872 21.5013 27.4134 21.6792 27.2923 21.8242L27.4055 21.9013L27.5258 21.8594C27.9924 21.6986 28.5014 21.908 28.7097 22.3465L28.8662 22.6795C29.0121 22.992 28.9715 23.3562 28.7608 23.6297L28.7083 23.7029C28.7584 24.0233 28.6351 24.347 28.3773 24.5588L27.417 25.3404L27.001 25.6024C27.007 25.7469 26.9787 25.8921 26.9175 26.0254C26.8154 26.2505 26.6194 26.43 26.3809 26.517L25.5401 26.8215C25.4628 26.8477 25.4035 26.8623 25.3417 26.8706L24.7118 26.9587C24.5923 26.9756 24.4663 26.9697 24.3476 26.9406L23.0541 26.6447L22.1931 26.3985C22.1705 26.3921 22.1485 26.3849 22.127 26.3768C21.9299 26.4014 21.7301 26.3651 21.5553 26.273L21.2592 26.1125C21.0174 26.1611 20.7646 26.1165 20.5555 25.9856L19.7441 26.4647L19.4888 26.9726L19.737 27.8293C19.8061 28.0707 19.7732 28.3325 19.6477 28.5482C19.5258 28.7611 19.3151 28.9213 19.0701 28.987L18.0453 29.2543C17.9723 29.2743 17.8866 29.2856 17.8005 29.2856L17.6642 29.2751L16.8059 29.1251L16.4167 29.203C16.2136 29.2423 16.0005 29.2169 15.8165 29.1312L15.3581 28.9128C15.1188 28.799 14.9389 28.5899 14.8621 28.3426L14.4862 28.1917L14.3289 28.1583C14.2959 28.1979 14.26 28.2342 14.2208 28.2681C14.012 28.4481 13.7346 28.5301 13.4594 28.4911L11.8385 28.2766C11.7097 28.2598 11.5883 28.2179 11.4767 28.1525L11.2026 27.9938H10.7908C10.5292 27.9938 10.2766 27.8867 10.0975 27.6998L9.81953 27.4103L8.89077 27.0186C8.70159 26.9387 8.54099 26.7974 8.43891 26.6209L8.24946 26.2943L7.85231 26.0796C7.60352 25.9437 7.43067 25.7106 7.3765 25.439C7.32342 25.1634 7.39583 24.8827 7.57521 24.668L8.19366 23.9299L8.53664 22.0907C8.54426 22.049 8.55514 22.0079 8.56848 21.9673C8.5154 21.8287 8.49689 21.6794 8.51486 21.5293L8.7985 19.1002C8.80367 19.0554 8.81211 19.0108 8.82381 18.9673C8.74705 18.8324 8.70459 18.6794 8.70241 18.5239C8.6986 18.2582 8.8102 18.0037 9.00864 17.824C8.95855 17.7313 8.92534 17.6349 8.90874 17.5353L8.47158 17.3153C8.34201 17.2501 8.22768 17.1553 8.14167 17.041L7.39665 16.0706C7.31553 15.9648 7.25918 15.846 7.22897 15.7172L7.00794 14.7345L7.00549 14.7233L6.90668 14.6563C6.82447 14.6007 6.75207 14.5331 6.69109 14.4552L6.37017 14.0383L4.57988 13.34H4.06514C3.72816 13.34 3.41294 13.1626 3.24282 12.8769L3.02397 12.5108C2.9042 12.3123 2.86663 12.0744 2.91318 11.8501C2.74196 11.7347 2.61294 11.571 2.54625 11.3835L2.33937 10.7995C2.17877 10.345 2.39218 9.84934 2.83587 9.64584L4.19199 9.02495C4.30142 8.97662 4.40567 8.94964 4.51401 8.94083L6.3816 8.77606C6.67639 8.75763 6.95159 8.85751 7.14649 9.05219L7.49219 9.39695L7.56487 9.36891C7.73336 9.30455 7.91465 9.288 8.08913 9.32058L8.33929 9.36491L8.00148 8.57043L7.74888 7.56125C7.68219 7.29046 7.7399 7.00738 7.90757 6.78413C8.07498 6.55927 8.33548 6.42094 8.62184 6.40518L9.38727 6.367C9.64369 6.34216 9.93358 6.45459 10.1315 6.66209L10.788 7.35401L11.6403 7.51905L11.6493 7.41303C11.68 7.0429 11.9321 6.72591 12.2917 6.60601L13.9091 6.06176L14.343 5.6724L14.2812 4.72597C14.272 4.57348 14.3003 4.421 14.3629 4.28347L14.701 3.55655C14.8207 3.29938 15.0491 3.11138 15.3273 3.04008L16.8642 2.64724ZM16.6132 5.28556L16.1729 5.39325L16.1255 5.49092L16.1991 6.57784C16.2167 6.84506 16.1065 7.10101 15.8967 7.28083L14.9996 8.05219C14.9025 8.13533 14.7908 8.19719 14.6676 8.23601L13.6846 8.55257L13.9878 8.76219L13.6105 8.94276C13.5332 9.15864 13.3673 9.34146 13.1486 9.44589L12.5046 9.75419C12.3166 9.84184 12.1038 9.86989 11.9036 9.83358L10.3166 9.54006C10.3169 9.54281 10.3171 9.54557 10.3174 9.54832L10.3934 10.6129C10.4257 11.0695 10.0873 11.467 9.60646 11.5378L9.20112 11.5972C9.09632 11.6122 8.99072 11.6112 8.88725 11.5929L8.10217 11.4594L7.7035 11.6062C7.35283 11.7344 6.95736 11.6548 6.69602 11.4038L6.23495 10.9641L5.00373 11.0677L4.9528 11.0898C5.152 11.2648 5.25814 11.5115 5.24774 11.7635C5.252 11.765 5.25627 11.7667 5.26054 11.7682L7.4291 12.5779C7.59417 12.6418 7.72803 12.7384 7.8299 12.8657L8.10511 13.208C8.28671 13.194 8.47178 13.2293 8.63338 13.3125L9.16432 13.5857C9.37819 13.6961 9.53739 13.8822 9.60832 14.0988L10.3462 14.4783L9.55286 14.7407C9.46246 14.9128 9.31365 15.0535 9.13125 15.1392L9.59792 15.7207L10.4187 16.1161C10.8009 16.3015 10.9993 16.7042 10.9019 17.0956L10.8929 17.1324L11.0707 17.448C11.2131 17.7004 11.2134 17.9957 11.0851 18.2426L11.1606 18.3017C11.2982 18.4122 11.3977 18.5514 11.4505 18.7062L11.9665 20.1725C12.0444 20.3882 12.0257 20.6271 11.9185 20.8327L12.2686 21.8272L11.3059 21.297C11.1867 21.3248 11.063 21.3303 10.9427 21.3133C10.9179 21.3957 10.8803 21.4753 10.8302 21.549L10.4233 22.1508L10.0766 23.9307C10.0483 24.0777 9.97926 24.2167 9.87739 24.3321L9.77606 24.4481C9.79659 24.4746 9.81553 24.5027 9.83286 24.5317L9.99233 24.7947L10.7923 25.1177C10.9161 25.1698 11.0166 25.236 11.103 25.3219L11.2318 25.4506H11.4862C11.6505 25.4506 11.8132 25.4919 11.9561 25.5698L12.291 25.7556L12.8025 25.82C12.8532 25.7509 12.9145 25.6883 12.9844 25.6347C13.2046 25.4691 13.4865 25.405 13.7588 25.4558L15.0657 25.7338L15.9855 26.0845C16.2063 26.1709 16.3796 26.3274 16.478 26.5217L16.5223 26.5132C16.5833 26.5012 16.6465 26.4954 16.7092 26.4954L16.8465 26.5057L17.5218 26.6189L17.4556 26.4C17.3922 26.1866 17.4151 25.9622 17.5194 25.7669L18.0479 24.7629C18.1266 24.6119 18.2506 24.4856 18.406 24.3985L19.9589 23.5212C20.2327 23.3637 20.5709 23.3531 20.8549 23.4866C21.0786 23.3684 21.3335 23.3411 21.5754 23.4072L21.9154 23.5049C21.9303 23.5094 21.9453 23.5139 21.9599 23.5192C22.2551 23.406 22.5944 23.441 22.8586 23.6206L23.3653 23.9657C23.4994 24.0564 23.6048 24.1791 23.6712 24.3196L24.3762 24.4729L24.725 24.4265L24.7949 24.402C24.8288 24.3211 24.8757 24.2447 24.9333 24.1766L25.2381 23.8187C25.3056 23.7408 25.3792 23.6792 25.4643 23.6281L26.0523 23.2743L26.2861 23.0899L25.5232 22.5923C25.2757 22.4318 25.1258 22.1666 25.1221 21.8831L25.1096 21.0341L24.792 20.7491C24.6088 20.5875 24.5029 20.3559 24.5029 20.1152V19.8064C24.5029 19.4535 24.7261 19.1372 25.0717 18.9992L24.9477 18.8602C24.817 18.7115 24.7429 18.5344 24.732 18.3468L24.7069 17.9591C24.7048 17.9228 24.705 17.8868 24.7072 17.8509C24.592 17.9268 24.4586 17.9784 24.3184 17.9995C24.0696 18.036 23.8106 17.9762 23.6088 17.8337L23.3397 17.6406C23.0122 17.4062 22.8866 16.9902 23.0346 16.6285L23.1765 16.2827L23.216 15.8374C23.2288 15.6936 23.2797 15.5542 23.3629 15.4334L23.9586 14.5787L24.5741 13.8316C24.5594 13.7292 24.564 13.6245 24.5882 13.5231C24.648 13.2701 24.8226 13.056 25.0674 12.936L25.3848 12.781C25.4899 12.7294 25.604 12.6976 25.72 12.6864L25.7043 11.7677C25.7024 11.6628 25.7203 11.5594 25.7579 11.4602L26.0597 10.6412L26.0872 10.3555C26.0944 10.2806 26.112 10.2075 26.1389 10.1369C26.1011 10.1233 26.064 10.1076 26.0285 10.0893L25.7899 9.96856L25.0885 10.0362C24.757 10.0585 24.4632 9.94152 24.2693 9.71737L23.8053 9.18468L23.6648 9.23853C23.4346 9.32793 23.1701 9.32568 22.9405 9.23227L22.6872 9.12933L22.6165 9.13484C22.4079 9.15062 22.1973 9.09903 22.0253 8.99284L20.8778 8.26256C20.8109 8.22023 20.7501 8.16939 20.6973 8.11229C20.6087 8.12081 20.5186 8.11705 20.4301 8.10102L19.8162 7.99534C19.4106 7.92546 19.098 7.6074 19.0564 7.22172L19.041 7.08048C18.7812 7.03439 18.5482 6.88463 18.4087 6.66249L18.3954 6.6412C18.2492 6.60714 18.1124 6.54002 17.9999 6.44611L17.7714 6.25527C17.7138 6.20694 17.6634 6.15359 17.6207 6.09474C17.3442 6.07395 17.0892 5.93771 16.9273 5.71707L16.6132 5.28556Z" fill="#00008F"/>
</svg>
