<svg width="28" height="26" viewBox="0 0 28 26" fill="none" xmlns="http://www.w3.org/2000/svg">
<path fill-rule="evenodd" clip-rule="evenodd" d="M7.33366 14.0001C11.0156 14.0001 14.0003 16.9848 14.0003 20.6667V26.0001H11.3337V20.6667C11.3337 18.4576 9.5428 16.6667 7.33366 16.6667C5.12452 16.6667 3.33366 18.4576 3.33366 20.6667V26.0001H0.666992V20.6667C0.666992 16.9848 3.65176 14.0001 7.33366 14.0001ZM24.3337 20.1373C26.1901 21.2091 27.3337 23.1898 27.3337 25.3334V26.0001H24.667V25.3334C24.667 23.4925 23.1746 22.0001 21.3337 22.0001C19.4927 22.0001 18.0003 23.4925 18.0003 25.3334V26.0001H15.3337V25.3334C15.3337 23.1898 16.4773 21.2091 18.3337 20.1373C20.1901 19.0655 22.4773 19.0655 24.3337 20.1373ZM21.3337 7.33342C24.2792 7.33342 26.667 9.72123 26.667 12.6667C26.667 15.6123 24.2792 18.0001 21.3337 18.0001C18.3881 18.0001 16.0003 15.6123 16.0003 12.6667C16.0003 9.72123 18.3881 7.33342 21.3337 7.33342ZM21.3337 10.0001C19.8609 10.0001 18.667 11.194 18.667 12.6667C18.667 14.1395 19.8609 15.3334 21.3337 15.3334C22.8064 15.3334 24.0003 14.1395 24.0003 12.6667C24.0003 11.194 22.8064 10.0001 21.3337 10.0001ZM7.33366 0.666748C10.6474 0.666748 13.3337 3.35304 13.3337 6.66675C13.3337 9.98046 10.6474 12.6667 7.33366 12.6667C5.19007 12.6667 3.2093 11.5232 2.13751 9.66675C1.06571 7.81034 1.06571 5.52315 2.13751 3.66675C3.2093 1.81034 5.19007 0.666748 7.33366 0.666748ZM7.33366 3.33341C5.49271 3.33341 4.00033 4.8258 4.00033 6.66675C4.00033 8.5077 5.49271 10.0001 7.33366 10.0001C9.17461 10.0001 10.667 8.5077 10.667 6.66675C10.667 4.8258 9.17461 3.33341 7.33366 3.33341Z" fill="#00008F"/>
</svg>
