<svg width="81" height="80" viewBox="0 0 81 80" fill="none" xmlns="http://www.w3.org/2000/svg">
<path d="M11.6 49C11.4 49 11.2 48.9 11 48.8C10.5 48.5 10.4 47.9 10.7 47.4L12.7 44.5C13 44 13.6 43.9 14.1 44.2C14.6 44.5 14.7 45.1 14.4 45.6L12.4 48.5C12.3 48.8 12 49 11.6 49Z" fill="#E1000F"/>
<path d="M27.9004 49.0001C27.6004 49.0001 27.3004 48.8001 27.1004 48.6001L25.1004 45.7001C24.8004 45.2001 24.9004 44.6001 25.4004 44.3001C25.9004 44.0001 26.5004 44.1001 26.8004 44.6001L28.8004 47.5001C29.1004 48.0001 29.0004 48.6001 28.5004 48.9001C28.3004 48.9001 28.1004 49.0001 27.9004 49.0001Z" fill="#E1000F"/>
<path d="M51.7002 14.0001C51.1002 14.0001 50.7002 13.6001 50.7002 13.0001V9.1001C50.7002 8.5001 51.1002 8.1001 51.7002 8.1001H61.5002C62.1002 8.1001 62.5002 8.5001 62.5002 9.1001V12.8001C62.5002 13.4001 62.1002 13.8001 61.5002 13.8001C60.9002 13.8001 60.5002 13.4001 60.5002 12.8001V10.1001H52.6002V13.0001C52.7002 13.6001 52.2002 14.0001 51.7002 14.0001Z" fill="#E1000F"/>
<path d="M25.3996 21.7998H13.5996C12.9996 21.7998 12.5996 21.3998 12.5996 20.7998C12.5996 20.1998 12.9996 19.7998 13.5996 19.7998H25.3996C25.9996 19.7998 26.3996 20.1998 26.3996 20.7998C26.3996 21.3998 25.9996 21.7998 25.3996 21.7998Z" fill="#E1000F"/>
<path d="M26.0996 46.1H13.2996C10.6996 46.1 9.59961 44 9.59961 42.6V35.1V35L10.2996 28.8C10.5996 25.9 13.0996 25 14.3996 25L19.6996 24.5C19.7996 24.5 19.7996 24.5 19.8996 24.5L24.9996 25C26.1996 25 28.6996 25.9 28.9996 28.8L29.6996 35V35.1V42.6C29.6996 44 28.6996 46.1 26.0996 46.1ZM11.4996 35.1V42.5C11.4996 42.8 11.6996 44 13.1996 44H25.9996C27.5996 44 27.6996 42.6 27.6996 42.4V35L27.0996 29C26.8996 27.1 25.0996 26.9 24.8996 26.9L19.7996 26.4L14.4996 26.9C14.2996 26.9 12.4996 27.1 12.1996 29L11.4996 35.1Z" fill="#000091"/>
<path d="M15.3 40.3998C16.018 40.3998 16.6 39.8178 16.6 39.0998C16.6 38.3818 16.018 37.7998 15.3 37.7998C14.582 37.7998 14 38.3818 14 39.0998C14 39.8178 14.582 40.3998 15.3 40.3998Z" fill="#E1000F"/>
<path d="M23.8 40.3998C24.518 40.3998 25.1 39.8178 25.1 39.0998C25.1 38.3818 24.518 37.7998 23.8 37.7998C23.082 37.7998 22.5 38.3818 22.5 39.0998C22.5 39.8178 23.082 40.3998 23.8 40.3998Z" fill="#E1000F"/>
<path d="M28.1004 35.2998H11.4004C10.8004 35.2998 10.4004 34.8998 10.4004 34.2998C10.4004 33.6998 10.8004 33.2998 11.4004 33.2998H28.1004C28.7004 33.2998 29.1004 33.6998 29.1004 34.2998C29.1004 34.8998 28.6004 35.2998 28.1004 35.2998Z" fill="#000091"/>
<path d="M49.1002 34.8C49.8734 34.8 50.5002 34.1732 50.5002 33.4C50.5002 32.6268 49.8734 32 49.1002 32C48.327 32 47.7002 32.6268 47.7002 33.4C47.7002 34.1732 48.327 34.8 49.1002 34.8Z" fill="#E1000F"/>
<path d="M63.8004 34.8C64.5736 34.8 65.2004 34.1732 65.2004 33.4C65.2004 32.6268 64.5736 32 63.8004 32C63.0272 32 62.4004 32.6268 62.4004 33.4C62.4004 34.1732 63.0272 34.8 63.8004 34.8Z" fill="#E1000F"/>
<path d="M46.5996 37.1001V40.4001H49.0996V37.1001" fill="#E1000F"/>
<path d="M49.0996 41.4001H46.5996C45.9996 41.4001 45.5996 41.0001 45.5996 40.4001V37.1001C45.5996 36.5001 45.9996 36.1001 46.5996 36.1001C47.1996 36.1001 47.5996 36.5001 47.5996 37.1001V39.4001H48.0996V37.1001C48.0996 36.5001 48.4996 36.1001 49.0996 36.1001C49.6996 36.1001 50.0996 36.5001 50.0996 37.1001V40.4001C50.0996 41.0001 49.6996 41.4001 49.0996 41.4001Z" fill="#E1000F"/>
<path d="M63.4004 37.1001V40.4001H65.9004V37.1001" fill="#E1000F"/>
<path d="M65.9004 41.4001H63.4004C62.8004 41.4001 62.4004 41.0001 62.4004 40.4001V37.1001C62.4004 36.5001 62.8004 36.1001 63.4004 36.1001C64.0004 36.1001 64.4004 36.5001 64.4004 37.1001V39.4001H64.9004V37.1001C64.9004 36.5001 65.3004 36.1001 65.9004 36.1001C66.5004 36.1001 66.9004 36.5001 66.9004 37.1001V40.4001C66.9004 41.0001 66.5004 41.4001 65.9004 41.4001Z" fill="#E1000F"/>
<path d="M65.0004 38.1002H48.2004C46.4004 38.1002 44.9004 36.6002 44.9004 34.8002V16.0002C44.9004 14.2002 46.4004 12.7002 48.2004 12.7002H65.1004C66.9004 12.7002 68.4004 14.2002 68.4004 16.0002V34.8002C68.3004 36.6002 66.8004 38.1002 65.0004 38.1002ZM48.2004 14.8002C47.5004 14.8002 46.9004 15.4002 46.9004 16.1002V34.9002C46.9004 35.6002 47.5004 36.2002 48.2004 36.2002H65.1004C65.8004 36.2002 66.4004 35.6002 66.4004 34.9002V16.0002C66.4004 15.3002 65.8004 14.7002 65.1004 14.7002H48.2004V14.8002Z" fill="#000091"/>
<path d="M71.5004 27.1001H68.4004C67.8004 27.1001 67.4004 26.7001 67.4004 26.1001C67.4004 25.5001 67.8004 25.1001 68.4004 25.1001H70.5004V20.6001H68.4004C67.8004 20.6001 67.4004 20.2001 67.4004 19.6001C67.4004 19.0001 67.8004 18.6001 68.4004 18.6001H71.5004C72.1004 18.6001 72.5004 19.0001 72.5004 19.6001V26.1001C72.5004 26.6001 72.1004 27.1001 71.5004 27.1001Z" fill="#000091"/>
<path d="M44.8002 27.1001H41.7002C41.1002 27.1001 40.7002 26.7001 40.7002 26.1001V19.6001C40.7002 19.0001 41.1002 18.6001 41.7002 18.6001H44.8002C45.4002 18.6001 45.8002 19.0001 45.8002 19.6001C45.8002 20.2001 45.4002 20.6001 44.8002 20.6001H42.7002V25.1001H44.8002C45.4002 25.1001 45.8002 25.5001 45.8002 26.1001C45.8002 26.7001 45.4002 27.1001 44.8002 27.1001Z" fill="#000091"/>
<path d="M63.5002 20.5H49.7002C49.1002 20.5 48.7002 20.1 48.7002 19.5C48.7002 18.9 49.1002 18.5 49.7002 18.5H63.5002C64.1002 18.5 64.5002 18.9 64.5002 19.5C64.5002 20.1 64.1002 20.5 63.5002 20.5Z" fill="#000091"/>
<path d="M66.7996 29.2998H46.5996C45.9996 29.2998 45.5996 28.8998 45.5996 28.2998C45.5996 27.6998 45.9996 27.2998 46.5996 27.2998H66.7996C67.3996 27.2998 67.7996 27.6998 67.7996 28.2998C67.7996 28.8998 67.3996 29.2998 66.7996 29.2998Z" fill="#000091"/>
<path d="M45.4997 66.6998H38.2997C37.9997 66.6998 37.6997 66.4998 37.4997 66.2998C37.2997 66.0998 37.2997 65.6998 37.3997 65.3998L40.8997 57.1998C41.0997 56.6998 41.6997 56.4998 42.1997 56.6998C42.6997 56.8998 42.8997 57.4998 42.6997 57.9998L39.7997 64.7998H45.0997L52.8997 55.5998C53.2997 55.1998 53.8997 55.0998 54.2997 55.4998C54.6997 55.8998 54.7997 56.4998 54.3997 56.8998L46.2997 66.3998C45.9997 66.4998 45.6997 66.6998 45.4997 66.6998Z" fill="#000091"/>
<path d="M38.6998 71.9001C35.6998 71.9001 33.2998 69.5001 33.2998 66.5001C33.2998 63.5001 35.6998 61.1001 38.6998 61.1001C41.6998 61.1001 44.0998 63.5001 44.0998 66.5001C44.0998 69.5001 41.6998 71.9001 38.6998 71.9001ZM38.6998 63.1001C36.7998 63.1001 35.2998 64.6001 35.2998 66.5001C35.2998 68.4001 36.7998 69.9001 38.6998 69.9001C40.5998 69.9001 42.0998 68.4001 42.0998 66.5001C42.0998 64.6001 40.5998 63.1001 38.6998 63.1001Z" fill="#000091"/>
<path d="M51.4004 51.7998H46.9004C46.3004 51.7998 45.9004 51.3998 45.9004 50.7998C45.9004 50.1998 46.3004 49.7998 46.9004 49.7998H51.4004C52.0004 49.7998 52.4004 50.1998 52.4004 50.7998C52.4004 51.3998 52.0004 51.7998 51.4004 51.7998Z" fill="#000091"/>
<path d="M56.3004 71.9001C53.3004 71.9001 50.9004 69.5001 50.9004 66.5001C50.9004 63.5001 53.3004 61.1001 56.3004 61.1001C59.3004 61.1001 61.7004 63.5001 61.7004 66.5001C61.7004 69.5001 59.3004 71.9001 56.3004 71.9001ZM56.3004 63.1001C54.4004 63.1001 52.9004 64.6001 52.9004 66.5001C52.9004 68.4001 54.4004 69.9001 56.3004 69.9001C58.2004 69.9001 59.7004 68.4001 59.7004 66.5001C59.7004 64.6001 58.2004 63.1001 56.3004 63.1001Z" fill="#000091"/>
<path d="M56.2999 66.6C55.8999 66.6 55.4999 66.3 55.2999 65.9L50.9999 51.1C50.7999 50.6 51.1999 50 51.6999 49.9C52.1999 49.8 52.7999 50.1 52.8999 50.6L57.1999 65.4C57.3999 65.9 56.9999 66.5 56.4999 66.6C56.4999 66.6 56.3999 66.6 56.2999 66.6Z" fill="#000091"/>
<path d="M29.6 69.7998H20.5C19.9 69.7998 19.5 69.3998 19.5 68.7998C19.5 68.1998 19.9 67.7998 20.5 67.7998H29.7C30.3 67.7998 30.7 68.1998 30.7 68.7998C30.7 69.3998 30.2 69.7998 29.6 69.7998Z" fill="#E1000F"/>
<path d="M29.6 66.2002H22C21.4 66.2002 21 65.8002 21 65.2002C21 64.6002 21.4 64.2002 22 64.2002H29.6C30.2 64.2002 30.6 64.6002 30.6 65.2002C30.6 65.8002 30.2 66.2002 29.6 66.2002Z" fill="#E1000F"/>
<path d="M29.6 62.7002H26C25.4 62.7002 25 62.3002 25 61.7002C25 61.1002 25.4 60.7002 26 60.7002H29.6C30.2 60.7002 30.6 61.1002 30.6 61.7002C30.6 62.3002 30.2 62.7002 29.6 62.7002Z" fill="#E1000F"/>
<path d="M44.1996 57.7998H40.5996C39.9996 57.7998 39.5996 57.3998 39.5996 56.7998C39.5996 56.1998 39.9996 55.7998 40.5996 55.7998H44.1996C44.7996 55.7998 45.1996 56.1998 45.1996 56.7998C45.1996 57.3998 44.6996 57.7998 44.1996 57.7998Z" fill="#E1000F"/>
</svg>
