<svg width="140" height="100" viewBox="0 0 140 100" fill="none" xmlns="http://www.w3.org/2000/svg">
<path d="M109.974 59.9645C109.974 64.4023 106.376 68 101.938 68C97.5003 68 93.9027 64.4023 93.9027 59.9645C93.9027 55.5266 97.5003 51.929 101.938 51.929C106.376 51.929 109.974 55.5266 109.974 59.9645Z" fill="#1B4991"/>
<path d="M57.169 59.9645C57.169 64.4023 53.5714 68 49.1335 68C44.6956 68 41.098 64.4023 41.098 59.9645C41.098 55.5266 44.6956 51.929 49.1335 51.929C53.5714 51.929 57.169 55.5266 57.169 59.9645Z" fill="#1B4991"/>
<path d="M43.441 34.6801C44.0021 33.075 45.5166 32 47.2169 32H71.8076C72.7511 32 73.6643 32.3335 74.3857 32.9417L93.4353 49H38.4353L43.441 34.6801Z" fill="#E0E0E0"/>
<path fill-rule="evenodd" clip-rule="evenodd" d="M71.8076 36H47.2169L44.0709 45H82.4841L71.8076 36ZM74.3857 32.9417C73.6643 32.3335 72.7511 32 71.8076 32H47.2169C45.5166 32 44.0021 33.075 43.441 34.6801L38.4353 49H93.4353L74.3857 32.9417Z" fill="#1B4991"/>
<path d="M22.297 45.789C21.4818 44.4563 22.4409 42.7454 24.0031 42.7454H111.482C111.865 42.7454 112.24 42.8553 112.562 43.0621L116.515 45.5989C117.089 45.9667 117.435 46.601 117.435 47.2821V57.9643C117.435 59.0689 116.54 59.9643 115.435 59.9643H32.9678C31.8633 59.9643 30.9678 59.0689 30.9678 57.9643V53.3548C30.9678 52.2503 30.0724 51.3548 28.9678 51.3548H26.8227C26.1262 51.3548 25.48 50.9925 25.1165 50.3984L22.297 45.789Z" fill="#FAD776"/>
<path fill-rule="evenodd" clip-rule="evenodd" d="M110.27 48.4851C110.27 47.3805 111.165 46.4851 112.27 46.4851L115.713 46.4851C116.818 46.4851 117.713 47.3805 117.713 48.4851C117.713 49.5897 116.818 50.4851 115.713 50.4851L112.27 50.4851C111.165 50.4851 110.27 49.5897 110.27 48.4851Z" fill="#1B4991"/>
</svg>
