<svg width="81" height="80" viewBox="0 0 81 80" fill="none" xmlns="http://www.w3.org/2000/svg">
<path d="M54.8998 39.0999C50.6998 39.0999 47.2998 35.6999 47.2998 31.4999C47.2998 27.2999 50.6998 23.8999 54.8998 23.8999C59.0998 23.8999 62.4998 27.2999 62.4998 31.4999C62.4998 35.6999 59.0998 39.0999 54.8998 39.0999ZM54.8998 25.8999C51.7998 25.8999 49.2998 28.3999 49.2998 31.4999C49.2998 34.5999 51.7998 37.0999 54.8998 37.0999C57.9998 37.0999 60.4998 34.5999 60.4998 31.4999C60.4998 28.3999 57.9998 25.8999 54.8998 25.8999Z" fill="#000091"/>
<path d="M54.5998 53.6998H49.4998C48.4998 53.6998 47.7998 52.8998 47.7998 51.9998V49.2998C47.7998 48.6998 48.1998 48.2998 48.7998 48.2998C49.3998 48.2998 49.7998 48.6998 49.7998 49.2998V51.7998H54.5998C55.1998 51.7998 55.5998 52.1998 55.5998 52.7998C55.5998 53.3998 55.1998 53.6998 54.5998 53.6998Z" fill="#000091"/>
<path d="M53 59.3998H47C44.2 59.3998 42 57.1998 42 54.3998V48.7998C42 44.3998 45.6 40.7998 50 40.7998H59.6C61.6 40.7998 63.6 41.5998 65.1 42.9998C65.5 43.3998 65.5 43.9998 65.1 44.3998C64.7 44.7998 64.1 44.7998 63.7 44.3998C62.6 43.3998 61.1 42.7998 59.6 42.7998H50C46.7 42.7998 44 45.4998 44 48.7998V54.3998C44 56.0998 45.4 57.3998 47 57.3998H53C53.6 57.3998 54 57.7998 54 58.3998C54 58.9998 53.6 59.3998 53 59.3998Z" fill="#000091"/>
<path d="M51.8002 63.8999H44.2002C43.6002 63.8999 43.2002 63.4999 43.2002 62.8999C43.2002 62.2999 43.6002 61.8999 44.2002 61.8999H51.8002C52.4002 61.8999 52.8002 62.2999 52.8002 62.8999C52.8002 63.4999 52.3002 63.8999 51.8002 63.8999Z" fill="#000091"/>
<path d="M26.1 29.2C21.9 29.2 18.5 25.8 18.5 21.6C18.5 17.4 21.9 14 26.1 14C30.3 14 33.7 17.4 33.7 21.6C33.7 25.8 30.3 29.2 26.1 29.2ZM26.1 16.1C23 16.1 20.5 18.6 20.5 21.7C20.5 24.8 23 27.3 26.1 27.3C29.2 27.3 31.7 24.8 31.7 21.7C31.7 18.6 29.2 16.1 26.1 16.1Z" fill="#000091"/>
<path d="M31.3998 43.7998H26.2998C25.6998 43.7998 25.2998 43.3998 25.2998 42.7998C25.2998 42.1998 25.6998 41.7998 26.2998 41.7998H31.0998V39.2998C31.0998 38.6998 31.4998 38.2998 32.0998 38.2998C32.6998 38.2998 33.0998 38.6998 33.0998 39.2998V41.9998C33.1998 42.9998 32.3998 43.7998 31.3998 43.7998Z" fill="#000091"/>
<path d="M33.9 49.6H27.9C27.3 49.6 26.9 49.2 26.9 48.6C26.9 48 27.3 47.6 27.9 47.6H33.9C35.6 47.6 36.9 46.2 36.9 44.6V39C36.9 35.7 34.2 33 30.9 33H21.3C19.8 33 18.3 33.6 17.2 34.6C16.8 35 16.2 35 15.8 34.6C15.4 34.2 15.4 33.6 15.8 33.2C17.3 31.8 19.2 31 21.3 31H30.9C35.3 31 38.9 34.6 38.9 39V44.6C38.9 47.3 36.7 49.6 33.9 49.6Z" fill="#000091"/>
<path d="M36.8998 54.1001H29.2998C28.6998 54.1001 28.2998 53.7001 28.2998 53.1001C28.2998 52.5001 28.6998 52.1001 29.2998 52.1001H36.8998C37.4998 52.1001 37.8998 52.5001 37.8998 53.1001C37.8998 53.7001 37.3998 54.1001 36.8998 54.1001Z" fill="#000091"/>
<path d="M29.1998 54.1H9.89978C9.49978 54.1 9.09978 53.8 8.89978 53.4L4.59978 38.3C4.49978 38 4.59978 37.7 4.79978 37.4C4.99978 37.2 5.29978 37 5.59978 37H24.9998C25.3998 37 25.7998 37.3 25.9998 37.7L30.2998 52.8C30.3998 53.1 30.2998 53.4 30.0998 53.7C29.8998 54 29.5998 54.1 29.1998 54.1ZM10.5998 52.1H27.8998L24.1998 39H6.89978L10.5998 52.1Z" fill="#E1000F"/>
<path d="M71.0998 63.8998H51.7998C51.4998 63.8998 51.1998 63.7998 50.9998 63.4998C50.7998 63.2998 50.7998 62.8998 50.7998 62.5998L55.0998 47.4998C55.1998 47.0998 55.5998 46.7998 56.0998 46.7998H75.4998C75.7998 46.7998 76.0998 46.8998 76.2998 47.1998C76.4998 47.3998 76.4998 47.7998 76.4998 48.0998L72.1998 63.1998C71.9998 63.5998 71.5998 63.8998 71.0998 63.8998ZM53.0998 61.8998H70.3998L74.0998 48.7998H56.7998L53.0998 61.8998Z" fill="#E1000F"/>
</svg>
