<svg width="140" height="100" viewBox="0 0 140 100" fill="none" xmlns="http://www.w3.org/2000/svg">
<path d="M51.4547 38.1888C49.4281 36.1622 49.4281 32.8764 51.4547 30.8497C53.4813 28.8231 56.7671 28.8231 58.7938 30.8498L85.0921 57.1481C87.1187 59.1747 87.1187 62.4605 85.0921 64.4872C83.0655 66.5138 79.7797 66.5138 77.753 64.4872L51.4547 38.1888Z" fill="#1B4991"/>
<path fill-rule="evenodd" clip-rule="evenodd" d="M85.0922 59.5943L80.1995 64.487L85.398 72.1319C85.398 72.1319 90.7434 72.9759 96.5768 76.283C96.3833 76.6142 96.4285 77.0465 96.7125 77.3305C97.0502 77.6683 97.5979 77.6683 97.9356 77.3305C98.2734 76.9928 98.2734 76.4451 97.9356 76.1073C97.6517 75.8234 97.2194 75.7782 96.8882 75.9716C93.5811 70.1382 92.7371 64.7928 92.7371 64.7928L85.0922 59.5943ZM88.7618 65.7103C89.4373 66.3858 89.4373 67.4811 88.7618 68.1566C88.0862 68.8322 86.991 68.8322 86.3154 68.1566C85.6399 67.4811 85.6399 66.3858 86.3154 65.7103C86.991 65.0347 88.0862 65.0347 88.7618 65.7103Z" fill="#FAD776"/>
<path d="M77.7528 35.131C79.7795 33.1043 83.0653 33.1043 85.0919 35.131C87.1185 37.1576 87.1185 40.4434 85.0919 42.47L63.0747 64.4873C61.048 66.5139 57.7622 66.5139 55.7356 64.4873C53.709 62.4606 53.709 59.1748 55.7356 57.1482L77.7528 35.131Z" fill="#E0E0E0"/>
<path fill-rule="evenodd" clip-rule="evenodd" d="M91.6416 22.2962C92.8294 22.7195 92.8012 24.2564 91.7172 24.9006L87.0149 27.6953C86.1936 28.1834 85.9236 29.2449 86.4117 30.0662L89.5049 35.2708C89.993 36.092 91.0544 36.3621 91.8757 35.874L95.9579 33.4479C97.1013 32.7683 98.5032 33.5941 98.1453 34.8752C97.6811 36.5366 96.7956 38.1051 95.4889 39.4118C91.4356 43.4651 84.864 43.4651 80.8108 39.4118C76.7575 35.3586 76.7575 28.7869 80.8108 24.7337C83.7396 21.8049 87.9833 20.9924 91.6416 22.2962Z" fill="#E0E0E0"/>
<path fill-rule="evenodd" clip-rule="evenodd" d="M48.5812 76.7042C47.3934 76.2809 47.4216 74.7439 48.5056 74.0997L53.2077 71.3051C54.0289 70.817 54.299 69.7555 53.8109 68.9343L50.7177 63.7297C50.2296 62.9084 49.1681 62.6383 48.3469 63.1264L44.2647 65.5525C43.1213 66.2321 41.7195 65.4064 42.0773 64.1253C42.5415 62.4637 43.427 60.8952 44.7338 59.5884C48.787 55.5352 55.3586 55.5352 59.4119 59.5884C63.4652 63.6417 63.4652 70.2133 59.4119 74.2666C56.4831 77.1953 52.2395 78.0079 48.5812 76.7042Z" fill="#E0E0E0"/>
</svg>
