<svg xmlns="http://www.w3.org/2000/svg" xmlns:xlink="http://www.w3.org/1999/xlink" viewBox="0 0 294.21 189.97"><defs><style>.cls-1,.cls-5,.cls-8,.cls-9{fill:none;}.cls-2{clip-path:url(#clip-path);}.cls-3{fill:#fddc74;}.cls-4{fill:#fff;}.cls-5,.cls-9{stroke:#293273;}.cls-5{stroke-width:1.29px;}.cls-6{fill:#261e19;}.cls-7{fill:#1d1d1b;}.cls-8{stroke:#1d1d1b;stroke-width:0.57px;}</style><clipPath id="clip-path"><rect class="cls-1" x="-1.6" y="3" width="289.81" height="182.47"/></clipPath></defs><g id="Layer_2" data-name="Layer 2"><g class="cls-2"><rect class="cls-3" x="19.31" y="17.12" width="267.91" height="167.37" rx="12.58"/><rect class="cls-4" x="5.9" y="4.27" width="267.91" height="167.37" rx="12.58"/><rect class="cls-5" x="5.9" y="4.27" width="267.91" height="167.37" rx="12.58"/></g><path class="cls-6" d="M139.38,28.36a4.25,4.25,0,0,1-1.9,1.25,7.9,7.9,0,0,1-2.73.45,5.39,5.39,0,0,1-2.76-.69,4.59,4.59,0,0,1-1.83-2,7,7,0,0,1-.66-3.07v-.82a7.39,7.39,0,0,1,.61-3.14,4.52,4.52,0,0,1,1.77-2,5,5,0,0,1,2.69-.71,5.08,5.08,0,0,1,3.37,1,4.4,4.4,0,0,1,1.44,3H137a2.4,2.4,0,0,0-.73-1.52,2.38,2.38,0,0,0-1.57-.48,2.22,2.22,0,0,0-1.94.95,5,5,0,0,0-.67,2.85v.77a4.82,4.82,0,0,0,.72,2.88,2.47,2.47,0,0,0,2.12,1,2.78,2.78,0,0,0,2-.6V25.37h-2.27V23.53h4.76Z"/><path class="cls-6" d="M148.24,27.4h-4.38L143,29.89h-2.65l4.51-12.11h2.31l4.53,12.11h-2.65Zm-3.7-2h3L146,20.84Z"/><path class="cls-6" d="M152.86,29.89V17.78h3.73a5.68,5.68,0,0,1,2.86.72,5,5,0,0,1,2,2.05,6.31,6.31,0,0,1,.71,3v.56a6.35,6.35,0,0,1-.69,3,5,5,0,0,1-2,2,5.71,5.71,0,0,1-2.86.73Zm2.5-10.09v8.09h1.2a2.7,2.7,0,0,0,2.24-1,4.3,4.3,0,0,0,.79-2.74v-.64a4.41,4.41,0,0,0-.76-2.8,2.72,2.72,0,0,0-2.24-.95Z"/><path class="cls-6" d="M172.35,19.8h-3.71V29.89h-2.49V19.8h-3.66v-2h9.86Z"/><path class="cls-6" d="M178.11,22l2.27-4.18h2.87l-3.53,6,3.62,6.1h-2.9l-2.33-4.24-2.33,4.24h-2.9l3.61-6.1-3.52-6h2.87Z"/><path class="cls-6" d="M188.93,22l2.27-4.18h2.87l-3.53,6,3.62,6.1h-2.9l-2.33-4.24-2.33,4.24h-2.9l3.61-6.1-3.52-6h2.87Z"/><path class="cls-6" d="M199.75,22,202,17.78h2.87l-3.53,6,3.62,6.1h-2.9l-2.33-4.24-2.33,4.24h-2.9l3.61-6.1-3.52-6h2.87Z"/><path class="cls-6" d="M210.57,22l2.27-4.18h2.87l-3.53,6,3.62,6.1h-2.9l-2.33-4.24-2.33,4.24h-2.9l3.62-6.1-3.53-6h2.87Z"/><path class="cls-6" d="M221.39,22l2.27-4.18h2.87l-3.53,6,3.62,6.1h-2.9l-2.33-4.24-2.33,4.24h-2.9l3.62-6.1-3.53-6h2.87Z"/><path class="cls-6" d="M232.21,22l2.27-4.18h2.87l-3.53,6,3.62,6.1h-2.9l-2.33-4.24-2.33,4.24H227l3.62-6.1-3.53-6h2.87Z"/><path class="cls-6" d="M243,22l2.27-4.18h2.87l-3.52,6,3.61,6.1h-2.9L243,25.65l-2.33,4.24h-2.9l3.62-6.1-3.53-6h2.87Z"/><path class="cls-6" d="M253.85,22l2.27-4.18H259l-3.52,6,3.61,6.1h-2.9l-2.33-4.24-2.33,4.24h-2.9l3.62-6.1-3.53-6h2.87Z"/><path class="cls-7" d="M23.9,138.25h2.35a4.59,4.59,0,0,1,.93.09,2,2,0,0,1,.77.31,1.5,1.5,0,0,1,.52.59,2,2,0,0,1,.19.93,2.14,2.14,0,0,1-.18.93,1.53,1.53,0,0,1-.49.6,2,2,0,0,1-.74.32,4.59,4.59,0,0,1-.93.09h-1v2.47H23.9Zm1.4,2.68h.93l.36,0a1,1,0,0,0,.31-.13.63.63,0,0,0,.23-.23.81.81,0,0,0,.08-.37.67.67,0,0,0-.11-.39.82.82,0,0,0-.29-.23,1.39,1.39,0,0,0-.39-.1l-.41,0H25.3Z"/><path class="cls-7" d="M29.54,138.25H32a4.46,4.46,0,0,1,.91.09,2.18,2.18,0,0,1,.76.32,1.5,1.5,0,0,1,.52.59,1.93,1.93,0,0,1,.19.92,1.8,1.8,0,0,1-.35,1.14,1.6,1.6,0,0,1-1,.6l1.61,2.67H32.94l-1.32-2.53h-.69v2.53H29.54Zm1.39,2.62h1.22a1.12,1.12,0,0,0,.38-.09.59.59,0,0,0,.39-.61.69.69,0,0,0-.09-.38.65.65,0,0,0-.25-.22,1,1,0,0,0-.35-.1,2.56,2.56,0,0,0-.39,0h-.91Z"/><path class="cls-7" d="M35.38,138.25h4.31v1.29H36.78v1.18h2.74V142H36.78v1.28h3.07v1.29H35.38Z"/><path class="cls-7" d="M44.1,139.8a1,1,0,0,0-.47-.32,1.56,1.56,0,0,0-.55-.1l-.31,0a1.33,1.33,0,0,0-.3.11.57.57,0,0,0-.23.2.54.54,0,0,0-.09.31.51.51,0,0,0,.21.44,2.27,2.27,0,0,0,.54.26l.7.21a3,3,0,0,1,.71.3,1.94,1.94,0,0,1,.54.53,1.65,1.65,0,0,1,.21.89,1.92,1.92,0,0,1-.2.92,1.77,1.77,0,0,1-.53.65,2.38,2.38,0,0,1-.78.39,3.48,3.48,0,0,1-.93.12,3.34,3.34,0,0,1-1.15-.19,2.74,2.74,0,0,1-1-.6l1-1.1a1.5,1.5,0,0,0,.55.45,1.56,1.56,0,0,0,.67.15,1.32,1.32,0,0,0,.34,0,.88.88,0,0,0,.32-.12.7.7,0,0,0,.22-.2.51.51,0,0,0,.09-.3.55.55,0,0,0-.22-.45,2.17,2.17,0,0,0-.55-.28c-.22-.08-.46-.16-.72-.23a3.27,3.27,0,0,1-.71-.32,1.61,1.61,0,0,1-.55-.52,1.42,1.42,0,0,1-.22-.84,1.87,1.87,0,0,1,.2-.9,1.84,1.84,0,0,1,.53-.64,2.2,2.2,0,0,1,.78-.39,3,3,0,0,1,.9-.13,3.63,3.63,0,0,1,1,.15,2.38,2.38,0,0,1,.9.51Z"/><path class="cls-7" d="M49.23,139.8a1,1,0,0,0-.46-.32,1.65,1.65,0,0,0-.55-.1l-.32,0a1.82,1.82,0,0,0-.3.11.64.64,0,0,0-.23.2.54.54,0,0,0-.09.31.51.51,0,0,0,.21.44,2.72,2.72,0,0,0,.54.26l.71.21a2.9,2.9,0,0,1,.7.3,1.71,1.71,0,0,1,.54.53,1.65,1.65,0,0,1,.21.89,2,2,0,0,1-.19.92,1.8,1.8,0,0,1-.54.65,2.43,2.43,0,0,1-.77.39,3.61,3.61,0,0,1-.94.12,3.25,3.25,0,0,1-1.14-.19,2.86,2.86,0,0,1-1-.6l1-1.1a1.39,1.39,0,0,0,.54.45,1.59,1.59,0,0,0,.67.15,1.39,1.39,0,0,0,.35,0,.84.84,0,0,0,.31-.12.61.61,0,0,0,.22-.2.51.51,0,0,0,.09-.3.52.52,0,0,0-.22-.45,2.17,2.17,0,0,0-.55-.28c-.22-.08-.46-.16-.72-.23a3.5,3.5,0,0,1-.71-.32,1.7,1.7,0,0,1-.55-.52,1.42,1.42,0,0,1-.22-.84,2,2,0,0,1,.2-.9,1.87,1.87,0,0,1,.54-.64,2.08,2.08,0,0,1,.77-.39,3,3,0,0,1,.9-.13,3.58,3.58,0,0,1,1,.15,2.24,2.24,0,0,1,.9.51Z"/><g class="cls-2"><circle class="cls-8" cx="37.35" cy="142.34" r="20.67"/></g><line class="cls-9" x1="56.15" y1="67.87" x2="226.76" y2="67.87"/><line class="cls-9" x1="56.15" y1="90.75" x2="226.76" y2="90.75"/><line class="cls-9" x1="56.15" y1="75.16" x2="226.76" y2="75.16"/><line class="cls-9" x1="56.15" y1="98.04" x2="226.76" y2="98.04"/></g></svg>
