<svg xmlns="http://www.w3.org/2000/svg" xmlns:xlink="http://www.w3.org/1999/xlink" viewBox="0 0 294.21 190.55"><defs><style>.cls-1,.cls-5,.cls-7,.cls-9{fill:none;}.cls-2{clip-path:url(#clip-path);}.cls-3{fill:#fad776;}.cls-4{fill:#fff;}.cls-5{stroke:#27397c;stroke-width:1.29px;}.cls-6{fill:#1d1714;}.cls-7,.cls-9{stroke:#231f20;}.cls-7{stroke-width:0.64px;}.cls-8{fill:#231f20;}.cls-9{stroke-width:0.57px;}.cls-10{fill:#1b4991;}.cls-11{fill:url(#Dégradé_sans_nom_7);}.cls-12{fill:#ef4056;}.cls-13{fill:#1d1d1b;}.cls-14{fill:#273375;}.cls-15{fill:#e30613;}.cls-16{fill:#9d9d9c;}</style><clipPath id="clip-path"><rect class="cls-1" x="6.65" y="4.08" width="289.3" height="181.49"/></clipPath><linearGradient id="Dégradé_sans_nom_7" x1="81.69" y1="278.09" x2="92.45" y2="278.09" gradientTransform="translate(33.18 -255.69)" gradientUnits="userSpaceOnUse"><stop offset="0" stop-color="#f38192" stop-opacity="0"/><stop offset="1" stop-color="#f05b89"/></linearGradient></defs><g id="Layer_2" data-name="Layer 2"><g class="cls-2"><rect class="cls-3" x="6.65" y="18.2" width="267.91" height="167.37" rx="12.58"/><rect class="cls-4" x="18.6" y="5.35" width="267.91" height="167.37" rx="12.58"/><rect class="cls-5" x="18.6" y="5.35" width="267.91" height="167.37" rx="12.58"/></g><path class="cls-6" d="M213,31.26a6.1,6.1,0,0,1-1,3.84,3.62,3.62,0,0,1-3,1.33,3.67,3.67,0,0,1-3-1.31,5.91,5.91,0,0,1-1.07-3.74V29.15a6.07,6.07,0,0,1,1-3.85,4.17,4.17,0,0,1,6.06,0A5.89,5.89,0,0,1,213,29Zm-2.4-2.46a4.49,4.49,0,0,0-.41-2.19,1.41,1.41,0,0,0-1.29-.69,1.37,1.37,0,0,0-1.25.66,4.16,4.16,0,0,0-.43,2v2.95a4.62,4.62,0,0,0,.41,2.2,1.51,1.51,0,0,0,2.56,0,4.54,4.54,0,0,0,.41-2.11Z"/><path class="cls-6" d="M221.71,31.71h1.38v1.93h-1.38v2.62h-2.4V33.64h-5l-.11-1.51,5-8h2.42Zm-5.08,0h2.68V27.43l-.16.27Z"/><path class="cls-6" d="M226.82,29.14h1.28a1.83,1.83,0,0,0,1.36-.45,1.71,1.71,0,0,0,.44-1.22,1.48,1.48,0,0,0-.44-1.14,1.69,1.69,0,0,0-1.2-.41,1.77,1.77,0,0,0-1.15.38,1.19,1.19,0,0,0-.47,1h-2.4a3,3,0,0,1,.51-1.7,3.42,3.42,0,0,1,1.43-1.18,4.81,4.81,0,0,1,2-.42,4.48,4.48,0,0,1,3,.92,3.11,3.11,0,0,1,1.09,2.53,2.61,2.61,0,0,1-.5,1.53A3.41,3.41,0,0,1,230.47,30a3,3,0,0,1,1.52,1.1,2.94,2.94,0,0,1,.51,1.73,3.21,3.21,0,0,1-1.18,2.59,4.79,4.79,0,0,1-3.12,1,4.46,4.46,0,0,1-3-1,3.12,3.12,0,0,1-1.15-2.53h2.4a1.4,1.4,0,0,0,.51,1.12,2.14,2.14,0,0,0,2.6,0,1.55,1.55,0,0,0,.49-1.2c0-1.21-.66-1.82-2-1.82h-1.27Z"/><path class="cls-6" d="M240,36.26h-2.41V27l-2.87.89v-2l5-1.79H240Z"/><path class="cls-6" d="M244.28,30.31l.7-6.16h6.79v2H247l-.3,2.6a3.87,3.87,0,0,1,1.82-.46,3.47,3.47,0,0,1,2.71,1.08,4.24,4.24,0,0,1,1,3,4.4,4.4,0,0,1-.49,2.1,3.46,3.46,0,0,1-1.42,1.44,4.42,4.42,0,0,1-2.18.51,4.68,4.68,0,0,1-2-.45,3.55,3.55,0,0,1-1.48-1.25,3.43,3.43,0,0,1-.58-1.84h2.38a1.78,1.78,0,0,0,.53,1.18,1.67,1.67,0,0,0,1.18.42,1.45,1.45,0,0,0,1.26-.59,2.72,2.72,0,0,0,.44-1.65,2.22,2.22,0,0,0-.51-1.58,1.83,1.83,0,0,0-1.44-.55,2,2,0,0,0-1.38.45l-.24.21Z"/><path class="cls-6" d="M260.22,24v2H260a4,4,0,0,0-2.62.85,3.44,3.44,0,0,0-1.19,2.28,3.27,3.27,0,0,1,2.43-1,3.08,3.08,0,0,1,2.51,1.13,4.51,4.51,0,0,1,.94,3,4.37,4.37,0,0,1-.52,2.14,3.69,3.69,0,0,1-1.44,1.49,4.28,4.28,0,0,1-2.12.53,3.93,3.93,0,0,1-3.09-1.33,5.19,5.19,0,0,1-1.18-3.55v-.87a7.74,7.74,0,0,1,.75-3.48,5.45,5.45,0,0,1,2.14-2.34,6.19,6.19,0,0,1,3.23-.83Zm-2.35,6.07a2,2,0,0,0-1.06.3,1.84,1.84,0,0,0-.69.8v.73a3.19,3.19,0,0,0,.47,1.88,1.52,1.52,0,0,0,1.33.68,1.5,1.5,0,0,0,1.25-.61,2.86,2.86,0,0,0,0-3.17A1.57,1.57,0,0,0,257.87,30.1Z"/><g class="cls-2"><rect class="cls-7" x="200.47" y="20.19" width="65.27" height="20.43" rx="3.21"/></g><path class="cls-8" d="M243.56,139.33h2.35a4.59,4.59,0,0,1,.93.09,2.11,2.11,0,0,1,.77.31,1.54,1.54,0,0,1,.51.59,2,2,0,0,1,.2.94,2.14,2.14,0,0,1-.18.93,1.53,1.53,0,0,1-.49.6,2.12,2.12,0,0,1-.75.31,3.84,3.84,0,0,1-.93.1h-1v2.47h-1.4ZM245,142h.92a2.21,2.21,0,0,0,.37,0,.84.84,0,0,0,.31-.12.61.61,0,0,0,.22-.23.7.7,0,0,0,.09-.37.65.65,0,0,0-.11-.39.73.73,0,0,0-.29-.23,1,1,0,0,0-.39-.1l-.41,0H245Z"/><path class="cls-8" d="M249.19,139.33h2.45a3.87,3.87,0,0,1,.92.1,2.06,2.06,0,0,1,.76.31,1.57,1.57,0,0,1,.52.59,2,2,0,0,1,.19.93,1.84,1.84,0,0,1-.35,1.14,1.55,1.55,0,0,1-1,.59l1.61,2.68H252.6l-1.32-2.54h-.69v2.54h-1.4Zm1.4,2.62h1.22a1.42,1.42,0,0,0,.38-.08.58.58,0,0,0,.28-.21.61.61,0,0,0,.11-.4.67.67,0,0,0-.1-.39.6.6,0,0,0-.25-.22,1.13,1.13,0,0,0-.34-.1l-.39,0h-.91Z"/><path class="cls-8" d="M255,139.33h4.3v1.29h-2.9v1.18h2.74v1.29h-2.74v1.29h3.06v1.29H255Z"/><path class="cls-8" d="M263.75,140.88a1,1,0,0,0-.46-.32,1.56,1.56,0,0,0-.55-.1,1.15,1.15,0,0,0-.31,0,1,1,0,0,0-.3.11.68.68,0,0,0-.24.2.49.49,0,0,0-.09.3.52.52,0,0,0,.22.44,1.94,1.94,0,0,0,.54.26l.7.22a2.74,2.74,0,0,1,.7.3,1.61,1.61,0,0,1,.54.53,1.53,1.53,0,0,1,.22.88,2,2,0,0,1-.2.92,1.91,1.91,0,0,1-.53.66,2.18,2.18,0,0,1-.78.38,3.48,3.48,0,0,1-.93.13,3.55,3.55,0,0,1-1.15-.19,2.92,2.92,0,0,1-1-.61l1-1.09a1.55,1.55,0,0,0,1.22.6,2,2,0,0,0,.34,0,1.52,1.52,0,0,0,.32-.12.88.88,0,0,0,.22-.21.47.47,0,0,0,.08-.29.57.57,0,0,0-.21-.46,2.09,2.09,0,0,0-.56-.28l-.71-.23a3.33,3.33,0,0,1-.72-.31,1.82,1.82,0,0,1-.55-.52,1.55,1.55,0,0,1-.21-.85,1.87,1.87,0,0,1,.2-.9,1.94,1.94,0,0,1,.53-.64,2.48,2.48,0,0,1,.78-.39,3.38,3.38,0,0,1,.9-.13,3.63,3.63,0,0,1,1,.15,2.69,2.69,0,0,1,.9.51Z"/><path class="cls-8" d="M268.89,140.88a1.09,1.09,0,0,0-.46-.32,1.65,1.65,0,0,0-.55-.1,1.17,1.17,0,0,0-.32,0,1.08,1.08,0,0,0-.3.11.64.64,0,0,0-.23.2.49.49,0,0,0-.09.3.51.51,0,0,0,.21.44,1.94,1.94,0,0,0,.54.26l.7.22a3,3,0,0,1,.71.3,1.82,1.82,0,0,1,.54.53,1.61,1.61,0,0,1,.21.88,2,2,0,0,1-.19.92,1.94,1.94,0,0,1-.54.66,2.18,2.18,0,0,1-.78.38,3.46,3.46,0,0,1-2.07-.06,3,3,0,0,1-1-.61l1-1.09a1.47,1.47,0,0,0,.55.44,1.44,1.44,0,0,0,.67.16,2.21,2.21,0,0,0,.35,0,1.43,1.43,0,0,0,.31-.12.74.74,0,0,0,.22-.21.48.48,0,0,0,.09-.29.58.58,0,0,0-.22-.46,2.17,2.17,0,0,0-.55-.28l-.72-.23a3.47,3.47,0,0,1-.71-.31,1.71,1.71,0,0,1-.55-.52,1.47,1.47,0,0,1-.22-.85,1.84,1.84,0,0,1,.74-1.54,2.43,2.43,0,0,1,.77-.39,3.38,3.38,0,0,1,.9-.13,3.58,3.58,0,0,1,1,.15,2.59,2.59,0,0,1,.9.51Z"/><g class="cls-2"><circle class="cls-9" cx="257.01" cy="143.43" r="20.67"/></g><path class="cls-10" d="M111,34h-5.37l-.74,1.71h-2.88l5.43-13.36h1.77l5.41,13.36h-2.89Zm-2.69-7.38-1.75,5.17h3.5Z"/><path class="cls-10" d="M119,35.75h-2.68V25.91H119Z"/><path class="cls-10" d="M131.45,20.84V35.75H129V34.53A3.77,3.77,0,0,1,125.83,36c-2.79,0-4.77-2.19-4.77-5.15s2-5.15,4.77-5.15a3.86,3.86,0,0,1,2.94,1.17v-6Zm-2.64,10a2.48,2.48,0,0,0-2.48-2.73,2.53,2.53,0,0,0-2.55,2.71,2.53,2.53,0,0,0,2.55,2.72A2.44,2.44,0,0,0,128.81,30.84Z"/><path class="cls-10" d="M142.37,29.9v5.85H139.9v-1a4,4,0,0,1-3,1.2c-2.15,0-3.4-1.28-3.4-3s1.45-2.86,3.72-2.86h2.47v-.44A1.61,1.61,0,0,0,137.86,28a3.46,3.46,0,0,0-2.61,1.36l-1.39-1.65a5.3,5.3,0,0,1,4.29-2A3.86,3.86,0,0,1,142.37,29.9Zm-2.68,2.17V32h-2.11c-.88,0-1.37.34-1.37,1s.57,1.08,1.41,1.08A2,2,0,0,0,139.69,32.07Z"/><path class="cls-10" d="M154,29.64v6.11h-2.66V30a1.78,1.78,0,0,0-1.83-1.91A1.81,1.81,0,0,0,147.64,30v5.75H145V25.91h2.47v.89a4,4,0,0,1,2.88-1.11C152.61,25.69,154,27.28,154,29.64Z"/><path class="cls-10" d="M162.91,33.5v2.25a7.47,7.47,0,0,1-1.85.24c-2.43,0-3.94-1.18-3.94-3.7V28.17h-1.55V25.91h1.55V23.42h2.68v2.49h2.79v2.26H159.8v3.88c0,1.13.6,1.53,1.83,1.53C162,33.58,162.39,33.54,162.91,33.5Z"/><path class="cls-10" d="M171.73,27.16l-1.35,1.65a3.24,3.24,0,0,0-2.21-.94c-.63,0-1,.22-1,.7s.32.6,1,.87l1,.4c1.77.72,2.76,1.47,2.76,3,0,2-1.69,3.15-3.84,3.15A5,5,0,0,1,164,34.08l1.35-1.63a3.89,3.89,0,0,0,2.76,1.33c.68,0,1.26-.26,1.26-.82s-.42-.63-1-.89l-1.05-.44c-1.67-.67-2.68-1.45-2.68-3,0-1.89,1.53-3,3.61-3A4.54,4.54,0,0,1,171.73,27.16Z"/><path class="cls-10" d="M114.66,40.67l-2,1.43a4.26,4.26,0,0,0-3.75-2.21,4.32,4.32,0,0,0,0,8.63,4.26,4.26,0,0,0,3.75-2.21l2,1.43a6.5,6.5,0,0,1-5.8,3.27,6.8,6.8,0,1,1,0-13.6A6.51,6.51,0,0,1,114.66,40.67Z"/><path class="cls-10" d="M126.57,45.84a5.28,5.28,0,0,1-10.56,0,5.28,5.28,0,0,1,10.56,0Zm-7.83,0a2.5,2.5,0,0,0,2.54,2.66,2.54,2.54,0,0,0,2.55-2.66,2.58,2.58,0,0,0-2.55-2.71A2.54,2.54,0,0,0,118.74,45.86Z"/><path class="cls-10" d="M137.81,44.66v6.11h-2.67V45a1.78,1.78,0,0,0-1.83-1.91A1.8,1.8,0,0,0,131.45,45v5.75h-2.69V40.93h2.47v.89a4,4,0,0,1,2.88-1.11C136.42,40.71,137.81,42.3,137.81,44.66Z"/><path class="cls-10" d="M149.14,44.66v6.11h-2.66V45a1.78,1.78,0,0,0-1.83-1.91A1.81,1.81,0,0,0,142.78,45v5.75H140.1V40.93h2.46v.89a4,4,0,0,1,2.89-1.11C147.75,40.71,149.14,42.3,149.14,44.66Z"/><path class="cls-10" d="M160.77,46.75h-6.89a2.59,2.59,0,0,0,2.76,2,4.31,4.31,0,0,0,2.74-1l1.12,1.83A6,6,0,0,1,156.56,51a5.15,5.15,0,0,1-5.39-5.15,5.07,5.07,0,0,1,5.15-5.15A4.46,4.46,0,0,1,161,45.28,6.83,6.83,0,0,1,160.77,46.75Zm-6.89-1.89h4.47a2,2,0,0,0-2.13-2A2.4,2.4,0,0,0,153.88,44.86Z"/><path class="cls-10" d="M172,43.13l-1.87,1.45a2.77,2.77,0,0,0-2.37-1.43,2.7,2.7,0,0,0,0,5.39,2.84,2.84,0,0,0,2.37-1.41L172,48.56A4.75,4.75,0,0,1,167.75,51a5.15,5.15,0,1,1,0-10.3A4.71,4.71,0,0,1,172,43.13Z"/><path class="cls-10" d="M180.34,48.52v2.25a7.47,7.47,0,0,1-1.85.24c-2.43,0-3.94-1.18-3.94-3.7V43.19H173V40.93h1.55V38.44h2.69v2.49H180v2.26h-2.78v3.88c0,1.13.59,1.53,1.82,1.53C179.38,48.6,179.82,48.56,180.34,48.52Z"/><path class="cls-11" d="M115.62,20.45a2.77,2.77,0,0,1,1.94-.8H123a2.75,2.75,0,1,1,0,5.49h-5.39a2.71,2.71,0,0,1-2-.8A2.76,2.76,0,0,1,115.62,20.45Z"/><circle class="cls-12" cx="122.99" cy="22.4" r="2.75"/><path class="cls-13" d="M32.07,28.33v1.89h.86a.95.95,0,1,0,0-1.89ZM30.54,27h2.3c1.66,0,2.69.85,2.69,2.25a2.05,2.05,0,0,1-1.21,1.95l2.37,3.34H34.86l-2-3.05h-.79v3.05H30.54V27Z"/><path class="cls-13" d="M39.13,26.38l1.21-1.45h1.58l-1.4,1.45ZM37.64,27H42v1.3H39.17v1.75H41.6v1.3H39.17v1.89H42v1.3h-4.4V27Z"/><path class="cls-13" d="M45.34,28.33v1.89h1a.95.95,0,1,0,0-1.89ZM43.81,27H46.3C48,27,49,27.88,49,29.28s-1,2.24-2.68,2.24h-1v3.05H43.81V27Z"/><path class="cls-13" d="M54.69,27h1.53v4.59a3.06,3.06,0,1,1-6.11,0V27h1.53v4.72a1.53,1.53,0,1,0,3,0V27Z"/><path class="cls-13" d="M59.64,31.29v2h.86c.72,0,1.15-.38,1.15-1s-.43-1-1.15-1Zm0-3V30h.65c.58,0,.91-.29.91-.83s-.33-.82-.91-.82ZM58.11,27h2.15c1.57,0,2.52.77,2.52,2a1.75,1.75,0,0,1-.8,1.49,1.92,1.92,0,0,1,1.24,1.79c0,1.38-1.07,2.22-2.8,2.22H58.11V27Z"/><polygon class="cls-13" points="64.78 27.03 66.31 27.03 66.31 33.18 69.18 33.18 69.18 34.57 64.78 34.57 64.78 27.03 64.78 27.03"/><polygon class="cls-13" points="70.53 27.03 72.06 27.03 72.06 34.57 70.53 34.57 70.53 27.03 70.53 27.03"/><path class="cls-13" d="M80,30.8a2.43,2.43,0,1,0-2.42,2.55A2.42,2.42,0,0,0,80,30.8Zm2.13,4.3a1.41,1.41,0,0,0,.53-.09V36.3a1.89,1.89,0,0,1-.79.14,3.53,3.53,0,0,1-2.36-1l-.9-.79a4.21,4.21,0,0,1-1,.13,4,4,0,1,1,4-4A4,4,0,0,1,80,34l.45.43a2.37,2.37,0,0,0,1.59.72Z"/><path class="cls-13" d="M87.44,27H89v4.59a3.06,3.06,0,1,1-6.11,0V27h1.53v4.72a1.53,1.53,0,1,0,3,0V27Z"/><polygon class="cls-13" points="90.87 27.03 95.27 27.03 95.27 28.33 92.4 28.33 92.4 30.08 94.83 30.08 94.83 31.38 92.4 31.38 92.4 33.27 95.27 33.27 95.27 34.57 90.87 34.57 90.87 27.03 90.87 27.03"/><polygon class="cls-13" points="30.54 37.9 34.94 37.9 34.94 39.21 32.07 39.21 32.07 40.95 34.5 40.95 34.5 42.26 32.07 42.26 32.07 45.45 30.54 45.45 30.54 37.9 30.54 37.9"/><path class="cls-13" d="M37.81,39.21v1.88h.86a.9.9,0,0,0,1-1c0-.57-.38-.92-1-.92ZM36.28,37.9h2.31c1.66,0,2.68.85,2.68,2.26a2.05,2.05,0,0,1-1.21,2l2.37,3.34H40.6l-2-3.05h-.79v3.05H36.28V37.9Z"/><path class="cls-13" d="M47.65,42.18l-1-2.83-1,2.83Zm-2-4.28h2l2.85,7.55H48.85l-.73-2h-3l-.73,2H42.76l2.85-7.55Z"/><polygon class="cls-13" points="51.64 37.9 53.6 37.9 56.97 43.3 56.97 37.9 58.5 37.9 58.5 45.45 56.54 45.45 53.17 40.03 53.17 45.45 51.64 45.45 51.64 37.9 51.64 37.9"/><path class="cls-13" d="M66,43.19l1.2.93a3.72,3.72,0,0,1-2.58,1.5l-.94,1.56H62.27l.95-1.58a4,4,0,1,1,3.93-6.38l-1.2.94a2.37,2.37,0,0,0-2-1,2.56,2.56,0,0,0,0,5.11,2.37,2.37,0,0,0,2-1Z"/><path class="cls-13" d="M72.37,42.18l-1-2.83-1,2.83Zm-2-4.28h2l2.85,7.55H73.56l-.72-2h-3l-.72,2H67.48l2.85-7.55Z"/><polygon class="cls-13" points="76.36 37.9 77.89 37.9 77.89 45.45 76.36 45.45 76.36 37.9 76.36 37.9"/><path class="cls-13" d="M80.43,43.38a2.16,2.16,0,0,0,1.67.92.85.85,0,0,0,1-.87c0-1.35-3.45-1-3.45-3.55A2.25,2.25,0,0,1,82,37.69,3.31,3.31,0,0,1,84.67,39l-1.12,1A2,2,0,0,0,82,39a.81.81,0,0,0-.87.79c0,1.35,3.45,1,3.45,3.59a2.31,2.31,0,0,1-2.5,2.26,3.4,3.4,0,0,1-2.8-1.26l1.11-1Z"/><polygon class="cls-13" points="86.22 37.9 90.62 37.9 90.62 39.21 87.75 39.21 87.75 40.95 90.19 40.95 90.19 42.26 87.75 42.26 87.75 44.14 90.62 44.14 90.62 45.45 86.22 45.45 86.22 37.9 86.22 37.9"/><path class="cls-13" d="M32.71,68.76l.06-.17c-.74-.14-.83-.14-.54-.94l.3-.82h.81c.37,0,.37.14.32.54h.21L34.36,66h-.21c-.19.32-.33.55-.73.55h-.8L33,65.42c.14-.37.22-.45.71-.45h.36c.51,0,.57.14.57.66h.21l.17-.91H32L32,64.9c.59.12.65.17.37.94l-.66,1.81c-.28.76-.4.82-1.08.94l0,.17ZM37,66.54c.1-.36,0-.68-.23-.68s-.41.25-.74,1v-.41c0-.3-.09-.56-.36-.56s-.59.48-.81,1H35c.15-.22.29-.34.4-.34s.2.2,0,.65l-.6,1.33c-.11.25,0,.41.25.41s.21,0,.27-.2l.59-1.55c.17-.21.32-.38.5-.58Zm2.69-.8-.24,0-.26.25h0a2.67,2.67,0,0,0-2.35,2.45.42.42,0,0,0,.45.45c.33,0,.65-.46,1-1l0,.18c0,.5.11.78.38.78s.59-.48.81-1h-.15c-.15.22-.29.35-.4.35s-.2-.21,0-.66l.82-1.86ZM37.31,68c0-.68.76-1.61,1.18-1.61a1,1,0,0,1,.26,0l-.44,1.18c-.25.31-.65.68-.83.68s-.17-.09-.17-.29m2.79-1.72h.51L39.8,68.5a.25.25,0,0,0,.22.37,1.87,1.87,0,0,0,1.46-1.07h-.14a2,2,0,0,1-.93.56l.74-2.07h.75L42,66h-.74l.28-.79h-.29l-.52.79-.63.09v.23Zm3.61,1.51h-.19a1.11,1.11,0,0,1-.74.51c-.26,0-.39-.16-.39-.51a2,2,0,0,1,0-.42l1.53-.5c.3-.71-.06-1-.48-1-.72,0-1.55,1.21-1.55,2.28,0,.47.23.73.58.73s.85-.4,1.2-1.07m-.52-1.53c.2,0,.38.16.28.55l-.95.22c.17-.44.45-.77.67-.77m3.39.27c.11-.36.05-.68-.22-.68s-.41.25-.75,1v-.41c0-.3-.09-.56-.35-.56s-.6.48-.81,1h.14c.15-.22.29-.34.4-.34s.2.2,0,.65l-.6,1.33c-.11.25,0,.41.25.41a.25.25,0,0,0,.28-.2l.58-1.55c.17-.21.32-.38.51-.58Zm0,1.92c-.11.25,0,.41.25.41a.25.25,0,0,0,.28-.2l.58-1.55a2.15,2.15,0,0,1,1.06-.69c.16,0,.13.14,0,.33l-.9,1.74a.25.25,0,0,0,.22.37,1.43,1.43,0,0,0,1.18-1h-.15a1,1,0,0,1-.61.47l.77-1.56a1.27,1.27,0,0,0,.15-.54.38.38,0,0,0-.41-.42c-.38,0-.77.43-1.22,1v-.41c0-.3-.1-.56-.36-.56s-.33.15-.48.35v.06c.29,0,.42.41.21.86l-.6,1.33Zm4.88-3.38a.37.37,0,0,0,0-.73.37.37,0,1,0,0,.73m-.16,1.1a.23.23,0,0,0-.18-.32,1.43,1.43,0,0,0-1.18,1h.14a1.13,1.13,0,0,1,.62-.47l-.85,2.2a.22.22,0,0,0,.18.32,1.4,1.4,0,0,0,1.13-1H51a1,1,0,0,1-.61.47l.9-2.2Zm.69.11h.5l-.8,2.21a.25.25,0,0,0,.22.37,1.87,1.87,0,0,0,1.46-1.07h-.15a2,2,0,0,1-.93.56L53,66.29h.76l.09-.32h-.73l.28-.79h-.29l-.53.79-.62.09v.23Zm3.3-.71,1.08-1v-.11H55.8l-.66,1.12Zm.31,2.22h-.19a1.12,1.12,0,0,1-.75.51c-.26,0-.39-.16-.39-.51a3,3,0,0,1,0-.42l1.54-.5c.29-.71-.06-1-.49-1-.72,0-1.54,1.21-1.54,2.28,0,.47.22.73.58.73s.84-.4,1.2-1.07m-.53-1.53c.21,0,.38.16.29.55l-.95.22c.16-.44.44-.77.66-.77"/><path class="cls-13" d="M33.81,57.54l1.08-.74v-.12h-.66l-.59.86Zm-.44,2.32c.36,0,.37.15.31.54h.21l.49-1.33h-.21c-.18.32-.33.55-.73.55h-.8l.4-1.11c.14-.37.22-.44.71-.44h.36c.51,0,.57.13.57.65h.21l.17-.91H32L32,58c.59.12.65.18.37.94l-.66,1.82c-.28.75-.4.81-1.08.94l0,.17h3.4l.61-1h-.23a2.27,2.27,0,0,1-1.56.71c-.9,0-.82,0-.52-.86l.32-.88Zm3.86,2.36c0-.35-.31-.48-.83-.63s-.64-.17-.64-.32a.45.45,0,0,1,.28-.35,1.29,1.29,0,0,0,1.2-1.24.84.84,0,0,0-.06-.3h.61l.09-.32h-1a.77.77,0,0,0-.39-.11,1.28,1.28,0,0,0-1.27,1.22.72.72,0,0,0,.59.74c-.36.16-.56.35-.56.57a.36.36,0,0,0,.15.3c-.83.24-1.16.52-1.16.91s.51.54,1.1.54c1,0,1.86-.55,1.86-1M36,60.71c-.18,0-.25-.16-.25-.33,0-.5.26-1.22.68-1.22.18,0,.25.16.25.33,0,.49-.26,1.22-.68,1.22M34.89,62.5c0-.3.28-.48.68-.64a4.27,4.27,0,0,0,.6.23c.42.13.58.19.58.32s-.46.47-1.08.47-.78-.11-.78-.38m5.63-3.68h-.24l-.26.25H40a2.67,2.67,0,0,0-2.35,2.45.42.42,0,0,0,.45.45c.33,0,.65-.47,1-1l0,.17c0,.51.11.79.38.79s.59-.48.8-1H40.1c-.15.22-.29.34-.4.34s-.2-.21,0-.65l.82-1.87ZM38.19,61.1c0-.68.76-1.61,1.18-1.61a.71.71,0,0,1,.26,0l-.44,1.17c-.26.31-.65.69-.83.69s-.17-.09-.17-.29m2.93.37,1.54-4,0-.06-1,.11v.12l.19.14c.17.13.12.26,0,.67l-1.2,3.17a.26.26,0,0,0,.22.38,1.36,1.36,0,0,0,1.12-1h-.14a1.24,1.24,0,0,1-.67.47m2.94-3.31a.36.36,0,1,0,0-.72.36.36,0,0,0,0,.72m-.15,1.11a.23.23,0,0,0-.19-.32,1.42,1.42,0,0,0-1.17,1h.14a1.11,1.11,0,0,1,.61-.47l-.84,2.2a.22.22,0,0,0,.18.32,1.4,1.4,0,0,0,1.12-1h-.14a1.13,1.13,0,0,1-.62.47l.91-2.2Zm.68.11h.51l-.81,2.2a.26.26,0,0,0,.22.38A1.87,1.87,0,0,0,46,60.89h-.14a2,2,0,0,1-.93.56l.74-2.07h.75l.1-.32h-.74l.28-.8h-.29l-.52.8-.63.09v.23Zm3.31-.71,1.08-1v-.11H48.4l-.67,1.12Zm.3,2.22H48a1.12,1.12,0,0,1-.74.5c-.26,0-.39-.15-.39-.5a1.93,1.93,0,0,1,0-.42l1.53-.5c.3-.71-.06-1-.48-1-.72,0-1.55,1.21-1.55,2.27,0,.48.23.74.58.74s.85-.41,1.2-1.07m-.52-1.53c.2,0,.38.15.28.55l-1,.22c.17-.44.45-.77.67-.77"/><path class="cls-13" d="M34,50.9H32l0,.17c.59.12.65.18.37.94l-.65,1.81c-.28.76-.4.82-1.08.94l0,.18H33.6l.66-1.19H34a2.12,2.12,0,0,1-1.5.94c-.51,0-.57-.09-.3-.87L32.88,52c.28-.76.4-.82,1.08-.94l0-.17Zm2.23.35a.36.36,0,0,0,.36-.36.37.37,0,0,0-.36-.37.37.37,0,0,0-.37.37.36.36,0,0,0,.37.36m-.16,1.11c.06-.21-.08-.32-.18-.32a1.44,1.44,0,0,0-1.18,1h.14a1.18,1.18,0,0,1,.62-.47l-.85,2.21a.22.22,0,0,0,.18.32,1.41,1.41,0,0,0,1.13-1h-.15a1.12,1.12,0,0,1-.61.47l.9-2.2Zm3,.29c0-.45-.17-.61-.48-.61s-.75.41-1.11.9l.92-2.42-.05-.06-1,.11v.11l.19.15c.17.13.12.27,0,.67l-1,2.56a2.31,2.31,0,0,0-.16.47c0,.27.36.52.68.52a2.85,2.85,0,0,0,2-2.4m-1.74,2c-.15,0-.37-.14-.37-.26a3.81,3.81,0,0,1,.15-.43l.25-.66c.27-.31.67-.65.9-.65s.24.09.24.3c0,.6-.56,1.7-1.17,1.7M41.1,54h-.19a1.12,1.12,0,0,1-.74.5c-.26,0-.4-.15-.4-.5a1.93,1.93,0,0,1,0-.42l1.53-.5c.3-.71-.06-1-.48-1-.72,0-1.55,1.21-1.55,2.27,0,.48.23.74.58.74s.85-.41,1.2-1.07m-.52-1.53c.2,0,.38.15.28.54l-1,.23c.17-.45.45-.77.67-.77m3.39.26c.11-.36.05-.67-.22-.67s-.41.25-.75,1v-.41c0-.29-.09-.55-.36-.55s-.59.48-.8,1H42c.15-.21.29-.34.4-.34s.2.21,0,.66l-.6,1.33c-.11.25,0,.41.25.41a.25.25,0,0,0,.28-.2l.58-1.56c.17-.2.32-.38.51-.58Zm.4-.25h.4L44,54.67a.25.25,0,0,0,.22.38A1.88,1.88,0,0,0,45.65,54H45.5a1.93,1.93,0,0,1-.93.57l.74-2.08h.76l.09-.31h-.73l.28-.8h-.29l-.53.8-.52.09v.22Zm3.17-.7,1.08-1v-.12H48l-.67,1.13Zm.3,2.22h-.19a1.12,1.12,0,0,1-.74.5c-.26,0-.39-.15-.39-.5a1.93,1.93,0,0,1,0-.42l1.53-.5c.3-.71-.06-1-.48-1-.72,0-1.55,1.21-1.55,2.27,0,.48.23.74.58.74s.85-.41,1.2-1.07m-.52-1.53c.2,0,.38.15.29.54l-1,.23c.17-.45.45-.77.67-.77"/><path class="cls-14" d="M38.59,19.18s.06,0,.08,0h-.15s0,0,0,0-.21.05-.31.07-.24.13-.39.17-.38.25-.61.32c0,0,0,0,0,0s.1-.08.13-.14,0,0,0,0a3.62,3.62,0,0,1,.54-.49v0c.06-.08.16-.12.19-.21a.36.36,0,0,1,.19-.17s-.05,0-.05-.06-.16,0-.23,0a.35.35,0,0,1,.12-.07l0,0s0-.08.1-.1a.62.62,0,0,0,.23-.07c-.14,0-.29,0-.42,0a1,1,0,0,1,.47-.57s.06,0,.06,0a.19.19,0,0,1-.15.19,2.46,2.46,0,0,1,.45.11s-.05,0-.07,0,.2,0,.3.1c-.06,0-.11,0-.17,0a4.86,4.86,0,0,1,1.7.68,5.3,5.3,0,0,1-1.3.4.36.36,0,0,1-.15,0s0,.05,0,.05a.28.28,0,0,0-.19,0,.23.23,0,0,1-.25,0ZM38.2,20.5h0a1.64,1.64,0,0,1-.22.14l-.25.13h0a0,0,0,0,0,0,0,.85.85,0,0,0-.19.14l0,0h0l0,0h0s0,0,0,0l0,0s0,0,0,0h0l0,0,0,0h0a0,0,0,0,1,0,0l-.07.06-.11.11h0v0h0v0h0l0,0h0l.06-.06h0l0,0,0,0,0,0,.06-.08h0l0,0s0,0,0,0h0s0,0,0-.05h0v0h0v0a0,0,0,0,0,0,0,.39.39,0,0,1,.08-.1h0l-.07.06s-.06,0,0,0l0,0h0a.43.43,0,0,1,.1-.09s0,0,0-.05h0l.05,0h0c.18-.17.48-.16.72-.27s.21,0,.31,0a.36.36,0,0,1,.17,0l-.49.3Zm.34.15,0,.06s0,0,0,0a.36.36,0,0,1-.14.1h0l-.07.07s-.13,0-.1,0a1.85,1.85,0,0,0,.14-.14.27.27,0,0,0,.08-.07s0,0,0,0,.12,0,.1,0Zm-.88-2.83s0,0,0,.07a.16.16,0,0,1-.08.08s0,0,0,0a.26.26,0,0,1,.15-.17s0,0,0,0Zm-1.57,1.25a.07.07,0,0,1,0,0,5.24,5.24,0,0,0,.61-1,2.32,2.32,0,0,0,.64-.53,3.78,3.78,0,0,1,1.06-.83.75.75,0,0,1,.49,0c0,.08-.15.06-.22.11h-.06a.07.07,0,0,0,0-.06c-.19.21-.45.3-.61.55s-.18.43-.43.49c-.08,0,0-.06,0,0a6.5,6.5,0,0,0-1.46,1.31Zm2.9.41s-.12,0-.1,0,.16-.09.23-.13.1,0,.13,0,.1,0,.14.08c-.12.11-.27.06-.4.11Zm2.91,1.36.32-.34h0a6.34,6.34,0,0,1,.63-.64,1.57,1.57,0,0,1,.21-.17s0-.05,0-.07-.16.11-.25.15,0,0,0,0l.2-.15h0s0,0,0,0c-.25,0-.43.13-.61.28s-.07,0-.09,0c-.28.09-.49.34-.78.45v0a2,2,0,0,1-.34.13,1.89,1.89,0,0,1-.47,0c-.23,0-.46.08-.69.13h0a1.51,1.51,0,0,0-.35.14h0l0,0a.49.49,0,0,1-.13.12,1.83,1.83,0,0,0-.31.24h0l-.31.29h-.06l0,0s0,0,0-.08l.06-.09.08-.11a0,0,0,0,0,0,0h0a1.72,1.72,0,0,1,.32-.23h0s0,0,0,0l0-.05h0l0,0-.08.06s-.09.13-.15.13h0v0h0v-.06l0,0v0l0,0s0,0,0,0a.36.36,0,0,1,.13-.11h0l.22-.12,0,0a1.4,1.4,0,0,0-.3.15l0,0a0,0,0,0,1,0,0h0s.08-.06.12-.1,0,0,0,0c.6-.47,1.43-.36,2.13-.6l.17-.12c.1,0,.17-.13.29-.19a.82.82,0,0,0,.32-.43.07.07,0,0,0,0,0,2.91,2.91,0,0,1-.83.62,3.59,3.59,0,0,1-1.25.23.09.09,0,0,1,.09,0c0-.05,0-.07.08-.11h.06s0,0,0,0,.1,0,.08,0-.17.06-.26,0,0-.09,0-.11h.08a.14.14,0,0,1,0-.08c.28-.17.54-.3.81-.45-.06,0-.1.06-.15,0s0-.06,0-.06c.2-.06.37-.17.58-.24-.07,0-.13.05-.21,0s.06-.06.12-.06v-.06s0,0,0,0l0,0s.07,0,.11-.05-.06,0-.06,0a.34.34,0,0,1,.25-.11s-.08,0-.08,0,0,0,0,0h0s0-.06,0-.08a1.44,1.44,0,0,0,.17-.45s0,0,0,0a1.57,1.57,0,0,1-.78.36h-.09a.36.36,0,0,1-.32,0,.9.9,0,0,1-.19-.15,2.12,2.12,0,0,0-.48-.23,4.21,4.21,0,0,0-1.45-.21,3.37,3.37,0,0,1,.66-.19,3.15,3.15,0,0,1,1-.19,1.2,1.2,0,0,0-.19,0,3.38,3.38,0,0,0-.81.12c-.19,0-.36.11-.55.15s-.17.15-.3.13v-.05A1.1,1.1,0,0,1,39,17a3.73,3.73,0,0,1,1,0,6,6,0,0,1,.72.13c.1,0,.11.15.19.17s.23,0,.34.08,0-.08,0-.11.17,0,.25,0-.14-.27-.21-.4a.07.07,0,0,1,0,0,2.38,2.38,0,0,0,.45.38c.1,0,.32.09.29,0a3.35,3.35,0,0,0-.44-.57v-.07s0,0-.06,0v-.08c-.07,0,0-.11-.09-.17s0-.22-.06-.34a1.83,1.83,0,0,1-.07-.32c-.06-.32-.14-.6-.17-.91s.2-.64.37-1a1.73,1.73,0,0,1,.53-.61,1.69,1.69,0,0,1,.36-.6A1.53,1.53,0,0,1,43,12.2a4,4,0,0,1,.5-.19h-13V22h9.2a8.57,8.57,0,0,1,1.22-.63,5.41,5.41,0,0,0,1-.55Z"/><path class="cls-15" d="M58.05,12H47.28l.1,0,.27.15a.9.9,0,0,1,.37.3c0,.06.09.17,0,.25s0,.24-.15.28a.67.67,0,0,1-.4,0,.85.85,0,0,1-.22,0,1.5,1.5,0,0,1,.73.51s.1.06.18.06,0,0,0,.05-.07.06,0,.12h0c.1,0,.08-.23.21-.17a.21.21,0,0,1,.08.28,1.92,1.92,0,0,1-.23.19.15.15,0,0,0,0,.13.64.64,0,0,1,.1.23c0,.13.07.28.13.42a2.74,2.74,0,0,1,.13.85c0,.15-.08.28,0,.43a1.39,1.39,0,0,0,.21.4c.08.12.15.19.21.3s.32.38.22.61-.26.11-.39.19,0,.25,0,.34-.12.28-.25.34c0,.06.11,0,.13.08s.12.15.06.24-.3.17-.19.34a.51.51,0,0,1,0,.42.45.45,0,0,1-.34.28.73.73,0,0,1-.36,0,.3.3,0,0,0-.11,0c-.33,0-.65-.13-1-.13a1,1,0,0,0-.26.08,1.14,1.14,0,0,0-.23.2h0l0,.05,0,0,0,0-.15.21v0l0,0a1.63,1.63,0,0,0-.14.34,1.14,1.14,0,0,0,0,.9s.62.21,1,.39a4.19,4.19,0,0,1,.44.23H58.05V12Z"/><path class="cls-16" d="M47.92,15.66c.08,0,.19,0,.19.06s-.26.19-.38.34h0c-.06,0,0,.13-.1.13a.25.25,0,0,0-.17,0,.34.34,0,0,0,.28.11.09.09,0,0,1,.06.08.06.06,0,0,0,0,0s0,0,0,0v.07c-.06.08-.15,0-.23.06a.82.82,0,0,0,.44,0c.11,0,0-.23.07-.32s0-.06,0-.06a.6.6,0,0,1,.12-.11A.14.14,0,0,0,48.3,16s-.08-.06-.06-.09.21-.19.17-.31-.17-.05-.26-.09a.59.59,0,0,0-.32,0,1.53,1.53,0,0,0-.29.07,1.78,1.78,0,0,0-.36.19c.14,0,.27-.07.42-.11a1.14,1.14,0,0,1,.32,0Z"/></g></svg>
