<svg width="2230" height="587" viewBox="0 0 2230 587" fill="none" xmlns="http://www.w3.org/2000/svg">
<g clip-path="url(#clip0_6692_88015)">
<rect x="-145" y="491" width="2520" height="230" fill="#5BB5A7"/>
<rect x="-145" y="523" width="2520" height="198" fill="#465F9D"/>
<ellipse cx="1536.5" cy="560.5" rx="198.5" ry="20.5" fill="#6D6856" style="mix-blend-mode:soft-light"/>
<path d="M1703.73 557.357C1700.51 542.46 1694.07 507.593 1694.07 487.301" stroke="#FDE2B5" stroke-width="4.83147" stroke-linecap="round" stroke-linejoin="round"/>
<path d="M1621.6 557.357C1626.43 543.487 1636.09 511.025 1636.09 492.132" stroke="#FDE2B5" stroke-width="4.83147" stroke-linecap="round" stroke-linejoin="round"/>
<rect width="65.2248" height="9.66294" rx="4.83147" transform="matrix(-1 0 0 1 1694.07 482.469)" fill="#000091" stroke="#FDE2B5" stroke-width="4.83147" stroke-linecap="round" stroke-linejoin="round"/>
<path d="M1696.49 521.121L1628.85 533.2" stroke="#FDE2B5" stroke-width="4.83147" stroke-linecap="round" stroke-linejoin="round"/>
<path d="M1703.73 458.312L1674.74 482.469" stroke="#FDE2B5" stroke-width="4.83147" stroke-linecap="round" stroke-linejoin="round"/>
<path d="M1698.9 533.199L1633.68 521.121" stroke="#FDE2B5" stroke-width="4.83147" stroke-linecap="round" stroke-linejoin="round"/>
<path d="M1691.65 482.469C1698.1 475.222 1710.98 450.581 1710.98 409.997" stroke="#FDE2B5" stroke-width="4.83147" stroke-linecap="round" stroke-linejoin="round"/>
<g clip-path="url(#clip1_6692_88015)">
<path d="M1566.19 496.993C1566.19 496.993 1589.82 450.805 1594.57 447.076C1599.32 443.347 1626.43 440.194 1626.43 440.194L1626.43 469.537C1626.43 470.718 1626 471.858 1625.22 472.742L1592.94 509.163L1566.19 496.993Z" fill="#FDE2B5" stroke="#E1000F" stroke-width="4.83147" stroke-miterlimit="10" stroke-linecap="round" stroke-linejoin="round"/>
<path d="M1590.25 508.59L1582.9 523.821L1552.44 509.128C1552.44 509.128 1559.79 493.897 1575.08 501.274C1580.14 503.712 1590.25 508.59 1590.25 508.59Z" fill="#FDE2B5" stroke="#E1000F" stroke-width="4.83147" stroke-miterlimit="10" stroke-linecap="round" stroke-linejoin="round"/>
<path d="M1575.02 501.244L1572.92 505.596" stroke="#E1000F" stroke-width="4.83147" stroke-miterlimit="10" stroke-linecap="round" stroke-linejoin="round"/>
<path d="M1585.36 518.705C1585.36 518.705 1596.24 467.975 1599.86 463.144C1603.48 458.312 1626.43 448.649 1626.43 448.649L1691.66 448.649C1691.66 448.649 1696.49 454.689 1696.49 465.559C1696.49 476.43 1689.24 482.469 1679.58 482.469C1658.76 482.469 1634.97 482.469 1625.65 482.469C1623.3 482.469 1621.3 484.153 1620.9 486.461L1614.35 523.537L1585.36 518.705Z" fill="#FDE2B5" stroke="#E1000F" stroke-width="4.83147" stroke-miterlimit="10" stroke-linecap="round" stroke-linejoin="round"/>
<path d="M1611.61 523.68L1608.45 540.294L1575.22 533.986C1575.22 533.986 1578.38 517.373 1595.06 520.54C1600.58 521.587 1611.61 523.68 1611.61 523.68Z" fill="#FDE2B5" stroke="#E1000F" stroke-width="4.83147" stroke-miterlimit="10" stroke-linecap="round" stroke-linejoin="round"/>
<path d="M1594.99 520.527L1594.09 525.274" stroke="#E1000F" stroke-width="4.83147" stroke-miterlimit="10" stroke-linecap="round" stroke-linejoin="round"/>
<path d="M1634.2 397.775L1628.7 402.964L1608.19 391.127L1597.32 384.846L1592.48 393.215L1602.28 401.379L1630.7 423.648L1653.24 408.767L1634.2 397.775Z" fill="#FDE2B5" stroke="#E1000F" stroke-width="4.83147" stroke-miterlimit="10" stroke-linecap="round" stroke-linejoin="round"/>
<path d="M1644.96 384.459L1634.2 397.775L1653.24 408.766L1662.26 402.814" fill="#FDE2B5"/>
<path d="M1644.96 384.459L1634.2 397.775L1653.24 408.766L1662.26 402.814" stroke="#E1000F" stroke-width="4.83147" stroke-miterlimit="10" stroke-linecap="round" stroke-linejoin="round"/>
<path d="M1691.66 390.672C1690.94 373.339 1676.49 359.267 1658.92 359.267C1641.35 359.267 1627.15 373.091 1626.43 390.672V448.649H1691.66V390.672Z" fill="#FDE2B5" stroke="#E1000F" stroke-width="4.83147" stroke-miterlimit="10" stroke-linecap="round" stroke-linejoin="round"/>
<path d="M1646.31 362.701C1646.31 362.701 1635.88 337.525 1654.13 337.525C1659.35 337.525 1667.17 342.56 1664.57 360.183C1651.53 372.771 1646.31 362.701 1646.31 362.701Z" fill="#FDE2B5" stroke="#E1000F" stroke-width="4.83147" stroke-miterlimit="10" stroke-linecap="round" stroke-linejoin="round"/>
<path d="M1655.18 405.166L1653.01 412.413H1629.33H1616.77V422.076L1629.33 424.25L1665.08 429.323L1677.16 405.166H1655.18Z" fill="#FDE2B5" stroke="#E1000F" stroke-width="4.83147" stroke-miterlimit="10" stroke-linecap="round" stroke-linejoin="round"/>
<path d="M1657.84 388.256L1655.18 405.166H1677.16L1682 395.503" fill="#FDE2B5"/>
<path d="M1657.84 388.256L1655.18 405.166H1677.16L1682 395.503" stroke="#E1000F" stroke-width="4.83147" stroke-miterlimit="10" stroke-linecap="round" stroke-linejoin="round"/>
<path d="M1665.08 347.188H1628.85" stroke="#E1000F" stroke-width="4.83147" stroke-miterlimit="10" stroke-linecap="round" stroke-linejoin="round"/>
<path d="M1640.93 347.188C1640.93 340.213 1640.93 330.278 1653.01 330.278C1665.08 330.278 1665.08 340.213 1665.08 347.188H1640.93Z" fill="#FDE2B5" stroke="#E1000F" stroke-width="4.83147" stroke-miterlimit="10" stroke-linecap="round" stroke-linejoin="round"/>
</g>
<path d="M1348.6 470.964C1348.6 481.572 1357.28 487.841 1367.88 487.841H1377.53" stroke="#FDE2B5" stroke-width="4.82185" stroke-miterlimit="10" stroke-linecap="round" stroke-linejoin="round"/>
<path d="M1343.88 469.383C1341.13 467.188 1340.64 463.286 1342.38 460.359C1349.11 449.628 1352.85 437.191 1352.85 423.777C1352.85 411.583 1349.61 400.121 1344.13 390.122C1342.38 386.952 1343.13 383.293 1346.12 381.099C1346.37 380.855 1346.37 380.855 1346.62 380.611C1349.86 378.416 1354.34 379.147 1356.59 382.318C1365.06 394.024 1370.29 408.169 1370.29 423.777C1370.29 440.849 1364.06 456.457 1353.84 468.651C1351.35 471.334 1346.87 471.821 1343.88 469.383Z" fill="#000091" stroke="#FDE2B5" stroke-width="4.82185" stroke-miterlimit="10" stroke-linecap="round" stroke-linejoin="round"/>
<path d="M1435.39 495.074H1382.35C1379.7 495.074 1377.53 492.904 1377.53 490.252V485.43C1377.53 482.778 1379.7 480.608 1382.35 480.608H1435.39C1438.04 480.608 1440.21 482.778 1440.21 485.43V490.252C1440.21 492.904 1438.04 495.074 1435.39 495.074Z" fill="#000091" stroke="#FDE2B5" stroke-width="4.82185" stroke-miterlimit="10" stroke-linecap="round" stroke-linejoin="round"/>
<path d="M1408.87 497.485L1408.87 545.703" stroke="#FDE2B5" stroke-width="4.82185" stroke-miterlimit="10" stroke-linecap="round" stroke-linejoin="round"/>
<path d="M1435.39 545.703C1435.39 537.747 1429.15 531.238 1421.53 531.238H1393.8C1386.18 531.238 1379.94 537.747 1379.94 545.703" stroke="#FDE2B5" stroke-width="4.82185" stroke-miterlimit="10" stroke-linecap="round" stroke-linejoin="round"/>
<path d="M1379.94 555.347C1377.27 555.347 1375.12 553.188 1375.12 550.525C1375.12 547.862 1377.27 545.703 1379.94 545.703C1382.6 545.703 1384.76 547.862 1384.76 550.525C1384.76 553.188 1382.6 555.347 1379.94 555.347Z" stroke="#FDE2B5" stroke-width="4.82185" stroke-miterlimit="10" stroke-linecap="round" stroke-linejoin="round"/>
<path d="M1408.87 555.347C1406.21 555.347 1404.05 553.188 1404.05 550.525C1404.05 547.862 1406.21 545.703 1408.87 545.703C1411.53 545.703 1413.69 547.862 1413.69 550.525C1413.69 553.188 1411.53 555.347 1408.87 555.347Z" stroke="#FDE2B5" stroke-width="4.82185" stroke-miterlimit="10" stroke-linecap="round" stroke-linejoin="round"/>
<path d="M1435.39 555.347C1432.73 555.347 1430.57 553.188 1430.57 550.525C1430.57 547.862 1432.73 545.703 1435.39 545.703C1438.05 545.703 1440.21 547.862 1440.21 550.525C1440.21 553.188 1438.05 555.347 1435.39 555.347Z" stroke="#FDE2B5" stroke-width="4.82185" stroke-miterlimit="10" stroke-linecap="round" stroke-linejoin="round"/>
<path d="M1413.69 507.128H1404.05" stroke="#FDE2B5" stroke-width="4.82185" stroke-miterlimit="10" stroke-linecap="round" stroke-linejoin="round"/>
<path d="M1413.69 516.772H1404.05" stroke="#FDE2B5" stroke-width="4.82185" stroke-miterlimit="10" stroke-linecap="round" stroke-linejoin="round"/>
<g clip-path="url(#clip2_6692_88015)">
<path d="M1509.3 490.368C1504.47 490.368 1488 487.028 1478.49 476.157C1463.69 459.247 1450.11 463.795 1439.24 463.795V442.054L1455.11 438.88C1460.24 437.855 1465.51 439.666 1468.93 443.619L1509.3 490.368Z" fill="#000091" stroke="#FDE2B5" stroke-width="4.83147" stroke-miterlimit="10" stroke-linecap="round" stroke-linejoin="round"/>
<path d="M1403.01 480.706C1395.76 480.706 1383.68 475.874 1383.68 463.795C1383.68 451.717 1390.93 446.885 1390.93 446.885H1424.75C1424.75 446.885 1431.11 444.058 1439.24 441.463V480.706H1403.01Z" fill="#000091" stroke="#FDE2B5" stroke-width="4.83147" stroke-miterlimit="10" stroke-linecap="round" stroke-linejoin="round"/>
<path d="M1475.48 536.267C1471.86 533.852 1467.03 524.189 1465.82 518.149C1464.96 513.842 1462.87 496.631 1461.74 487.114C1461.3 483.459 1458.21 480.705 1454.53 480.705H1439.24V458.964H1458.57C1467.91 458.964 1475.48 466.535 1475.48 475.874V516.942V536.267Z" fill="#000091" stroke="#FDE2B5" stroke-width="4.83147" stroke-miterlimit="10" stroke-linecap="round" stroke-linejoin="round"/>
<path d="M1452.18 373.999L1458.09 377.415L1438.05 405.293L1434.3 391.293L1452.18 373.999Z" fill="#000091" stroke="#FDE2B5" stroke-width="4.83147" stroke-miterlimit="10" stroke-linecap="round" stroke-linejoin="round"/>
<path d="M1409.05 419.104L1430.79 419.104L1449.72 402.167L1444.1 381.166L1433.33 392.531L1404.18 376.857" fill="#000091"/>
<path d="M1409.05 419.104L1430.79 419.104L1449.72 402.167L1444.1 381.166L1433.33 392.531L1404.18 376.857" stroke="#FDE2B5" stroke-width="4.83147" stroke-miterlimit="10" stroke-linecap="round" stroke-linejoin="round"/>
<path d="M1417.38 379.245C1417.38 379.245 1436.61 408.233 1434.2 415.481C1431.8 422.728 1424.59 446.885 1424.59 446.885H1390.94C1390.94 446.885 1389.26 437.705 1388.54 434.806C1383.73 413.065 1386.61 397.363 1392.14 386.733C1396.23 378.761 1400.55 374.413 1400.55 374.413L1417.38 379.245Z" fill="#000091" stroke="#FDE2B5" stroke-width="4.83147" stroke-miterlimit="10" stroke-linecap="round" stroke-linejoin="round"/>
<path d="M1366.77 434.806L1357.11 454.132L1364.36 458.964L1376.43 442.054" fill="#000091" stroke="#FDE2B5" stroke-width="4.83147" stroke-miterlimit="10" stroke-linecap="round" stroke-linejoin="round"/>
<path d="M1398.18 381.66C1398.18 381.66 1391.9 382.627 1388.51 386.492C1380.54 395.43 1369.67 414.514 1359.52 434.807C1369.19 442.054 1377.16 447.368 1381.27 449.301L1398.18 413.065" fill="#000091"/>
<path d="M1398.18 381.66C1398.18 381.66 1391.9 382.627 1388.51 386.492C1380.54 395.43 1369.67 414.514 1359.52 434.807C1369.19 442.054 1377.16 447.368 1381.27 449.301L1398.18 413.065" stroke="#FDE2B5" stroke-width="4.83147" stroke-miterlimit="10" stroke-linecap="round" stroke-linejoin="round"/>
<path d="M1427.17 384.076V422.728H1407.84V395.913L1427.17 384.076Z" fill="#000091" stroke="#FDE2B5" stroke-width="4.83147" stroke-miterlimit="10" stroke-linecap="round" stroke-linejoin="round"/>
<path d="M1388.51 380.007C1388.51 380.007 1395.14 396.155 1409.88 396.155C1424.62 396.155 1427.07 384.104 1427.07 384.104C1427.07 384.104 1428.55 374.463 1419.7 374.463C1410.86 374.463 1400.06 374.463 1400.06 374.463C1400.06 374.463 1391.71 373.499 1388.51 380.007Z" fill="#000091" stroke="#FDE2B5" stroke-width="4.83147" stroke-miterlimit="10" stroke-linecap="round" stroke-linejoin="round"/>
<path d="M1427.17 422.728V429.975" stroke="#FDE2B5" stroke-width="4.83147" stroke-miterlimit="10" stroke-linecap="round" stroke-linejoin="round"/>
<path d="M1417.5 422.728V429.975" stroke="#FDE2B5" stroke-width="4.83147" stroke-miterlimit="10" stroke-linecap="round" stroke-linejoin="round"/>
<path d="M1407.84 422.728V429.975" stroke="#FDE2B5" stroke-width="4.83147" stroke-miterlimit="10" stroke-linecap="round" stroke-linejoin="round"/>
<path d="M1416.95 377.847C1416.95 377.847 1427.38 352.671 1409.13 352.671C1403.91 352.671 1396.09 357.706 1398.69 375.329C1411.73 387.917 1416.95 377.847 1416.95 377.847Z" fill="#000091" stroke="#FDE2B5" stroke-width="4.83147" stroke-miterlimit="10" stroke-linecap="round" stroke-linejoin="round"/>
<path d="M1422.33 364.75H1403.01V381.66H1388.51C1388.51 381.66 1388.51 369.582 1388.51 364.75C1388.51 350.256 1395.76 345.424 1405.42 345.424C1417.5 345.424 1422.33 352.672 1422.33 364.75Z" fill="#000091" stroke="#FDE2B5" stroke-width="4.83147" stroke-miterlimit="10" stroke-linecap="round" stroke-linejoin="round"/>
</g>
<path d="M1439.46 558.564V452.272H1560.25V558.564" stroke="#FDE2B5" stroke-width="4.83147" stroke-miterlimit="10" stroke-linecap="round" stroke-linejoin="round"/>
<path d="M1560.25 437.778H1439.46V452.272H1560.25V437.778Z" fill="#000091" stroke="#FDE2B5" stroke-width="4.83147" stroke-miterlimit="10" stroke-linecap="round" stroke-linejoin="round"/>
<rect x="1468.22" y="359.424" width="65.7039" height="53.3844" rx="4.10649" fill="#000091" stroke="#FDE2B5" stroke-width="4.10649" stroke-miterlimit="10" stroke-linecap="round" stroke-linejoin="round"/>
<rect x="1468.22" y="367.637" width="65.7039" height="36.9585" fill="#FDE2B5" stroke="#FDE2B5" stroke-width="4.10649" stroke-miterlimit="10" stroke-linecap="round" stroke-linejoin="round"/>
<rect x="1492.86" y="412.808" width="16.426" height="12.3195" fill="#000091" stroke="#FDE2B5" stroke-width="4.10649" stroke-miterlimit="10" stroke-linecap="round" stroke-linejoin="round"/>
<rect x="1484.64" y="425.127" width="32.852" height="8.21299" rx="2.05325" fill="#000091" stroke="#FDE2B5" stroke-width="4.10649" stroke-miterlimit="10" stroke-linecap="round" stroke-linejoin="round"/>
<path d="M1490.01 390.899C1491.28 392.223 1492.95 392.89 1494.63 392.89H1507.52C1509.19 392.89 1510.85 392.233 1512.13 390.909C1514.67 388.261 1514.67 383.971 1512.13 381.323C1510.84 379.988 1509.16 379.331 1507.47 379.342H1494.67C1492.98 379.331 1491.3 379.988 1490.01 381.323C1487.46 383.961 1487.46 388.261 1490.01 390.899Z" fill="url(#paint0_linear_6692_88015)"/>
<path d="M1507.52 379.342C1511.12 379.342 1514.03 382.375 1514.03 386.116C1514.03 389.857 1511.12 392.89 1507.52 392.89C1503.92 392.89 1501 389.857 1501 386.116C1501 382.375 1503.92 379.342 1507.52 379.342Z" fill="#E1000F"/>
<path d="M1343.64 46.5881C1346.73 43.5373 1350.78 42 1354.85 42H1386.15C1390.2 42 1394.25 43.5136 1397.35 46.5645C1403.53 52.6662 1403.53 62.5519 1397.35 68.6537C1394.23 71.7282 1390.13 73.2418 1386.03 73.2181H1354.95C1350.85 73.2418 1346.78 71.7282 1343.64 68.6537C1337.45 62.5756 1337.45 52.6662 1343.64 46.5881Z" fill="url(#paint1_linear_6692_88015)"/>
<path d="M1386.15 73.2181C1394.89 73.2181 1401.97 66.2297 1401.97 57.6091C1401.97 48.9884 1394.89 42 1386.15 42C1377.42 42 1370.34 48.9884 1370.34 57.6091C1370.34 66.2297 1377.42 73.2181 1386.15 73.2181Z" fill="#E1000F"/>
<path d="M1700.64 218.588C1703.73 215.537 1707.78 214 1711.85 214H1743.15C1747.2 214 1751.25 215.514 1754.35 218.564C1760.53 224.666 1760.53 234.552 1754.35 240.654C1751.23 243.728 1747.13 245.242 1743.03 245.218H1711.95C1707.85 245.242 1703.78 243.728 1700.64 240.654C1694.45 234.576 1694.45 224.666 1700.64 218.588Z" fill="url(#paint2_linear_6692_88015)"/>
<path d="M1743.15 245.218C1751.89 245.218 1758.97 238.23 1758.97 229.609C1758.97 220.988 1751.89 214 1743.15 214C1734.42 214 1727.34 220.988 1727.34 229.609C1727.34 238.23 1734.42 245.218 1743.15 245.218Z" fill="#E1000F"/>
<path d="M1956.64 61.5881C1959.73 58.5373 1963.78 57 1967.85 57H1999.15C2003.2 57 2007.25 58.5136 2010.35 61.5645C2016.53 67.6662 2016.53 77.5519 2010.35 83.6537C2007.23 86.7282 2003.13 88.2418 1999.03 88.2181H1967.95C1963.85 88.2418 1959.78 86.7282 1956.64 83.6537C1950.45 77.5756 1950.45 67.6662 1956.64 61.5881Z" fill="url(#paint3_linear_6692_88015)"/>
<path d="M1999.15 88.2181C2007.89 88.2181 2014.97 81.2297 2014.97 72.6091C2014.97 63.9884 2007.89 57 1999.15 57C1990.42 57 1983.34 63.9884 1983.34 72.6091C1983.34 81.2297 1990.42 88.2181 1999.15 88.2181Z" fill="#E1000F"/>
<path d="M1120.64 66.3577C1123.73 63.3068 1127.78 61.7695 1131.85 61.7695H1163.15C1167.2 61.7695 1171.25 63.2831 1174.35 66.334C1180.53 72.4357 1180.53 82.3215 1174.35 88.4232C1171.23 91.4977 1167.13 93.0113 1163.03 92.9877H1131.95C1127.85 93.0113 1123.78 91.4977 1120.64 88.4232C1114.45 82.3451 1114.45 72.4357 1120.64 66.3577Z" fill="url(#paint4_linear_6692_88015)"/>
<path d="M1163.15 92.9877C1171.89 92.9877 1178.97 85.9993 1178.97 77.3786C1178.97 68.7579 1171.89 61.7695 1163.15 61.7695C1154.42 61.7695 1147.34 68.7579 1147.34 77.3786C1147.34 85.9993 1154.42 92.9877 1163.15 92.9877Z" fill="#FCC63A"/>
<path d="M1562.64 -3.41188C1565.73 -6.46274 1569.78 -8 1573.85 -8H1605.15C1609.2 -8 1613.25 -6.48639 1616.35 -3.43553C1622.53 2.6662 1622.53 12.5519 1616.35 18.6537C1613.23 21.7282 1609.13 23.2418 1605.03 23.2181H1573.95C1569.85 23.2418 1565.78 21.7282 1562.64 18.6537C1556.45 12.5756 1556.45 2.6662 1562.64 -3.41188Z" fill="url(#paint5_linear_6692_88015)"/>
<path d="M1605.15 23.2181C1613.89 23.2181 1620.97 16.2297 1620.97 7.60907C1620.97 -1.01158 1613.89 -8 1605.15 -8C1596.42 -8 1589.34 -1.01158 1589.34 7.60907C1589.34 16.2297 1596.42 23.2181 1605.15 23.2181Z" fill="#FCC63A"/>
<path d="M1400.64 209.588C1403.73 206.537 1407.78 205 1411.85 205H1443.15C1447.2 205 1451.25 206.514 1454.35 209.564C1460.53 215.666 1460.53 225.552 1454.35 231.654C1451.23 234.728 1447.13 236.242 1443.03 236.218H1411.95C1407.85 236.242 1403.78 234.728 1400.64 231.654C1394.45 225.576 1394.45 215.666 1400.64 209.588Z" fill="url(#paint6_linear_6692_88015)"/>
<path d="M1443.15 236.218C1451.89 236.218 1458.97 229.23 1458.97 220.609C1458.97 211.988 1451.89 205 1443.15 205C1434.42 205 1427.34 211.988 1427.34 220.609C1427.34 229.23 1434.42 236.218 1443.15 236.218Z" fill="#FCC63A"/>
<path d="M1972.64 266.588C1975.73 263.537 1979.78 262 1983.85 262H2015.15C2019.2 262 2023.25 263.514 2026.35 266.564C2032.53 272.666 2032.53 282.552 2026.35 288.654C2023.23 291.728 2019.13 293.242 2015.03 293.218H1983.95C1979.85 293.242 1975.78 291.728 1972.64 288.654C1966.45 282.576 1966.45 272.666 1972.64 266.588Z" fill="url(#paint7_linear_6692_88015)"/>
<path d="M2015.15 293.218C2023.89 293.218 2030.97 286.23 2030.97 277.609C2030.97 268.988 2023.89 262 2015.15 262C2006.42 262 1999.34 268.988 1999.34 277.609C1999.34 286.23 2006.42 293.218 2015.15 293.218Z" fill="#FCC63A"/>
<path d="M1525.64 125.588C1528.73 122.537 1532.78 121 1536.85 121H1568.15C1572.2 121 1576.25 122.514 1579.35 125.564C1585.53 131.666 1585.53 141.552 1579.35 147.654C1576.23 150.728 1572.13 152.242 1568.03 152.218H1536.95C1532.85 152.242 1528.78 150.728 1525.64 147.654C1519.45 141.576 1519.45 131.666 1525.64 125.588Z" fill="url(#paint8_linear_6692_88015)"/>
<path d="M1568.15 152.218C1576.89 152.218 1583.97 145.23 1583.97 136.609C1583.97 127.988 1576.89 121 1568.15 121C1559.42 121 1552.34 127.988 1552.34 136.609C1552.34 145.23 1559.42 152.218 1568.15 152.218Z" fill="#000091"/>
<path d="M2114.64 193.588C2117.73 190.537 2121.78 189 2125.85 189H2157.15C2161.2 189 2165.25 190.514 2168.35 193.564C2174.53 199.666 2174.53 209.552 2168.35 215.654C2165.23 218.728 2161.13 220.242 2157.03 220.218H2125.95C2121.85 220.242 2117.78 218.728 2114.64 215.654C2108.45 209.576 2108.45 199.666 2114.64 193.588Z" fill="url(#paint9_linear_6692_88015)"/>
<path d="M2157.15 220.218C2165.89 220.218 2172.97 213.23 2172.97 204.609C2172.97 195.988 2165.89 189 2157.15 189C2148.42 189 2141.34 195.988 2141.34 204.609C2141.34 213.23 2148.42 220.218 2157.15 220.218Z" fill="#000091"/>
<path d="M1760.64 94.5881C1763.73 91.5373 1767.78 90 1771.85 90H1803.15C1807.2 90 1811.25 91.5136 1814.35 94.5645C1820.53 100.666 1820.53 110.552 1814.35 116.654C1811.23 119.728 1807.13 121.242 1803.03 121.218H1771.95C1767.85 121.242 1763.78 119.728 1760.64 116.654C1754.45 110.576 1754.45 100.666 1760.64 94.5881Z" fill="url(#paint10_linear_6692_88015)"/>
<path d="M1803.15 121.218C1811.89 121.218 1818.97 114.23 1818.97 105.609C1818.97 96.9884 1811.89 90 1803.15 90C1794.42 90 1787.34 96.9884 1787.34 105.609C1787.34 114.23 1794.42 121.218 1803.15 121.218Z" fill="#000091"/>
</g>
<defs>
<linearGradient id="paint0_linear_6692_88015" x1="1488.25" y1="386.112" x2="1513.78" y2="386.112" gradientUnits="userSpaceOnUse">
<stop stop-color="#F38192" stop-opacity="0"/>
<stop offset="1" stop-color="#E1000F"/>
</linearGradient>
<linearGradient id="paint1_linear_6692_88015" x1="1339.36" y1="57.6188" x2="1401.35" y2="57.6188" gradientUnits="userSpaceOnUse">
<stop stop-color="#E1000F" stop-opacity="0"/>
<stop offset="1" stop-color="#E1000F"/>
</linearGradient>
<linearGradient id="paint2_linear_6692_88015" x1="1696.36" y1="229.619" x2="1758.35" y2="229.619" gradientUnits="userSpaceOnUse">
<stop stop-color="#E1000F" stop-opacity="0"/>
<stop offset="1" stop-color="#E1000F"/>
</linearGradient>
<linearGradient id="paint3_linear_6692_88015" x1="1952.36" y1="72.6188" x2="2014.35" y2="72.6188" gradientUnits="userSpaceOnUse">
<stop stop-color="#E1000F" stop-opacity="0"/>
<stop offset="1" stop-color="#E1000F"/>
</linearGradient>
<linearGradient id="paint4_linear_6692_88015" x1="1116.36" y1="77.3883" x2="1178.35" y2="77.3883" gradientUnits="userSpaceOnUse">
<stop stop-color="#FCC63A" stop-opacity="0"/>
<stop offset="1" stop-color="#FCC63A"/>
</linearGradient>
<linearGradient id="paint5_linear_6692_88015" x1="1558.36" y1="7.61876" x2="1620.35" y2="7.61876" gradientUnits="userSpaceOnUse">
<stop stop-color="#FCC63A" stop-opacity="0"/>
<stop offset="1" stop-color="#FCC63A"/>
</linearGradient>
<linearGradient id="paint6_linear_6692_88015" x1="1396.36" y1="220.619" x2="1458.35" y2="220.619" gradientUnits="userSpaceOnUse">
<stop stop-color="#FCC63A" stop-opacity="0"/>
<stop offset="1" stop-color="#FCC63A"/>
</linearGradient>
<linearGradient id="paint7_linear_6692_88015" x1="1968.36" y1="277.619" x2="2030.35" y2="277.619" gradientUnits="userSpaceOnUse">
<stop stop-color="#FCC63A" stop-opacity="0"/>
<stop offset="1" stop-color="#FCC63A"/>
</linearGradient>
<linearGradient id="paint8_linear_6692_88015" x1="1521.36" y1="136.619" x2="1583.35" y2="136.619" gradientUnits="userSpaceOnUse">
<stop stop-color="#000091" stop-opacity="0"/>
<stop offset="1" stop-color="#000091"/>
</linearGradient>
<linearGradient id="paint9_linear_6692_88015" x1="2110.36" y1="204.619" x2="2172.35" y2="204.619" gradientUnits="userSpaceOnUse">
<stop stop-color="#000091" stop-opacity="0"/>
<stop offset="1" stop-color="#000091"/>
</linearGradient>
<linearGradient id="paint10_linear_6692_88015" x1="1756.36" y1="105.619" x2="1818.35" y2="105.619" gradientUnits="userSpaceOnUse">
<stop stop-color="#000091" stop-opacity="0"/>
<stop offset="1" stop-color="#000091"/>
</linearGradient>
<clipPath id="clip0_6692_88015">
<rect width="2230" height="587" fill="white"/>
</clipPath>
<clipPath id="clip1_6692_88015">
<rect width="149.776" height="234.326" fill="white" transform="matrix(-1 0 0 1 1698.9 310.952)"/>
</clipPath>
<clipPath id="clip2_6692_88015">
<rect width="159.439" height="212.585" fill="white" transform="translate(1354.69 326.098)"/>
</clipPath>
</defs>
</svg>
