<svg width="160" height="160" viewBox="0 0 160 160" fill="none" xmlns="http://www.w3.org/2000/svg">
<circle cx="85.3902" cy="85.3901" r="74.6099" fill="#FAD776"/>
<circle cx="74.6099" cy="74.6099" r="74.6099" fill="white"/>
<mask id="mask0_35_402" style="mask-type:alpha" maskUnits="userSpaceOnUse" x="10" y="10" width="128" height="128">
<circle cx="74.2853" cy="74.2857" r="63.5714" fill="#C4C4C4"/>
</mask>
<g mask="url(#mask0_35_402)">
<path d="M56.486 110.866C57.7146 117.825 50.9828 150.742 50.2977 150.227H42.6373L41.7881 93.6093H62.4535C67.4642 102.442 72.3786 146.711 70.9461 150.227H63.4896L56.2256 119.042" fill="#00AC86"/>
<path d="M56.486 110.866C57.7146 117.825 50.9828 150.742 50.2977 150.227H42.6373L41.7881 93.6093H62.4535C67.4642 102.442 72.3786 146.711 70.9461 150.227H63.4896L56.2256 119.042" stroke="#27397C" stroke-width="4" stroke-linecap="round" stroke-linejoin="round"/>
<path d="M46.2891 61.4053C43.1186 65.5157 41.1256 72.0211 40.5595 77.6828C39.9933 83.3446 38.7194 98.2916 37.8701 101.972C49.941 103.03 60.1774 102.623 64.5427 100.398C64.5427 100.398 61.089 81.8895 60.9418 79.0983C60.8002 76.4486 61.8703 75.3445 61.9326 71.9531C62.0005 68.0635 56.6332 62.1639 56.6332 62.1639L49.2729 59.2821C48.1027 59.7034 47.0707 60.4378 46.2891 61.4053Z" fill="white" stroke="#27397C" stroke-width="4" stroke-linecap="round" stroke-linejoin="round"/>
<path d="M50.8926 71.2454C52.2741 68.4145 52.6591 65.0514 49.1601 63.0698C46.5557 61.5977 43.9626 64.2814 43.0001 66.8915C42.0376 69.5015 40.1692 76.5674 40.39 79.7437C40.6109 82.9199 42.8246 89.4309 43.7871 91.9787C44.3721 93.4909 45.0685 94.9575 45.8706 96.3666C45.8706 96.3666 46.4028 99.339 48.175 100.154C49.7999 100.902 51.7758 99.8372 52.7044 97.8896C53.2139 96.8422 53.2026 96.5194 52.9195 95.7947C52.5289 94.7926 51.7192 94.2774 50.5019 92.6015C48.4071 89.697 47.2464 84.1089 47.32 81.2044C47.3936 78.2999 50.8926 71.2454 50.8926 71.2454Z" fill="#EAC8B5" stroke="#27397C" stroke-width="4" stroke-linecap="round" stroke-linejoin="round"/>
<path d="M66.8864 52.0464C67.1525 50.982 65.9296 49.4816 66.0372 48.3832C66.1447 47.2848 65.9353 43.6217 65.9296 43.6104C61.5078 33.0965 47.5855 44.5276 51.5487 53.9148L49.3916 59.3331L56.5594 62.1639L58.49 57.2326C61.2303 57.4647 64.4858 56.8645 65.4031 53.6147C65.6352 52.8447 66.6713 52.8956 66.8864 52.0464Z" fill="#EAC8B5" stroke="#27397C" stroke-width="4" stroke-linecap="round" stroke-linejoin="round"/>
<path d="M63.5236 41.4475C64.152 44.5219 56.6219 50.4158 53.774 49.0739C54.7139 53.258 52.8511 55.0414 50.2184 57.493C47.3876 60.1483 48.0273 65.7535 46.3288 69.3827C43.7754 74.8406 39.5347 77.6148 33.1596 76.6354C26.49 75.6219 25.018 69.4393 26.5749 63.5567C28.2735 57.2155 34.8185 55.5283 39.2459 51.5255C43.2941 47.8623 44.0245 41.8212 48.3557 38.4412C52.5058 35.197 61.0437 34.4779 65.2674 38.3223C68.002 40.8134 66.9263 42.5629 65.9298 43.6103C65.4146 42.6229 64.5601 41.8549 63.5236 41.4475Z" fill="#FAD776" stroke="#27397C" stroke-width="4" stroke-linecap="round" stroke-linejoin="round"/>
<path d="M148.965 77.7564H91.7812V159.286H148.965V77.7564Z" fill="white" stroke="#27397C" stroke-width="4" stroke-linecap="round" stroke-linejoin="round"/>
<path d="M152.928 73.227H85.5527V77.7564H152.928V73.227Z" fill="#FAD776" stroke="#27397C" stroke-width="4" stroke-linecap="round" stroke-linejoin="round"/>
<path d="M103.671 68.6976H91.7812V73.227H103.671V68.6976Z" fill="#7FB7C0" stroke="#27397C" stroke-width="4" stroke-linecap="round" stroke-linejoin="round"/>
<path d="M114.949 86.249H101.129V95.4607H114.949V86.249Z" fill="white" stroke="#27397C" stroke-width="4" stroke-linecap="round" stroke-linejoin="round"/>
<path d="M114.949 99.9279H101.129V113.748H114.949V99.9279Z" fill="#7FB7C0" stroke="#27397C" stroke-width="4" stroke-linecap="round" stroke-linejoin="round"/>
<path d="M97.4434 118.566H117.718" stroke="#27397C" stroke-width="4" stroke-linecap="round" stroke-linejoin="round"/>
<path d="M140.75 86.249H126.93V95.4607H140.75V86.249Z" fill="white" stroke="#27397C" stroke-width="4" stroke-linecap="round" stroke-linejoin="round"/>
<path d="M140.75 99.9279H126.93V113.748H140.75V99.9279Z" fill="#7FB7C0" stroke="#27397C" stroke-width="4" stroke-linecap="round" stroke-linejoin="round"/>
<path d="M123.243 118.566H144.435" stroke="#27397C" stroke-width="4" stroke-linecap="round" stroke-linejoin="round"/>
<path d="M127.451 138.337H112.164V159.286H127.451V138.337Z" fill="white" stroke="#27397C" stroke-width="4" stroke-linecap="round" stroke-linejoin="round"/>
<path d="M136.21 143.999C139.19 143.999 141.606 141.583 141.606 138.603C141.606 135.623 139.19 133.208 136.21 133.208C133.23 133.208 130.814 135.623 130.814 138.603C130.814 141.583 133.23 143.999 136.21 143.999Z" fill="#EF4056" stroke="#27397C" stroke-width="4" stroke-linecap="round" stroke-linejoin="round"/>
</g>
</svg>
