<svg width="263" height="259" viewBox="0 0 263 259" fill="none" xmlns="http://www.w3.org/2000/svg">
<mask id="mask0_35_351" style="mask-type:alpha" maskUnits="userSpaceOnUse" x="0" y="0" width="262" height="251">
<path d="M262 125.5C262 194.812 205.812 251 136.5 251C67.1883 251 0 196.812 0 127.5C0 58.1883 67.1883 0 136.5 0C205.812 0 262 56.1883 262 125.5Z" fill="#C4C4C4"/>
</mask>
<g mask="url(#mask0_35_351)">
<path d="M209.292 173.716C212.598 165.834 218.765 159.024 229.077 162.626C236.727 165.298 235.905 175.387 232.304 182.036C228.702 188.676 217.665 205.173 210.748 210.374C203.831 215.576 186.619 222.752 179.649 225.29C172.678 227.828 166.959 228.882 166.959 228.882C166.959 228.882 159.943 233.118 155.109 230.965C150.667 228.981 149.318 223.047 151.57 217.685C152.794 214.771 153.482 214.226 155.466 213.502C158.201 212.51 160.712 213.243 166.306 212.716C175.976 211.795 189.461 204.155 195.261 198.819C201.061 193.466 209.292 173.716 209.292 173.716Z" fill="#EAC8B5" stroke="#27397C" stroke-width="5" stroke-miterlimit="10" stroke-linecap="round" stroke-linejoin="round"/>
<path d="M76.0547 147.925C67.4398 159.078 62.0331 176.746 60.496 192.108C58.9589 207.47 55.5004 248.052 53.1947 258.043C85.9566 260.911 113.759 259.812 125.6 253.762C125.6 253.762 116.225 203.52 115.823 195.951C115.439 188.748 118.352 185.754 118.513 176.549C118.701 165.995 104.125 149.98 104.125 149.98L84.1246 142.161C84.1246 142.161 79.3256 143.698 76.0547 147.925Z" fill="#FAD776" stroke="#27397C" stroke-width="5" stroke-miterlimit="10" stroke-linecap="round" stroke-linejoin="round"/>
<path d="M242.268 147.925C250.883 159.078 251.643 176.504 253.18 191.876C254.717 207.247 258.175 247.819 260.481 257.81C227.719 260.679 215.619 260.482 203.778 254.432C203.778 254.432 202.106 203.52 202.509 195.951C202.893 188.748 204.457 182.143 206.235 173.108C208.496 161.634 214.207 149.98 214.207 149.98L234.207 142.161C234.198 142.161 239.006 143.698 242.268 147.925Z" fill="#7FB7C0" stroke="#27397C" stroke-width="5" stroke-miterlimit="10" stroke-linecap="round" stroke-linejoin="round"/>
<path d="M102.114 168.56C99.5488 160.409 94.0349 153.055 83.436 155.691C75.5717 157.648 75.4645 167.773 78.4404 174.717C81.4163 181.661 90.8892 199.105 97.2968 204.914C103.704 210.723 120.184 219.454 126.895 222.627C133.607 225.799 139.201 227.372 139.201 227.372C139.201 227.372 145.796 232.234 150.81 230.536C155.412 228.972 157.307 223.181 155.555 217.631C154.608 214.619 153.973 214.012 152.061 213.1C149.433 211.858 146.869 212.358 141.337 211.322C131.792 209.517 119.067 200.669 113.785 194.816C108.494 188.98 102.114 168.56 102.114 168.56Z" fill="#EAC8B5" stroke="#27397C" stroke-width="5" stroke-miterlimit="10" stroke-linecap="round" stroke-linejoin="round"/>
<path d="M131.963 122.518C132.686 119.631 129.371 115.556 129.657 112.58C129.943 109.604 129.389 99.6579 129.371 99.6132C117.36 71.0873 79.5757 102.107 90.3265 127.585L84.4819 142.304L103.946 150.034L109.237 136.593C116.69 137.237 125.51 135.601 128.004 126.772C128.576 124.725 131.391 124.824 131.963 122.518Z" fill="#EAC8B5" stroke="#27397C" stroke-width="5" stroke-miterlimit="10" stroke-linecap="round" stroke-linejoin="round"/>
<path d="M187.477 122.518C186.753 119.631 190.069 115.556 189.783 112.58C189.497 109.604 190.051 99.6489 190.069 99.6132C209.157 64.6976 246.674 95.967 229.113 127.585L234.958 142.304L215.493 150.034L210.203 136.593C202.75 137.237 193.929 135.601 191.436 126.772C190.864 124.725 188.049 124.824 187.477 122.518Z" fill="#EAC8B5" stroke="#27397C" stroke-width="5" stroke-miterlimit="10" stroke-linecap="round" stroke-linejoin="round"/>
<path d="M122.838 93.7508C124.59 102.089 104.107 118.085 96.3765 114.448C98.9235 125.807 93.8653 130.641 86.716 137.299C78.9857 144.511 80.782 159.712 76.1617 169.614C69.2447 184.431 57.6628 191.965 40.415 189.311C22.3093 186.514 18.3146 169.73 22.5416 153.761C27.0904 136.549 44.9191 131.964 56.9389 121.088C67.9132 111.159 69.906 94.7606 81.6667 85.5737C92.9269 76.78 116.109 74.8139 127.574 85.2609C134.992 92.017 132.07 96.7714 129.371 99.6043C127.664 96.8518 125.877 94.8768 122.838 93.7508Z" fill="white" stroke="#27397C" stroke-width="5" stroke-miterlimit="10" stroke-linecap="round" stroke-linejoin="round"/>
<path d="M189.694 98.38C189.694 98.38 203.769 96.816 205.226 98.6034C206.682 100.391 213.948 108.157 214.636 105.029C215.896 99.3272 221.419 97.3165 225.7 101.177C231.115 106.066 226.54 110.981 225.619 117.013C224.341 125.342 231.035 123.858 231.035 123.858C231.035 123.858 235.217 122.223 239.748 117.71C243.886 113.608 249.355 90.5604 239.864 78.192C228.854 63.8397 217.308 64.7512 211.169 65.198C201.857 65.8772 186.798 75.0284 187.37 83.6344C187.37 83.6344 181.588 88.067 184.108 93.8044C186.566 99.3809 189.694 98.38 189.694 98.38Z" fill="#333171"/>
<path d="M219.766 183.01C216.566 175.083 218.934 177.023 228.792 172.322C236.111 168.837 239.846 165.468 241.955 172.724C244.073 179.981 247.836 199.472 246.585 208.024C245.333 216.585 238.148 233.798 234.985 240.509C231.821 247.22 228.497 251.993 228.497 251.993C228.497 251.993 226.495 259.937 221.544 261.805C216.995 263.521 211.857 260.259 209.685 254.861C208.505 251.93 208.604 251.054 209.506 249.142C210.748 246.514 213.045 245.272 216.656 240.956C222.884 233.494 227.085 218.578 227.451 210.705C227.809 202.832 219.766 183.01 219.766 183.01Z" fill="#EAC8B5" stroke="#27397C" stroke-width="5" stroke-miterlimit="10" stroke-linecap="round" stroke-linejoin="round"/>
<path d="M245.423 152.903C245.423 152.903 249.006 157.103 251.419 182.376C251.419 182.376 227.567 188.328 219.077 192.099C219.077 192.099 214.868 181.786 213.957 177.318" fill="#7FB7C0"/>
<path d="M245.423 152.903C245.423 152.903 249.006 157.103 251.419 182.376C251.419 182.376 227.567 188.328 219.077 192.099C219.077 192.099 214.868 181.786 213.957 177.318" stroke="#27397C" stroke-width="5" stroke-miterlimit="10" stroke-linecap="round" stroke-linejoin="round"/>
<path d="M219.176 172.688C220.016 171.294 221.347 170.365 222.813 170.007L234.145 167.192C235.61 166.826 237.219 167.023 238.613 167.863C241.41 169.543 242.304 173.171 240.624 175.959C239.775 177.371 238.434 178.292 236.951 178.649L225.699 181.446C224.225 181.822 222.598 181.634 221.195 180.785C218.398 179.105 217.496 175.477 219.176 172.688Z" fill="url(#paint0_linear_35_351)"/>
<path d="M235.557 178.81C238.814 178.81 241.455 176.169 241.455 172.912C241.455 169.654 238.814 167.014 235.557 167.014C232.299 167.014 229.659 169.654 229.659 172.912C229.659 176.169 232.299 178.81 235.557 178.81Z" fill="#EF4056"/>
</g>
<defs>
<linearGradient id="paint0_linear_35_351" x1="218.634" y1="177.126" x2="241.071" y2="171.55" gradientUnits="userSpaceOnUse">
<stop stop-color="#F38192" stop-opacity="0"/>
<stop offset="1" stop-color="#F05B89"/>
</linearGradient>
</defs>
</svg>
