<svg width="160" height="90" viewBox="0 0 160 90" fill="none" xmlns="http://www.w3.org/2000/svg">
<g clip-path="url(#clip0_6655_6060)">
<path d="M12.0083 65.2297C12.0889 65.9407 12.7175 66.4577 13.8941 66.797C14.015 66.8616 14.16 66.894 14.297 66.894H14.6435C15.1029 66.9263 15.522 66.6597 15.6912 66.2315C16.4084 64.3007 16.9564 62.3133 17.3432 60.2937C17.6414 58.8718 17.9074 57.6762 18.1572 56.7148C18.407 55.7535 18.6165 54.986 18.7777 54.4124C19.6964 53.6611 20.8166 53.1925 21.9932 53.0794L25.6035 52.6997C26.4497 54.8729 27.0783 57.1268 27.4732 59.4293C27.9728 61.9094 29.1011 63.2909 30.8418 63.5736C31.0916 63.5736 31.4945 63.3151 32.0506 62.8061C32.6067 62.3457 32.929 61.6509 32.921 60.9238C32.8887 60.4149 32.7678 59.914 32.5744 59.4373C31.5671 56.6825 30.5758 53.6045 29.5927 50.1953C29.085 48.4342 28.5853 46.5761 28.0212 44.3625C27.6182 42.771 27.1508 40.8402 26.6834 38.8205C26.6028 38.1096 26.4981 37.3825 26.3772 36.6393C26.2563 35.8961 26.1354 35.169 26.0226 34.4661C25.8372 33.0039 25.1361 31.6548 24.0401 30.6692C23.6614 30.3622 23.1859 30.2006 22.7024 30.2168C22.1463 30.1602 21.6144 30.4672 21.3888 30.9842C20.9455 32.1314 20.4862 33.4967 19.9946 35.0801C19.5111 36.6635 18.9872 38.5297 18.4231 40.6706C17.1257 45.5582 16.1747 48.8785 15.5703 50.6235C15.5058 50.8739 15.1674 51.0759 14.571 51.2294C14.152 51.2536 13.7571 51.4314 13.467 51.7303C13.33 51.8757 13.2574 52.0696 13.2655 52.2635C13.2655 52.4816 13.5234 52.7724 14.023 53.1521C14.4904 53.4995 14.7241 53.8146 14.7322 54.0973C14.426 56.0524 13.8699 57.9589 13.0801 59.7686C12.4032 61.3439 12.0405 63.0323 11.9922 64.745V65.2217L12.0083 65.2297ZM20.188 49.646C20.9133 46.7215 21.7837 43.7647 22.7991 40.7594C22.9844 41.4704 23.1698 42.1732 23.339 42.876C23.5082 43.5789 23.6936 44.2898 23.879 44.9927C24.0724 45.7682 24.2255 46.5195 24.3464 47.2466C24.4672 47.9737 24.564 48.6846 24.6526 49.3955C23.1617 49.3794 21.6708 49.4602 20.1961 49.6298M39.4567 65.9568C39.5775 66.6678 39.8677 67.0878 40.327 67.2171L41.3424 67.6776C41.6325 67.8634 41.963 67.9684 42.3014 67.9846C42.6077 67.9684 42.8897 67.8311 43.0912 67.5968C43.7359 67.1767 44.0744 66.4254 43.9615 65.666V65.456C43.8648 64.0341 43.7842 62.6446 43.7278 61.2793C43.6714 59.914 43.6311 58.5568 43.607 57.2076C43.5828 55.8262 43.5586 54.3478 43.5264 52.7886C43.4941 51.2294 43.478 49.6621 43.47 48.1029C43.4619 46.5438 43.478 45.025 43.5264 43.5466C43.5747 42.0763 43.6553 40.6948 43.7762 39.4184C43.8407 38.9175 43.9938 38.667 44.2436 38.667C44.3484 38.667 44.437 38.7721 44.5176 38.9821C45.4121 41.3411 46.2825 43.6354 47.1367 45.8571C47.991 48.0787 48.813 50.1549 49.6108 52.0938C50.4086 54.0327 51.1581 55.8019 51.8592 57.4096C52.5603 59.0092 53.205 60.3583 53.7933 61.4489C54.567 62.9273 55.4937 63.6544 56.5978 63.6382C57.1458 63.6221 57.6615 63.3959 58.0484 63C58.4594 62.6446 58.6931 62.1195 58.685 61.5782C58.6044 60.9319 58.5561 60.2856 58.548 59.6393C58.54 59.0172 58.5238 58.4033 58.5158 57.8054C58.4835 55.8908 58.5238 53.758 58.6447 51.4152C58.7656 49.0724 58.9429 46.4549 59.1685 43.5789L60.3532 29.2312C60.2484 28.8918 59.9905 28.6172 59.6521 28.496L58.6367 28.2456C58.274 28.1567 57.8952 28.1082 57.5165 28.1082C56.5575 28.1244 56.0498 28.4879 55.9934 29.1988L54.2688 52.3362C53.5677 50.7528 52.8182 48.9027 52.0204 46.7861C51.2225 44.6695 50.3925 42.4479 49.5382 40.1212C48.676 37.6895 47.8781 35.6052 47.1448 33.8764C46.4114 32.1476 45.7425 30.7419 45.1542 29.6512C44.6627 29.2554 44.1227 28.9242 43.5425 28.6656C43.1718 28.496 42.7769 28.391 42.3659 28.3667C41.0201 28.391 40.3351 28.7949 40.3109 29.5705L39.4405 43.8536C39.1101 49.5006 38.9812 54.2104 39.0457 57.9751C39.086 60.1725 39.1746 62.2487 39.3116 64.2038L39.4486 65.9568H39.4567ZM68.7908 62.5719C69.0648 63.1051 69.5967 63.4524 70.193 63.509C70.4187 63.509 70.6362 63.4444 70.8297 63.3393C71.8451 62.8788 72.8202 62.3457 73.755 61.7478C74.7865 61.0935 75.8987 60.326 77.0914 59.4535L83.2322 54.9294C83.4417 54.6709 83.5465 54.3478 83.5384 54.0165C83.5062 53.6449 83.3934 53.2814 83.2 52.9582C82.8857 52.4008 82.2812 52.0857 81.6446 52.1342C81.3142 52.1504 80.9838 52.1908 80.6614 52.2554C80.3552 52.32 80.049 52.3604 79.7347 52.3766C79.2108 52.6432 78.7112 52.9421 78.2357 53.2814C77.6233 53.7015 76.8818 54.2185 76.0034 54.8406C74.8107 55.7454 73.5213 56.5129 72.1674 57.143L72.1432 55.6484C72.1191 54.2266 72.1191 52.5624 72.1432 50.6397C72.1594 48.7169 72.24 46.5357 72.377 44.0878C72.4817 41.85 72.5543 39.8546 72.5945 38.0935C72.6348 36.3323 72.6429 34.765 72.6187 33.3836C72.6107 32.9231 72.5945 32.4949 72.5704 32.1072C72.5462 31.7194 72.5301 31.3478 72.522 30.9923C72.2883 30.0067 71.5066 29.522 70.1608 29.5462C69.508 29.5381 68.8794 29.7967 68.4201 30.2652C68.5087 31.0812 68.5732 31.9052 68.6215 32.7373C68.6699 33.5694 68.7021 34.45 68.7183 35.3709C68.7666 38.0288 68.5732 42.3105 68.1461 48.216C67.9768 50.672 67.864 52.8774 67.8076 54.8486C67.7512 56.8198 67.7431 58.5648 67.7673 60.0917L67.7915 61.2631L68.823 62.5719H68.7908ZM103.162 67.8796C103.637 67.9603 104.105 67.7422 104.346 67.3221C104.701 66.8859 104.886 66.3365 104.878 65.771C104.87 65.1974 104.524 64.6885 104.008 64.4542C103.726 64.3492 103.347 64.228 102.888 64.0745C102.501 63.9533 102.13 63.8079 101.767 63.6382C101.107 63.3313 100.494 62.9435 99.9381 62.4749C99.5433 62.1114 99.1484 61.7317 98.7535 61.352C98.3586 60.9723 97.8912 60.4876 97.3432 59.914C96.8033 59.3404 96.223 58.686 95.6105 57.9509C93.7087 55.1637 92.6207 51.8999 92.4676 48.5311C92.4273 47.0042 92.5401 45.4774 92.8141 43.9747C93.0398 42.7225 93.3944 41.4946 93.8698 40.307C94.2647 39.3214 94.7724 38.3843 95.393 37.5118C95.9087 36.7847 96.489 36.1142 97.1417 35.5083C97.9718 34.6762 98.963 34.0218 100.059 33.5936C100.865 33.3351 101.687 33.1251 102.517 32.9635C103.057 32.8746 103.532 32.5676 103.831 32.1152C104.072 31.7032 104.193 31.2266 104.177 30.7499C104.169 30.1117 104.032 29.724 103.782 29.5866C102.992 29.013 102.033 28.706 101.058 28.7303C99.6561 28.8434 98.3103 29.3281 97.1498 30.1279C95.3607 31.3155 93.757 32.7615 92.387 34.4177C91.1218 35.9445 90.1144 37.6734 89.4214 39.5234C88.5027 41.9793 88.0917 44.5968 88.2045 47.2143C88.2287 48.3857 88.3173 49.8156 88.4946 51.496C88.68 53.241 89.0668 54.9617 89.647 56.6098C90.0741 57.7247 90.6624 58.7587 91.4038 59.6959C92.3387 60.94 93.3944 62.0871 94.5468 63.1293C95.7878 64.2603 97.1417 65.2621 98.5843 66.1184C99.9543 66.9586 101.453 67.5564 103.025 67.8796H103.186H103.162ZM115.951 33.3674C115.951 33.3674 115.895 33.2947 115.895 33.1574C115.895 32.9797 115.903 32.8019 115.935 32.6242C115.935 32.2687 115.87 32.091 115.766 32.091C115.645 32.1152 115.54 32.1718 115.451 32.2526C114.831 31.9052 114.13 31.7113 113.421 31.7032C112.671 31.6628 111.962 32.0668 111.631 32.7454C111.672 33.2059 111.712 33.6583 111.736 34.1026C111.76 34.5469 111.777 34.9993 111.785 35.4598C111.809 36.6635 111.752 38.15 111.623 39.9112C111.494 41.6723 111.309 43.7809 111.067 46.2287C110.826 48.6846 110.648 50.8012 110.544 52.5705C110.431 54.3478 110.39 55.8423 110.407 57.046C110.423 57.757 110.447 58.4356 110.495 59.09C110.544 59.7443 110.608 60.3745 110.689 60.9804C110.85 62.2164 111.696 62.8627 113.219 62.9031C114.162 62.9677 115.024 62.3457 115.266 61.4328C115.226 60.9723 115.193 60.5199 115.185 60.0756C115.177 59.6312 115.169 59.1788 115.161 58.7183C115.137 57.4742 115.177 55.9393 115.266 54.1135C115.355 52.2877 115.508 50.1469 115.709 47.6909C115.911 45.235 116.064 43.1022 116.152 41.2926C116.249 39.483 116.281 37.9723 116.257 36.7686C116.249 36.2031 116.225 35.6537 116.201 35.1205C116.177 34.5873 116.136 34.0703 116.096 33.5775L115.943 33.3594L115.951 33.3674Z" fill="#30342D"/>
<path d="M122.494 37.3987C122.454 37.9319 122.591 38.457 122.889 38.9013C122.945 39.0064 123.042 39.0791 123.155 39.1195C123.147 39.1518 123.123 39.1922 123.123 39.2245C123.082 39.5072 123.155 39.79 123.324 40.0243C125.146 42.569 128.28 44.1525 132.721 44.7745C134.365 44.9927 136.025 45.1058 137.693 45.1219C140.949 45.1865 144.229 43.9667 147.525 41.4542C147.662 41.333 147.751 41.1634 147.767 40.9856C147.807 40.6625 147.767 40.3313 147.646 40.0243C147.896 39.992 148.113 39.8627 148.258 39.6526C148.468 39.4345 148.613 39.1518 148.661 38.8529C148.701 38.562 148.613 38.2631 148.427 38.0369C146.437 35.4437 143.084 33.8522 138.362 33.2705C136.613 33.0685 134.848 32.9797 133.083 32.9877C129.626 32.9716 126.177 34.2803 122.744 36.914C122.599 37.0352 122.51 37.2129 122.502 37.3987M136.702 42.6337C136.879 42.5044 137.065 42.3752 137.242 42.2217C137.798 41.7046 138.257 41.0987 138.596 40.4201C138.91 39.79 139.079 39.1033 139.079 38.4005C139.079 38.255 139.079 38.1177 139.063 37.9965C139.055 37.8673 139.031 37.7461 138.999 37.6168V37.5926L138.95 37.3502C138.918 37.0513 138.862 36.7524 138.781 36.4696C138.725 36.2838 138.644 36.1061 138.539 35.9365C141.424 36.4696 144.148 37.633 146.534 39.3376C143.697 41.4703 140.24 42.6256 136.694 42.6256M133.486 39.5961C133.446 38.1742 134.091 36.817 135.227 35.9607C135.332 35.8718 135.453 35.8153 135.59 35.791C135.751 35.8153 135.904 35.8637 136.049 35.9365V35.9122C136.315 36.0496 136.508 36.3 136.581 36.5908V36.5666L136.726 37.1483C136.791 37.3583 136.847 37.5683 136.895 37.7784C136.944 37.9804 136.968 38.1823 136.968 38.3843C136.863 39.6123 136.218 40.719 135.203 41.4138C134.816 41.7531 134.558 41.9228 134.429 41.9228C134.357 41.9228 134.3 41.8824 134.26 41.8258C133.744 41.2038 133.462 40.412 133.486 39.5961ZM131.238 39.8385C131.222 40.5898 131.415 41.333 131.786 41.9874C129.199 41.3492 126.79 40.1454 124.726 38.4651C127.08 36.8978 129.771 35.9203 132.584 35.6295C132.407 35.8799 132.261 36.1465 132.141 36.4293H132.165C131.601 37.4795 131.286 38.6509 131.246 39.8465" fill="#30342D"/>
<path d="M121.81 26.1855C123.333 24.085 125.734 22.7763 128.998 22.2512C131.738 21.9038 134.518 21.9199 137.258 22.2835C137.694 22.3077 139.547 22.6632 142.795 23.366C143.335 23.463 143.875 23.5761 144.415 23.6973C144.947 23.8184 145.487 23.9315 146.035 24.0285C147.066 24.2628 147.993 24.8121 148.694 25.6038C148.847 25.7977 148.944 26.032 148.976 26.2824C149.041 26.646 149.016 27.0095 148.904 27.365C148.799 27.7043 148.646 27.8901 148.444 27.9224C148.364 27.9224 148.283 27.9062 148.202 27.8901C141.788 25.7573 136.735 24.7152 133.052 24.7475C131.746 24.7636 130.441 24.8687 129.143 25.0545C126.145 25.5311 124.05 26.6217 122.849 28.3263C122.72 28.5121 121.068 27.2196 121.826 26.1774" fill="#30342D"/>
</g>
<defs>
<clipPath id="clip0_6655_6060">
<rect width="137" height="46" fill="white" transform="translate(12 22.0007)"/>
</clipPath>
</defs>
</svg>
