<svg width="80" height="80" viewBox="0 0 80 80" fill="none" xmlns="http://www.w3.org/2000/svg">
<g clip-path="url(#clip0_7891_30643)">
<path d="M9.8308 56.3234L25.7775 42.7871L27.1815 39.766L25.6261 36.8757C25.3783 36.4077 25.5159 35.8434 25.9426 35.5475L29.0191 33.3867L29.1155 30.111C29.1292 29.5742 29.5559 29.1406 30.0859 29.1131L33.7955 28.7828L35.5161 25.9957C35.7914 25.5484 36.3558 25.3832 36.8238 25.6034L40.2375 27.1862L42.7496 25.8305L56.3838 9.76171L56.5214 9.58966C56.5971 9.50708 56.6728 9.4245 56.7485 9.33504C58.0493 8.0344 60.0384 7.71096 62.1926 8.25461C64.1678 8.7501 66.3152 9.9888 68.1665 11.8331C70.0179 13.6843 71.2499 15.8314 71.7454 17.8064C72.2891 19.9535 71.9657 21.9424 70.6649 23.2499L70.6373 23.2705L70.6167 23.2912L70.4102 23.477L70.2175 23.6284L64.7047 28.3148C64.2711 28.6864 63.6241 28.6314 63.2525 28.191C62.8808 27.7574 62.9359 27.1105 63.3764 26.7389L68.8273 22.1075C68.8273 22.1075 68.8823 22.0593 68.9099 22.0318L69.2127 21.7772C69.956 21.0271 70.1074 19.754 69.7426 18.3088C69.3366 16.6847 68.2904 14.8817 66.7006 13.292C65.1176 11.7092 63.3144 10.6632 61.6833 10.2503C60.2311 9.88558 58.9578 10.0439 58.2076 10.7871L44.8488 26.5118L46.6038 29.0099L49.8798 29.1062C50.4167 29.12 50.8503 29.5467 50.8778 30.0765L51.2082 33.7858L53.4381 35.1621L58.4003 30.9505C58.8339 30.5789 59.4809 30.634 59.8525 31.0744C60.2242 31.5079 60.1691 32.1548 59.7286 32.5264L54.2089 37.2198L52.8049 40.234L54.3603 43.1243C54.6081 43.5922 54.4704 44.1565 54.0437 44.4525L53.4518 44.8722L59.5291 50.9488C59.9351 51.3548 59.9351 52.0086 59.5291 52.4077C59.3983 52.5385 59.24 52.6279 59.0748 52.6761L54.2089 54.2589L52.6397 59.1312C52.4677 59.6748 51.8895 59.9707 51.3458 59.7918C51.1875 59.7436 51.043 59.6542 50.9329 59.5372L44.8212 53.4331L44.4702 54.0043C44.1949 54.4516 43.6306 54.6168 43.1626 54.3965L39.7489 52.8138L37.2436 54.1626L23.6714 70.1419C23.5407 70.3277 23.3892 70.4998 23.231 70.6581C21.9302 71.9587 19.9411 72.2821 17.7869 71.7385C15.8117 71.243 13.6643 70.0043 11.8129 68.16C9.96157 66.3088 8.72961 64.1617 8.23407 62.1866C7.69036 60.0396 8.01383 58.0507 9.31462 56.7432C9.47291 56.5849 9.63809 56.4404 9.81704 56.3097L9.8308 56.3234ZM51.745 46.0697L50.9742 46.6064L50.8778 49.8821C50.864 50.4189 50.4373 50.8525 49.9074 50.88L46.1977 51.2103L45.9431 51.6232L51.2013 56.8808L52.3988 53.1578C52.4883 52.8344 52.7292 52.5591 53.0733 52.449L56.8793 51.2103L51.7381 46.0697H51.745ZM26.5483 44.831L13.974 55.5114C14.2356 55.5527 14.504 55.6077 14.7724 55.6697C16.7477 56.1651 18.895 57.4039 20.7464 59.2482L20.8014 59.3101C22.6184 61.1544 23.8366 63.274 24.3253 65.2215C24.3941 65.4899 24.4492 65.7514 24.4836 66.0198L35.1376 53.4744L33.3826 50.9763L30.1065 50.88C29.5697 50.8662 29.1361 50.4396 29.1086 49.9097L28.7782 46.2004L26.5483 44.8241V44.831ZM34.4769 30.7854L31.132 31.0813L31.0494 33.9097C31.0563 34.24 30.9049 34.5703 30.6089 34.7768L27.8629 36.7036L29.2187 39.2292C29.377 39.5114 29.3976 39.8555 29.2531 40.1651L27.8353 43.2137L30.2855 44.7277C30.5539 44.8929 30.7397 45.1819 30.7672 45.5122L31.0632 48.8568L33.8919 48.9393C34.2222 48.9325 34.5526 49.0839 34.7591 49.3798L36.6862 52.1256L39.212 50.7699C39.4942 50.6116 39.8383 50.591 40.148 50.7355L43.197 52.1531L44.7111 49.7032C44.8763 49.4348 45.1654 49.249 45.4957 49.2215L48.8406 48.9256L48.9232 46.0972C48.9163 45.7669 49.0677 45.4365 49.3637 45.2301L52.1098 43.3032L50.7539 40.7776C50.5956 40.4955 50.575 40.1514 50.7195 39.8417L52.1373 36.7931L49.6871 35.2791C49.4187 35.114 49.2329 34.8249 49.2054 34.4946L48.9094 31.1501L46.0807 31.0675C45.7504 31.0744 45.42 30.923 45.2135 30.6271L43.2864 27.8813L40.7606 29.237C40.4784 29.3953 40.1343 29.4159 39.8246 29.2714L36.7756 27.8538L35.2615 30.3036C35.0963 30.572 34.8073 30.7578 34.4769 30.7854ZM11.049 57.9819L10.7806 58.209C10.0304 58.9591 9.8721 60.2391 10.2369 61.6843C10.6429 63.3084 11.6891 65.1114 13.2789 66.7011C14.8619 68.2839 16.6651 69.3299 18.2962 69.7428C19.7415 70.1075 21.0148 69.9561 21.765 69.2129L22.0128 68.9239C22.5634 68.1531 22.6391 67.0039 22.3225 65.7239C21.9164 64.1135 20.8909 62.3312 19.3355 60.7621L19.2804 60.714C17.6975 59.1312 15.8942 58.0851 14.2631 57.6722C12.9692 57.3488 11.8198 57.4314 11.049 57.9888V57.9819Z" fill="#000091"/>
<path d="M46.294 33.6895C44.5528 31.9484 42.2747 31.0813 39.9966 31.0813C37.7185 31.0813 35.4335 31.9553 33.6922 33.6964C31.951 35.4374 31.0769 37.7153 31.0769 40C31.0769 42.2847 31.951 44.5626 33.6922 46.3037C35.4335 48.0447 37.7116 48.9187 39.9966 48.9187C42.2816 48.9187 44.5596 48.0447 46.3009 46.3037C48.0422 44.5626 48.9162 42.2847 48.9162 40C48.9162 37.7153 48.0422 35.4374 46.3009 33.6964L46.294 33.6895ZM44.8418 44.8447C43.5066 46.1867 41.7516 46.8542 39.9966 46.8542C38.2415 46.8542 36.4934 46.1867 35.1513 44.8447C33.8161 43.5028 33.1485 41.7548 33.1485 40C33.1485 38.2452 33.8161 36.4972 35.1582 35.1553C36.4934 33.8133 38.2484 33.1458 40.0035 33.1458C41.7585 33.1458 43.5135 33.8133 44.8487 35.1553C46.1908 36.4972 46.8584 38.2452 46.8584 40C46.8584 41.7548 46.1839 43.5097 44.8487 44.8447H44.8418Z" fill="#E1000F"/>
<path d="M43.8301 36.2977L43.7613 36.2288C42.722 35.1897 41.3524 34.6667 39.9966 34.6667C38.6407 34.6667 37.3193 35.1691 36.2869 36.1669L36.2181 36.2288C35.1788 37.2749 34.6558 38.6374 34.6558 40C34.6558 41.3626 35.1582 42.677 36.1561 43.7093L36.225 43.7781C37.2642 44.8172 38.6338 45.3402 39.9897 45.3402C41.3455 45.3402 42.6669 44.8379 43.6993 43.84L43.7681 43.7712C44.8074 42.7321 45.3305 41.3626 45.3305 40.0069C45.3305 38.6512 44.828 37.3299 43.8301 36.2977ZM42.3022 42.3123L42.2609 42.3605C41.6277 42.966 40.8087 43.2688 39.9966 43.2688C39.1844 43.2688 38.3241 42.9523 37.684 42.3123L37.6359 42.271C37.0302 41.6379 36.7274 40.8189 36.7274 40.0069C36.7274 39.1949 37.044 38.3346 37.684 37.6946L37.7253 37.6465C38.3585 37.0409 39.1775 36.7381 39.9897 36.7381C40.8018 36.7381 41.6621 37.0546 42.3022 37.6946L42.3504 37.7359C42.956 38.3691 43.2588 39.188 43.2588 40C43.2588 40.8121 42.9422 41.6723 42.3022 42.3123Z" fill="#E1000F"/>
<path d="M61.0224 28.7277C61.456 28.3561 62.103 28.4112 62.4746 28.8516C62.8463 29.2851 62.7912 29.932 62.3507 30.3036L62.0754 30.5376C61.6419 30.9092 60.9949 30.8542 60.6232 30.4137C60.2516 29.9802 60.3067 29.3333 60.7471 28.9617L61.0224 28.7277Z" fill="#E1000F"/>
</g>
<defs>
<clipPath id="clip0_7891_30643">
<rect width="64" height="64" fill="white" transform="translate(8 8)"/>
</clipPath>
</defs>
</svg>
