<svg width="1440" height="723" viewBox="0 0 1440 723" fill="none" xmlns="http://www.w3.org/2000/svg">
<mask id="mask0_35_339" style="mask-type:alpha" maskUnits="userSpaceOnUse" x="0" y="0" width="1440" height="723">
<rect width="1440" height="723" fill="#C4C4C4"/>
</mask>
<g mask="url(#mask0_35_339)">
<path d="M-178.079 61.854C-268.579 91.3542 -511.579 176.854 -561.578 479.854C-611.578 782.854 -226.079 1000.85 15.9207 856.354C257.921 711.854 348.5 169.209 276.5 84.2087C204.5 -0.791294 -87.5788 32.3538 -178.079 61.854Z" fill="#FAD776"/>
<path d="M1345.62 319.854C1436.12 349.354 1679.12 434.854 1729.12 737.854C1779.11 1040.85 1393.62 1258.85 1151.62 1114.35C909.616 969.854 819.037 427.209 891.037 342.209C963.037 257.209 1255.12 290.354 1345.62 319.854Z" fill="#7FB7C0"/>
</g>
</svg>
