<?xml version="1.0" encoding="UTF-8" standalone="no"?>
<!DOCTYPE svg PUBLIC "-//W3C//DTD SVG 1.1//EN" "http://www.w3.org/Graphics/SVG/1.1/DTD/svg11.dtd">
<svg width="100%" height="100%" viewBox="0 0 16 20" version="1.1" xmlns="http://www.w3.org/2000/svg" xmlns:xlink="http://www.w3.org/1999/xlink" xml:space="preserve" xmlns:serif="http://www.serif.com/" style="fill-rule:evenodd;clip-rule:evenodd;stroke-linecap:round;stroke-linejoin:round;stroke-miterlimit:1.5;">
    <path d="M11.762,14.011C10.778,14.934 9.455,15.5 8,15.5C6.545,15.5 5.222,14.934 4.238,14.011C4.552,13.736 4.75,13.332 4.75,12.882C4.75,12.054 4.078,11.382 3.25,11.382C3.057,11.382 2.873,11.419 2.703,11.485C2.571,11.013 2.5,10.515 2.5,10C2.5,7.479 4.199,5.353 6.514,4.704C6.613,5.435 7.241,6 8,6C8.759,6 9.387,5.435 9.486,4.704C11.801,5.353 13.5,7.479 13.5,10C13.5,10.515 13.429,11.013 13.297,11.485C13.127,11.419 12.943,11.382 12.75,11.382C11.922,11.382 11.25,12.054 11.25,12.882C11.25,13.332 11.448,13.736 11.762,14.011Z" style="fill:none;stroke:rgb(38,53,63);stroke-width:1px;"/>
    <g transform="matrix(1,0,0,1,2.5,1)">
        <circle cx="5.5" cy="3.5" r="1.5" style="fill:none;stroke:rgb(38,53,63);stroke-width:1px;"/>
    </g>
    <g transform="matrix(1,0,0,1,7.25,9.38235)">
        <circle cx="5.5" cy="3.5" r="1.5" style="fill:none;stroke:rgb(38,53,63);stroke-width:1px;"/>
    </g>
    <g transform="matrix(1,0,0,1,-2.25,9.38235)">
        <circle cx="5.5" cy="3.5" r="1.5" style="fill:none;stroke:rgb(38,53,63);stroke-width:1px;"/>
    </g>
    <g transform="matrix(0.66044,0.0909026,-0.0909026,0.66044,2.38696,1.01735)">
        <path d="M3.75,4L6.5,4.5L6,7" style="fill:none;stroke:rgb(38,53,63);stroke-width:1.5px;"/>
    </g>
    <g transform="matrix(-0.392061,0.539196,-0.539196,-0.392061,18.3769,9.54626)">
        <path d="M3.75,4L6.5,4.5L6,7" style="fill:none;stroke:rgb(38,53,63);stroke-width:1.5px;"/>
    </g>
    <g transform="matrix(-0.319672,-0.585025,0.585025,-0.319672,3.55867,19.4725)">
        <path d="M3.75,4L6.5,4.5L6,7" style="fill:none;stroke:rgb(38,53,63);stroke-width:1.5px;"/>
    </g>
</svg>
