<svg width="1279" height="342" viewBox="0 0 1279 342" fill="none" xmlns="http://www.w3.org/2000/svg">
<rect x="79" y="28" width="1200" height="286" fill="#FAD776"/>
<circle cx="171" cy="171" r="171" fill="white"/>
<rect x="128" y="157" width="111" height="72" rx="6" fill="white" stroke="#1B4991" stroke-width="4"/>
<rect x="183.5" y="102.328" width="78.0244" height="78.0244" rx="6" transform="rotate(45 183.5 102.328)" fill="white" stroke="#1B4991" stroke-width="4"/>
<circle cx="197.5" cy="150.5" r="29.5" fill="#FAD776"/>
<path fill-rule="evenodd" clip-rule="evenodd" d="M201.647 147.967L205.856 145.537C207.77 144.433 210.216 145.088 211.321 147.001C212.425 148.915 211.77 151.361 209.856 152.465L202.928 156.465C201.556 157.258 199.91 157.145 198.681 156.311C201.286 154.365 202.419 151.047 201.647 147.967ZM199.737 144.452L203.856 142.073C207.683 139.864 212.575 141.175 214.785 145.001C216.994 148.828 215.683 153.72 211.856 155.93L204.928 159.93C201.638 161.829 197.558 161.126 195.075 158.458L190.956 160.836C187.129 163.045 182.237 161.734 180.028 157.908C177.818 154.082 179.129 149.189 182.956 146.98L189.884 142.98C193.175 141.08 197.254 141.784 199.737 144.452ZM193.165 154.942L188.956 157.372C187.043 158.477 184.596 157.821 183.492 155.908C182.387 153.995 183.043 151.549 184.956 150.444L191.884 146.444C193.256 145.652 194.902 145.765 196.131 146.598C193.526 148.545 192.394 151.862 193.165 154.942ZM197.848 150.448C197.367 151.028 197.065 151.728 196.965 152.461C197.445 151.881 197.747 151.181 197.848 150.448Z" fill="white"/>
<path d="M187.743 169.571L236.929 218.757C240.709 222.537 238.032 229 232.686 229L134.314 229C128.968 229 126.291 222.537 130.071 218.757L179.257 169.571C181.601 167.228 185.399 167.228 187.743 169.571Z" fill="white" stroke="#1B4991" stroke-width="4"/>
<path d="M440.976 132.968C443.627 130.33 447.099 129 450.592 129H477.428C480.901 129 484.373 130.309 487.024 132.948C492.325 138.225 492.325 146.775 487.024 152.052C484.353 154.711 480.839 156.02 477.325 156H450.675C447.161 156.02 443.668 154.711 440.976 152.052C435.675 146.795 435.675 138.225 440.976 132.968Z" fill="url(#paint0_linear_2984_7753)"/>
<path d="M477.428 156C484.918 156 490.99 149.956 490.99 142.5C490.99 135.044 484.918 129 477.428 129C469.938 129 463.866 135.044 463.866 142.5C463.866 149.956 469.938 156 477.428 156Z" fill="#EF4056"/>
<path d="M377.976 221.968C380.627 219.33 384.099 218 387.592 218H414.428C417.901 218 421.373 219.309 424.024 221.948C429.325 227.225 429.325 235.775 424.024 241.052C421.353 243.711 417.839 245.02 414.325 245H387.675C384.161 245.02 380.668 243.711 377.976 241.052C372.675 235.795 372.675 227.225 377.976 221.968Z" fill="url(#paint1_linear_2984_7753)"/>
<path d="M414.428 245C421.918 245 427.99 238.956 427.99 231.5C427.99 224.044 421.918 218 414.428 218C406.938 218 400.866 224.044 400.866 231.5C400.866 238.956 406.938 245 414.428 245Z" fill="#EF4056"/>
<path d="M700.976 177.968C703.627 175.33 707.099 174 710.592 174H737.428C740.901 174 744.373 175.309 747.024 177.948C752.325 183.225 752.325 191.775 747.024 197.052C744.353 199.711 740.839 201.02 737.325 201H710.675C707.161 201.02 703.668 199.711 700.976 197.052C695.675 191.795 695.675 183.225 700.976 177.968Z" fill="url(#paint2_linear_2984_7753)"/>
<path d="M737.428 201C744.918 201 750.99 194.956 750.99 187.5C750.99 180.044 744.918 174 737.428 174C729.938 174 723.866 180.044 723.866 187.5C723.866 194.956 729.938 201 737.428 201Z" fill="#EF4056"/>
<path d="M582.976 235.968C585.627 233.33 589.099 232 592.592 232H619.428C622.901 232 626.373 233.309 629.024 235.948C634.325 241.225 634.325 249.775 629.024 255.052C626.353 257.711 622.839 259.02 619.325 259H592.675C589.161 259.02 585.668 257.711 582.976 255.052C577.675 249.795 577.675 241.225 582.976 235.968Z" fill="url(#paint3_linear_2984_7753)"/>
<path d="M619.428 259C626.918 259 632.99 252.956 632.99 245.5C632.99 238.044 626.918 232 619.428 232C611.938 232 605.866 238.044 605.866 245.5C605.866 252.956 611.938 259 619.428 259Z" fill="#EF4056"/>
<path d="M811.976 61.9681C814.627 59.3295 818.099 58 821.592 58H848.428C851.901 58 855.373 59.3091 858.024 61.9477C863.325 67.2249 863.325 75.7748 858.024 81.0521C855.353 83.7111 851.839 85.0202 848.325 84.9998H821.675C818.161 85.0202 814.668 83.7111 811.976 81.0521C806.675 75.7953 806.675 67.2249 811.976 61.9681Z" fill="url(#paint4_linear_2984_7753)"/>
<path d="M848.428 84.9998C855.918 84.9998 861.99 78.9557 861.99 71.4999C861.99 64.0441 855.918 58 848.428 58C840.938 58 834.866 64.0441 834.866 71.4999C834.866 78.9557 840.938 84.9998 848.428 84.9998Z" fill="#EF4056"/>
<path d="M871.976 262.968C874.627 260.33 878.099 259 881.592 259H908.428C911.901 259 915.373 260.309 918.024 262.948C923.325 268.225 923.325 276.775 918.024 282.052C915.353 284.711 911.839 286.02 908.325 286H881.675C878.161 286.02 874.668 284.711 871.976 282.052C866.675 276.795 866.675 268.225 871.976 262.968Z" fill="url(#paint5_linear_2984_7753)"/>
<path d="M908.428 286C915.918 286 921.99 279.956 921.99 272.5C921.99 265.044 915.918 259 908.428 259C900.938 259 894.866 265.044 894.866 272.5C894.866 279.956 900.938 286 908.428 286Z" fill="#EF4056"/>
<path d="M958.976 159.968C961.627 157.33 965.099 156 968.592 156H995.428C998.901 156 1002.37 157.309 1005.02 159.948C1010.33 165.225 1010.33 173.775 1005.02 179.052C1002.35 181.711 998.839 183.02 995.325 183H968.675C965.161 183.02 961.668 181.711 958.976 179.052C953.675 173.795 953.675 165.225 958.976 159.968Z" fill="url(#paint6_linear_2984_7753)"/>
<path d="M995.428 183C1002.92 183 1008.99 176.956 1008.99 169.5C1008.99 162.044 1002.92 156 995.428 156C987.938 156 981.866 162.044 981.866 169.5C981.866 176.956 987.938 183 995.428 183Z" fill="#EF4056"/>
<path d="M1161.98 84.9681C1164.63 82.3295 1168.1 81 1171.59 81H1198.43C1201.9 81 1205.37 82.3091 1208.02 84.9477C1213.33 90.2249 1213.33 98.7748 1208.02 104.052C1205.35 106.711 1201.84 108.02 1198.33 108H1171.67C1168.16 108.02 1164.67 106.711 1161.98 104.052C1156.67 98.7953 1156.67 90.2249 1161.98 84.9681Z" fill="url(#paint7_linear_2984_7753)"/>
<path d="M1198.43 108C1205.92 108 1211.99 101.956 1211.99 94.4999C1211.99 87.0441 1205.92 81 1198.43 81C1190.94 81 1184.87 87.0441 1184.87 94.4999C1184.87 101.956 1190.94 108 1198.43 108Z" fill="#EF4056"/>
<path d="M542.976 71.9681C545.627 69.3295 549.099 68 552.592 68H579.428C582.901 68 586.373 69.3091 589.024 71.9477C594.325 77.2249 594.325 85.7748 589.024 91.0521C586.353 93.7111 582.839 95.0202 579.325 94.9998H552.675C549.161 95.0202 545.668 93.7111 542.976 91.0521C537.675 85.7953 537.675 77.2249 542.976 71.9681Z" fill="url(#paint8_linear_2984_7753)"/>
<path d="M579.428 94.9998C586.918 94.9998 592.99 88.9557 592.99 81.4999C592.99 74.0441 586.918 68 579.428 68C571.938 68 565.866 74.0441 565.866 81.4999C565.866 88.9557 571.938 94.9998 579.428 94.9998Z" fill="#EF4056"/>
<defs>
<linearGradient id="paint0_linear_2984_7753" x1="437.305" y1="142.508" x2="490.461" y2="142.508" gradientUnits="userSpaceOnUse">
<stop stop-color="#F38192" stop-opacity="0"/>
<stop offset="1" stop-color="#F05B89"/>
</linearGradient>
<linearGradient id="paint1_linear_2984_7753" x1="374.305" y1="231.508" x2="427.461" y2="231.508" gradientUnits="userSpaceOnUse">
<stop stop-color="#F38192" stop-opacity="0"/>
<stop offset="1" stop-color="#F05B89"/>
</linearGradient>
<linearGradient id="paint2_linear_2984_7753" x1="697.305" y1="187.508" x2="750.461" y2="187.508" gradientUnits="userSpaceOnUse">
<stop stop-color="#F38192" stop-opacity="0"/>
<stop offset="1" stop-color="#F05B89"/>
</linearGradient>
<linearGradient id="paint3_linear_2984_7753" x1="579.305" y1="245.508" x2="632.461" y2="245.508" gradientUnits="userSpaceOnUse">
<stop stop-color="#F38192" stop-opacity="0"/>
<stop offset="1" stop-color="#F05B89"/>
</linearGradient>
<linearGradient id="paint4_linear_2984_7753" x1="808.305" y1="71.5083" x2="861.461" y2="71.5083" gradientUnits="userSpaceOnUse">
<stop stop-color="#F38192" stop-opacity="0"/>
<stop offset="1" stop-color="#F05B89"/>
</linearGradient>
<linearGradient id="paint5_linear_2984_7753" x1="868.305" y1="272.508" x2="921.461" y2="272.508" gradientUnits="userSpaceOnUse">
<stop stop-color="#F38192" stop-opacity="0"/>
<stop offset="1" stop-color="#F05B89"/>
</linearGradient>
<linearGradient id="paint6_linear_2984_7753" x1="955.305" y1="169.508" x2="1008.46" y2="169.508" gradientUnits="userSpaceOnUse">
<stop stop-color="#F38192" stop-opacity="0"/>
<stop offset="1" stop-color="#F05B89"/>
</linearGradient>
<linearGradient id="paint7_linear_2984_7753" x1="1158.3" y1="94.5083" x2="1211.46" y2="94.5083" gradientUnits="userSpaceOnUse">
<stop stop-color="#F38192" stop-opacity="0"/>
<stop offset="1" stop-color="#F05B89"/>
</linearGradient>
<linearGradient id="paint8_linear_2984_7753" x1="539.305" y1="81.5083" x2="592.461" y2="81.5083" gradientUnits="userSpaceOnUse">
<stop stop-color="#F38192" stop-opacity="0"/>
<stop offset="1" stop-color="#F05B89"/>
</linearGradient>
</defs>
</svg>
