<svg width="160" height="90" viewBox="0 0 160 90" fill="none" xmlns="http://www.w3.org/2000/svg">
<path d="M58.0509 33.2575L36.9452 20.9935L15.8396 33.3762C15.7093 33.4507 15.6009 33.5585 15.5252 33.6885C15.4496 33.8185 15.4095 33.9662 15.4088 34.1168V58.0709C15.4171 58.2198 15.4604 58.3646 15.5353 58.4934C15.6102 58.6221 15.7145 58.7312 15.8396 58.8116L36.9424 70.9667L58.0481 58.6617C58.1732 58.5814 58.2776 58.4724 58.3525 58.3436C58.4274 58.2149 58.4707 58.07 58.4788 57.9211V34.0037C58.4796 33.8525 58.4404 33.7037 58.3652 33.5726C58.2901 33.4415 58.1816 33.3327 58.0509 33.2575Z" fill="#000091"/>
<path d="M29.4047 33.9642L22.3258 46.1589L15.9114 33.191L23.4984 28.7912L29.8171 33.2575L29.4047 33.9642ZM58.4802 57.9635V33.9953C58.4802 33.8448 58.4403 33.697 58.3646 33.5671C58.2889 33.4371 58.1801 33.3298 58.0495 33.2561L36.9452 20.9935" fill="#E1000F"/>
<path d="M15.4117 57.9635L36.948 20.9935V70.9738L15.8396 58.8116C15.7145 58.7312 15.6102 58.6221 15.5353 58.4934C15.4604 58.3646 15.4171 58.2198 15.4088 58.0709V34.1168L15.4117 57.9635ZM50.1359 28.6569L57.8186 33.1161L51.4999 46.0486L43.9171 32.9946L50.1359 28.6569Z" fill="#0063CB"/>
<path d="M64.5456 29.3071L37.5336 13.7315C37.3517 13.6405 37.1513 13.5932 36.948 13.5932C36.7448 13.5932 36.5444 13.6405 36.3625 13.7315L9.3505 29.3071C9.1879 29.4157 9.053 29.5613 8.95667 29.7319C8.86034 29.9025 8.80527 30.0935 8.7959 30.2894V61.3839C8.80418 61.581 8.85874 61.7734 8.95512 61.9453C9.0515 62.1173 9.18697 62.2639 9.3505 62.3733L36.3611 77.9488C36.543 78.0398 36.7434 78.0872 36.9466 78.0872C37.1499 78.0872 37.3503 78.0398 37.5322 77.9488L64.5456 62.3733C64.7091 62.2639 64.8446 62.1173 64.941 61.9453C65.0373 61.7734 65.0919 61.581 65.1002 61.3839V30.2894C65.0908 30.0935 65.0357 29.9025 64.9394 29.7319C64.8431 29.5613 64.7082 29.4157 64.5456 29.3071ZM23.9826 54.4032H24.0938C24.0347 54.4032 23.9826 54.4131 23.9826 54.4739C23.9826 54.6152 24.1951 54.4739 24.2641 54.6152C23.9296 54.6244 23.6119 54.7644 23.3787 55.0053C23.3787 55.0774 23.5195 55.0774 23.5913 55.0774C23.4857 55.2187 23.2731 55.148 23.2013 55.2908C23.2394 55.329 23.2888 55.3538 23.3421 55.3615C23.2717 55.3615 23.2013 55.3615 23.2013 55.4336V55.647C23.024 55.647 22.9536 55.7883 22.8114 55.8604C23.093 56.0738 23.2717 55.8604 23.5547 55.8604C22.8114 56.1431 22.209 56.536 21.4658 56.7494C21.325 56.7494 21.4658 56.9628 21.325 56.9628C21.5376 57.1042 21.6445 56.8922 21.8557 56.8922C20.9351 57.425 19.9793 57.8815 18.9884 58.4921C18.912 58.5684 18.8626 58.6677 18.8476 58.7748H18.5661C18.4253 58.8455 18.4957 59.0236 18.3536 59.1663C18.6717 59.3797 19.0574 58.8836 19.2741 59.1663C19.3445 59.1663 19.1334 59.237 18.9926 59.237C18.9222 59.237 18.9222 59.3783 18.8518 59.3783H18.6351C18.4943 59.4843 18.3536 59.5564 18.3536 59.7684C18.2925 59.7571 18.2295 59.7645 18.1727 59.7897C18.116 59.8149 18.0681 59.8568 18.0354 59.9098C19.5472 59.9038 21.0459 59.6271 22.4609 59.0928C23.5584 58.5317 24.5524 57.7865 25.4 56.8893C25.4382 56.9275 25.4629 56.9771 25.4704 57.0307C25.2633 57.6476 24.8659 58.1823 24.3359 58.5571C23.946 58.7706 23.663 59.09 23.3506 59.2327C23.1418 59.3499 22.9406 59.4802 22.7481 59.6228C21.8581 59.9008 20.9444 60.0958 20.0188 60.2052L19.5894 60.2673C19.2727 60.314 18.9574 60.3649 18.6449 60.42L15.8396 58.8116C15.7369 58.7467 15.6482 58.6618 15.5786 58.5621C15.509 58.4624 15.4599 58.3497 15.4342 58.2306C15.4811 58.2054 15.5254 58.1756 15.5665 58.1416C15.5229 58.0951 15.4681 58.0605 15.4074 58.0413V57.1226C16.8825 56.8592 18.319 56.4119 19.6837 55.7911C18.3926 54.8901 16.9415 54.2458 15.4088 53.893V51.7517C16.1902 51.8802 16.9612 52.0654 17.7159 52.3057C18.2969 52.5201 18.8545 52.7938 19.3797 53.1227C19.5861 53.3219 19.8115 53.5004 20.0525 53.6555C20.2224 53.7528 20.4122 53.8098 20.6074 53.822C20.8026 53.8343 20.998 53.8015 21.1786 53.7262H21.6431C22.6516 53.5588 23.5948 53.1163 24.3697 52.4471C24.3697 52.5177 24.44 52.5177 24.5104 52.5177C24.4002 53.0811 24.1965 53.622 23.908 54.1177C23.9122 54.1898 23.8404 54.3325 23.9826 54.4032ZM27.9478 59.4504C28.3011 59.3091 28.5108 59.0589 28.8332 58.9176C28.7628 58.9882 28.7628 59.131 28.6924 59.2002C28.4283 59.3659 28.1796 59.5551 27.9492 59.7656C27.1529 60.4702 26.4074 61.2307 25.7182 62.0411C25.3634 62.4652 24.9749 62.8581 24.5921 63.2496C24.4564 63.3769 24.3104 63.4928 24.1557 63.5959L20.5987 61.5465C21.1046 61.5894 21.614 61.5642 22.1133 61.4715C22.5277 61.3549 22.9306 61.2002 23.3168 61.0094V61.1507C24.3021 60.7592 25.0509 59.8702 26.0433 59.5508C26.0785 59.5508 26.2207 59.6921 26.3614 59.6214C26.6164 59.3042 26.9405 59.05 27.3088 58.8785C27.677 58.7069 28.0796 58.6226 28.4855 58.6321C28.4855 58.7027 28.4855 58.7734 28.5559 58.7734H28.5911C28.3785 58.9515 28.1308 59.1281 27.8873 59.3062C27.807 59.3797 27.8774 59.4504 27.9478 59.4504ZM15.4088 50.7383V50.4754C16.1382 50.2839 16.8904 50.1944 17.6441 50.2097C17.867 50.174 18.0941 50.174 18.317 50.2097C17.3238 50.2087 16.3386 50.3877 15.4088 50.7383ZM58.4816 57.9296C58.4735 58.0785 58.4302 58.2233 58.3553 58.3521C58.2804 58.4809 58.176 58.5899 58.0509 58.6702L43.8636 66.9399C42.2347 66.4718 40.6332 65.9127 39.0665 65.2651C38.8394 64.7691 38.7161 64.2316 38.7039 63.6859C38.6918 63.1401 38.7913 62.5977 38.9961 62.092C39.1085 61.6568 39.275 61.2375 39.4916 60.844C39.5268 60.8087 39.562 60.7733 39.562 60.7366C39.5713 60.7366 39.5802 60.7329 39.5868 60.7262C39.5934 60.7196 39.5972 60.7106 39.5972 60.7012C39.7535 60.4263 39.9309 60.1641 40.1278 59.9168L40.1489 59.8956L40.1771 59.8659L40.1982 59.8447C40.1982 59.8094 40.2334 59.7741 40.2686 59.7373C40.3038 59.6652 40.3742 59.6299 40.4093 59.5592C40.6565 59.2965 40.9295 59.0598 41.2243 58.8525C41.5238 58.7436 41.8317 58.6599 42.1449 58.6024C43.2864 58.6867 44.4217 58.8415 45.5443 59.066C45.6823 59.0868 45.8148 59.1348 45.9342 59.2073C46.3581 59.2902 46.7959 59.2659 47.2081 59.1366C47.4768 59.0873 47.7285 58.9697 47.9392 58.795C48.1499 58.6203 48.3125 58.3944 48.4116 58.1388C48.5355 57.9109 48.6062 57.6578 48.6184 57.3985C48.6306 57.1392 48.584 56.8805 48.482 56.642C48.2314 56.2519 48.4637 56.0243 48.7367 55.8081L48.8325 55.7304C48.9541 55.6438 49.0635 55.5411 49.1576 55.4251C49.335 55.0689 49.0169 54.8597 48.9451 54.5346C48.8747 54.3933 48.627 54.464 48.4848 54.252C48.9803 54.0385 49.6883 53.6456 49.3702 53.0407C49.1576 52.7198 48.8395 52.1502 49.2294 51.8294C49.7249 51.5467 50.4329 51.616 50.6455 51.1524C50.715 50.8829 50.7136 50.5999 50.6416 50.3311C50.5695 50.0623 50.4293 49.8169 50.2344 49.6189L50.1289 49.4662C50.0233 49.315 49.9191 49.1638 49.8319 49.0139C49.6081 48.6411 49.3598 48.2836 49.0886 47.944C48.779 47.5038 48.5291 47.0242 48.3454 46.5179C48.1329 45.9836 48.4158 45.52 48.4158 44.9858C48.4367 43.9566 48.281 42.9316 47.9555 41.9555C47.7782 41.4565 47.7078 40.9223 47.4952 40.4587C47.4685 40.1607 47.3582 39.8765 47.1771 39.6389C47.1421 39.5667 47.124 39.4874 47.124 39.4071C47.124 39.3268 47.1421 39.2476 47.1771 39.1753C47.4657 38.9711 47.7382 38.7447 47.9921 38.4983C48.0706 38.3255 48.0854 38.1303 48.0338 37.9475C47.9822 37.7647 47.8677 37.6063 47.7106 37.5005C47.2503 37.287 47.2883 37.9641 46.9674 38.1068H46.7548C46.6845 37.9287 46.8252 37.8566 46.9674 37.7153C46.9674 37.6446 46.9674 37.5019 46.897 37.5019C46.6155 37.5019 46.3663 37.4298 46.2946 37.2885C45.6161 36.4395 44.7057 35.8079 43.675 35.4708C43.9396 35.5525 44.2135 35.6 44.49 35.6122C44.9652 35.7131 45.4599 35.6637 45.9061 35.4708C46.2256 35.3634 46.296 34.7938 46.4367 34.473C46.4653 34.3177 46.4611 34.1581 46.4245 34.0045C46.3879 33.8509 46.3197 33.7066 46.2242 33.5811C45.9045 33.1145 45.4634 32.7449 44.9489 32.5126C44.7011 32.4052 44.3112 32.1918 43.9931 32.0137C43.8848 31.9371 43.7657 31.8771 43.6398 31.8356C39.4662 29.7367 30.8742 31.5529 30.2197 31.8356H30.207C29.6038 32.0113 29.0159 32.2358 28.4489 32.507C27.6683 32.798 26.9633 33.2626 26.3868 33.8659C25.8103 34.4693 25.3772 35.1957 25.1199 35.991C24.3162 36.5211 23.6683 37.2575 23.2436 38.1238C22.6411 39.2545 21.7571 40.2566 21.8979 41.5357C22.0387 42.6381 22.2878 43.6332 22.5004 44.7709C22.5608 45.1554 22.655 45.5338 22.7819 45.9017C22.9226 46.2918 22.7819 46.7907 22.9944 47.1101C23.1 47.3235 23.0296 47.5723 23.314 47.715V47.9977C23.3843 48.0684 23.3843 48.139 23.5265 48.139V48.4217C24.1383 49.0203 24.6629 49.7026 25.0847 50.4485C25.2255 50.8386 24.4119 50.6619 24.0994 50.5192C23.5145 50.1369 22.9793 49.683 22.506 49.168C22.4673 49.2059 22.442 49.2556 22.4342 49.3093C22.7157 49.8069 23.7095 50.4118 23.1774 50.7312C22.8959 50.8725 22.575 50.5178 22.292 50.8033C22.2217 50.9093 22.292 51.052 22.292 51.1934C21.9021 50.9107 21.4784 51.052 21.0885 50.9107C20.807 50.84 20.7338 50.3072 20.4157 50.3072C19.5761 50.1014 18.7248 49.9471 17.8665 49.845C17.0556 49.7229 16.2383 49.6478 15.4187 49.6203V34.1168C15.4193 33.9662 15.4595 33.8185 15.5351 33.6885C15.6107 33.5585 15.7191 33.4507 15.8494 33.3762L36.9452 20.9935L58.0509 33.2575C58.1813 33.3319 58.2898 33.4396 58.3654 33.5696C58.441 33.6997 58.4811 33.8475 58.4816 33.9981V57.9296ZM47.2855 46.2536C47.2429 46.32 47.1841 46.3743 47.1145 46.4111C47.045 46.448 46.9672 46.4663 46.8886 46.4642C46.7476 46.5835 46.6149 46.7124 46.4916 46.85C46.6324 46.85 46.4916 47.0606 46.6324 47.0606C46.3438 47.3758 46.7408 48.0415 46.3438 48.1815C45.8242 48.3213 45.2771 48.3213 44.7574 48.1815C44.8347 48.1648 44.9135 48.1572 44.9925 48.1588H45.1122C45.2004 48.1695 45.29 48.1581 45.3727 48.1255C45.4555 48.093 45.529 48.0403 45.5865 47.9723V47.6896C45.5865 47.6189 45.5147 47.6189 45.4458 47.6189C45.4088 47.6586 45.3588 47.6837 45.305 47.6896C45.3015 47.626 45.279 47.565 45.2403 47.5145C45.2016 47.464 45.1486 47.4265 45.0882 47.4069C44.9011 47.432 44.7107 47.4098 44.5342 47.3425C44.3578 47.2751 44.2008 47.1646 44.0776 47.0211C44.2684 46.929 44.4846 46.9041 44.6913 46.9504C44.8715 46.9504 44.7997 46.6352 45.0164 46.4953H45.2332C45.6654 45.9695 46.4592 45.8296 46.6042 45.3038C46.6042 45.1625 46.2073 45.1625 45.9187 45.0932C45.5329 45.0457 45.1417 45.0697 44.7645 45.1639C44.258 45.234 43.7615 45.3635 43.2851 45.5497C43.6796 45.259 44.1183 45.0341 44.5843 44.884C44.9114 44.7575 45.2498 44.6628 45.595 44.6013L45.7808 44.5646L45.968 44.5264C46.2233 44.4498 46.4953 44.4498 46.7506 44.5264C47.0758 44.6678 47.6163 44.6678 47.6881 44.8769C47.8288 45.2628 47.4713 45.6472 47.0758 45.9285C46.9955 46.043 47.2855 46.1193 47.2855 46.2536Z" fill="white"/>
<path d="M76.3214 42.8616V29.4851H84.118V31.74H79.0349V34.9121H83.3536V37.167H79.0349V42.8616H76.3214Z" fill="#000091"/>
<path d="M85.7706 42.8616V33.2305H88.1975V34.186C88.8281 33.5363 89.6498 33.0394 90.7391 33.0394C91.0639 33.0394 91.3506 33.0967 91.5799 33.1732V35.5618C91.2741 35.4854 90.9493 35.4281 90.5097 35.4281C89.325 35.4281 88.5606 36.0778 88.1975 36.6893V42.8616H85.7706Z" fill="#000091"/>
<path d="M95.7808 43.1482C93.8507 43.1482 92.5322 42.0399 92.5322 40.2627C92.5322 38.8104 93.6596 37.7212 95.7235 37.3772L98.6663 36.8804V36.632C98.6663 35.6192 97.9019 34.9695 96.7936 34.9695C95.8572 34.9695 95.1311 35.409 94.6151 36.116L92.8379 34.7593C93.6979 33.5745 95.112 32.8483 96.87 32.8483C99.66 32.8483 101.093 34.5108 101.093 36.632V42.8616H98.6663V41.9253C98.0548 42.6705 96.9082 43.1482 95.7808 43.1482ZM94.94 40.1481C94.94 40.7978 95.4559 41.2182 96.2776 41.2182C97.386 41.2182 98.1886 40.7023 98.6663 39.9379V38.5811L96.3732 38.9633C95.3604 39.1353 94.94 39.5557 94.94 40.1481Z" fill="#000091"/>
<path d="M103.872 42.8616V33.2305H106.299V33.9949C106.968 33.3452 107.866 32.8483 109.146 32.8483C111.229 32.8483 112.892 34.2815 112.892 37.1288V42.8616H110.446V37.2244C110.446 35.944 109.72 35.1414 108.535 35.1414C107.312 35.1414 106.662 35.9631 106.299 36.5746V42.8616H103.872Z" fill="#000091"/>
<path d="M120.272 40.9507C121.228 40.9507 121.992 40.5112 122.451 39.8423L124.342 41.2946C123.444 42.4794 122.03 43.2438 120.272 43.2438C116.947 43.2438 114.96 40.8551 114.96 38.0461C114.96 35.237 116.947 32.8483 120.272 32.8483C122.03 32.8483 123.444 33.6127 124.342 34.7975L122.451 36.2498C121.992 35.581 121.228 35.1414 120.234 35.1414C118.648 35.1414 117.482 36.3644 117.482 38.0461C117.482 39.7468 118.648 40.9507 120.272 40.9507Z" fill="#000091"/>
<path d="M134.648 41.2946C133.749 42.4985 132.259 43.2438 130.443 43.2438C127.023 43.2438 125.093 40.8551 125.093 38.0461C125.093 35.1988 126.889 32.8483 130.042 32.8483C132.717 32.8483 134.476 34.6637 134.476 37.1861C134.476 37.7212 134.399 38.218 134.323 38.5429H127.577C127.806 40.3392 128.915 41.0653 130.424 41.0653C131.475 41.0653 132.393 40.6067 132.909 39.9188L134.648 41.2946ZM129.985 34.8357C128.743 34.8357 127.921 35.5236 127.654 36.7848H132.087C132.049 35.8103 131.342 34.8357 129.985 34.8357Z" fill="#000091"/>
<path d="M82.2835 60.6424C83.8122 60.6424 85.0161 59.8972 85.7805 58.8079L87.9207 60.4513C86.6977 62.1138 84.7104 63.184 82.2835 63.184C78.0603 63.184 75.1748 59.9354 75.1748 56.1135C75.1748 52.2916 78.0603 49.0431 82.2835 49.0431C84.7104 49.0431 86.6977 50.1323 87.9207 51.7566L85.7805 53.4191C85.0161 52.3299 83.8122 51.5846 82.2835 51.5846C79.761 51.5846 77.9648 53.5529 77.9648 56.1135C77.9648 58.6742 79.761 60.6424 82.2835 60.6424Z" fill="#E1000F"/>
<path d="M94.3504 52.7885C97.4844 52.7885 99.6246 55.1007 99.6246 57.9862C99.6246 60.8717 97.4844 63.184 94.3504 63.184C91.2165 63.184 89.0762 60.8717 89.0762 57.9862C89.0762 55.1007 91.2165 52.7885 94.3504 52.7885ZM94.3886 60.8908C95.9365 60.8908 97.1022 59.6487 97.1022 57.9862C97.1022 56.3046 95.9365 55.0816 94.3886 55.0816C92.7835 55.0816 91.5987 56.3046 91.5987 57.9862C91.5987 59.6679 92.7835 60.8908 94.3886 60.8908Z" fill="#E1000F"/>
<path d="M101.838 62.8018V53.1707H104.265V53.9351C104.934 53.2853 105.832 52.7885 107.112 52.7885C109.195 52.7885 110.858 54.2217 110.858 57.069V62.8018H108.412V57.1645C108.412 55.8842 107.686 55.0816 106.501 55.0816C105.278 55.0816 104.628 55.9033 104.265 56.5148V62.8018H101.838Z" fill="#E1000F"/>
<path d="M113.614 62.8018V53.1707H116.04V53.9351C116.709 53.2853 117.607 52.7885 118.888 52.7885C120.971 52.7885 122.633 54.2217 122.633 57.069V62.8018H120.187V57.1645C120.187 55.8842 119.461 55.0816 118.276 55.0816C117.053 55.0816 116.403 55.9033 116.04 56.5148V62.8018H113.614Z" fill="#E1000F"/>
<path d="M134.256 61.2348C133.357 62.4387 131.867 63.184 130.052 63.184C126.631 63.184 124.701 60.7953 124.701 57.9862C124.701 55.1389 126.497 52.7885 129.65 52.7885C132.326 52.7885 134.084 54.6039 134.084 57.1263C134.084 57.6614 134.007 58.1582 133.931 58.4831H127.185C127.414 60.2793 128.523 61.0055 130.032 61.0055C131.083 61.0055 132.001 60.5469 132.517 59.8589L134.256 61.2348ZM129.593 54.7759C128.351 54.7759 127.529 55.4638 127.262 56.725H131.695C131.657 55.7504 130.95 54.7759 129.593 54.7759Z" fill="#E1000F"/>
<path d="M141.005 60.8908C141.96 60.8908 142.725 60.4513 143.183 59.7825L145.075 61.2348C144.177 62.4196 142.763 63.184 141.005 63.184C137.68 63.184 135.693 60.7953 135.693 57.9862C135.693 55.1772 137.68 52.7885 141.005 52.7885C142.763 52.7885 144.177 53.5529 145.075 54.7376L143.183 56.19C142.725 55.5211 141.96 55.0816 140.967 55.0816C139.381 55.0816 138.215 56.3046 138.215 57.9862C138.215 59.687 139.381 60.8908 141.005 60.8908Z" fill="#E1000F"/>
<path d="M147.592 59.2857V55.3491H145.795V53.1707H147.592V50.7629H150.038V53.1707H152.981V55.3491H150.038V59.2857C150.038 60.3558 150.611 60.7762 151.566 60.7762C152.235 60.7762 152.675 60.6998 153 60.566V62.6871C152.522 62.8973 151.949 62.9929 151.146 62.9929C148.738 62.9929 147.592 61.6361 147.592 59.2857Z" fill="#E1000F"/>
<path fill-rule="evenodd" clip-rule="evenodd" d="M38.2533 14.593C37.5159 14.1687 36.6084 14.1687 35.8709 14.593L10.8546 28.9859C10.1138 29.4121 9.65719 30.2017 9.65719 31.0563V59.8278C9.65719 60.6825 10.1138 61.472 10.8546 61.8982L35.8709 76.2911C36.6084 76.7154 37.5159 76.7154 38.2533 76.2911L63.2696 61.8982C64.0104 61.472 64.467 60.6825 64.467 59.8278V31.0563C64.467 30.2017 64.0104 29.4121 63.2696 28.9859L38.2533 14.593ZM66.1242 30.1029C66.1242 29.2482 65.6676 28.4587 64.9268 28.0325L38.2533 12.6861C37.5159 12.2618 36.6084 12.2618 35.8709 12.6861L9.19745 28.0325C8.45664 28.4587 8 29.2482 8 30.1029V60.7812C8 61.6359 8.45664 62.4255 9.19745 62.8517L35.8709 78.198C36.6084 78.6223 37.5159 78.6223 38.2533 78.198L64.9268 62.8517C65.6676 62.4254 66.1242 61.6359 66.1242 60.7812V30.1029Z" fill="url(#paint0_linear_6655_6056)"/>
<defs>
<linearGradient id="paint0_linear_6655_6056" x1="7.6472" y1="45.8549" x2="66.4773" y2="45.8549" gradientUnits="userSpaceOnUse">
<stop stop-color="#000091"/>
<stop offset="1" stop-color="#E1000F"/>
</linearGradient>
</defs>
</svg>
