<?xml version="1.0" encoding="UTF-8" standalone="no"?>
<!DOCTYPE svg PUBLIC "-//W3C//DTD SVG 1.1//EN" "http://www.w3.org/Graphics/SVG/1.1/DTD/svg11.dtd">
<svg width="100%" height="100%" viewBox="0 0 16 20" version="1.1" xmlns="http://www.w3.org/2000/svg" xmlns:xlink="http://www.w3.org/1999/xlink" xml:space="preserve" xmlns:serif="http://www.serif.com/" style="fill-rule:evenodd;clip-rule:evenodd;stroke-linecap:round;stroke-linejoin:round;stroke-miterlimit:1.5;">
    <g transform="matrix(1,0,0,1,-1,0)">
        <g transform="matrix(0.80112,0,0,0.80112,1.45378,0.708683)">
            <circle cx="3" cy="3" r="2" style="fill:none;stroke:rgb(38,53,63);stroke-width:1.25px;"/>
        </g>
        <path d="M4.321,19L2.821,19C2.407,19 2.071,18.664 2.071,18.25L2.071,12.866C1.773,12.693 1.571,12.37 1.571,12L1.571,7C1.571,6.448 2.02,6 2.571,6L4.571,6C4.759,6 4.934,6.052 5.084,6.141C5.187,6.162 5.283,6.221 5.349,6.315L8.293,10.542C8.426,10.735 8.379,10.999 8.187,11.133L7.491,11.617C7.299,11.751 7.034,11.704 6.901,11.512L5.571,9.603L5.571,12C5.571,12.37 5.37,12.693 5.071,12.866L5.071,18.25C5.071,18.664 4.735,19 4.321,19Z" style="fill:none;stroke:rgb(38,53,63);stroke-width:1px;"/>
    </g>
    <g transform="matrix(1,0,0,1,1,0)">
        <path d="M10.482,6.678C10.616,6.284 10.989,6 11.429,6L13.429,6C13.98,6 14.429,6.448 14.429,7L14.429,12C14.429,12.37 14.227,12.693 13.929,12.866L13.929,18.25C13.929,18.664 13.593,19 13.179,19L11.679,19C11.265,19 10.929,18.664 10.929,18.25L10.929,12.866C10.63,12.693 10.429,12.37 10.429,12L10.429,9.722L9.182,11.512C9.049,11.704 8.784,11.751 8.592,11.617L7.896,11.133C7.704,10.999 7.657,10.735 7.79,10.542L10.482,6.678Z" style="fill:none;stroke:rgb(38,53,63);stroke-width:1px;"/>
    </g>
    <g transform="matrix(0.80112,0,0,0.80112,2.72829,0.708683)">
        <circle cx="13" cy="3" r="2" style="fill:none;stroke:rgb(38,53,63);stroke-width:1.25px;"/>
    </g>
</svg>
