<svg width="1440" height="600" viewBox="0 0 1440 600" fill="none" xmlns="http://www.w3.org/2000/svg">
<rect width="1440" height="600" fill="white"/>
<path d="M258.629 49.5263C265.048 43.1918 273.458 40 281.917 40H346.905C355.315 40 363.724 43.1427 370.144 49.4772C382.982 62.1461 382.982 82.6718 370.144 95.3408C363.675 101.724 355.165 104.867 346.656 104.818H282.116C273.607 104.867 265.147 101.724 258.629 95.3408C245.79 82.721 245.79 62.1461 258.629 49.5263Z" fill="url(#paint0_linear_35_326)"/>
<path d="M346.905 104.818C365.043 104.818 379.747 90.308 379.747 72.409C379.747 54.51 365.043 40 346.905 40C328.767 40 314.063 54.51 314.063 72.409C314.063 90.308 328.767 104.818 346.905 104.818Z" fill="#EF4056"/>
<path d="M1115.63 407.526C1122.05 401.192 1130.46 398 1138.92 398H1203.91C1212.31 398 1220.72 401.143 1227.14 407.477C1239.98 420.146 1239.98 440.672 1227.14 453.341C1220.67 459.724 1212.17 462.867 1203.66 462.818H1139.12C1130.61 462.867 1122.15 459.724 1115.63 453.341C1102.79 440.721 1102.79 420.146 1115.63 407.526Z" fill="url(#paint1_linear_35_326)"/>
<path d="M1203.91 462.818C1222.04 462.818 1236.75 448.308 1236.75 430.409C1236.75 412.51 1222.04 398 1203.91 398C1185.77 398 1171.06 412.51 1171.06 430.409C1171.06 448.308 1185.77 462.818 1203.91 462.818Z" fill="#EF4056"/>
<path d="M92.6288 294.526C99.048 288.192 107.458 285 115.917 285H180.905C189.315 285 197.724 288.143 204.144 294.477C216.982 307.146 216.982 327.672 204.144 340.341C197.675 346.724 189.165 349.867 180.656 349.818H116.116C107.607 349.867 99.1475 346.724 92.6288 340.341C79.7904 327.721 79.7904 307.146 92.6288 294.526Z" fill="url(#paint2_linear_35_326)"/>
<path d="M180.905 349.818C199.043 349.818 213.747 335.308 213.747 317.409C213.747 299.51 199.043 285 180.905 285C162.767 285 148.063 299.51 148.063 317.409C148.063 335.308 162.767 349.818 180.905 349.818Z" fill="#FAD776"/>
<path d="M1045.63 98.5263C1052.05 92.1918 1060.46 89 1068.92 89H1133.91C1142.31 89 1150.72 92.1427 1157.14 98.4772C1169.98 111.146 1169.98 131.672 1157.14 144.341C1150.67 150.724 1142.17 153.867 1133.66 153.818H1069.12C1060.61 153.867 1052.15 150.724 1045.63 144.341C1032.79 131.721 1032.79 111.146 1045.63 98.5263Z" fill="url(#paint3_linear_35_326)"/>
<path d="M1133.91 153.818C1152.04 153.818 1166.75 139.308 1166.75 121.409C1166.75 103.51 1152.04 89.0001 1133.91 89.0001C1115.77 89.0001 1101.06 103.51 1101.06 121.409C1101.06 139.308 1115.77 153.818 1133.91 153.818Z" fill="#FAD776"/>
<path d="M320.629 458.526C327.048 452.192 335.458 449 343.917 449H408.905C417.315 449 425.724 452.143 432.144 458.477C444.982 471.146 444.982 491.672 432.144 504.341C425.675 510.724 417.165 513.867 408.656 513.818H344.116C335.607 513.867 327.147 510.724 320.629 504.341C307.79 491.721 307.79 471.146 320.629 458.526Z" fill="url(#paint4_linear_35_326)"/>
<path d="M408.905 513.818C427.043 513.818 441.747 499.308 441.747 481.409C441.747 463.51 427.043 449 408.905 449C390.767 449 376.063 463.51 376.063 481.409C376.063 499.308 390.767 513.818 408.905 513.818Z" fill="#1B4991"/>
<path d="M1354.63 319.526C1361.05 313.192 1369.46 310 1377.92 310H1442.91C1451.31 310 1459.72 313.143 1466.14 319.477C1478.98 332.146 1478.98 352.672 1466.14 365.341C1459.67 371.724 1451.17 374.867 1442.66 374.818H1378.12C1369.61 374.867 1361.15 371.724 1354.63 365.341C1341.79 352.721 1341.79 332.146 1354.63 319.526Z" fill="url(#paint5_linear_35_326)"/>
<path d="M1442.91 374.818C1461.04 374.818 1475.75 360.308 1475.75 342.409C1475.75 324.51 1461.04 310 1442.91 310C1424.77 310 1410.06 324.51 1410.06 342.409C1410.06 360.308 1424.77 374.818 1442.91 374.818Z" fill="#1B4991"/>
<defs>
<linearGradient id="paint0_linear_35_326" x1="249.738" y1="72.4291" x2="378.466" y2="72.4291" gradientUnits="userSpaceOnUse">
<stop stop-color="#F38192" stop-opacity="0"/>
<stop offset="1" stop-color="#F05B89"/>
</linearGradient>
<linearGradient id="paint1_linear_35_326" x1="1106.74" y1="430.429" x2="1235.47" y2="430.429" gradientUnits="userSpaceOnUse">
<stop stop-color="#F38192" stop-opacity="0"/>
<stop offset="1" stop-color="#F05B89"/>
</linearGradient>
<linearGradient id="paint2_linear_35_326" x1="83.7385" y1="317.429" x2="212.466" y2="317.429" gradientUnits="userSpaceOnUse">
<stop stop-color="#FAD776" stop-opacity="0"/>
<stop offset="1" stop-color="#FAD776"/>
</linearGradient>
<linearGradient id="paint3_linear_35_326" x1="1036.74" y1="121.429" x2="1165.47" y2="121.429" gradientUnits="userSpaceOnUse">
<stop stop-color="#FAD776" stop-opacity="0"/>
<stop offset="1" stop-color="#FAD776"/>
</linearGradient>
<linearGradient id="paint4_linear_35_326" x1="311.738" y1="481.429" x2="440.466" y2="481.429" gradientUnits="userSpaceOnUse">
<stop stop-color="#1B4991" stop-opacity="0"/>
<stop offset="1" stop-color="#1B4991"/>
</linearGradient>
<linearGradient id="paint5_linear_35_326" x1="1345.74" y1="342.429" x2="1474.47" y2="342.429" gradientUnits="userSpaceOnUse">
<stop stop-color="#1B4991" stop-opacity="0"/>
<stop offset="1" stop-color="#1B4991"/>
</linearGradient>
</defs>
</svg>
