<?xml version="1.0" encoding="UTF-8" standalone="no"?>
<!DOCTYPE svg PUBLIC "-//W3C//DTD SVG 1.1//EN" "http://www.w3.org/Graphics/SVG/1.1/DTD/svg11.dtd">
<svg width="100%" height="100%" viewBox="0 0 16 20" version="1.1" xmlns="http://www.w3.org/2000/svg" xmlns:xlink="http://www.w3.org/1999/xlink" xml:space="preserve" xmlns:serif="http://www.serif.com/" style="fill-rule:evenodd;clip-rule:evenodd;stroke-linejoin:round;stroke-miterlimit:2;">
    <g transform="matrix(1,0,0,1,0,-1)">
        <path d="M14,17L9,17L8.998,5.605L6,4.496L2,3L2,2L14,2L14,17ZM4.855,3L6.349,3.559L9.345,4.667L9.415,4.696L9.483,4.731L9.548,4.77L9.61,4.814L9.668,4.863L9.723,4.916L9.773,4.973L9.819,5.034L9.86,5.098L9.896,5.165L9.927,5.234L9.952,5.306L9.972,5.379L9.986,5.454L9.995,5.529L9.998,5.605L10,16L13,16L13,3L4.855,3Z" style="fill:rgb(38,53,63);"/>
    </g>
    <g transform="matrix(9.18485e-17,-1.5,0.533333,0.194117,-1.73333,22.1412)">
        <path d="M15,22L5,22L5,7L15,7L15,22ZM5.709,8.875L5.709,20.125L14.291,20.125L14.291,8.875L5.709,8.875Z" style="fill:rgb(38,53,63);"/>
    </g>
</svg>
