<svg width="1279" height="342" viewBox="0 0 1279 342" fill="none" xmlns="http://www.w3.org/2000/svg">
<rect x="79" y="28" width="1200" height="286" fill="#FAD776"/>
<circle cx="171" cy="171" r="171" fill="white"/>
<rect x="129" y="103" width="82" height="120" rx="2" fill="white" stroke="#1B4991" stroke-width="4"/>
<circle cx="171" cy="205" r="8" fill="#1B4991"/>
<path fill-rule="evenodd" clip-rule="evenodd" d="M166 115C173.18 115 179 120.82 179 128C179 135.18 173.18 141 166 141H154.683C153.321 144.804 147.9 147.339 145 148.209C146.174 147.035 148.381 144.052 148.892 140.626C143.213 139.233 139 134.109 139 128C139 120.82 144.82 115 152 115H166Z" fill="#D9D9D9"/>
<path fill-rule="evenodd" clip-rule="evenodd" d="M206 157C198.82 157 193 162.82 193 170C193 177.18 198.82 183 206 183H217.317C218.679 186.804 224.1 189.339 227 190.209C225.826 189.035 223.619 186.052 223.108 182.626C228.787 181.233 233 176.109 233 170C233 162.82 227.18 157 220 157H206Z" fill="#FAD776"/>
<path d="M207 169.545L211.375 175L221 165" stroke="#1B4991" stroke-width="4" stroke-linecap="round" stroke-linejoin="round"/>
<path d="M440.976 132.968C443.627 130.33 447.099 129 450.592 129H477.428C480.901 129 484.373 130.309 487.024 132.948C492.325 138.225 492.325 146.775 487.024 152.052C484.353 154.711 480.839 156.02 477.325 156H450.675C447.161 156.02 443.668 154.711 440.976 152.052C435.675 146.795 435.675 138.225 440.976 132.968Z" fill="url(#paint0_linear_2451_5061)"/>
<path d="M477.429 156C484.919 156 490.99 149.956 490.99 142.5C490.99 135.044 484.919 129 477.429 129C469.939 129 463.867 135.044 463.867 142.5C463.867 149.956 469.939 156 477.429 156Z" fill="#EF4056"/>
<path d="M377.976 221.968C380.627 219.33 384.099 218 387.592 218H414.428C417.901 218 421.373 219.309 424.024 221.948C429.325 227.225 429.325 235.775 424.024 241.052C421.353 243.711 417.839 245.02 414.325 245H387.675C384.161 245.02 380.668 243.711 377.976 241.052C372.675 235.795 372.675 227.225 377.976 221.968Z" fill="url(#paint1_linear_2451_5061)"/>
<path d="M414.429 245C421.919 245 427.99 238.956 427.99 231.5C427.99 224.044 421.919 218 414.429 218C406.939 218 400.867 224.044 400.867 231.5C400.867 238.956 406.939 245 414.429 245Z" fill="#EF4056"/>
<path d="M700.976 177.968C703.627 175.33 707.099 174 710.592 174H737.428C740.901 174 744.373 175.309 747.024 177.948C752.325 183.225 752.325 191.775 747.024 197.052C744.353 199.711 740.839 201.02 737.325 201H710.675C707.161 201.02 703.668 199.711 700.976 197.052C695.675 191.795 695.675 183.225 700.976 177.968Z" fill="url(#paint2_linear_2451_5061)"/>
<path d="M737.429 201C744.919 201 750.99 194.956 750.99 187.5C750.99 180.044 744.919 174 737.429 174C729.939 174 723.867 180.044 723.867 187.5C723.867 194.956 729.939 201 737.429 201Z" fill="#EF4056"/>
<path d="M582.976 235.968C585.627 233.33 589.099 232 592.592 232H619.428C622.901 232 626.373 233.309 629.024 235.948C634.325 241.225 634.325 249.775 629.024 255.052C626.353 257.711 622.839 259.02 619.325 259H592.675C589.161 259.02 585.668 257.711 582.976 255.052C577.675 249.795 577.675 241.225 582.976 235.968Z" fill="url(#paint3_linear_2451_5061)"/>
<path d="M619.429 259C626.919 259 632.99 252.956 632.99 245.5C632.99 238.044 626.919 232 619.429 232C611.939 232 605.867 238.044 605.867 245.5C605.867 252.956 611.939 259 619.429 259Z" fill="#EF4056"/>
<path d="M811.976 61.9681C814.627 59.3295 818.099 58 821.592 58H848.428C851.901 58 855.373 59.3091 858.024 61.9477C863.325 67.2249 863.325 75.7748 858.024 81.0521C855.353 83.7111 851.839 85.0202 848.325 84.9998H821.675C818.161 85.0202 814.668 83.7111 811.976 81.0521C806.675 75.7953 806.675 67.2249 811.976 61.9681Z" fill="url(#paint4_linear_2451_5061)"/>
<path d="M848.429 84.9998C855.919 84.9998 861.99 78.9557 861.99 71.4999C861.99 64.0441 855.919 58 848.429 58C840.939 58 834.867 64.0441 834.867 71.4999C834.867 78.9557 840.939 84.9998 848.429 84.9998Z" fill="#EF4056"/>
<path d="M871.976 262.968C874.627 260.33 878.099 259 881.592 259H908.428C911.901 259 915.373 260.309 918.024 262.948C923.325 268.225 923.325 276.775 918.024 282.052C915.353 284.711 911.839 286.02 908.325 286H881.675C878.161 286.02 874.668 284.711 871.976 282.052C866.675 276.795 866.675 268.225 871.976 262.968Z" fill="url(#paint5_linear_2451_5061)"/>
<path d="M908.429 286C915.919 286 921.99 279.956 921.99 272.5C921.99 265.044 915.919 259 908.429 259C900.939 259 894.867 265.044 894.867 272.5C894.867 279.956 900.939 286 908.429 286Z" fill="#EF4056"/>
<path d="M958.976 159.968C961.627 157.33 965.099 156 968.592 156H995.428C998.901 156 1002.37 157.309 1005.02 159.948C1010.33 165.225 1010.33 173.775 1005.02 179.052C1002.35 181.711 998.839 183.02 995.325 183H968.675C965.161 183.02 961.668 181.711 958.976 179.052C953.675 173.795 953.675 165.225 958.976 159.968Z" fill="url(#paint6_linear_2451_5061)"/>
<path d="M995.429 183C1002.92 183 1008.99 176.956 1008.99 169.5C1008.99 162.044 1002.92 156 995.429 156C987.939 156 981.867 162.044 981.867 169.5C981.867 176.956 987.939 183 995.429 183Z" fill="#EF4056"/>
<path d="M1161.98 84.9681C1164.63 82.3295 1168.1 81 1171.59 81H1198.43C1201.9 81 1205.37 82.3091 1208.02 84.9477C1213.33 90.2249 1213.33 98.7748 1208.02 104.052C1205.35 106.711 1201.84 108.02 1198.33 108H1171.67C1168.16 108.02 1164.67 106.711 1161.98 104.052C1156.67 98.7953 1156.67 90.2249 1161.98 84.9681Z" fill="url(#paint7_linear_2451_5061)"/>
<path d="M1198.43 108C1205.92 108 1211.99 101.956 1211.99 94.4999C1211.99 87.0441 1205.92 81 1198.43 81C1190.94 81 1184.87 87.0441 1184.87 94.4999C1184.87 101.956 1190.94 108 1198.43 108Z" fill="#EF4056"/>
<path d="M542.976 71.9681C545.627 69.3295 549.099 68 552.592 68H579.428C582.901 68 586.373 69.3091 589.024 71.9477C594.325 77.2249 594.325 85.7748 589.024 91.0521C586.353 93.7111 582.839 95.0202 579.325 94.9998H552.675C549.161 95.0202 545.668 93.7111 542.976 91.0521C537.675 85.7953 537.675 77.2249 542.976 71.9681Z" fill="url(#paint8_linear_2451_5061)"/>
<path d="M579.429 94.9998C586.919 94.9998 592.99 88.9557 592.99 81.4999C592.99 74.0441 586.919 68 579.429 68C571.939 68 565.867 74.0441 565.867 81.4999C565.867 88.9557 571.939 94.9998 579.429 94.9998Z" fill="#EF4056"/>
<defs>
<linearGradient id="paint0_linear_2451_5061" x1="437.305" y1="142.508" x2="490.461" y2="142.508" gradientUnits="userSpaceOnUse">
<stop stop-color="#F38192" stop-opacity="0"/>
<stop offset="1" stop-color="#F05B89"/>
</linearGradient>
<linearGradient id="paint1_linear_2451_5061" x1="374.305" y1="231.508" x2="427.461" y2="231.508" gradientUnits="userSpaceOnUse">
<stop stop-color="#F38192" stop-opacity="0"/>
<stop offset="1" stop-color="#F05B89"/>
</linearGradient>
<linearGradient id="paint2_linear_2451_5061" x1="697.305" y1="187.508" x2="750.461" y2="187.508" gradientUnits="userSpaceOnUse">
<stop stop-color="#F38192" stop-opacity="0"/>
<stop offset="1" stop-color="#F05B89"/>
</linearGradient>
<linearGradient id="paint3_linear_2451_5061" x1="579.305" y1="245.508" x2="632.461" y2="245.508" gradientUnits="userSpaceOnUse">
<stop stop-color="#F38192" stop-opacity="0"/>
<stop offset="1" stop-color="#F05B89"/>
</linearGradient>
<linearGradient id="paint4_linear_2451_5061" x1="808.305" y1="71.5083" x2="861.461" y2="71.5083" gradientUnits="userSpaceOnUse">
<stop stop-color="#F38192" stop-opacity="0"/>
<stop offset="1" stop-color="#F05B89"/>
</linearGradient>
<linearGradient id="paint5_linear_2451_5061" x1="868.305" y1="272.508" x2="921.461" y2="272.508" gradientUnits="userSpaceOnUse">
<stop stop-color="#F38192" stop-opacity="0"/>
<stop offset="1" stop-color="#F05B89"/>
</linearGradient>
<linearGradient id="paint6_linear_2451_5061" x1="955.305" y1="169.508" x2="1008.46" y2="169.508" gradientUnits="userSpaceOnUse">
<stop stop-color="#F38192" stop-opacity="0"/>
<stop offset="1" stop-color="#F05B89"/>
</linearGradient>
<linearGradient id="paint7_linear_2451_5061" x1="1158.3" y1="94.5083" x2="1211.46" y2="94.5083" gradientUnits="userSpaceOnUse">
<stop stop-color="#F38192" stop-opacity="0"/>
<stop offset="1" stop-color="#F05B89"/>
</linearGradient>
<linearGradient id="paint8_linear_2451_5061" x1="539.305" y1="81.5083" x2="592.461" y2="81.5083" gradientUnits="userSpaceOnUse">
<stop stop-color="#F38192" stop-opacity="0"/>
<stop offset="1" stop-color="#F05B89"/>
</linearGradient>
</defs>
</svg>
