<svg width="160" height="160" viewBox="0 0 160 160" fill="none" xmlns="http://www.w3.org/2000/svg">
<circle cx="85.3901" cy="85.3902" r="74.6101" fill="#FAD776"/>
<circle cx="74.6101" cy="74.6101" r="74.6101" fill="white"/>
<path d="M97.3302 68.7914H51.9335C50.6632 68.7914 49.4449 69.2817 48.5467 70.1543C47.6484 71.0269 47.1438 72.2105 47.1438 73.4445V109.138C47.1438 110.372 47.6484 111.556 48.5467 112.429C49.4449 113.301 50.6632 113.791 51.9335 113.791H97.3302C97.9613 113.795 98.5867 113.676 99.1705 113.444C99.7544 113.211 100.285 112.869 100.733 112.437C101.18 112.004 101.535 111.49 101.777 110.924C102.019 110.358 102.144 109.751 102.144 109.138V73.4678C102.144 72.8537 102.019 72.2456 101.777 71.6782C101.536 71.1109 101.181 70.5954 100.734 70.1611C100.287 69.7269 99.7564 69.3824 99.1724 69.1474C98.5883 68.9124 97.9624 68.7914 97.3302 68.7914ZM79.2012 91.9219V103.899C79.2019 104.291 79.1228 104.68 78.9685 105.043C78.8141 105.406 78.5877 105.735 78.302 106.013C78.0163 106.29 77.6771 106.51 77.3037 106.66C76.9304 106.81 76.5302 106.887 76.1263 106.886H73.1423C72.7383 106.887 72.3381 106.81 71.9648 106.66C71.5914 106.51 71.2522 106.29 70.9665 106.013C70.6809 105.735 70.4544 105.406 70.3001 105.043C70.1458 104.68 70.0667 104.291 70.0673 103.899V91.9219C68.6856 91.1316 67.5469 89.9962 66.7694 88.6339C65.992 87.2715 65.6043 85.7317 65.6464 84.1746C65.7223 81.8876 66.7191 79.7209 68.4223 78.1405C70.1254 76.56 72.399 75.692 74.7541 75.7231C77.1092 75.7542 79.3577 76.6819 81.0161 78.3067C82.6744 79.9316 83.6102 82.1238 83.6221 84.4119C83.622 85.9292 83.214 87.4202 82.4386 88.7374C81.6633 90.0546 80.5473 91.1523 79.2012 91.9219Z" fill="#1B4991" stroke="#1B4991" stroke-width="4" stroke-miterlimit="10" stroke-linecap="round"/>
<path d="M96.5404 68.8343V56.6796C96.5366 53.8187 95.9664 50.9868 94.8623 48.3466C93.7583 45.7064 92.1423 43.3101 90.1072 41.2955C88.0721 39.2808 85.6581 37.6875 83.004 36.6072C80.3499 35.5269 77.508 34.9809 74.6418 35.0006C71.776 34.9815 68.9346 35.528 66.2811 36.6086C63.6275 37.6892 61.2141 39.2826 59.1795 41.2972C57.145 43.3118 55.5294 45.7079 54.4257 48.3477C53.3219 50.9876 52.7518 53.8191 52.748 56.6796V68.8343H58.54V56.6796C58.54 47.8008 65.7511 40.43 74.6466 40.43C83.547 40.43 90.758 47.8008 90.758 56.6796V68.8343H96.5404Z" fill="#FAD776" stroke="#1B4991" stroke-width="4" stroke-miterlimit="10" stroke-linecap="round"/>
</svg>
