<?xml version="1.0" encoding="UTF-8" standalone="no"?>
<!DOCTYPE svg PUBLIC "-//W3C//DTD SVG 1.1//EN" "http://www.w3.org/Graphics/SVG/1.1/DTD/svg11.dtd">
<svg width="100%" height="100%" viewBox="0 0 16 20" version="1.1" xmlns="http://www.w3.org/2000/svg" xmlns:xlink="http://www.w3.org/1999/xlink" xml:space="preserve" xmlns:serif="http://www.serif.com/" style="fill-rule:evenodd;clip-rule:evenodd;stroke-linecap:round;stroke-linejoin:round;stroke-miterlimit:1.5;">
    <path d="M16,4L16,7.414L15.999,7.538L15.998,7.661L15.995,7.783L15.991,7.906L15.986,8.029L15.981,8.151L15.974,8.273L15.965,8.395L15.956,8.517L15.946,8.638L15.935,8.76L15.923,8.881L15.909,9.001L15.895,9.122L15.88,9.242L15.863,9.362L15.846,9.482L15.827,9.602L15.808,9.721L15.787,9.84L15.765,9.959L15.743,10.077L15.719,10.195L15.695,10.313L15.669,10.431L15.642,10.548L15.615,10.665L15.586,10.782L15.557,10.898L15.526,11.014L15.494,11.129L15.462,11.245L15.428,11.36L15.394,11.474L15.359,11.588L15.322,11.702L15.285,11.816L15.246,11.929L15.207,12.041L15.167,12.154L15.126,12.266L15.084,12.377L15.04,12.488L14.996,12.599L14.952,12.709L14.906,12.819L14.859,12.929L14.811,13.038L14.763,13.146L14.713,13.254L14.663,13.362L14.611,13.469L14.559,13.576L14.506,13.682L14.452,13.788L14.397,13.893L14.341,13.998L14.284,14.102L14.226,14.206L14.168,14.31L14.109,14.412L14.048,14.515L13.987,14.616L13.925,14.718L13.862,14.818L13.799,14.919L13.734,15.018L13.669,15.117L13.602,15.216L13.535,15.314L13.467,15.411L13.399,15.508L13.329,15.604L13.259,15.7L13.187,15.795L13.115,15.89L13.042,15.983L12.969,16.077L12.894,16.169L12.819,16.261L12.743,16.353L12.666,16.444L12.588,16.534L12.509,16.623L12.43,16.712L12.35,16.8L12.269,16.888L12.187,16.975L12.105,17.061L12.022,17.147L11.938,17.232L11.853,17.316L11.767,17.399L11.681,17.482L11.594,17.564L11.506,17.645L11.418,17.726L11.328,17.806L11.238,17.885L11.147,17.964L11.056,18.041L10.964,18.118L10.871,18.195L10.777,18.27L10.683,18.345L10.588,18.419L10.492,18.492L10.395,18.564L10.298,18.636L10.2,18.707L10.101,18.777L10.002,18.846L9.902,18.914L9.801,18.982L9.7,19.049L9.598,19.115L9.495,19.18L9.391,19.244L9.287,19.308L9.183,19.37L9.077,19.432L8.971,19.493L8.864,19.553L8.757,19.612L8.649,19.67L8.54,19.728L8.431,19.784L8.321,19.84L8,20L7.679,19.84L7.569,19.784L7.46,19.728L7.351,19.67L7.243,19.612L7.136,19.553L7.029,19.493L6.923,19.432L6.817,19.37L6.713,19.308L6.609,19.244L6.505,19.18L6.402,19.115L6.3,19.049L6.199,18.982L6.098,18.914L5.998,18.846L5.899,18.777L5.8,18.707L5.702,18.636L5.605,18.564L5.508,18.492L5.412,18.419L5.317,18.345L5.223,18.27L5.129,18.195L5.036,18.118L4.944,18.041L4.853,17.964L4.762,17.885L4.672,17.806L4.582,17.726L4.494,17.645L4.406,17.564L4.319,17.482L4.233,17.399L4.147,17.316L4.062,17.232L3.978,17.147L3.895,17.061L3.813,16.975L3.731,16.888L3.65,16.8L3.57,16.712L3.491,16.623L3.412,16.534L3.334,16.444L3.257,16.353L3.181,16.261L3.106,16.169L3.031,16.077L2.958,15.983L2.885,15.89L2.813,15.795L2.741,15.7L2.671,15.604L2.601,15.508L2.533,15.411L2.465,15.314L2.398,15.216L2.331,15.117L2.266,15.018L2.201,14.919L2.138,14.818L2.075,14.718L2.013,14.616L1.952,14.515L1.891,14.412L1.832,14.31L1.774,14.206L1.716,14.102L1.659,13.998L1.603,13.893L1.548,13.788L1.494,13.682L1.441,13.576L1.389,13.469L1.337,13.362L1.287,13.254L1.237,13.146L1.189,13.038L1.141,12.929L1.094,12.819L1.048,12.709L1.004,12.599L0.96,12.488L0.916,12.377L0.874,12.266L0.833,12.154L0.793,12.041L0.754,11.929L0.715,11.816L0.678,11.702L0.641,11.588L0.606,11.474L0.572,11.36L0.538,11.245L0.506,11.129L0.474,11.014L0.443,10.898L0.414,10.782L0.385,10.665L0.358,10.548L0.331,10.431L0.305,10.313L0.281,10.195L0.257,10.077L0.235,9.959L0.213,9.84L0.192,9.721L0.173,9.602L0.154,9.482L0.137,9.362L0.12,9.242L0.105,9.122L0.091,9.001L0.077,8.881L0.065,8.76L0.054,8.638L0.044,8.517L0.035,8.395L0.026,8.273L0.019,8.151L0.014,8.029L0.009,7.906L0.005,7.783L0.002,7.661L0.001,7.538L0,7.414L0,4L8,0L16,4ZM1,4.618L1,7.412L1.001,7.529L1.002,7.643L1.005,7.757L1.008,7.871L1.013,7.985L1.018,8.098L1.025,8.212L1.032,8.325L1.041,8.438L1.05,8.55L1.06,8.663L1.072,8.775L1.084,8.887L1.098,8.999L1.112,9.111L1.127,9.222L1.143,9.334L1.16,9.444L1.179,9.555L1.198,9.666L1.218,9.776L1.239,9.886L1.261,9.995L1.283,10.105L1.307,10.214L1.332,10.322L1.357,10.431L1.384,10.539L1.411,10.647L1.44,10.755L1.469,10.862L1.499,10.969L1.53,11.076L1.562,11.182L1.595,11.288L1.629,11.393L1.664,11.499L1.699,11.604L1.736,11.708L1.773,11.812L1.811,11.916L1.85,12.02L1.89,12.123L1.931,12.226L1.973,12.328L2.015,12.43L2.059,12.532L2.103,12.633L2.148,12.733L2.194,12.834L2.241,12.934L2.289,13.033L2.337,13.132L2.387,13.231L2.437,13.329L2.488,13.427L2.54,13.524L2.592,13.621L2.646,13.717L2.7,13.813L2.755,13.909L2.811,14.004L2.868,14.098L2.925,14.192L2.984,14.285L3.043,14.378L3.103,14.471L3.163,14.563L3.225,14.654L3.287,14.745L3.35,14.836L3.414,14.926L3.479,15.015L3.544,15.104L3.61,15.192L3.677,15.28L3.745,15.367L3.813,15.453L3.882,15.539L3.952,15.625L4.023,15.71L4.094,15.794L4.167,15.878L4.24,15.961L4.313,16.043L4.387,16.125L4.463,16.206L4.538,16.287L4.615,16.367L4.692,16.446L4.77,16.525L4.849,16.603L4.928,16.68L5.008,16.757L5.089,16.833L5.17,16.909L5.253,16.984L5.335,17.058L5.419,17.131L5.503,17.204L5.588,17.276L5.674,17.348L5.76,17.419L5.847,17.489L5.935,17.558L6.023,17.627L6.112,17.694L6.201,17.762L6.292,17.828L6.382,17.894L6.474,17.959L6.566,18.023L6.659,18.086L6.752,18.149L6.847,18.211L6.941,18.272L7.037,18.333L7.133,18.392L7.229,18.451L7.327,18.509L7.424,18.567L7.523,18.623L7.622,18.679L7.722,18.734L7.822,18.788L7.923,18.841L8,18.881L8.077,18.841L8.178,18.788L8.278,18.734L8.378,18.679L8.477,18.623L8.576,18.567L8.673,18.509L8.771,18.451L8.867,18.392L8.963,18.333L9.059,18.272L9.153,18.211L9.248,18.149L9.341,18.086L9.434,18.023L9.526,17.959L9.618,17.894L9.708,17.828L9.799,17.762L9.888,17.694L9.977,17.627L10.065,17.558L10.153,17.489L10.24,17.419L10.326,17.348L10.412,17.276L10.497,17.204L10.581,17.131L10.665,17.058L10.747,16.984L10.83,16.909L10.911,16.833L10.992,16.757L11.072,16.68L11.151,16.603L11.23,16.525L11.308,16.446L11.385,16.367L11.462,16.287L11.537,16.206L11.613,16.125L11.687,16.043L11.76,15.961L11.833,15.878L11.906,15.794L11.977,15.71L12.048,15.625L12.118,15.539L12.187,15.453L12.255,15.367L12.323,15.28L12.39,15.192L12.456,15.104L12.521,15.015L12.586,14.926L12.65,14.836L12.713,14.745L12.775,14.654L12.837,14.563L12.897,14.471L12.957,14.378L13.016,14.285L13.075,14.192L13.132,14.098L13.189,14.004L13.245,13.909L13.3,13.813L13.354,13.717L13.408,13.621L13.46,13.524L13.512,13.427L13.563,13.329L13.613,13.231L13.663,13.132L13.711,13.033L13.759,12.934L13.806,12.834L13.852,12.733L13.897,12.633L13.941,12.532L13.985,12.43L14.027,12.328L14.069,12.226L14.11,12.123L14.15,12.02L14.189,11.916L14.227,11.812L14.264,11.708L14.301,11.604L14.336,11.499L14.371,11.393L14.405,11.288L14.438,11.182L14.47,11.076L14.501,10.969L14.531,10.862L14.56,10.755L14.589,10.647L14.616,10.539L14.643,10.431L14.668,10.322L14.693,10.214L14.717,10.105L14.739,9.995L14.761,9.886L14.782,9.776L14.802,9.666L14.821,9.555L14.84,9.444L14.857,9.334L14.873,9.222L14.888,9.111L14.902,8.999L14.916,8.887L14.928,8.775L14.94,8.663L14.95,8.55L14.959,8.438L14.968,8.325L14.975,8.212L14.982,8.098L14.987,7.985L14.992,7.871L14.995,7.757L14.998,7.643L14.999,7.529L15,7.412L15,4.618L8,1.118L1,4.618Z" style="fill:rgb(38,53,63);"/>
    <g transform="matrix(0.7,0,0,0.7,2.4,3)">
        <path d="M16,4L16,7.056L15.999,7.185L15.998,7.313L15.995,7.441L15.991,7.569L15.986,7.696L15.98,7.824L15.972,7.951L15.964,8.078L15.955,8.205L15.944,8.331L15.932,8.458L15.919,8.584L15.906,8.71L15.891,8.835L15.874,8.96L15.857,9.086L15.839,9.21L15.82,9.335L15.8,9.459L15.778,9.583L15.756,9.707L15.732,9.83L15.708,9.953L15.682,10.076L15.655,10.198L15.627,10.321L15.599,10.442L15.569,10.564L15.538,10.685L15.506,10.806L15.473,10.926L15.44,11.046L15.405,11.166L15.369,11.285L15.332,11.404L15.294,11.523L15.215,11.759L15.132,11.993L15.045,12.226L14.955,12.457L14.86,12.687L14.762,12.914L14.659,13.14L14.553,13.364L14.443,13.585L14.33,13.805L14.213,14.023L14.092,14.239L13.967,14.453L13.839,14.664L13.707,14.874L13.571,15.081L13.433,15.285L13.29,15.488L13.144,15.688L12.995,15.885L12.842,16.08L12.686,16.272L12.527,16.462L12.364,16.649L12.198,16.834L12.028,17.016L11.856,17.194L11.68,17.371L11.591,17.458L11.501,17.544L11.41,17.629L11.319,17.714L11.226,17.798L11.133,17.881L11.04,17.964L10.945,18.046L10.85,18.127L10.754,18.207L10.657,18.286L10.559,18.365L10.461,18.443L10.362,18.52L10.262,18.596L10.161,18.671L10.06,18.746L9.958,18.82L9.855,18.893L9.752,18.965L9.648,19.036L9.543,19.106L9.437,19.176L9.331,19.245L9.224,19.312L9.116,19.379L9.007,19.445L8.898,19.511L8.788,19.575L8.678,19.638L8.567,19.701L8.455,19.763L8.342,19.823L8.229,19.883L8.115,19.942L8,20L8,20L8,20L7.885,19.942L7.771,19.883L7.658,19.823L7.545,19.763L7.433,19.701L7.322,19.638L7.212,19.575L7.102,19.511L6.993,19.445L6.884,19.379L6.776,19.312L6.669,19.245L6.563,19.176L6.457,19.106L6.352,19.036L6.248,18.965L6.145,18.893L6.042,18.82L5.94,18.746L5.839,18.671L5.738,18.596L5.638,18.52L5.539,18.443L5.441,18.365L5.343,18.286L5.246,18.207L5.15,18.127L5.055,18.046L4.96,17.964L4.867,17.881L4.774,17.798L4.681,17.714L4.59,17.629L4.499,17.544L4.409,17.458L4.32,17.371L4.144,17.194L3.972,17.016L3.802,16.834L3.636,16.649L3.473,16.462L3.314,16.272L3.158,16.08L3.005,15.885L2.856,15.688L2.71,15.488L2.567,15.285L2.429,15.081L2.293,14.874L2.161,14.664L2.033,14.453L1.908,14.239L1.787,14.023L1.67,13.805L1.557,13.585L1.447,13.364L1.341,13.14L1.238,12.914L1.14,12.687L1.045,12.457L0.955,12.226L0.868,11.993L0.785,11.759L0.706,11.523L0.668,11.404L0.631,11.285L0.595,11.166L0.56,11.046L0.527,10.926L0.494,10.806L0.462,10.685L0.431,10.564L0.401,10.442L0.373,10.321L0.345,10.198L0.318,10.076L0.292,9.953L0.268,9.83L0.244,9.707L0.222,9.583L0.2,9.459L0.18,9.335L0.161,9.21L0.143,9.086L0.126,8.96L0.109,8.835L0.094,8.71L0.081,8.584L0.068,8.458L0.056,8.331L0.045,8.205L0.036,8.078L0.028,7.951L0.02,7.824L0.014,7.696L0.009,7.569L0.005,7.441L0.002,7.313L0.001,7.185L0,7.056L0,4L8,0L16,4ZM1.429,4.883L1.429,7.053L1.429,7.172L1.431,7.288L1.433,7.403L1.437,7.518L1.441,7.633L1.447,7.748L1.453,7.863L1.461,7.977L1.47,8.092L1.479,8.206L1.49,8.32L1.501,8.433L1.514,8.547L1.527,8.66L1.542,8.773L1.557,8.885L1.574,8.998L1.591,9.11L1.609,9.222L1.629,9.334L1.649,9.445L1.67,9.556L1.692,9.667L1.715,9.778L1.739,9.888L1.764,9.998L1.79,10.108L1.817,10.218L1.845,10.327L1.874,10.436L1.903,10.544L1.934,10.652L1.965,10.76L1.998,10.868L2.031,10.975L2.064,11.079L2.136,11.295L2.211,11.506L2.289,11.716L2.371,11.924L2.456,12.13L2.545,12.336L2.637,12.539L2.732,12.741L2.831,12.941L2.934,13.139L3.04,13.335L3.149,13.53L3.261,13.723L3.377,13.913L3.495,14.102L3.617,14.288L3.743,14.473L3.871,14.655L4.003,14.836L4.137,15.014L4.275,15.189L4.416,15.363L4.559,15.534L4.706,15.703L4.856,15.869L5.008,16.033L5.164,16.194L5.325,16.355L5.403,16.431L5.484,16.509L5.565,16.586L5.648,16.662L5.731,16.738L5.815,16.813L5.899,16.887L5.985,16.961L6.07,17.034L6.157,17.106L6.244,17.178L6.332,17.248L6.421,17.319L6.51,17.388L6.6,17.457L6.691,17.525L6.782,17.592L6.874,17.658L6.967,17.724L7.06,17.789L7.154,17.853L7.248,17.917L7.343,17.979L7.439,18.041L7.536,18.102L7.633,18.163L7.731,18.222L7.829,18.281L7.928,18.339L8,18.38L8.072,18.339L8.171,18.281L8.269,18.222L8.367,18.163L8.464,18.102L8.561,18.041L8.657,17.979L8.752,17.917L8.846,17.853L8.94,17.789L9.033,17.724L9.126,17.658L9.218,17.592L9.309,17.525L9.4,17.457L9.49,17.388L9.579,17.319L9.668,17.248L9.756,17.178L9.843,17.106L9.93,17.034L10.015,16.961L10.101,16.887L10.185,16.813L10.269,16.738L10.352,16.662L10.435,16.586L10.516,16.509L10.597,16.431L10.675,16.355L10.836,16.194L10.992,16.033L11.144,15.869L11.294,15.703L11.441,15.534L11.584,15.363L11.725,15.189L11.863,15.014L11.997,14.836L12.129,14.655L12.257,14.473L12.383,14.288L12.505,14.102L12.623,13.913L12.739,13.723L12.851,13.53L12.96,13.335L13.066,13.139L13.169,12.941L13.268,12.741L13.363,12.539L13.455,12.336L13.544,12.13L13.629,11.924L13.711,11.716L13.789,11.506L13.864,11.295L13.936,11.079L13.969,10.975L14.002,10.868L14.035,10.76L14.066,10.652L14.097,10.544L14.126,10.436L14.155,10.327L14.183,10.218L14.21,10.108L14.236,9.998L14.261,9.888L14.285,9.778L14.308,9.667L14.33,9.556L14.351,9.445L14.371,9.334L14.391,9.222L14.409,9.11L14.426,8.998L14.443,8.885L14.458,8.773L14.473,8.66L14.486,8.547L14.499,8.433L14.51,8.32L14.521,8.206L14.53,8.092L14.539,7.977L14.547,7.863L14.553,7.748L14.559,7.633L14.563,7.518L14.567,7.403L14.569,7.288L14.571,7.172L14.571,7.053L14.571,4.883L8,1.597L1.429,4.883Z" style="fill:rgb(38,53,63);"/>
    </g>
    <g transform="matrix(0.625,0,0,0.6,3,5.5)">
        <path d="M4,6.75L7,10L12,5" style="fill:none;stroke:rgb(38,53,63);stroke-width:1.63px;"/>
    </g>
</svg>
