<svg xmlns="http://www.w3.org/2000/svg" viewBox="0 0 502.6 294.8"><defs><style>.a{fill:#9a9dcf}.b{fill:#fff}.c{fill:#1f259d}.d{fill:#080b4d}.e{fill:#f5c244}.f{fill:#010b8d}.g{fill:#a1a3d2}.h{fill:#000b8c}.j{fill:#0e0d53}.k{fill:#161559}</style></defs><path class="a" d="M316.6 294.8l23.4-43.3-19.6-10.7H208.3s-11.5 10.8-12 11.7l-23.1 33.7-6 8.6zM296.1 199a3 3 0 01-1.6 2.1 2.9 2.9 0 01-1.8.2 2.8 2.8 0 01-1.3-.7 2.6 2.6 0 01-.6-.7 2.5 2.5 0 01-.5-1 2.8 2.8 0 011.5-3.1 3.1 3.1 0 011.1-.3 2.9 2.9 0 01.8 0 3 3 0 011.2.5 3 3 0 011 1.1 2.6 2.6 0 01.2.8 3 3 0 010 1zM266.4 197.2a1.4 1.4 0 00-.1-.3 2.5 2.5 0 00-.4-.5 2.8 2.8 0 00-1.1-.6 2.8 2.8 0 00-.6-.1h-.4a3 3 0 00-1.2.3 2.6 2.6 0 00-1 1 2.6 2.6 0 00-.2 2 2.3 2.3 0 00.3.7 2.5 2.5 0 00.6.8 2.7 2.7 0 002 .7 2.5 2.5 0 001-.3 3 3 0 001-.9 2.1 2.1 0 000-.2 4 4 0 00.3-.6 3 3 0 000-.9 3.2 3.2 0 00-.2-1.2zM243 198.5a3.5 3.5 0 01-1.6 3 3 3 0 01-2.6.2 3.4 3.4 0 01-1.7-1 3 3 0 01-.8-2.7 3.3 3.3 0 012.4-2.4 3 3 0 012.7 0 3.2 3.2 0 011.7 3zM229.4 239.1c.2-3.9 0-7.8 0-11.7l.5-10.2.4-5.9a1.5 1.5 0 00-3 0c-.3 7-.5 14-.2 21a56.8 56.8 0 00.7 7c.2 1 1.6.6 1.6-.2z"/><path class="a" d="M276.9 198.4c0 6.4-.3 12.8-.5 19.2l-.3 9.5v9.5a1.7 1.7 0 01-3.3 0 42.3 42.3 0 010-5.4l.1-5.2c.4-12.3 1.1-24.6 1.9-36.8-1.6 0-3.1-.3-4.6-.3l-5.5-.2H255.1a9 9 0 01.2 2.3l.1 2.8.2 5.4v19.6l-.3 9.7-.3 5a31 31 0 01-.6 5c-.2.8-1.5 1-1.7 0a32.2 32.2 0 01-.2-5.6v-5.4-19.6q0-5-.2-9.8v-5l-.2-2.6v-1a4.3 4.3 0 01.4-1.6 1.1 1.1 0 011.2-.6.7.7 0 01.4-.3 26 26 0 015.2-.6l5.4-.2 5.4-.1h5.2a1.6 1.6 0 011.6 1.6 1.6 1.6 0 01-.2.8c.2 3.2.2 6.6.2 9.9zM306 217.5v9.5c0 3.3 0 6.7-.3 10a1.8 1.8 0 11-3.4 0c-.2-3.7 0-7.5 0-11.2l.5-19 .2-9.5.2-4.8V189h-1.6l-2.5-.2-5.2-.3c-2.8-.1-5.7 0-8.5-.3a1.6 1.6 0 010 .4c.1 1.7 0 3.6-.2 5.3s-.1 3.6-.2 5.4l-.5 19c0 6.4-.2 12.9-.5 19.3a.9.9 0 01-1.8 0c-.3-3.6-.4-7.2-.5-10.8q-.2-9.5 0-19l.1-9.7.2-4.7.1-4.9a1.9 1.9 0 01.9-1.4.7.7 0 01.6-.6c3.3-.8 6.8-.7 10.2-.8H304a1.7 1.7 0 011.6 1.7 1.4 1.4 0 010 .3 22.4 22.4 0 01.2 2.6v2.8l.1 5.5c.2 6.3.2 12.6.2 19zM248.7 237.2a1.3 1.3 0 01-2.6 0l.5-10.7a704 704 0 00-.1-36.7h-2.6a1.3 1.3 0 010-2.6h3.8a1.3 1.3 0 011.3 1.3l.3 11c.1 12.5.1 25.1-.7 37.7z"/><path class="b" d="M80.2 127.3c.3 2.5-.8.4-3.3 0 0 0-4.4-.3-5.7 6.7-1.6 8.7 2.1 19 16.9 19.5 0 9.3 2.4 24.6 1.6 38-.3 4.7-3 6.5-5.3 10.4l-2.3 4.2s11 5.5 14.1 6c11 2 16.8.3 27.9-.6 5.5-.4 9.1-7.8 13.6-11-1.7-3.7-1-4.7-.7-8.7.8-7.5 8.2-13.2 15-15.6 16-5.7 19.6-24.3 13.6-51.4-7.4-33.6-9.7-36.6-28.9-37s-51.9 17.4-58.3 35.4z"/><path class="c" d="M200.3 248.5a29.2 29.2 0 00-6-15.4c-5.2-6.3-10.4-8-19-13.4-12.4-7.7-22.3-9.7-36.3-18.4l-1.3-.9-1.3 1.2a37.4 37.4 0 01-24.4 6.9 67.6 67.6 0 01-10.7-1.4l-5.8-1.3-10.4-3-1-.3-.6-.2-.1.1-57.8 32.8a35.6 35.6 0 00-3.6 4 260.8 260.8 0 00-22 55.6h169.6l30.8-45.3-.1-1z"/><path class="d" d="M165.5 252.3l-.2-1.5c-.5-3.5-1-6.7-1.4-10.7-.1-1.2-.3-3-1.1-3.8-1.1-1.1-2.1-2-3.7-1.8-7 .7-19.7 3-22.7 3.3-1.4.1-4.4.3-5.3 1.4-.5.6-.4 3 .2 6.2l.2 1.4c1.1 6.2 3.2 14.4 3.7 17.7l30.7-8.6-.4-3.6z"/><path class="e" d="M150.4 242.9a1 1 0 01-.1.5.3.3 0 01-.1 0v.2h-.2a.1.1 0 010 .1.5.5 0 01-.3.2 1.2 1.2 0 01-.1 0 1 1 0 01-.6-.2 1 1 0 01-.4-.3.8.8 0 01-.1-.3 1.1 1.1 0 010-.4.8.8 0 01.2-.5.6.6 0 01.2-.3.6.6 0 01.3-.2.5.5 0 01.2 0 .5.5 0 01.3.1 1 1 0 01.6.4 1 1 0 010 .7zM158.4 241.6a9 9 0 00-.6-1.8.6.6 0 00-.6-.3.6.6 0 00-.3 0 .6.6 0 00-.4.3 1.2 1.2 0 00-.8.7 2.1 2.1 0 00-.1 1.2 2.7 2.7 0 00.3 1 1.4 1.4 0 001.1.7 1 1 0 001 0c.7-.5.5-1.3.4-1.8z"/><path class="d" d="M81 143a10 10 0 004.4 2 .7.7 0 00.8-.8l-1-5.4c-.3-1.8-.4-3.7-.8-5.4-.3-.8-1.7-.7-1.6.2.2 1.8.7 3.7 1 5.5l1 5.4.9-.8a13 13 0 01-4-1.7c-.6-.3-1.3.5-.8 1zM109 139c.2 1 2 1 2.8 1a12.2 12.2 0 002.7-.5c2-.6 3.8-2 4.2-4a.9.9 0 00-.5-1 .8.8 0 00-1 .2 5.7 5.7 0 01-.4.7l-.2.2v.2a7.3 7.3 0 01-1 .8l-.3.2a6.2 6.2 0 01-.6.4 2 2 0 00-.2 0l-.2.2c-.2 0-.4 0-.6.2a9.6 9.6 0 01-1.2.3h-.6c.2 0 0 0 0 0h-.3c-.8.1-2.3 0-2.5 1zM109.6 152.9a10.8 10.8 0 00.5 5.9 12.6 12.6 0 002.3 3.7 6 6 0 002 1.8 13 13 0 004.4 1c1.3.1 1.6-2.1.3-2.3l-2.2-.4-.8-.2h-.3l-.2-.1a4.6 4.6 0 01-.5-.3l-.2-.2c.3.2 0 0 0 0a6.8 6.8 0 01-.8-.8 10.1 10.1 0 01-1.8-2.8 20.2 20.2 0 01-1-5 .9.9 0 00-.7-1 .9.9 0 00-1 .7zM151.5 131a6.3 6.3 0 00.8 3.2 17.4 17.4 0 001.8 2.9 21.3 21.3 0 002.3 2.5 20.4 20.4 0 003.3 2.6 1.4 1.4 0 101.4-2.3c-1.8-1.3-3.8-2.4-5.6-3.8a10.2 10.2 0 01-2-2.3 8.9 8.9 0 01-.7-1.4l-.5-1.4a.4.4 0 00-.8 0zM139.4 122.4a3.7 3.7 0 00-.2 2v6.2c0 2.5 0 5 1.4 7.2l2.1 3.2a20.1 20.1 0 011.8 3.4 10.8 10.8 0 01.7 6.4 14.9 14.9 0 01-1.2 3.4 13.5 13.5 0 01-.8 1.4l-.5.5-.2.2-.2.2c.1-.1.1-.1 0 0a1.2 1.2 0 00-.4 1.6 1.2 1.2 0 001.6.4c1.9-1.2 3-3.7 3.6-5.7a14.7 14.7 0 00.6-3.2 12 12 0 00-.5-3.8 15 15 0 00-1.7-4 19.9 19.9 0 00-2.4-3 8.8 8.8 0 01-2.2-3.2 16.5 16.5 0 01-.6-3.8v-4.4-2.5a4.4 4.4 0 00-.5-2.5.2.2 0 00-.3 0zM87.8 153.5a10.7 10.7 0 00-.1 3.3v3.7l.4 7.6.5 15.5.5 9.9c0 1 1.4-1 1.4-2L89 161.4l-.3-4a12.4 12.4 0 00-.4-3.8.3.3 0 00-.6 0z"/><path class="d" d="M136.9 193.3a26.8 26.8 0 001.6-3.6 20.2 20.2 0 012-3.2 24.9 24.9 0 014.7-5 55.8 55.8 0 015.5-3.7l2.6-1.6 2.6-1.6a33.3 33.3 0 006-5.8 37.2 37.2 0 005-7.6 23.7 23.7 0 002.5-8 50.3 50.3 0 000-9c-.4-4.8-1.6-9.7-2.3-14.5l-.4-2.5c-.1-1.1-2-.8-2 .3.4 5 1.8 10 2.4 15a54.4 54.4 0 01.3 8.2 23.7 23.7 0 01-.4 4.2 22.8 22.8 0 01-1.2 4 37.6 37.6 0 01-10.2 13.6c-3.2 2.9-7 4.8-10.4 7.4a22.3 22.3 0 00-8.3 11.4 4.8 4.8 0 00-.3 2 .2.2 0 00.3 0zM71.4 132.6a12 12 0 00-.8 3 21.8 21.8 0 00-.2 3.2 21 21 0 00.8 6.5 14.5 14.5 0 009.3 9 16.2 16.2 0 003.9.9 8.8 8.8 0 004.3-.4 1.4 1.4 0 00.7-1.6 1.5 1.5 0 00-1.4-1 6 6 0 00-1.5 0 15.2 15.2 0 01-1.6.1 12.7 12.7 0 01-2.9-.3 15.7 15.7 0 01-5.5-2.5c-3.3-2.3-4.7-6-5-10a19.5 19.5 0 01.1-3.3c.1-1.1.5-2.2.7-3.3 0-.5-.7-.9-1-.4z"/><path class="f" d="M108 99.6c-1.1 4.4-4.6 7.6-8.1 10.3s-7.4 5.3-9.8 9c-.5.9-4.3 10-5.8 10-2.5.1-5.4 0-7-1.8-2.6-7.2-4.4-21.4-4.4-29s2.4-15.2 7.5-20.8c3.6-4 8.5-6.7 12-10.9 1.2-1.6 2.3-3.4 4-4.4s4.5-.5 5.1 1.4l.4-.2a15.8 15.8 0 0121.2-2.3l-.5.2c4.3-4 9.4-7.7 15.2-7.8 7-.2 13.1 4.7 16.6 10.6a9.4 9.4 0 001.8 2.5 2.6 2.6 0 002.9.5l-.7.4a4 4 0 014.8-1.3 8.2 8.2 0 013.8 3.7 17.6 17.6 0 012.3 9.7A35.1 35.1 0 01167 89l-4.7 13.1a2.9 2.9 0 01-1.1 1.5c-2.4 1.5-9.1 5.6-13.7 6a24 24 0 01-16-4.2l-.4-.5c-3.3 2.6-8 3-12 1.7s-7.4-3.7-10.5-6.5z"/><path class="g" d="M113.2 114.8c1.4.1 3.2-1.5 4.3-2.4a11.6 11.6 0 002.8-3.4 11.3 11.3 0 001.4-4.2 3.5 3.5 0 00-1.8-3.8c-1.8-.8-3.6.7-5 1.7l-4 2.7a7.3 7.3 0 00-1.5 1.3l-.6 1a7.3 7.3 0 00-1.4 3.6c0 1.6.6 3.4 2.2 4a5.6 5.6 0 002.8 0 8.4 8.4 0 003-1.3 1.1 1.1 0 00-.8-2l-2 .6a5.8 5.8 0 01-1.9.3 2.7 2.7 0 01-.4 0c.3 0 0-.2 0 0s-.1-.3 0 0a2 2 0 01-.1-.4V112a3.4 3.4 0 010-.5 1.4 1.4 0 010-.3c0-.2-.2.3 0-.1a7.2 7.2 0 01.1-.8l.2-.4a7.7 7.7 0 01.4-.7l.6-1 .2-.2-.1.2.4-.4 3.2-2.2 1.6-1.1a11.5 11.5 0 011.8-1 .9.9 0 01.6 0 1.7 1.7 0 01.2.6v.1a3.5 3.5 0 010 .6 8.5 8.5 0 01-.8 3.1 11 11 0 01-2.2 3.1 11.8 11.8 0 01-1.8 1.1c-.6.4-2.2.4-2 1.2 0 .5.5 1 1 1.1zM154.7 112.2a3.2 3.2 0 003.7-2.9c.2-1.6-.8-3.1-1.6-4.4a18 18 0 00-7.9-6.5 16.4 16.4 0 00-5-1.4 2.6 2.6 0 00-2.4 1.3 2 2 0 000 1.5 20.3 20.3 0 00.9 3.7 13 13 0 002.5 4.2 15.7 15.7 0 004.6 3.7c1.7 1 3.7 1.6 5.6 1a1 1 0 000-1.7 19.3 19.3 0 01-3.7-1 13.4 13.4 0 01-3.6-2.3 14 14 0 01-2.7-3.3 12.3 12.3 0 01-1.2-3.1l-.3-1.5-.1-.5c0 .4 0 .2 0 0l-.1.4.4-.3a3 3 0 011 0 16.2 16.2 0 012 .6 16.4 16.4 0 017 4.5 13 13 0 012.5 3.7 2.7 2.7 0 01.2 1.8c-.2.8-1 1.1-1.8 1.4-.5.1-.6 1 0 1.1z"/><path class="b" d="M168.8 269.8a1.8 1.8 0 01-.8.8l-13.3 6.5a1 1 0 00-.4 1.4v.2a.9.9 0 001 .5c2.5-.2 8-2.8 8.4-3l.8-.4c.8-.3 1-.4 1.3-.1a.7.7 0 01.3.5c.3 2.8-.6 3.8-2.1 5.3l-.2.3a14.1 14.1 0 01-5.8 3.4c-3.6 1.3-5 1.8-5.3 2.7a.7.7 0 00.1.7c.3.3.8.3 1.4.3h.2a11 11 0 003.3-.5h.2a10.3 10.3 0 001-.5 10.2 10.2 0 012-.7s0 .5-.8 1.6c-.3.4-4.1 3.3-7 3.9a44.4 44.4 0 00-7 2.1H124l-9.6-20.6c6.7-2.4 11.4-5.3 13.4-8.2 2.5-3.8 2.1-7.4 1.7-10.5l-.2-1.7a11.8 11.8 0 00-.5-2.5 5 5 0 01-.2-2.7c.2-1.2.5-1.5.6-1.5 1.9-1 2.5-.4 3.9 1.3a13 13 0 011.5 2.7l.8 1.6a15 15 0 0015 7.3 27.6 27.6 0 0010.5-4.1 30.4 30.4 0 002.7-2 27.8 27.8 0 012.5-2c1 0 1.7.3 2.1 2a9.1 9.1 0 01-2.7 8.2 24.5 24.5 0 01-6 3.3l-.6.3-2.1.9c-4 1.7-5.3 2.3-5.6 3a.8.8 0 000 .5.9.9 0 00.4.6c1.2.8 4.3-.2 5.6-.7l7-3h.1l1.9-1.2c.9-.6 1.1-.8 1.4-.7a3.7 3.7 0 011.3 1.8 4 4 0 010 2.9z"/><path class="c" d="M170 270.3a3 3 0 01-1.4 1.5l-12 5.8a52.2 52.2 0 006.5-2.7h.1l.7-.2a2.4 2.4 0 012.6-.1 2 2 0 011 1.5c.2 3.4-1 4.7-2.6 6.3l-.2.3a15 15 0 01-6.3 3.8l-3 1a10 10 0 001.9-.3l.2-.1a9.3 9.3 0 001-.4c1.4-.6 2.5-1 3.2-.6a1.3 1.3 0 01.5.9 4 4 0 01-1.1 2.6c-.6.7-4.6 3.8-7.7 4.4a34.3 34.3 0 00-3.3.8h-4a44.4 44.4 0 017-2.1c2.8-.6 6.6-3.5 7-4 .8-1 .8-1.4.8-1.5a10.2 10.2 0 00-2 .7 10.3 10.3 0 01-1 .5h-.3a11 11 0 01-3.2.5h-.3c-.6 0-1 0-1.4-.3a.7.7 0 010-.7c.2-.9 1.7-1.4 5.2-2.7a14.1 14.1 0 005.8-3.4l.2-.3c1.5-1.5 2.4-2.5 2.2-5.3a.7.7 0 00-.4-.5c-.3-.2-.5-.2-1.3.1l-.8.3c-.5.3-5.9 2.9-8.4 3.1a.9.9 0 01-.9-.5l-.1-.2a1 1 0 01.5-1.4l13.3-6.5a1.8 1.8 0 00.8-.8 4 4 0 000-3 3.7 3.7 0 00-1.3-1.8c-.3-.1-.5 0-1.4.7l-2 1.2-7 3c-1.3.5-4.4 1.5-5.6.7a.9.9 0 01-.4-.7.8.8 0 010-.4c.2-.8 1.5-1.4 5.6-3l2-1 .7-.2a24.5 24.5 0 006-3.4 9.1 9.1 0 002.7-8c-.4-1.8-1.1-2.2-2.1-2a27.8 27.8 0 00-2.5 1.9 30.4 30.4 0 01-2.8 2 27.6 27.6 0 01-10.3 4.2 15 15 0 01-15-7.3l-.8-1.6a13 13 0 00-1.6-2.7c-1.3-1.7-2-2.3-3.9-1.3-.1 0-.4.3-.6 1.5a5 5 0 00.2 2.7 11.8 11.8 0 01.5 2.5l.2 1.7c.4 3.1.9 6.7-1.7 10.5-2 2.9-6.6 5.8-13.3 8.2l9.6 20.6h-1.4l-9.8-21.4.6-.2c7-2.4 11.4-5.2 13.3-8 2.3-3.4 1.9-6.5 1.5-9.6l-.2-1.7a10.5 10.5 0 00-.4-2.2 6.3 6.3 0 01-.3-3.3c.2-1 .5-2.1 1.3-2.5 3-1.5 4.2 0 5.5 1.6a14.6 14.6 0 011.7 3l.7 1.5a13.6 13.6 0 0013.7 6.7 26 26 0 0010-4 26.5 26.5 0 002.5-2 28.7 28.7 0 012.8-2h.2c2-.3 3.2.7 3.8 3a10.4 10.4 0 01-3.1 9.3 25.5 25.5 0 01-6.4 3.6l-.6.3-2.1.9-4.4 1.9a12.3 12.3 0 003.9-1l6.8-3 1.8-1c1-.7 1.7-1.2 2.6-.8a4.7 4.7 0 012 2.5 5.2 5.2 0 010 4z"/><path class="c" d="M126.3 294.8l-8.1-14.7c-1-1.9-2.3-3.9-4.3-4.7s-4.4 0-6.4.7c-14.4 5-30.1 10.3-42.9 18.6l-.3.1z"/><path class="f" d="M114.5 272l-1 .7.3-.5z"/><path class="f" d="M67.8 294.8c5.6-2.9 11.2-5.8 17-8.5a187 187 0 0120.6-8.4l6-1.8 2.9-.8a49.6 49.6 0 005 9.1l3 5.3 2.8 5.1h3.5a3.2 3.2 0 00-.2-.3l-3-5.4c-1-1.8-1.9-3.7-3-5.4l-3.2-5.2a27.6 27.6 0 01-2.6-6 1.6 1.6 0 00-1.3-1 1.6 1.6 0 00-1.6.7l.7-.2-1 .7.3-.5a146.4 146.4 0 00-20 6.7c-6.7 2.8-13.4 6-19.9 9.2l-11 5.7a1.5 1.5 0 00-.8 1z"/><path class="b" d="M355 206.6c8.2-.1 17.4-.6 25.1-3 2.9-1 6-2.4 7-5.2s-1.9-7.2-4.5-9-5.6-2.6-8.5-3.9c-9.4-4-16-13-19.1-22.8s-2.8-20.3-1.3-30.5c1.8-11.7 6.1-24.5 16.8-29.7a37.5 37.5 0 0121.9-1.7 147.8 147.8 0 0145.7 14.7c5.3 2.7 10.6 6 13.6 11 3.9 6.7 2.9 15.4-.3 22.5s-8.3 13-12.7 19.5-7.6 12.9-7.6 20.6a24.4 24.4 0 0016.9 23 51 51 0 019.6 3.7c3.2 1.7 6.6-2.8 5.2.5-1 2.5-5 12-7.6 12.8-18.2 6.4-15.6 8.7-34.8 11-11.2 1.5-33-4.2-43.1-9.3s-29.3-6.3-27.5-17.5a10.6 10.6 0 013-6.4c1.7-1.6 5.5-.6 7.4.8z"/><path class="h" d="M279.4 94a.8.8 0 00-.7-.4 1 1 0 00-.7.3 1.2 1.2 0 00-.3.6 1.1 1.1 0 00.2 1 1.3 1.3 0 001.5.3 1.5 1.5 0 00.7-.5 1.6 1.6 0 00.4-1 2 2 0 00-.3-1 2.4 2.4 0 00-.7-.8.6.6 0 00-.6 0 1.8 1.8 0 00-.8 2.1 1.7 1.7 0 00.2.6 1.4 1.4 0 00.7.5.9.9 0 001-.5 1 1 0 000-.6 1.2 1.2 0 00-.3-.8 1 1 0 00-.8-.3.7.7 0 00-.4.2.6.6 0 00-.2.4.7.7 0 00.6.7h.1-.2.1-.1l-.1-.2a.3.3 0 010 .1v-.1a1.2 1.2 0 010 .1.8.8 0 010-.1.5.5 0 010 .1.9.9 0 000-.1.4.4 0 010 .1 1.1 1.1 0 000-.2.3.3 0 010 .1v-.1a.6.6 0 00.1 0v-.1h.7l-.2-.1h.1a1 1 0 01-.1 0 1.6 1.6 0 010-.2v.2a1.4 1.4 0 01-.1-.4v.2a1.1 1.1 0 010-.4v.2a1.6 1.6 0 010-.3v.1l.1-.1v-.1c0-.1-.1.1 0 0l.1-.1s-.1 0 0 0h-.6.1s-.1-.1 0 0l.1.1.1.1c0 .1 0-.1 0 0l.1.2c0 .2 0 0 0 0v.4a1 1 0 010-.2 1.7 1.7 0 010 .4.8.8 0 010-.2 1.6 1.6 0 010 .2c0 .1 0 0 0 0a.4.4 0 010 .1c0 .1.1 0 0 0h-.1l-.1.2s-.2 0 0 0h-.2.1-.1s0-.1 0 0 .1 0 0 0a.4.4 0 010-.1s0 .2 0 0c0-.1 0 0 0 0v-.2.1a1 1 0 01.1-.2c0 .1 0 0 0 0h.1c.1 0 0 0 0 0h.1a.3.3 0 00.3 0 .3.3 0 000-.4z"/><path class="f" d="M365.3 106.1s4.7 12.3 39.5 8.9c.3.3 12.6 17.8 37.1 8.1.3 0 4.4 23 4 24.1s-28.3 14.7-17.2 35.6c11.7 16.8 26.5 11.5 28.1 5.6 0 0 7.2 3.9 13 1.8 6.2-2.3 7.6-8.8 7.6-8.8s4.7 3.4 10.5-.7c7.7-5.4 10.6-18.7 0-37a114.7 114.7 0 00-25.7-30.8c-5.2-5.4-22-50.3-60.4-50.7-22.4 2.6-29.6 9.1-39.7 16.7-8.5 6.3-18 33-22.1 38.6-9.8 13.1-23 26.8-23 41.7 0 17.6 21.2 20.1 24.2 19-.3.3-4.5 10.6 6.8 13.7 7.2 2 11.5-4.4 11.5-4.4s4.3 5.8 10.8 6.5c6.5.5 14.7-4.9 14.7-4.9a47 47 0 01-19.4-22.5c-7.6-18.6-.3-61.3-.3-61.3z"/><path d="M502.6 294.8c-3.4-15.3-10-42.5-10.2-41.9a114.8 114.8 0 01-8-15c-2-4.4-2.6-7-6.3-10.1-2.9-2.5-6.4-5.3-9-8-2.1-2.2-4-3.5-6.4-2.1-13.2 7.9-8.2 5.5-25.2 12.3-4.5.7-12.8 4.4-30.1 5.6a6 6 0 01-1.5 0c-6.4-1.3-12.7-2.9-19-4.4-.8-.2-6.8-2.6-8.8-4.6-1.5-1.3-9.5-6.9-11.4-8.5a78 78 0 01-10.2-10.6c-.1-2.5-1.7-1.6-3.2-1.5-3.7.3-6.5 2-9.3 3.7a27.3 27.3 0 00-7.3 6c-2.2 2.9-4.8 5.3-7 8.2-1.7 2.6-2.8 5.6-4.7 8a52.4 52.4 0 00-6.7 12.4c-3.1 7.7-6.5 15.2-8.7 23.2a80.8 80.8 0 00-3 21.2c0 1.4-.3 3.8-.6 6z" fill="#2120a4"/><path class="f" d="M344.6 291.6s-5.7-7.3-5.4-10.2c.9-6.4 3.6-12 7.2-17.2a49.8 49.8 0 007.1-17 4.2 4.2 0 01.7 4c-1.3 5.5-3.6 10.6-6.2 15.7s-7.3 11.1-5.7 16.5z"/><path class="j" d="M420.6 101.1c-3.8-2.9-8.6-3.4-12.8-5.2-.3-.2-.5 0-.8 0a3.8 3.8 0 00-2.7 4c0 3.1 2 5 4.5 6.6a20.4 20.4 0 009 2.7c2.6.2 5 0 7-2h.2v-1.4a19 19 0 00-4.4-4.6zm1.5 5c-.3.9-1.5 1-2.5 1a6 6 0 01-1.9 0 18 18 0 01-10.1-4 3.4 3.4 0 01-1-3c0-1.3.7-1.8 2-1.6a26.6 26.6 0 0112 5c.8.6 2 1.4 1.5 2.5zM376.6 99.6a6 6 0 00-7-.3c-.3.3-.8.4-1.2.6a64.5 64.5 0 00-7.8 4.4 3 3 0 00.2 5.1 6.2 6.2 0 003.4 1 15.8 15.8 0 0010.4-4.4 6.8 6.8 0 002.6-4.6c0-.7.1-1.3-.6-1.8zm-1.5 2.2a6.6 6.6 0 01-2.2 2.5c-2.1 1.7-4.3 3.4-7 4l-1.3.3a9.6 9.6 0 00-1 0c-.9 0-1.8-.3-2-1.1s.6-1.3 1.1-1.8c3-2.3 6.7-3.5 10-5.3a3 3 0 011.6 0c1 .1 1.2.4.8 1.5z"/><path class="k" d="M395.7 128.8c-.3 5.4-3.2 8.7-6.4 12.2a27.4 27.4 0 00-4.8 7c-.5 1.6.5 4.4 3.1 6 1.1.8 2.3.4 3.5 1 .5.1.9.3.7 1a1.2 1.2 0 01-1 .8c-3.6.7-9.3-4.9-8.3-8.3s2.6-5.2 4.6-7.9c2.7-3.6 6.7-6.9 7-11.8.1-2-.2-2.8-.6-6.1a7.8 7.8 0 01-.1-2.4c0-1 .9 1.3 1 2.2l1.3 6.3zM417.2 161.4c-.3 4.3-4.7 9-8.7 9.2a9.8 9.8 0 01-3.1-.8.8.8 0 01-.5-.9c0-.6.4-.6 1-.6 4.2 0 7-2.3 8.7-6l1-1.5c.3-.5.7-1 1.3-.7a1 1 0 01.4 1.3z"/><path class="f" d="M346 209.4c3.5-2.3 7.7-2.5 11.8-2.2 2.2.1 4.4.3 6.7.3a43.6 43.6 0 006.5-.5 40.5 40.5 0 0012-3.5 11.3 11.3 0 004.1-3.3 7 7 0 001.3-5.2c-.3-2-1.5-3.4-2.6-5a12.4 12.4 0 00-5.3-4c-.4-.2.1 2.2.2 2.7a1 1 0 001.1.6c1.2-.2 2.1 1.3 2.7 2 .9 1.4 2 2.5 2.2 4.2a5.5 5.5 0 01-1.3 4.3 11.4 11.4 0 01-4 2.7 42.4 42.4 0 01-11.5 3 53 53 0 01-6 .6l-6.3-.3c-4.2-.2-8.8 0-12 3-.5.4 0 1 .5.7zM440.7 209a25 25 0 005.4 3.3 45.8 45.8 0 007.4 2.3c2.5.6 5 1.2 7.5 2a30.3 30.3 0 016 2.7 48.2 48.2 0 0116.7 19.3 135.4 135.4 0 0110.7 27.9 151.1 151.1 0 014.9 28h2.4a154 154 0 00-4-24.5 144 144 0 00-10.3-29 57.2 57.2 0 00-15.8-20.9 34.4 34.4 0 00-11.9-5.8c-4.9-1.3-10-2-14.5-4.3a25.5 25.5 0 01-13.7-19.9l-.2-3a.3.3 0 00-.6 0 22.8 22.8 0 002.3 12.1 27.6 27.6 0 007.7 9.8z"/><path class="d" d="M116.2 129c-.1.8-.1 2-.8 2.5a1.8 1.8 0 01-1.6.3 3.5 3.5 0 01-1.7-2.5l-.7-3.8c-.2-1.3-.3-2.3.6-3.2a2 2 0 013 0 5.5 5.5 0 011 3 14.7 14.7 0 01.2 3.7z"/><path class="f" d="M28.8 238.2c1 2.7 2.3 5.4 3.5 8l3.8 7.9c2.4 5 4.7 10.2 6.7 15.5 1.2 3 2 6.2 3.3 9.2a1.7 1.7 0 002 1.1 1.6 1.6 0 001-2 15.6 15.6 0 00-.4-2.1 127 127 0 00-5.7-14.3c-2.4-5.2-5-10.4-7.7-15.5-1.4-3-2.8-6-4.5-8.7-.6-1-2.5-.4-2 .8zM83.5 202.5a2.8 2.8 0 00.7 1.2 9 9 0 001.2.8A21.6 21.6 0 0088 206a52.3 52.3 0 0016.1 4.7 49.3 49.3 0 0021.8-2.3 51.9 51.9 0 0012.3-5.9 1.8 1.8 0 00-1.8-3 110.8 110.8 0 01-10 5 51 51 0 01-10.5 2.8l-.7.1H115l-1.4.2-2.6.2a49 49 0 01-5.2-.1 47.4 47.4 0 01-10.2-1.9 70 70 0 01-5.8-2l-2.7-1.2-1.5-.6a3 3 0 00-1.6 0 .6.6 0 00-.4.6zM171.6 294.8l165.5-241-2.2-1.5-166.4 242.5h3.1z"/><path class="b" d="M204.6 113c18 11 76 10.8 111.3-3l1.5.8A55.4 55.4 0 00332 125c2.4 1.6 5.5 3.6 6.9 2.6 1.2-.8.9-4 .9-5.4a37.8 37.8 0 00-7.1-22.5c13.9-10 22.8-27.5 18.7-44S334.8 19.8 320 11.3 287.6-.6 264.4.2c-18.6.5-37.4 1-54.7 8s-31 20.6-36.6 38.4 5.7 39.2 15.4 55c-3.8 3-6.3 6.8-8.6 11-.8 1.5-2.3 4-1.5 5.4 1.3 2.1 6.6 1.8 9 1.1 6.7-2 17.2-6.1 17.2-6.1z"/><path class="a" d="M256.9 78.3c-.6-3.4-3.2-3.4-5.5-3.3H249a3.8 3.8 0 000-1v-1.6c0-1-.3-2-1.5-2a13.3 13.3 0 00-1.4 0H244l-4.5-.2c-1 0-2.4 0-3.1.7a3.7 3.7 0 00-.7 2.6 7.8 7.8 0 00.1 1.9v.2h-.2l-3.8.2c-1.4 0-3 .2-4 1.3a4.8 4.8 0 00-.7 2.8l.2 12.8a3.4 3.4 0 003.4 3.4l20.5.4c1.6 0 3.4 0 4.3-1.4a5 5 0 00.7-2.6L257 80a7 7 0 000-1.8zM236.8 74a5.6 5.6 0 01.2-2 .8.8 0 01.1-.1 1.4 1.4 0 01.4-.2 7.4 7.4 0 011.4-.1h7.2a9 9 0 011.2 0h.2a2.6 2.6 0 010 .5 7.3 7.3 0 01-.1 1.1 7.7 7.7 0 01-.2 1.2 1.5 1.5 0 01-.7.8l-7 .2-2.8-.3V74zM236.7 76.7zM237.1 71.8z"/><path class="a" d="M247.6 71.7h-.1v-.1.1z"/><path d="M237.6 70.3c0 .7-.3 1.6.3 1.9s5 0 6.2 0a9 9 0 002.4-.1c.5-.2.3-2.3-.1-2.5a9.3 9.3 0 00-2.1 0c-1.6 0-5.8-.2-6.3 0z" fill="#f5bf42"/><path class="e" d="M291.4 37.7A15.6 15.6 0 01287 31c-.4-1.3-.5-3 .6-3.8a2.4 2.4 0 012.5.1 7 7 0 011.8 1.9l4.2 5.4a5.8 5.8 0 012.4-1.5 2 2 0 012.4 1.1c.1.5 0 1 .3 1.5.4.5 1.2.5 1.9.5a6.6 6.6 0 015.4 2.9 5.9 5.9 0 001.3 1.7 1.3 1.3 0 002-.2 3.3 3.3 0 01-1.4-5 4 4 0 015.4-.7 5.2 5.2 0 011.7 5.5 7.3 7.3 0 01-3.8 4.5 12.7 12.7 0 01-5.8 1.2 20.6 20.6 0 01-16.8-8.9z"/><path class="h" d="M231.1 84.4l5.8-.2 5.6-.1c3.7 0 7.5 0 11.3.4 1.5.1 1.5-2.3 0-2.3h-11.4a101.5 101.5 0 00-11.5.7c-.8.1-.6 1.5.2 1.5z"/><path class="a" d="M291.3 40.6l4.4 10.8a6 6 0 001.7 2.7 6 6 0 003.8.7l9.2-.3a7.8 7.8 0 003.7-.7 7 7 0 002.3-2.6c2-3.4 3.1-8 4-11.8-11.4-.2-17.8 0-29.6.8z"/><path class="h" d="M291.4 40.7c3.8.1 7.5-.1 11.3-.2h14.7a12.3 12.3 0 003.2 0 .8.8 0 000-1.5 10.6 10.6 0 00-2.8-.2h-8.6c-3.8 0-7.7.1-11.5.3a40.1 40.1 0 00-6.4.8c-.5 0-.3.7.1.8z"/><path class="h" d="M300.7 39.5c1.7-2.6 2.5-5.6 3.8-8.4l1-2 .2-.4h-.4l.3.4a46.7 46.7 0 013.3 5.9l1.2 2.6.6 1.4a3.7 3.7 0 00.8 1.1.7.7 0 001.1-.5 3 3 0 00-.1-1.3l-.7-1.4a59.9 59.9 0 00-4.3-7.7c-.4-.7-.9-1.9-1.7-2-1-.3-1.5.8-1.9 1.5a35.9 35.9 0 00-2 5l-2 5.5a.5.5 0 00.7.4zM298.2 46.7h1a.7.7 0 00.4-.1.6.6 0 00.2-.5.7.7 0 00-.2-.4.6.6 0 00-.4-.2 2.6 2.6 0 00-.5 0l-.5.1a.4.4 0 00-.2 0 .4.4 0 00-.1.1.5.5 0 00-.2.4.5.5 0 00.2.3v.1a.5.5 0 00.3 0zM307 44l.4.1a1.1 1.1 0 00.3.2.7.7 0 00.2 0 .5.5 0 00.3-.1l.1-.1a.3.3 0 00.1-.2.2.2 0 000-.1.3.3 0 000-.2.5.5 0 000-.2.4.4 0 00-.3-.1.9.9 0 00-.2-.1h-.1l-.4-.1a.6.6 0 00-.4 0h-.1a.4.4 0 00-.1.2.3.3 0 000 .2.3.3 0 000 .2.5.5 0 00.2.3zM305.5 49.4a1.6 1.6 0 000-.1 1 1 0 00.5.6l.5.2.5.2a1.8 1.8 0 00.4.2.8.8 0 00.6 0 .6.6 0 00.3-.4.7.7 0 000-.4c-.1-.4-.5-.6-.8-.7l-.5-.1-.5-.1a1.6 1.6 0 00-.4 0h-.1a.6.6 0 00-.4 0h.3-.1a.4.4 0 00-.3.6z"/><path class="a" d="M238.4 198.6v-.1c0 .2 0 0 0 0zM238.4 198.3zM238.4 198zM238.5 199v-.1.1zM238.6 199zM238.7 199.2h-.1c-.1 0 0 0 0 0zM238.7 197.7l-.1.1zM238.8 199.3zM239 197.4zM239.1 199.5zM239.3 199.5zM239.4 199.6zM239.4 197.2zM239.9 197zM240 197.8zM240 199.3h-.1s0 .1 0 0H239.5 240h-.1.1-.2.1-.1l-.2-.2v.1a.7.7 0 000-.1h-.5.2v-.1a.8.8 0 000-.2.6.6 0 000 .2v-.2.2a.4.4 0 010 .1l.2-.1c-.1 0 0 0 0 0s.1 0 0 0c.1 0 .2 0 0 0s.2 0 0 0 .2 0 0 0c0 0 .2.2 0 0V199.7H240zM240.2 199.1s-.2.2 0 .1zM240.4 199l-.1.1v-.1z"/><path class="h" d="M313.8 47.3H316.4a1 1 0 00.4 0 .7.7 0 00.4-.8.7.7 0 00-.5-.5 2.3 2.3 0 00-1 0l-.7.1-1.3.3a.5.5 0 00.1 1zM294.4 90.5c0-.2 0-.1 0 0zM296.2 90.5zM294.4 90.5c0-.2 0-.1 0 0zM296.2 90.4zM296.2 90.5zM306.3 70c-2.1-.7-4 1.3-4.6 3.2-.6 2.1.1 4.5 0 6.7a17.5 17.5 0 01-.7 5.1 6.5 6.5 0 01-2.6 3.7 8.4 8.4 0 01-4.9.9 9.6 9.6 0 01-4.8-1.6c-2.8-2-3-6.3-3-9.4l.3-3.2a6.8 6.8 0 00-.5-3.8c-1-1.7-3.6-2.5-4.9-.7-.4.6.5 1.2 1 .7a1.4 1.4 0 011.8.1 2.8 2.8 0 01.9 2.4l-.3 3a26.9 26.9 0 00-.1 2.7c0 3.5.7 7.5 3.8 9.7a10.8 10.8 0 004.8 1.9 14 14 0 001.8.1V96c0 2.3.1 4.7-1.6 6.3a10.6 10.6 0 01-5 2.3 5.7 5.7 0 01-2 0 5.8 5.8 0 01-5-5.2A4.1 4.1 0 00283 98c1.4-1.9 1-4.5-1-6.2s-5.8-.1-6.5 1.1a4.4 4.4 0 00.2 4.2 4.8 4.8 0 003.4 2.4 1.3 1.3 0 00.3 0 7 7 0 002.4 5 7.3 7.3 0 005.2 1.7 12.6 12.6 0 002.8-.6 11.4 11.4 0 003-1.3 6.8 6.8 0 002.3-2.6 9.1 9.1 0 00.8-4l.2-4.6v-1.6a8.7 8.7 0 001.7-.4 7.1 7.1 0 003.9-3 13.6 13.6 0 001.7-5 26 26 0 000-6.4 6 6 0 01.4-3.6 2.3 2.3 0 012.1-1.3.9.9 0 00.3-1.7zm-12 20.5c0-.2 0-.1 0 0zm1.9 0z"/><path class="a" d="M277.9 94.2a1.8 1.8 0 000 1.7 2 2 0 001.4 1 1.6 1.6 0 001.6-.7 1.7 1.7 0 00-.4-2.4 2 2 0 00-2.6.4z"/><path class="e" d="M285.3 79c0 .7 1 1.4 1.5 1.8A9.7 9.7 0 00289 82a11.6 11.6 0 004.8.6 22 22 0 004.3-.5 7.2 7.2 0 003.8-1.9 1 1 0 00-1.3-1.3c-2 1.5-4.5 1.7-6.8 1.8a11.8 11.8 0 01-4-.3 11.5 11.5 0 01-2-.9l-1-.5c-.3-.2-.6-.5-1-.4a.5.5 0 00-.4.4z"/><path class="a" d="M228.7 46.7a12.3 12.3 0 01-3.6 2 .8.8 0 00-.6.7 2.4 2.4 0 010 .3c0 1.6.2 4.7-.7 5.6a21.7 21.7 0 01-5.5 3.5 22.6 22.6 0 01-7.8 1.8c-2.7.1-9-3-10.9-5-.7-.7-.8-2.7-.5-5a.8.8 0 00-.3-.8 79.4 79.4 0 01-4-3 .8.8 0 010-1.1 19.4 19.4 0 012-1.5c3-1.5 3.3-2 6.1-3.6 3.1-1.8 8-5 9.8-4.6 4.4.9 11.2 6.5 16 9.5a.8.8 0 010 1.2z"/><path class="h" d="M222 50c-1.3.5-2.5 1.2-3.8 1.9l-4 1.9-1.4.7a5.3 5.3 0 01-.6.2 1.5 1.5 0 01-1-.1c-1.5-.5-3.2-1-4.7-1.7a29.7 29.7 0 01-5.1-3c-.6-.4-1.2.5-.6 1l4.6 3a22.3 22.3 0 005 2.3 3.5 3.5 0 002.7 0l1.3-.5 3.9-2a18 18 0 004.2-3c.3-.3 0-.9-.4-.7z"/><path d="M197.3 67l.3-2.1a10 10 0 01.5-1.8 12.8 12.8 0 011.8-3.3c1.8-2.2 3.8-4.2 5.2-6.6a.9.9 0 00-1.5-.9c-1.6 2.4-3.7 4.5-5.3 6.9a12.3 12.3 0 00-1.8 3.5 7.3 7.3 0 00-.1 4.3c.1.4.9.5 1 0z" fill="#f5c345"/><path class="a" d="M249 16.3c6.5.1 14-.5 20.6-.3a.6.6 0 01.6.6c-.8 9 .8 19.5.5 28.8a.6.6 0 01-.5.6h-22a.6.6 0 01-.6-.5c-1.2-8.1-.5-23.2-.2-27.8a1.6 1.6 0 011.5-1.4z"/><path class="h" d="M253.5 25.5a8.9 8.9 0 002.5.1H264.1a.7.7 0 000-1.3l-5.4.1H256a9.3 9.3 0 00-2.5.3.4.4 0 000 .8zM253 32a4.5 4.5 0 001.4.2h7.1a7.3 7.3 0 002.9-.2c.5-.3.3-1-.1-1.1a3.4 3.4 0 00-1.5-.1h-1.5l-2.8.1-2.8.2a8.2 8.2 0 00-2.8.3c-.4.2-.2.6.1.8zM253.7 37.7a5.8 5.8 0 002.7.2h3l3-.1h1.5a3.3 3.3 0 001.4-.2c.6-.3.3-1-.1-1.2a3.8 3.8 0 00-1.5 0h-1.5l-3 .2-2.8.2-1.5.1a2.7 2.7 0 00-1.3.3.3.3 0 000 .6z"/><path class="b" d="M250.5 8.1a11.7 11.7 0 00-4.7 1.3 6 6 0 00-3 3.7 5.4 5.4 0 002.2 5.3 7.3 7.3 0 005.8 1.1 5 5 0 003.6-2.6c.8-1.8 1.4-3.7.3-5.6a9.3 9.3 0 00-2.7-2.7 3.5 3.5 0 00-2.8-.3z"/><path class="e" d="M429 127.5v-.4c0-9.3-6.7-16.9-15-16.9-8 0-14.5 6.8-15.1 15.3H389c-1.4-7.6-7.2-13.4-14.2-13.4-8 0-14.5 7.6-14.5 16.9s6.5 16.8 14.5 16.8 14.5-7.6 14.5-16.8v-.4h9.6c.7 8.6 7.2 15.3 15.1 15.3 7.3 0 13.4-5.7 14.8-13.3l18.3 1 .1-3zm-54.2 15.3c-6.3 0-11.5-6.2-11.5-13.8s5.2-13.8 11.5-13.8 11.4 6.2 11.4 13.8-5.1 13.8-11.4 13.8zm39.1-2c-6.6 0-12-6.1-12-13.7s5.4-13.8 12-13.8 12.2 6.2 12.2 13.8-5.5 13.8-12.1 13.8z"/><path d="M243.9 18.2a51 51 0 01-4.3 8.3c-.4.5.1.4.3.3l5.6-2.4a.2.2 0 01.3 0l1.8 4.7c.4 1 .5 1.4 1 1.1s1.8-7.2 2.7-10.6a.2.2 0 00-.3-.2c-2.1.7-4.3.1-6.5-.6z" fill="#f5c142"/><path class="h" d="M256.1 12.2a7.5 7.5 0 00-2.5-3.7 5.2 5.2 0 00-3-.8 12.7 12.7 0 00-4 .6h-.1a7.2 7.2 0 00-3.8 3 6 6 0 001.6 7.6 8.2 8.2 0 008.3 1 5.4 5.4 0 002.8-3 7.6 7.6 0 00.7-4.7zm-2.2 3.4a4 4 0 01-1.7 2.4 6.5 6.5 0 01-6.4 0 4.5 4.5 0 01-2-5.6c.8-1.8 2.5-2.7 4.4-3.3 1-.3 3.4-.1 4.2.5a7 7 0 011.8 2c.6 1.2.1 2.8-.3 4z"/><path class="h" d="M250.5 7.7a12.7 12.7 0 00-3.8.6 10 10 0 013.8-.6zM251.9 12.5a8.9 8.9 0 01-1 1l-1 .9a21.9 21.9 0 00-1.6 2 .6.6 0 01-1 0l-1-1a6.8 6.8 0 01-1-1c-.2-.3.3-.7.6-.5a7.3 7.3 0 011.2.8l.6.5 1.3-1.7.9-1a5.6 5.6 0 011-1 .7.7 0 01.9.1.7.7 0 010 1z"/><path class="d" d="M157.6 123.6a7.3 7.3 0 00-.2-1.3c0-.8-.6-1.2-1.4-1.6a.7.7 0 00-.3-.1h-.2a1.8 1.8 0 00-.9.6 4.8 4.8 0 00-.3.5 3.5 3.5 0 00-.2.6 13.5 13.5 0 00-.2 1.4l-.2 2.2a6.5 6.5 0 000 2 2.7 2.7 0 002 2 1.6 1.6 0 001.9-1.7v-4.6z"/><path class="d" d="M154.6 121.2a4.8 4.8 0 00-.3.6 3.5 3.5 0 00-.2.5 2 2 0 01.5-1zM155.5 120.6a1.8 1.8 0 00-.9.6.6.6 0 01.1-.2 1 1 0 01.5-.4.6.6 0 01.2 0zM155.7 120.6z"/><path class="f" d="M457 294.8c-1.5-8-3.9-22.6-4.5-26.8a1.5 1.5 0 00-1.4-1.2 2 2 0 00-1.4 2.3c.3 4 2.5 17.6 4 25.7z"/><path class="d" d="M412.6 128.4a13 13 0 01-.3 3.1c-.2.7-.3 1.9-1 2.2a1.6 1.6 0 01-1.4 0 3 3 0 01-1.3-2.4l-.1-3.4a3.2 3.2 0 01.9-2.8 1.8 1.8 0 012.5.3 4.9 4.9 0 01.7 3zM374.6 125.5a1.8 1.8 0 00-2.5-.4 3.2 3.2 0 00-.9 2.8l.1 3.4a3.1 3.1 0 001.3 2.5 1.6 1.6 0 001.3 0c.8-.4 1-1.5 1-2.2a13.6 13.6 0 00.3-3.2 4.9 4.9 0 00-.6-3z"/><path class="j" d="M464.2 150a12 12 0 01-9.7 8.7c-3.6.8-6 .3-9.5-.9a47.4 47.4 0 01-5.2 9.8 21.5 21.5 0 01-5.3 5.5 39.8 39.8 0 01-12.5 6 70.6 70.6 0 01-13.8 2.3 3 3 0 00-2 .6c-2.5 2.4-8.7 3.1-11.8 1.5-2.1-1-2.2-3.1-2.2-5 0-1.5 1-2.6 2.9-3a30.2 30.2 0 017.8-.6c1.1.1 2.6.6 3 1.9a2 2 0 002.5 1.3c7.2-1 14.2-2.4 20.7-6a25.3 25.3 0 0011-12.5l1.6-3.2a6.1 6.1 0 00-1.3-1.2c-4-2.3-4-8-2.5-11.9a36.2 36.2 0 013.7-7.5c1.2-1.6 2.8-2.3 4.2-3.5 1-2.5.3-8.5-.5-10.8a73 73 0 00-14-25c-4.2-5-9-9.6-15-12.7a43.4 43.4 0 00-28.8-3.7c-8.1 1.6-16 3.5-23.5 7-.5.2-1.2 1-1.8.2s0-1.3.4-1.8c2.4-3.3 5.7-5.4 9.1-7.4 2-1.1 3.8-2.4 5.9-3.3a48.7 48.7 0 0116.4-5 42.1 42.1 0 0115.2 1.7 41.4 41.4 0 0113.9 7.1c3.6 2.8 6.7 6.2 10 9.4 4 3.8 6.8 8.3 9.8 12.8a58.3 58.3 0 016.5 13.4 54 54 0 013 14 2.5 2.5 0 001.6 2.2 22 22 0 019.7 11.5c.6 1.5.7 7.5.5 8.1zm-22.4-3.7c-.2 3.4.7 5.8 3 7.2 2.8 1.9 6 2.6 9.4 1 3.7-1.8 5.7-4.7 5.5-9-.3-5-3.4-8.4-6.7-11.7a1.3 1.3 0 00-1-.3c-2.4.9-5.2 1-6.8 3.6-1.9 3.1-3.5 6.2-3.3 9.3z"/><path d="M453.3 133.9h-.3c-3.6-.3-6.2.6-7.8 3.2-2 3.1-3 4.6-3.3 9.3-.2 3.3.6 5.7 2.8 7.2 3 1.8 6.2 2.5 9.5 1l1.3-.7a10 10 0 004.8-8.5c.1-6-3.5-11-7-11.5zm.5 14.6a6.4 6.4 0 01-.5.6c-1.1 1.3-3.6.2-4.1-1.7a6.2 6.2 0 012.4-7.2 11.3 11.3 0 011.8.6 2.8 2.8 0 011.7 2.3 7 7 0 01-1.3 5.4z" fill="#fdfdfe"/><path class="j" d="M451.6 140.2c2.5-.7 3.2.9 3.5 2.9a7.1 7.1 0 01-1.8 6c-1.1 1.3-3.6.1-4.1-1.8a6.2 6.2 0 012.4-7.1z"/></svg>