<svg width="64" height="64" viewBox="0 0 64 64" fill="none" xmlns="http://www.w3.org/2000/svg">
<circle cx="32" cy="32" r="32" fill="#EF4056"/>
<path d="M29.3333 48L38.6667 28L48 48M32 42.6667H45.3333H32ZM16 20.6596C19.5385 20.2192 23.1009 19.999 26.6667 20L16 20.6596ZM26.6667 20C28.6578 20 30.6364 20.0676 32.5938 20.2027L26.6667 20ZM26.6667 20V16V20ZM32.5938 20.2027C30.5351 29.6142 24.3378 37.4756 16 41.7813L32.5938 20.2027ZM32.5938 20.2027C34.1867 20.3111 35.7671 20.464 37.3333 20.6596L32.5938 20.2027ZM29.1751 35.7618C26.2595 32.7976 23.9487 29.2942 22.3716 25.4471L29.1751 35.7618Z" fill="#EF4056"/>
<path d="M29.3333 48L38.6667 28L48 48M32 42.6667H45.3333M16 20.6596C19.5385 20.2192 23.1009 19.999 26.6667 20M26.6667 20C28.6578 20 30.6364 20.0676 32.5938 20.2027M26.6667 20V16M32.5938 20.2027C30.5351 29.6142 24.3378 37.4756 16 41.7813M32.5938 20.2027C34.1867 20.3111 35.7671 20.464 37.3333 20.6596M29.1751 35.7618C26.2595 32.7976 23.9487 29.2942 22.3716 25.4471" stroke="white" stroke-width="3" stroke-linecap="round" stroke-linejoin="round"/>
</svg>
