<svg width="282" height="204" viewBox="0 0 282 204" fill="none" xmlns="http://www.w3.org/2000/svg">
<rect width="282" height="204" fill="white"/>
<path fill-rule="evenodd" clip-rule="evenodd" d="M64.3455 147.296C63.1615 147.296 62.1982 146.34 62.1982 145.164C62.1982 143.988 63.1615 143.031 64.3455 143.031C65.5295 143.031 66.4928 143.988 66.4928 145.164C66.4928 146.34 65.5295 147.296 64.3455 147.296Z" fill="#CACAFB"/>
<path fill-rule="evenodd" clip-rule="evenodd" d="M83.3318 60.302C82.1478 60.302 81.1846 59.3454 81.1846 58.1696C81.1846 56.9936 82.1478 56.0371 83.3318 56.0371C84.5158 56.0371 85.4791 56.9936 85.4791 58.1696C85.4791 59.3454 84.5158 60.302 83.3318 60.302Z" fill="#CACAFB"/>
<path fill-rule="evenodd" clip-rule="evenodd" d="M188.805 49.9837C187.621 49.9837 186.658 49.027 186.658 47.8512C186.658 46.6753 187.621 45.7188 188.805 45.7188C189.989 45.7188 190.952 46.6753 190.952 47.8512C190.952 49.027 189.989 49.9837 188.805 49.9837Z" fill="#CACAFB"/>
<path fill-rule="evenodd" clip-rule="evenodd" d="M218.949 138.766C217.765 138.766 216.802 137.809 216.802 136.633C216.802 135.457 217.765 134.501 218.949 134.501C220.133 134.501 221.096 135.457 221.096 136.633C221.096 137.809 220.133 138.766 218.949 138.766Z" fill="#CACAFB"/>
<path fill-rule="evenodd" clip-rule="evenodd" d="M212.872 115.095C211.688 115.095 210.725 114.139 210.725 112.963C210.725 111.787 211.688 110.831 212.872 110.831C214.056 110.831 215.019 111.787 215.019 112.963C215.019 114.139 214.056 115.095 212.872 115.095Z" fill="#CACAFB"/>
<path d="M126.151 85.0729C127.059 83.5242 128.511 82.4772 130.138 82.0414L142.633 78.6932C144.25 78.26 146.029 78.431 147.59 79.3182C150.711 81.0927 151.769 85.0393 149.953 88.1367C149.038 89.6974 147.564 90.74 145.925 91.169L133.515 94.4941C131.882 94.9419 130.093 94.7735 128.511 93.8819C125.392 92.1169 124.332 88.1608 126.151 85.0729Z" fill="url(#paint0_linear_4515_19541)"/>
<path d="M145.973 91.1561C149.46 90.2217 151.54 86.6742 150.618 83.2326C149.695 79.7911 146.121 77.7587 142.633 78.6932C139.146 79.6277 137.066 83.1752 137.988 86.6167C138.91 90.0583 142.485 92.0906 145.973 91.1561Z" fill="#E1000F"/>
<path d="M159.342 90.8732C160.25 89.3245 161.703 88.2775 163.329 87.8417L175.825 84.4935C177.442 84.0603 179.221 84.2312 180.781 85.1185C183.902 86.893 184.96 90.8396 183.144 93.937C182.229 95.4977 180.755 96.5403 179.116 96.9693L166.707 100.294C165.073 100.742 163.285 100.574 161.703 99.6822C158.584 97.9172 157.524 93.9611 159.342 90.8732Z" fill="url(#paint1_linear_4515_19541)"/>
<path d="M179.164 96.9564C182.652 96.0219 184.731 92.4745 183.809 89.0329C182.887 85.5914 179.312 83.559 175.825 84.4935C172.337 85.428 170.257 88.9755 171.179 92.417C172.102 95.8586 175.676 97.8909 179.164 96.9564Z" fill="#E1000F"/>
<path d="M151.352 121.926C152.26 120.377 153.713 119.33 155.339 118.894L167.835 115.546C169.452 115.113 171.231 115.284 172.791 116.171C175.913 117.946 176.97 121.892 175.154 124.99C174.239 126.55 172.765 127.593 171.127 128.022L158.717 131.347C157.084 131.795 155.295 131.627 153.713 130.735C150.594 128.97 149.534 125.014 151.352 121.926Z" fill="url(#paint2_linear_4515_19541)"/>
<path d="M171.174 128.009C174.662 127.075 176.741 123.527 175.819 120.086C174.897 116.644 171.322 114.612 167.835 115.546C164.347 116.481 162.268 120.028 163.19 123.47C164.112 126.911 167.687 128.944 171.174 128.009Z" fill="#E1000F"/>
<rect x="84.1706" y="83.7064" width="100.316" height="64.7585" rx="8" transform="rotate(-15 84.1706 83.7064)" stroke="#000091" stroke-width="4"/>
<path d="M103.568 114.325L121.746 109.454" stroke="#CACAFB" stroke-width="3.11348" stroke-linecap="round"/>
<path d="M105.832 122.773L133.182 115.445" stroke="#CACAFB" stroke-width="3.11348" stroke-linecap="round"/>
<path d="M108.146 131.408L146.151 121.224" stroke="#CACAFB" stroke-width="3.11348" stroke-linecap="round"/>
<defs>
<linearGradient id="paint0_linear_4515_19541" x1="125.621" y1="89.9346" x2="150.373" y2="83.3025" gradientUnits="userSpaceOnUse">
<stop stop-color="#F38192" stop-opacity="0"/>
<stop offset="1" stop-color="#F05B89"/>
</linearGradient>
<linearGradient id="paint1_linear_4515_19541" x1="158.813" y1="95.7349" x2="183.564" y2="89.1028" gradientUnits="userSpaceOnUse">
<stop stop-color="#F38192" stop-opacity="0"/>
<stop offset="1" stop-color="#F05B89"/>
</linearGradient>
<linearGradient id="paint2_linear_4515_19541" x1="150.823" y1="126.788" x2="175.574" y2="120.156" gradientUnits="userSpaceOnUse">
<stop stop-color="#F38192" stop-opacity="0"/>
<stop offset="1" stop-color="#F05B89"/>
</linearGradient>
</defs>
</svg>
