<svg width="128" height="128" viewBox="0 0 128 128" fill="none" xmlns="http://www.w3.org/2000/svg">
<rect width="128" height="128" rx="64" fill="#F6F6F6"/>
<path fill-rule="evenodd" clip-rule="evenodd" d="M22.2482 88.763C21.6033 88.763 21.0786 88.2419 21.0786 87.6015C21.0786 86.9609 21.6033 86.4399 22.2482 86.4399C22.8931 86.4399 23.4178 86.9609 23.4178 87.6015C23.4178 88.2419 22.8931 88.763 22.2482 88.763Z" fill="#CACAFB"/>
<path fill-rule="evenodd" clip-rule="evenodd" d="M32.59 41.3789C31.9451 41.3789 31.4204 40.8579 31.4204 40.2174C31.4204 39.5769 31.9451 39.0559 32.59 39.0559C33.2349 39.0559 33.7596 39.5769 33.7596 40.2174C33.7596 40.8579 33.2349 41.3789 32.59 41.3789Z" fill="#CACAFB"/>
<path fill-rule="evenodd" clip-rule="evenodd" d="M90.0387 35.7588C89.3938 35.7588 88.8691 35.2378 88.8691 34.5973C88.8691 33.9568 89.3938 33.4358 90.0387 33.4358C90.6836 33.4358 91.2083 33.9568 91.2083 34.5973C91.2083 35.2378 90.6836 35.7588 90.0387 35.7588Z" fill="#CACAFB"/>
<path fill-rule="evenodd" clip-rule="evenodd" d="M106.458 84.1167C105.813 84.1167 105.288 83.5957 105.288 82.9552C105.288 82.3147 105.813 81.7937 106.458 81.7937C107.103 81.7937 107.627 82.3147 107.627 82.9552C107.627 83.5957 107.103 84.1167 106.458 84.1167Z" fill="#CACAFB"/>
<path fill-rule="evenodd" clip-rule="evenodd" d="M103.148 71.2237C102.503 71.2237 101.978 70.7026 101.978 70.0621C101.978 69.4216 102.503 68.9006 103.148 68.9006C103.793 68.9006 104.317 69.4216 104.317 70.0621C104.317 70.7026 103.793 71.2237 103.148 71.2237Z" fill="#CACAFB"/>
<path d="M55.912 54.871C56.4065 54.0275 57.1976 53.4572 58.0836 53.2198L64.8897 51.3961C65.7705 51.1601 66.7394 51.2533 67.5894 51.7366C69.2895 52.7031 69.8655 54.8527 68.8764 56.5398C68.3781 57.3899 67.5751 57.9578 66.6826 58.1914L59.9234 60.0026C59.0336 60.2465 58.0595 60.1548 57.1976 59.6691C55.4989 58.7077 54.9216 56.553 55.912 54.871Z" fill="url(#paint0_linear_4930_18670)"/>
<path d="M66.7087 58.1846C68.6083 57.6756 69.741 55.7433 69.2387 53.8688C68.7365 51.9942 66.7893 50.8872 64.8897 51.3962C62.9901 51.9052 61.8574 53.8375 62.3597 55.712C62.8619 57.5866 64.8091 58.6936 66.7087 58.1846Z" fill="#E1000F"/>
<path d="M73.9911 58.0302C74.4856 57.1867 75.2768 56.6164 76.1627 56.379L82.9688 54.5553C83.8496 54.3193 84.8185 54.4125 85.6685 54.8957C87.3686 55.8623 87.9446 58.0119 86.9555 59.699C86.4572 60.5491 85.6542 61.117 84.7617 61.3506L78.0025 63.1617C77.1127 63.4057 76.1386 63.3139 75.2767 62.8283C73.578 61.8669 73.0007 59.7121 73.9911 58.0302Z" fill="url(#paint1_linear_4930_18670)"/>
<path d="M84.7878 61.3437C86.6874 60.8347 87.8201 58.9025 87.3178 57.028C86.8156 55.1534 84.8684 54.0464 82.9688 54.5554C81.0692 55.0644 79.9365 56.9967 80.4388 58.8712C80.941 60.7458 82.8882 61.8527 84.7878 61.3437Z" fill="#E1000F"/>
<path d="M69.639 74.9443C70.1335 74.1007 70.9247 73.5305 71.8106 73.2931L78.6168 71.4694C79.4975 71.2334 80.4664 71.3265 81.3165 71.8098C83.0165 72.7763 83.5925 74.926 82.6035 76.613C82.1051 77.4631 81.3022 78.031 80.4096 78.2647L73.6504 80.0758C72.7606 80.3197 71.7865 80.228 70.9247 79.7424C69.226 78.781 68.6486 76.6262 69.639 74.9443Z" fill="url(#paint2_linear_4930_18670)"/>
<path d="M80.4357 78.2578C82.3353 77.7488 83.4681 75.8166 82.9658 73.942C82.4635 72.0675 80.5164 70.9605 78.6168 71.4695C76.7172 71.9785 75.5844 73.9107 76.0867 75.7853C76.589 77.6598 78.5361 78.7668 80.4357 78.2578Z" fill="#E1000F"/>
<rect x="33.0462" y="54.1267" width="54.6405" height="35.2727" rx="4.35745" transform="rotate(-15 33.0462 54.1267)" stroke="#000091" stroke-width="2.17872"/>
<path d="M43.6118 70.8042L53.5131 68.1512" stroke="#CACAFB" stroke-width="1.69586" stroke-linecap="round"/>
<path d="M44.8447 75.4055L59.7418 71.4139" stroke="#CACAFB" stroke-width="1.69586" stroke-linecap="round"/>
<path d="M46.105 80.1089L66.8058 74.5621" stroke="#CACAFB" stroke-width="1.69586" stroke-linecap="round"/>
<rect x="98" y="6" width="24" height="24" rx="12" fill="#000091"/>
<path d="M107.063 18.66L107.357 13.2H113.195V14.908H109.163L109.051 16.952H109.807C112.411 16.952 113.559 18.142 113.559 20.046C113.559 22.048 111.991 23.28 109.975 23.28C108.155 23.28 106.951 22.482 106.139 21.068L107.791 20.046C108.351 21.124 109.023 21.6 109.975 21.6C110.941 21.6 111.627 21.026 111.627 20.116C111.627 19.192 110.941 18.66 109.723 18.66H107.063Z" fill="white"/>
<defs>
<linearGradient id="paint0_linear_4930_18670" x1="55.6236" y1="57.5191" x2="69.1051" y2="53.9067" gradientUnits="userSpaceOnUse">
<stop stop-color="#F38192" stop-opacity="0"/>
<stop offset="1" stop-color="#F05B89"/>
</linearGradient>
<linearGradient id="paint1_linear_4930_18670" x1="73.7027" y1="60.6783" x2="87.1842" y2="57.0659" gradientUnits="userSpaceOnUse">
<stop stop-color="#F38192" stop-opacity="0"/>
<stop offset="1" stop-color="#F05B89"/>
</linearGradient>
<linearGradient id="paint2_linear_4930_18670" x1="69.3506" y1="77.5923" x2="82.8322" y2="73.98" gradientUnits="userSpaceOnUse">
<stop stop-color="#F38192" stop-opacity="0"/>
<stop offset="1" stop-color="#F05B89"/>
</linearGradient>
</defs>
</svg>
