<svg width="57" height="34" viewBox="0 0 57 34" fill="none" xmlns="http://www.w3.org/2000/svg">
<path d="M2 1C2 0.447715 1.55228 0 1 0C0.447715 0 0 0.447715 0 1H2ZM56.7071 26.7071C57.0976 26.3166 57.0976 25.6834 56.7071 25.2929L50.3431 18.9289C49.9526 18.5384 49.3195 18.5384 48.9289 18.9289C48.5384 19.3195 48.5384 19.9526 48.9289 20.3431L54.5858 26L48.9289 31.6569C48.5384 32.0474 48.5384 32.6805 48.9289 33.0711C49.3195 33.4616 49.9526 33.4616 50.3431 33.0711L56.7071 26.7071ZM25.8889 25C12.6996 25 2 14.259 2 1H0C0 15.3552 11.5867 27 25.8889 27V25ZM25.8889 27H56V25H25.8889V27Z" fill="white"/>
</svg>
