<svg width="282" height="204" viewBox="0 0 282 204" fill="none" xmlns="http://www.w3.org/2000/svg">
<rect width="282" height="204" fill="white"/>
<path fill-rule="evenodd" clip-rule="evenodd" d="M204.45 72.3997C203.43 72.3997 202.6 71.5698 202.6 70.5497C202.6 69.5295 203.43 68.6997 204.45 68.6997C205.47 68.6997 206.3 69.5295 206.3 70.5497C206.3 71.5698 205.47 72.3997 204.45 72.3997Z" fill="#CACAFB"/>
<path fill-rule="evenodd" clip-rule="evenodd" d="M115.65 176C114.63 176 113.8 175.17 113.8 174.15C113.8 173.13 114.63 172.3 115.65 172.3C116.67 172.3 117.5 173.13 117.5 174.15C117.5 175.17 116.67 176 115.65 176Z" fill="#CACAFB"/>
<path fill-rule="evenodd" clip-rule="evenodd" d="M89.7499 46.4998C88.7298 46.4998 87.8999 45.6699 87.8999 44.6498C87.8999 43.6296 88.7298 42.7998 89.7499 42.7998C90.77 42.7998 91.5999 43.6296 91.5999 44.6498C91.5999 45.6699 90.77 46.4998 89.7499 46.4998Z" fill="#CACAFB"/>
<path d="M190.671 156.253C181.142 163.969 167.163 162.499 159.447 152.971C151.731 143.443 153.2 129.463 162.729 121.747C172.257 114.031 186.236 115.501 193.952 125.029C194.595 125.823 194.473 126.988 193.679 127.631C192.885 128.274 191.72 128.152 191.077 127.358C184.647 119.417 172.998 118.193 165.057 124.623C157.117 131.053 155.893 142.702 162.323 150.642C168.752 158.583 180.402 159.807 188.342 153.377C193.388 149.291 195.86 142.953 195.05 136.629C194.92 135.616 195.637 134.689 196.65 134.559C197.663 134.429 198.59 135.146 198.72 136.159C199.692 143.742 196.724 151.351 190.671 156.253Z" fill="#E1000F"/>
<path d="M169.376 138.734L173.686 143.83L184.912 130.691C185.657 129.818 186.958 129.744 187.793 130.531C188.546 131.242 188.66 132.415 188.044 133.299L187.945 133.426L175.793 147.652C174.798 148.817 173.046 148.955 171.881 147.959C171.767 147.862 171.662 147.756 171.565 147.642L166.33 141.455C165.612 140.605 165.684 139.319 166.496 138.56C167.277 137.831 168.47 137.845 169.267 138.616L169.376 138.734Z" fill="#E1000F"/>
<path d="M104.55 46.5C105.499 46.5 106.281 47.2142 106.388 48.1343L106.4 48.35V53.9H165.6V48.35C165.6 47.3283 166.428 46.5 167.45 46.5C168.399 46.5 169.181 47.2142 169.288 48.1343L169.3 48.35V53.9H182.25C187.224 53.9 191.281 57.8263 191.491 62.7488L191.5 63.15V111.25C191.5 112.272 190.672 113.1 189.65 113.1C188.701 113.1 187.919 112.386 187.812 111.466L187.8 111.25V79.8H178.55C177.528 79.8 176.7 78.9717 176.7 77.95C176.7 77.0013 177.414 76.2193 178.334 76.1124L178.55 76.1H187.8V63.15C187.8 60.1943 185.49 57.7782 182.576 57.6094L182.25 57.6H169.3V63.15C169.3 64.1717 168.472 65 167.45 65C166.501 65 165.719 64.2858 165.612 63.3657L165.6 63.15V57.6H106.4V63.15C106.4 64.1717 105.572 65 104.55 65C103.601 65 102.819 64.2858 102.712 63.3657L102.7 63.15V57.6H89.75C86.7943 57.6 84.3782 59.9105 84.2094 62.8239L84.2 63.15V76.1H102.7V74.25C102.7 73.2283 103.528 72.4 104.55 72.4C105.499 72.4 106.281 73.1142 106.388 74.0343L106.4 74.25V76.1H167.45C168.472 76.1 169.3 76.9283 169.3 77.95C169.3 78.8987 168.586 79.6807 167.666 79.7876L167.45 79.8H106.4V81.65C106.4 82.6717 105.572 83.5 104.55 83.5C103.601 83.5 102.819 82.7858 102.712 81.8657L102.7 81.65V79.8H84.2V140.85C84.2 143.806 86.5105 146.222 89.4239 146.391L89.75 146.4H141.55C142.572 146.4 143.4 147.228 143.4 148.25C143.4 149.199 142.686 149.981 141.766 150.088L141.55 150.1H89.75C84.7758 150.1 80.7186 146.174 80.5085 141.251L80.5 140.85V63.15C80.5 58.1758 84.4263 54.1186 89.3488 53.9085L89.75 53.9H102.7V48.35C102.7 47.3283 103.528 46.5 104.55 46.5Z" fill="#000091"/>
<path d="M148.95 146.4C147.928 146.4 147.1 147.228 147.1 148.25C147.1 149.272 147.928 150.1 148.95 150.1C149.972 150.1 150.8 149.272 150.8 148.25C150.8 147.228 149.972 146.4 148.95 146.4Z" fill="#000091"/>
<path fill-rule="evenodd" clip-rule="evenodd" d="M117.5 96.45C117.5 93.3848 115.015 90.9 111.95 90.9H100.85C97.7848 90.9 95.3 93.3848 95.3 96.45V103.85C95.3 106.915 97.7848 109.4 100.85 109.4H111.95C115.015 109.4 117.5 106.915 117.5 103.85V96.45ZM99 96.45C99 95.4283 99.8283 94.6 100.85 94.6H111.95C112.972 94.6 113.8 95.4283 113.8 96.45V103.85C113.8 104.872 112.972 105.7 111.95 105.7H100.85C99.8283 105.7 99 104.872 99 103.85V96.45Z" fill="#000091"/>
<path fill-rule="evenodd" clip-rule="evenodd" d="M171.15 90.9C174.215 90.9 176.7 93.3848 176.7 96.45V103.85C176.7 106.915 174.215 109.4 171.15 109.4H160.05C156.985 109.4 154.5 106.915 154.5 103.85V96.45C154.5 93.3848 156.985 90.9 160.05 90.9H171.15ZM160.05 94.6C159.028 94.6 158.2 95.4283 158.2 96.45V103.85C158.2 104.872 159.028 105.7 160.05 105.7H171.15C172.172 105.7 173 104.872 173 103.85V96.45C173 95.4283 172.172 94.6 171.15 94.6H160.05Z" fill="#000091"/>
<path fill-rule="evenodd" clip-rule="evenodd" d="M141.55 90.9H130.45C127.385 90.9 124.9 93.3848 124.9 96.45V103.85C124.9 106.915 127.385 109.4 130.45 109.4H141.55C144.615 109.4 147.1 106.915 147.1 103.85V96.45C147.1 93.3848 144.615 90.9 141.55 90.9ZM130.45 94.6H141.55C142.572 94.6 143.4 95.4283 143.4 96.45V103.85C143.4 104.872 142.572 105.7 141.55 105.7H130.45C129.428 105.7 128.6 104.872 128.6 103.85V96.45C128.6 95.4283 129.428 94.6 130.45 94.6Z" fill="#000091"/>
<path fill-rule="evenodd" clip-rule="evenodd" d="M111.95 116.8C115.015 116.8 117.5 119.285 117.5 122.35V129.75C117.5 132.815 115.015 135.3 111.95 135.3H100.85C97.7848 135.3 95.3 132.815 95.3 129.75V122.35C95.3 119.285 97.7848 116.8 100.85 116.8H111.95ZM100.85 120.5C99.8283 120.5 99 121.328 99 122.35V129.75C99 130.772 99.8283 131.6 100.85 131.6H111.95C112.972 131.6 113.8 130.772 113.8 129.75V122.35C113.8 121.328 112.972 120.5 111.95 120.5H100.85Z" fill="#000091"/>
<path fill-rule="evenodd" clip-rule="evenodd" d="M141.55 116.8H130.45C127.385 116.8 124.9 119.285 124.9 122.35V129.75C124.9 132.815 127.385 135.3 130.45 135.3H141.55C144.615 135.3 147.1 132.815 147.1 129.75V122.35C147.1 119.285 144.615 116.8 141.55 116.8ZM130.45 120.5H141.55C142.572 120.5 143.4 121.328 143.4 122.35V129.75C143.4 130.772 142.572 131.6 141.55 131.6H130.45C129.428 131.6 128.6 130.772 128.6 129.75V122.35C128.6 121.328 129.428 120.5 130.45 120.5Z" fill="#000091"/>
</svg>
