<svg width="128" height="128" viewBox="0 0 128 128" fill="none" xmlns="http://www.w3.org/2000/svg">
<rect width="128" height="128" rx="64" fill="#F6F6F6"/>
<path fill-rule="evenodd" clip-rule="evenodd" d="M98.5609 47.9682C98.0053 47.9682 97.5532 47.5162 97.5532 46.9605C97.5532 46.4049 98.0053 45.9529 98.5609 45.9529C99.1165 45.9529 99.5685 46.4049 99.5685 46.9605C99.5685 47.5162 99.1165 47.9682 98.5609 47.9682Z" fill="#CACAFB"/>
<path fill-rule="evenodd" clip-rule="evenodd" d="M50.1932 104.397C49.6376 104.397 49.1855 103.945 49.1855 103.389C49.1855 102.834 49.6376 102.382 50.1932 102.382C50.7488 102.382 51.2009 102.834 51.2009 103.389C51.2009 103.945 50.7488 104.397 50.1932 104.397Z" fill="#CACAFB"/>
<path fill-rule="evenodd" clip-rule="evenodd" d="M36.0858 33.861C35.5302 33.861 35.0781 33.409 35.0781 32.8534C35.0781 32.2977 35.5302 31.8457 36.0858 31.8457C36.6414 31.8457 37.0934 32.2977 37.0934 32.8534C37.0934 33.409 36.6414 33.861 36.0858 33.861Z" fill="#CACAFB"/>
<path d="M91.055 93.6411C85.8651 97.8438 78.2509 97.0435 74.0482 91.8536C69.8454 86.6637 70.6457 79.0495 75.8357 74.8467C81.0256 70.644 88.6398 71.4443 92.8425 76.6342C93.1927 77.0667 93.1261 77.7013 92.6936 78.0515C92.2611 78.4017 91.6266 78.335 91.2763 77.9025C87.7741 73.5776 81.4289 72.9107 77.1039 76.4129C72.779 79.9152 72.1121 86.2604 75.6144 90.5853C79.1166 94.9103 85.4618 95.5772 89.7867 92.0749C92.5351 89.8493 93.8817 86.3969 93.4404 82.9526C93.3697 82.4006 93.7598 81.8958 94.3118 81.8251C94.8638 81.7543 95.3687 82.1445 95.4394 82.6965C95.9686 86.8268 94.3521 90.9712 91.055 93.6411Z" fill="#E1000F"/>
<path d="M79.4562 84.0992L81.8039 86.8749L87.9182 79.7183C88.3244 79.2428 89.0328 79.2026 89.4874 79.6312C89.8977 80.0181 89.9597 80.6569 89.6245 81.1387L89.5703 81.208L82.9517 88.9562C82.4095 89.5909 81.4554 89.666 80.8207 89.1238C80.7587 89.0708 80.7012 89.013 80.6485 88.9508L77.7973 85.5808C77.4058 85.1181 77.445 84.4176 77.8875 84.0044C78.3127 83.6073 78.9626 83.6149 79.3967 84.0346L79.4562 84.0992Z" fill="#E1000F"/>
<path d="M44.1469 33.8611C44.6637 33.8611 45.0896 34.2501 45.1478 34.7512L45.1546 34.8687V37.8917H77.3997V34.8687C77.3997 34.3122 77.8508 33.8611 78.4074 33.8611C78.9241 33.8611 79.35 34.2501 79.4082 34.7512L79.415 34.8687V37.8917H86.4686C89.178 37.8917 91.3878 40.0303 91.5023 42.7115L91.5069 42.93V69.1292C91.5069 69.6857 91.0558 70.1368 90.4993 70.1368C89.9825 70.1368 89.5566 69.7478 89.4984 69.2467L89.4916 69.1292V51.999H84.4533C83.8968 51.999 83.4457 51.5478 83.4457 50.9913C83.4457 50.4745 83.8347 50.0486 84.3358 49.9904L84.4533 49.9836H89.4916V42.93C89.4916 41.3201 88.2331 40.0041 86.6463 39.9122L86.4686 39.907H79.415V42.93C79.415 43.4865 78.9639 43.9377 78.4074 43.9377C77.8906 43.9377 77.4647 43.5487 77.4065 43.0475L77.3997 42.93V39.907H45.1546V42.93C45.1546 43.4865 44.7035 43.9377 44.1469 43.9377C43.6302 43.9377 43.2043 43.5487 43.1461 43.0475L43.1393 42.93V39.907H36.0857C34.4757 39.907 33.1598 41.1655 33.0678 42.7524L33.0627 42.93V49.9836H43.1393V48.976C43.1393 48.4195 43.5904 47.9683 44.1469 47.9683C44.6637 47.9683 45.0896 48.3573 45.1478 48.8585L45.1546 48.976V49.9836H78.4074C78.9639 49.9836 79.415 50.4348 79.415 50.9913C79.415 51.5081 79.026 51.934 78.5249 51.9922L78.4074 51.999H45.1546V53.0066C45.1546 53.5631 44.7035 54.0143 44.1469 54.0143C43.6302 54.0143 43.2043 53.6253 43.1461 53.1241L43.1393 53.0066V51.999H33.0627V85.2517C33.0627 86.8616 34.3212 88.1776 35.908 88.2696L36.0857 88.2747H64.3001C64.8566 88.2747 65.3078 88.7258 65.3078 89.2824C65.3078 89.7991 64.9188 90.225 64.4176 90.2832L64.3001 90.29H36.0857C33.3763 90.29 31.1665 88.1515 31.052 85.4703L31.0474 85.2517V42.93C31.0474 40.2207 33.1859 38.0108 35.8671 37.8964L36.0857 37.8917H43.1393V34.8687C43.1393 34.3122 43.5904 33.8611 44.1469 33.8611Z" fill="#000091"/>
<path d="M68.3308 88.2747C67.7743 88.2747 67.3231 88.7258 67.3231 89.2824C67.3231 89.8389 67.7743 90.29 68.3308 90.29C68.8873 90.29 69.3384 89.8389 69.3384 89.2824C69.3384 88.7258 68.8873 88.2747 68.3308 88.2747Z" fill="#000091"/>
<path fill-rule="evenodd" clip-rule="evenodd" d="M51.2006 61.0679C51.2006 59.3983 49.8471 58.0449 48.1776 58.0449H42.1316C40.4621 58.0449 39.1086 59.3983 39.1086 61.0679V65.0985C39.1086 66.7681 40.4621 68.1215 42.1316 68.1215H48.1776C49.8471 68.1215 51.2006 66.7681 51.2006 65.0985V61.0679ZM41.124 61.0679C41.124 60.5114 41.5751 60.0602 42.1316 60.0602H48.1776C48.7341 60.0602 49.1852 60.5114 49.1852 61.0679V65.0985C49.1852 65.655 48.7341 66.1062 48.1776 66.1062H42.1316C41.5751 66.1062 41.124 65.655 41.124 65.0985V61.0679Z" fill="#000091"/>
<path fill-rule="evenodd" clip-rule="evenodd" d="M80.4227 58.0449C82.0922 58.0449 83.4457 59.3983 83.4457 61.0679V65.0985C83.4457 66.7681 82.0922 68.1215 80.4227 68.1215H74.3767C72.7072 68.1215 71.3537 66.7681 71.3537 65.0985V61.0679C71.3537 59.3983 72.7072 58.0449 74.3767 58.0449H80.4227ZM74.3767 60.0602C73.8202 60.0602 73.3691 60.5114 73.3691 61.0679V65.0985C73.3691 65.655 73.8202 66.1062 74.3767 66.1062H80.4227C80.9792 66.1062 81.4303 65.655 81.4303 65.0985V61.0679C81.4303 60.5114 80.9792 60.0602 80.4227 60.0602H74.3767Z" fill="#000091"/>
<path fill-rule="evenodd" clip-rule="evenodd" d="M64.3001 58.0449H58.2542C56.5846 58.0449 55.2312 59.3983 55.2312 61.0679V65.0985C55.2312 66.7681 56.5846 68.1215 58.2542 68.1215H64.3001C65.9697 68.1215 67.3231 66.7681 67.3231 65.0985V61.0679C67.3231 59.3983 65.9697 58.0449 64.3001 58.0449ZM58.2542 60.0602H64.3001C64.8566 60.0602 65.3078 60.5114 65.3078 61.0679V65.0985C65.3078 65.655 64.8566 66.1062 64.3001 66.1062H58.2542C57.6977 66.1062 57.2465 65.655 57.2465 65.0985V61.0679C57.2465 60.5114 57.6977 60.0602 58.2542 60.0602Z" fill="#000091"/>
<path fill-rule="evenodd" clip-rule="evenodd" d="M48.1776 72.1521C49.8471 72.1521 51.2006 73.5056 51.2006 75.1751V79.2058C51.2006 80.8753 49.8471 82.2287 48.1776 82.2287H42.1316C40.4621 82.2287 39.1086 80.8753 39.1086 79.2058V75.1751C39.1086 73.5056 40.4621 72.1521 42.1316 72.1521H48.1776ZM42.1316 74.1675C41.5751 74.1675 41.124 74.6186 41.124 75.1751V79.2058C41.124 79.7623 41.5751 80.2134 42.1316 80.2134H48.1776C48.7341 80.2134 49.1852 79.7623 49.1852 79.2058V75.1751C49.1852 74.6186 48.7341 74.1675 48.1776 74.1675H42.1316Z" fill="#000091"/>
<path fill-rule="evenodd" clip-rule="evenodd" d="M64.3001 72.1521H58.2542C56.5846 72.1521 55.2312 73.5056 55.2312 75.1751V79.2058C55.2312 80.8753 56.5846 82.2287 58.2542 82.2287H64.3001C65.9697 82.2287 67.3231 80.8753 67.3231 79.2058V75.1751C67.3231 73.5056 65.9697 72.1521 64.3001 72.1521ZM58.2542 74.1675H64.3001C64.8566 74.1675 65.3078 74.6186 65.3078 75.1751V79.2058C65.3078 79.7623 64.8566 80.2134 64.3001 80.2134H58.2542C57.6977 80.2134 57.2465 79.7623 57.2465 79.2058V75.1751C57.2465 74.6186 57.6977 74.1675 58.2542 74.1675Z" fill="#000091"/>
<rect x="98" y="6" width="24" height="24" rx="12" fill="#000091"/>
<path d="M106.615 23V21.292L109.975 17.988C110.731 17.218 111.207 16.686 111.207 15.888C111.207 15.076 110.647 14.6 109.877 14.6C108.939 14.6 108.365 15.174 107.847 16.042L106.307 15.104C107.133 13.76 108.351 12.92 110.059 12.92C111.767 12.92 113.139 14.012 113.139 15.692C113.139 17.036 112.257 18.072 111.291 19.01L108.925 21.292H113.391V23H106.615Z" fill="white"/>
</svg>
