<svg width="282" height="204" viewBox="0 0 282 204" fill="none" xmlns="http://www.w3.org/2000/svg">
<rect width="282" height="204" fill="white"/>
<path fill-rule="evenodd" clip-rule="evenodd" d="M195.518 170.109C194.334 170.109 193.371 169.152 193.371 167.976C193.371 166.8 194.334 165.844 195.518 165.844C196.702 165.844 197.665 166.8 197.665 167.976C197.665 169.152 196.702 170.109 195.518 170.109Z" fill="#CACAFB"/>
<path fill-rule="evenodd" clip-rule="evenodd" d="M87.9656 32.1428C86.7816 32.1428 85.8184 31.1862 85.8184 30.0104C85.8184 28.8345 86.7816 27.8779 87.9656 27.8779C89.1496 27.8779 90.1129 28.8345 90.1129 30.0104C90.1129 31.1862 89.1496 32.1428 87.9656 32.1428Z" fill="#CACAFB"/>
<path fill-rule="evenodd" clip-rule="evenodd" d="M193.37 36.408C192.186 36.408 191.223 35.4514 191.223 34.2755C191.223 33.0996 192.186 32.1431 193.37 32.1431C194.554 32.1431 195.518 33.0996 195.518 34.2755C195.518 35.4514 194.554 36.408 193.37 36.408Z" fill="#CACAFB"/>
<path fill-rule="evenodd" clip-rule="evenodd" d="M41.7952 130.924C40.6112 130.924 39.6479 129.967 39.6479 128.792C39.6479 127.616 40.6112 126.659 41.7952 126.659C42.9792 126.659 43.9425 127.616 43.9425 128.792C43.9425 129.967 42.9792 130.924 41.7952 130.924Z" fill="#CACAFB"/>
<path fill-rule="evenodd" clip-rule="evenodd" d="M214.655 66.262C213.471 66.262 212.507 65.3054 212.507 64.1295C212.507 62.9536 213.471 61.9971 214.655 61.9971C215.839 61.9971 216.802 62.9536 216.802 64.1295C216.802 65.3054 215.839 66.262 214.655 66.262Z" fill="#CACAFB"/>
<mask id="path-6-inside-1_4515_19495" fill="white">
<path d="M127.495 53.6693C132.336 50.8745 140.185 50.8745 145.026 53.6693L189.694 79.4564C194.535 82.2512 194.535 86.7824 189.694 89.5772L145.026 115.364C140.185 118.159 132.336 118.159 127.495 115.364L82.8276 89.5772C77.9865 86.7824 77.9865 82.2512 82.8276 79.4564L127.495 53.6693Z"/>
</mask>
<path d="M82.8276 89.5772L84.9361 85.9249L82.8276 89.5772ZM82.8276 79.4564L84.9361 83.1087L82.8276 79.4564ZM145.026 115.364L147.135 119.017L145.026 115.364ZM127.495 115.364L125.387 119.017L127.495 115.364ZM189.694 79.4564L187.586 83.1087L189.694 79.4564ZM189.694 89.5772L187.586 85.9249L189.694 89.5772ZM145.026 53.6693L147.135 50.017L145.026 53.6693ZM127.495 53.6693L125.387 50.017L127.495 53.6693ZM142.918 57.3216L187.586 83.1087L191.803 75.8041L147.135 50.017L142.918 57.3216ZM187.586 85.9249L142.918 111.712L147.135 119.017L191.803 93.2294L187.586 85.9249ZM129.604 111.712L84.9361 85.9249L80.7191 93.2294L125.387 119.017L129.604 111.712ZM84.9361 83.1087L129.604 57.3216L125.387 50.017L80.7191 75.8041L84.9361 83.1087ZM84.9361 85.9249C83.2838 84.971 83.414 84.3104 83.414 84.5168C83.414 84.7232 83.2838 84.0626 84.9361 83.1087L80.7191 75.8041C77.5303 77.645 74.9796 80.6474 74.9796 84.5168C74.9796 88.3862 77.5303 91.3886 80.7191 93.2294L84.9361 85.9249ZM142.918 111.712C141.289 112.652 138.889 113.243 136.261 113.243C133.632 113.243 131.232 112.652 129.604 111.712L125.387 119.017C128.599 120.871 132.544 121.678 136.261 121.678C139.977 121.678 143.922 120.871 147.135 119.017L142.918 111.712ZM187.586 83.1087C189.238 84.0626 189.108 84.7232 189.108 84.5168C189.108 84.3104 189.238 84.971 187.586 85.9249L191.803 93.2294C194.991 91.3886 197.542 88.3861 197.542 84.5168C197.542 80.6474 194.991 77.645 191.803 75.8041L187.586 83.1087ZM147.135 50.017C143.922 48.1625 139.977 47.356 136.261 47.356C132.544 47.356 128.599 48.1625 125.387 50.017L129.604 57.3216C131.232 56.3814 133.632 55.7905 136.261 55.7905C138.889 55.7905 141.289 56.3814 142.918 57.3216L147.135 50.017Z" fill="#000091" mask="url(#path-6-inside-1_4515_19495)"/>
<path d="M139.407 144.084C127.938 144.084 117.904 140.555 112.41 135.282" stroke="#E1000F" stroke-width="4.21722" stroke-linecap="round"/>
<path d="M134.881 79.894L158.288 101.817C160.331 103.731 161.49 106.405 161.49 109.204V118.829M161.49 118.829C160.161 120.171 157.502 123.719 157.502 127.174M161.49 118.829C162.709 120.269 165.159 123.953 165.205 127.174M161.49 118.829V132.583" stroke="#E1000F" stroke-width="4.21722" stroke-linecap="round"/>
<path d="M102.566 106.406V132.401C102.553 137.528 105.935 142.658 112.711 146.57C126.238 154.379 148.169 154.379 161.695 146.57C168.471 142.658 171.853 137.528 171.84 132.401L171.84 106.406" stroke="#000091" stroke-width="4.21722" stroke-linecap="round"/>
</svg>
