<svg width="128" height="128" viewBox="0 0 128 128" fill="none" xmlns="http://www.w3.org/2000/svg">
<rect width="128" height="128" rx="64" fill="#F6F6F6"/>
<path fill-rule="evenodd" clip-rule="evenodd" d="M93.695 101.188C93.0501 101.188 92.5254 100.667 92.5254 100.027C92.5254 99.3862 93.0501 98.8652 93.695 98.8652C94.3399 98.8652 94.8645 99.3862 94.8645 100.027C94.8645 100.667 94.3399 101.188 93.695 101.188Z" fill="#CACAFB"/>
<path fill-rule="evenodd" clip-rule="evenodd" d="M35.1134 26.0408C34.4685 26.0408 33.9438 25.5197 33.9438 24.8793C33.9438 24.2388 34.4685 23.7178 35.1134 23.7178C35.7583 23.7178 36.283 24.2388 36.283 24.8793C36.283 25.5197 35.7583 26.0408 35.1134 26.0408Z" fill="#CACAFB"/>
<path fill-rule="evenodd" clip-rule="evenodd" d="M92.525 28.3638C91.8801 28.3638 91.3555 27.8427 91.3555 27.2023C91.3555 26.5618 91.8801 26.0408 92.525 26.0408C93.1699 26.0408 93.6946 26.5618 93.6946 27.2023C93.6946 27.8427 93.1699 28.3638 92.525 28.3638Z" fill="#CACAFB"/>
<path fill-rule="evenodd" clip-rule="evenodd" d="M9.96499 79.845C9.32008 79.845 8.79541 79.3239 8.79541 78.6835C8.79541 78.043 9.32008 77.522 9.96499 77.522C10.6099 77.522 11.1346 78.043 11.1346 78.6835C11.1346 79.3239 10.6099 79.845 9.96499 79.845Z" fill="#CACAFB"/>
<path fill-rule="evenodd" clip-rule="evenodd" d="M104.118 44.6248C103.473 44.6248 102.949 44.1037 102.949 43.4633C102.949 42.8228 103.473 42.3018 104.118 42.3018C104.763 42.3018 105.288 42.8228 105.288 43.4633C105.288 44.1037 104.763 44.6248 104.118 44.6248Z" fill="#CACAFB"/>
<mask id="path-7-inside-1_4930_18671" fill="white">
<path d="M56.6447 37.766C59.2815 36.2437 63.5567 36.2437 66.1935 37.766L90.5232 51.8117C93.16 53.3339 93.16 55.802 90.5232 57.3243L66.1935 71.37C63.5567 72.8923 59.2815 72.8923 56.6447 71.37L32.315 57.3243C29.6782 55.802 29.6782 53.3339 32.315 51.8117L56.6447 37.766Z"/>
</mask>
<path d="M32.315 57.3243L33.4635 55.3349L32.315 57.3243ZM32.315 51.8117L33.4635 53.801L32.315 51.8117ZM66.1935 71.37L67.342 73.3593L66.1935 71.37ZM56.6447 71.37L55.4963 73.3593L56.6447 71.37ZM90.5232 51.8117L89.3747 53.801L90.5232 51.8117ZM90.5232 57.3243L89.3747 55.3349L90.5232 57.3243ZM66.1935 37.766L67.342 35.7766L66.1935 37.766ZM56.6447 37.766L55.4963 35.7766L56.6447 37.766ZM65.045 39.7553L89.3747 53.801L91.6716 49.8224L67.342 35.7766L65.045 39.7553ZM89.3747 55.3349L65.045 69.3807L67.342 73.3593L91.6716 59.3136L89.3747 55.3349ZM57.7932 69.3807L33.4635 55.3349L31.1666 59.3136L55.4963 73.3593L57.7932 69.3807ZM33.4635 53.801L57.7932 39.7553L55.4963 35.7766L31.1666 49.8224L33.4635 53.801ZM33.4635 55.3349C32.5635 54.8154 32.6344 54.4556 32.6344 54.568C32.6344 54.6804 32.5635 54.3206 33.4635 53.801L31.1666 49.8224C29.4297 50.8251 28.0404 52.4604 28.0404 54.568C28.0404 56.6756 29.4297 58.3109 31.1666 59.3136L33.4635 55.3349ZM65.045 69.3807C64.158 69.8928 62.8508 70.2146 61.4191 70.2146C59.9874 70.2146 58.6802 69.8928 57.7932 69.3807L55.4963 73.3593C57.246 74.3695 59.3948 74.8087 61.4191 74.8087C63.4434 74.8087 65.5922 74.3695 67.342 73.3593L65.045 69.3807ZM89.3747 53.801C90.2747 54.3206 90.2038 54.6804 90.2038 54.568C90.2038 54.4556 90.2747 54.8154 89.3747 55.3349L91.6716 59.3136C93.4085 58.3109 94.7978 56.6756 94.7978 54.568C94.7978 52.4604 93.4085 50.825 91.6716 49.8224L89.3747 53.801ZM67.342 35.7766C65.5922 34.7665 63.4434 34.3272 61.4191 34.3272C59.3948 34.3272 57.246 34.7665 55.4963 35.7766L57.7932 39.7553C58.6802 39.2432 59.9874 38.9213 61.4191 38.9213C62.8508 38.9213 64.158 39.2432 65.045 39.7553L67.342 35.7766Z" fill="#000091" mask="url(#path-7-inside-1_4930_18671)"/>
<path d="M63.1325 87.0134C56.8857 87.0134 51.4199 85.0909 48.4277 82.219" stroke="#E1000F" stroke-width="2.29704" stroke-linecap="round"/>
<path d="M60.6675 52.0503L73.4167 63.9913C74.5296 65.0336 75.161 66.4902 75.161 68.0149V73.2575M75.161 73.2575C74.437 73.9886 72.989 75.9211 72.989 77.8028M75.161 73.2575C75.825 74.0416 77.1592 76.0482 77.1846 77.8028M75.161 73.2575V80.7487" stroke="#E1000F" stroke-width="2.29704" stroke-linecap="round"/>
<path d="M43.0659 66.4907V80.6495C43.0589 83.4422 44.9008 86.2362 48.5917 88.3669C55.9593 92.6203 67.9046 92.6203 75.2722 88.3669C78.963 86.2362 80.8049 83.4422 80.7979 80.6495L80.7979 66.4907" stroke="#000091" stroke-width="2.29704" stroke-linecap="round"/>
<rect x="98" y="6" width="24" height="24" rx="12" fill="#000091"/>
<path d="M106.307 20.396V18.688L110.507 13.2H112.719V18.688H113.713V20.396H112.719V23H110.829V20.396H106.307ZM108.253 18.688H110.829V15.342L108.253 18.688Z" fill="white"/>
</svg>
