<svg width="128" height="128" viewBox="0 0 128 128" fill="none" xmlns="http://www.w3.org/2000/svg">
<rect width="128" height="128" rx="64" fill="#F6F6F6"/>
<path d="M30.8428 39.9229H51.7766" stroke="#000091" stroke-width="1.69586" stroke-linecap="round"/>
<rect x="31.6907" y="47.5542" width="66.5014" height="12.475" rx="2.54378" stroke="#000091" stroke-width="1.69586"/>
<path d="M38.3706 53.7913H62.2839" stroke="#929292" stroke-width="1.69586" stroke-linecap="round"/>
<rect x="31.6907" y="64.2688" width="66.5014" height="12.475" rx="2.54378" stroke="#E1000F" stroke-width="1.69586"/>
<path d="M38.3706 70.5066H73.3549" stroke="#929292" stroke-width="1.69586" stroke-linecap="round"/>
<rect x="30.8428" y="84.375" width="34.5415" height="10.6281" rx="1.69586" fill="#000091"/>
<path d="M40.8066 89.689H55.4203" stroke="white" stroke-width="1.69586" stroke-linecap="round"/>
<path fill-rule="evenodd" clip-rule="evenodd" d="M99.5621 78.0346L102.073 84.9368L99.7831 85.7705L97.2705 78.8683L93.8804 81.4329L95.0911 69.3179L103.807 77.8201L99.5621 78.0346Z" fill="#000091"/>
<path fill-rule="evenodd" clip-rule="evenodd" d="M120.917 35.1617C120.064 35.1617 119.371 34.468 119.371 33.6154C119.371 32.7627 120.064 32.0691 120.917 32.0691C121.77 32.0691 122.463 32.7627 122.463 33.6154C122.463 34.468 121.77 35.1617 120.917 35.1617Z" fill="#CACAFB"/>
<path fill-rule="evenodd" clip-rule="evenodd" d="M54.572 40.7708C54.1045 40.7708 53.7241 40.3904 53.7241 39.9229C53.7241 39.4553 54.1045 39.075 54.572 39.075C55.0396 39.075 55.42 39.4553 55.42 39.9229C55.42 40.3904 55.0396 40.7708 54.572 40.7708Z" fill="#000091"/>
<path fill-rule="evenodd" clip-rule="evenodd" d="M119.371 50.9962C118.518 50.9962 117.824 50.3025 117.824 49.4499C117.824 48.5972 118.518 47.9036 119.371 47.9036C120.223 47.9036 120.917 48.5972 120.917 49.4499C120.917 50.3025 120.223 50.9962 119.371 50.9962Z" fill="#CACAFB"/>
<path fill-rule="evenodd" clip-rule="evenodd" d="M89.0834 27.0829C88.2308 27.0829 87.5371 26.3892 87.5371 25.5365C87.5371 24.6838 88.2308 23.9902 89.0834 23.9902C89.9361 23.9902 90.6297 24.6838 90.6297 25.5365C90.6297 26.3892 89.9361 27.0829 89.0834 27.0829Z" fill="#CACAFB"/>
<path fill-rule="evenodd" clip-rule="evenodd" d="M3.1259 103.672C2.27326 103.672 1.57959 102.979 1.57959 102.126C1.57959 101.273 2.27326 100.58 3.1259 100.58C3.97853 100.58 4.67221 101.273 4.67221 102.126C4.67221 102.979 3.97853 103.672 3.1259 103.672Z" fill="#CACAFB"/>
<rect x="98" y="6" width="24" height="24" rx="12" fill="#000091"/>
<path d="M109.763 22.986V15.132L107.733 16.28L106.795 14.936L109.819 13.186H111.653V22.986H109.763Z" fill="white"/>
</svg>
