<svg width="282" height="204" viewBox="0 0 282 204" fill="none" xmlns="http://www.w3.org/2000/svg">
<rect width="282" height="204" fill="white"/>
<path d="M80.1245 57.6289H118.558" stroke="#000091" stroke-width="3.11348" stroke-linecap="round"/>
<rect x="81.6813" y="71.6397" width="122.092" height="22.9033" rx="4.67023" stroke="#000091" stroke-width="3.11348"/>
<path d="M93.9458 83.0908H137.849" stroke="#CACAFB" stroke-width="3.11348" stroke-linecap="round"/>
<rect x="81.6813" y="102.327" width="122.092" height="22.9033" rx="4.67023" stroke="#E1000F" stroke-width="3.11348"/>
<path d="M93.9458 113.779H158.175" stroke="#CACAFB" stroke-width="3.11348" stroke-linecap="round"/>
<rect x="80.1245" y="139.24" width="63.416" height="19.5126" rx="3.11348" fill="#000091"/>
<path d="M98.418 148.997H125.248" stroke="white" stroke-width="3.11348" stroke-linecap="round"/>
<path fill-rule="evenodd" clip-rule="evenodd" d="M206.29 127.599L210.9 140.271L206.695 141.802L202.083 129.13L195.858 133.838L198.081 111.596L214.083 127.205L206.29 127.599Z" fill="#000091"/>
<path fill-rule="evenodd" clip-rule="evenodd" d="M245.496 48.8878C243.93 48.8878 242.657 47.6143 242.657 46.0489C242.657 44.4834 243.93 43.21 245.496 43.21C247.061 43.21 248.335 44.4834 248.335 46.0489C248.335 47.6143 247.061 48.8878 245.496 48.8878Z" fill="#CACAFB"/>
<path fill-rule="evenodd" clip-rule="evenodd" d="M123.691 59.1857C122.832 59.1857 122.134 58.4874 122.134 57.629C122.134 56.7705 122.832 56.0723 123.691 56.0723C124.549 56.0723 125.247 56.7705 125.247 57.629C125.247 58.4874 124.549 59.1857 123.691 59.1857Z" fill="#000091"/>
<path fill-rule="evenodd" clip-rule="evenodd" d="M242.657 77.9591C241.091 77.9591 239.818 76.6856 239.818 75.1202C239.818 73.5547 241.091 72.2812 242.657 72.2812C244.222 72.2812 245.496 73.5547 245.496 75.1202C245.496 76.6856 244.222 77.9591 242.657 77.9591Z" fill="#CACAFB"/>
<path fill-rule="evenodd" clip-rule="evenodd" d="M187.051 34.0558C185.486 34.0558 184.212 32.7822 184.212 31.2169C184.212 29.6513 185.486 28.3779 187.051 28.3779C188.617 28.3779 189.89 29.6513 189.89 31.2169C189.89 32.7822 188.617 34.0558 187.051 34.0558Z" fill="#CACAFB"/>
<path fill-rule="evenodd" clip-rule="evenodd" d="M29.2383 174.669C27.673 174.669 26.3994 173.396 26.3994 171.83C26.3994 170.265 27.673 168.991 29.2383 168.991C30.8037 168.991 32.0773 170.265 32.0773 171.83C32.0773 173.396 30.8037 174.669 29.2383 174.669Z" fill="#CACAFB"/>
</svg>
