<svg width="600" height="160" viewBox="0 0 600 160" fill="none" xmlns="http://www.w3.org/2000/svg">
<g clip-path="url(#clip0_1760_3192)">
<rect width="600" height="160" fill="white"/>
<path d="M214.409 76.8708H201.271L199.47 81.0129H192.417L205.698 48.6315H210.043L223.272 81.0129H216.22L214.409 76.8708ZM207.845 59.002L203.561 71.5192H212.119L207.845 59.002Z" fill="#1B4991"/>
<path d="M233.775 81.0129H227.211V57.1678H233.775V81.0129Z" fill="#1B4991"/>
<path d="M264.375 44.8723V81.0129H258.341V78.07C256.682 80.3376 253.914 81.5873 250.606 81.5873C243.798 81.5873 238.934 76.2862 238.934 69.1105C238.934 61.9348 243.798 56.6336 250.606 56.6336C253.619 56.6336 256.102 57.6414 257.811 59.4757V44.8723H264.375ZM257.903 69.1105C257.903 64.5853 254.84 62.5092 251.817 62.5092C248.408 62.5092 245.589 65.0187 245.589 69.0601C245.589 73.1115 248.357 75.6613 251.817 75.6613C254.84 75.6613 257.903 73.686 257.903 69.1105Z" fill="#1B4991"/>
<path d="M291.089 66.8429V81.0129H285.054V78.7049C283.354 80.4888 280.82 81.5974 277.706 81.5974C272.455 81.5974 269.382 78.5135 269.382 74.462C269.382 70.1284 272.934 67.5282 278.48 67.5282H284.515V66.47C284.515 63.8698 283.008 62.2774 280.037 62.2774C277.462 62.2774 275.661 63.4868 273.666 65.5528L270.257 61.5518C273.076 58.226 276.536 56.6336 280.77 56.6336C286.906 56.6336 291.089 60.0501 291.089 66.8429ZM284.515 72.1037V71.8114H279.355C277.218 71.8114 275.997 72.6278 275.997 74.2201C275.997 75.8629 277.411 76.8203 279.447 76.8203C282.235 76.8203 284.515 74.8954 284.515 72.1037Z" fill="#1B4991"/>
<path d="M319.552 66.218V81.0129H313.029V67.0847C313.029 64.3334 311.228 62.4588 308.551 62.4588C305.875 62.4588 303.982 64.3334 303.982 67.0847V81.0129H297.418V57.1678H303.453V59.3346C305.112 57.6918 307.544 56.6336 310.505 56.6336C316.143 56.6336 319.552 60.4835 319.552 66.218Z" fill="#1B4991"/>
<path d="M341.34 75.5706V81.0129C339.976 81.3455 338.521 81.5874 336.812 81.5874C330.879 81.5874 327.174 78.7453 327.174 72.6278V62.6503H323.379V57.1577H327.174V51.141H333.738V57.1678H340.546V62.6604H333.738V72.0533C333.738 74.7946 335.194 75.7621 338.216 75.7621C339.01 75.7621 340.078 75.6614 341.34 75.5706Z" fill="#1B4991"/>
<path d="M362.945 60.2013L359.637 64.2024C358.08 62.7612 356.188 61.9348 354.234 61.9348C352.677 61.9348 351.659 62.4689 351.659 63.6179C351.659 64.5854 352.432 65.0591 354.193 65.7343L356.523 66.7018C360.848 68.4353 363.291 70.2695 363.291 73.9783C363.291 78.8965 359.159 81.5874 353.898 81.5874C349.614 81.5874 346.062 79.7531 343.925 76.9614L347.232 73.0108C349.176 74.9861 351.415 76.2358 354 76.2358C355.658 76.2358 357.063 75.611 357.063 74.2605C357.063 73.1519 356.045 72.7185 354.58 72.0937L352.005 71.0354C347.914 69.3927 345.441 67.5181 345.441 63.759C345.441 59.1834 349.186 56.5833 354.295 56.5833C357.785 56.5833 360.757 57.7926 362.945 60.2013Z" fill="#1B4991"/>
<path d="M223.283 92.9355L218.316 96.4024C216.179 93.0262 213.157 91.0508 209.117 91.0508C203.133 91.0508 198.757 95.3845 198.757 101.552C198.757 107.67 203.133 111.963 209.117 111.963C213.157 111.963 216.169 109.988 218.316 106.612L223.283 110.079C220.515 114.946 215.304 117.98 209.076 117.98C199.541 117.99 192 110.865 192 101.512C192 92.1695 199.541 85.0341 209.127 85.0341C215.304 85.0341 220.464 88.0677 223.283 92.9355Z" fill="#1B4991"/>
<path d="M252.428 105.463C252.428 112.548 246.587 117.94 239.443 117.94C232.299 117.94 226.59 112.548 226.59 105.463C226.59 98.4281 232.279 93.0362 239.484 93.0362C246.587 93.0362 252.428 98.4281 252.428 105.463ZM233.256 105.513C233.256 109.272 235.83 111.973 239.484 111.973C243.035 111.973 245.712 109.222 245.712 105.513C245.712 101.754 243.035 98.9622 239.484 98.9622C235.83 98.9622 233.256 101.754 233.256 105.513Z" fill="#1B4991"/>
<path d="M279.925 102.621V117.415H273.402V103.487C273.402 100.736 271.601 98.8614 268.924 98.8614C266.248 98.8614 264.355 100.736 264.355 103.487V117.415H257.791V93.5603H263.826V95.7271C265.485 94.0843 267.917 93.0261 270.878 93.0261C276.516 93.0362 279.925 96.8861 279.925 102.621Z" fill="#1B4991"/>
<path d="M307.666 102.621V117.415H301.143V103.487C301.143 100.736 299.342 98.8614 296.665 98.8614C293.989 98.8614 292.096 100.736 292.096 103.487V117.415H285.532V93.5603H291.567V95.7271C293.226 94.0843 295.658 93.0261 298.619 93.0261C304.267 93.0362 307.666 96.8861 307.666 102.621Z" fill="#1B4991"/>
<path d="M336.13 107.68H319.247C320.02 110.713 322.503 112.407 326.014 112.407C328.64 112.407 330.787 111.489 332.731 109.998L335.458 114.432C332.731 116.7 329.525 118 325.821 118C318.178 118 312.632 112.558 312.632 105.523C312.632 98.4885 318.128 93.0463 325.231 93.0463C331.998 93.0463 336.567 97.9644 336.567 104.132C336.567 105.463 336.323 106.864 336.13 107.68ZM319.247 103.104H330.197C330.146 100.071 327.765 98.2869 324.986 98.2869C322.218 98.2869 319.98 100.121 319.247 103.104Z" fill="#1B4991"/>
<path d="M363.667 98.9118L359.098 102.429C357.734 100.403 355.984 98.9622 353.308 98.9622C349.563 98.9622 346.988 101.754 346.988 105.463C346.988 109.222 349.563 112.014 353.308 112.014C355.933 112.014 357.684 110.572 359.098 108.597L363.667 112.064C361.673 115.632 357.979 117.99 353.206 117.99C346.001 117.99 340.312 112.548 340.312 105.463C340.312 98.4281 346.001 93.0362 353.206 93.0362C358.019 93.0362 361.673 95.3441 363.667 98.9118Z" fill="#1B4991"/>
<path d="M384 111.973V117.415C382.636 117.748 381.181 117.99 379.471 117.99C373.539 117.99 369.834 115.148 369.834 109.03V99.0529H366.038V93.5603H369.834V87.5335H376.398V93.5603H383.206V99.0529H376.398V108.446C376.398 111.187 377.853 112.155 380.876 112.155C381.67 112.165 382.738 112.064 384 111.973Z" fill="#1B4991"/>
<path d="M225.623 43.9552C226.936 42.6551 228.656 42 230.386 42H243.676C245.396 42 247.116 42.645 248.429 43.9451C251.054 46.5453 251.054 50.758 248.429 53.3582C247.106 54.6683 245.366 55.3134 243.625 55.3033H230.426C228.686 55.3134 226.956 54.6683 225.623 53.3582C222.998 50.7681 222.998 46.5453 225.623 43.9552Z" fill="url(#paint0_linear_1760_3192)"/>
<path d="M243.676 55.3033C247.386 55.3033 250.393 52.3252 250.393 48.6516C250.393 44.978 247.386 42 243.676 42C239.967 42 236.96 44.978 236.96 48.6516C236.96 52.3252 239.967 55.3033 243.676 55.3033Z" fill="#EF4056"/>
<path d="M139.945 12.9394C141.909 10.9848 144.481 10 147.068 10H166.947C169.519 10 172.091 10.9697 174.055 12.9242C177.982 16.8333 177.982 23.1666 174.055 27.0756C172.076 29.0453 169.473 30.015 166.871 29.9998H147.129C144.527 30.015 141.939 29.0453 139.945 27.0756C136.018 23.1817 136.018 16.8333 139.945 12.9394Z" fill="url(#paint1_linear_1760_3192)"/>
<path d="M166.947 29.9998C172.495 29.9998 176.992 25.5227 176.992 19.9999C176.992 14.4771 172.495 10 166.947 10C161.399 10 156.901 14.4771 156.901 19.9999C156.901 25.5227 161.399 29.9998 166.947 29.9998Z" fill="#EF4056"/>
<path d="M-7.05479 149.939C-5.09132 147.985 -2.51903 147 0.0684938 147H19.9467C22.519 147 25.0913 147.97 27.0548 149.924C30.9817 153.833 30.9817 160.167 27.0548 164.076C25.0761 166.045 22.4734 167.015 19.8706 167H0.129373C-2.47337 167.015 -5.06088 166.045 -7.05479 164.076C-10.9817 160.182 -10.9817 153.833 -7.05479 149.939Z" fill="url(#paint2_linear_1760_3192)"/>
<path d="M19.9467 167C25.4948 167 29.9924 162.523 29.9924 157C29.9924 151.477 25.4948 147 19.9467 147C14.3987 147 9.90106 151.477 9.90106 157C9.90106 162.523 14.3987 167 19.9467 167Z" fill="#EF4056"/>
<path d="M398.872 120.939C400.786 118.985 403.294 118 405.817 118H425.198C427.706 118 430.214 118.97 432.128 120.924C435.957 124.833 435.957 131.167 432.128 135.076C430.199 137.045 427.662 138.015 425.124 138H405.876C403.338 138.015 400.816 137.045 398.872 135.076C395.043 131.182 395.043 124.833 398.872 120.939Z" fill="url(#paint3_linear_1760_3192)"/>
<path d="M425.198 138C430.607 138 434.993 133.523 434.993 128C434.993 122.477 430.607 118 425.198 118C419.789 118 415.404 122.477 415.404 128C415.404 133.523 419.789 138 425.198 138Z" fill="#EF4056"/>
<path d="M570.872 51.9394C572.786 49.9848 575.294 49 577.817 49H597.198C599.706 49 602.214 49.9697 604.128 51.9242C607.957 55.8333 607.957 62.1666 604.128 66.0756C602.199 68.0453 599.662 69.015 597.124 68.9998H577.876C575.338 69.015 572.816 68.0453 570.872 66.0756C567.043 62.1817 567.043 55.8333 570.872 51.9394Z" fill="url(#paint4_linear_1760_3192)"/>
<path d="M597.198 68.9998C602.607 68.9998 606.993 64.5227 606.993 58.9999C606.993 53.4771 602.607 49 597.198 49C591.789 49 587.404 53.4771 587.404 58.9999C587.404 64.5227 591.789 68.9998 597.198 68.9998Z" fill="#EF4056"/>
<path d="M89.8716 86.9394C91.786 84.9848 94.294 84 96.8168 84H116.198C118.706 84 121.214 84.9697 123.128 86.9242C126.957 90.8333 126.957 97.1666 123.128 101.076C121.199 103.045 118.662 104.015 116.124 104H96.8761C94.3385 104.015 91.8156 103.045 89.8716 101.076C86.0428 97.1817 86.0428 90.8333 89.8716 86.9394Z" fill="url(#paint5_linear_1760_3192)"/>
<path d="M116.198 104C121.607 104 125.993 99.5227 125.993 93.9999C125.993 88.4771 121.607 84 116.198 84C110.789 84 106.404 88.4771 106.404 93.9999C106.404 99.5227 110.789 104 116.198 104Z" fill="#FAD776"/>
<path d="M550.872 149.939C552.786 147.985 555.294 147 557.817 147H577.198C579.706 147 582.214 147.97 584.128 149.924C587.957 153.833 587.957 160.167 584.128 164.076C582.199 166.045 579.662 167.015 577.124 167H557.876C555.338 167.015 552.816 166.045 550.872 164.076C547.043 160.182 547.043 153.833 550.872 149.939Z" fill="url(#paint6_linear_1760_3192)"/>
<path d="M577.198 167C582.607 167 586.993 162.523 586.993 157C586.993 151.477 582.607 147 577.198 147C571.789 147 567.404 151.477 567.404 157C567.404 162.523 571.789 167 577.198 167Z" fill="#FAD776"/>
<path d="M377.872 27.7924C379.786 25.9356 382.294 25 384.817 25H404.198C406.706 25 409.214 25.9212 411.128 27.778C414.957 31.4916 414.957 37.5082 411.128 41.2218C409.199 43.093 406.662 44.0142 404.124 43.9998H384.876C382.338 44.0142 379.816 43.093 377.872 41.2218C374.043 37.5226 374.043 31.4916 377.872 27.7924Z" fill="url(#paint7_linear_1760_3192)"/>
<path d="M404.198 43.9998C409.607 43.9998 413.993 39.7466 413.993 34.4999C413.993 29.2533 409.607 25 404.198 25C398.789 25 394.404 29.2533 394.404 34.4999C394.404 39.7466 398.789 43.9998 404.198 43.9998Z" fill="#FAD776"/>
<path d="M158.872 135.939C160.786 133.985 163.294 133 165.817 133H185.198C187.706 133 190.214 133.97 192.128 135.924C195.957 139.833 195.957 146.167 192.128 150.076C190.199 152.045 187.662 153.015 185.124 153H165.876C163.338 153.015 160.816 152.045 158.872 150.076C155.043 146.182 155.043 139.833 158.872 135.939Z" fill="url(#paint8_linear_1760_3192)"/>
<path d="M185.198 153C190.607 153 194.993 148.523 194.993 143C194.993 137.477 190.607 133 185.198 133C179.789 133 175.404 137.477 175.404 143C175.404 148.523 179.789 153 185.198 153Z" fill="#1B4991"/>
<path d="M12.8716 31.9394C14.786 29.9848 17.294 29 19.8168 29H39.1981C41.706 29 44.214 29.9697 46.1284 31.9242C49.9572 35.8333 49.9572 42.1666 46.1284 46.0756C44.1992 48.0453 41.6615 49.015 39.1239 48.9998H19.8761C17.3385 49.015 14.8156 48.0453 12.8716 46.0756C9.04281 42.1817 9.04281 35.8333 12.8716 31.9394Z" fill="url(#paint9_linear_1760_3192)"/>
<path d="M39.198 48.9998C44.6074 48.9998 48.9926 44.5227 48.9926 38.9999C48.9926 33.4771 44.6074 29 39.198 29C33.7887 29 29.4035 33.4771 29.4035 38.9999C29.4035 44.5227 33.7887 48.9998 39.198 48.9998Z" fill="#1B4991"/>
<path d="M470.872 93.9394C472.786 91.9848 475.294 91 477.817 91H497.198C499.706 91 502.214 91.9697 504.128 93.9242C507.957 97.8333 507.957 104.167 504.128 108.076C502.199 110.045 499.662 111.015 497.124 111H477.876C475.338 111.015 472.816 110.045 470.872 108.076C467.043 104.182 467.043 97.8333 470.872 93.9394Z" fill="url(#paint10_linear_1760_3192)"/>
<path d="M497.198 111C502.607 111 506.993 106.523 506.993 101C506.993 95.4771 502.607 91 497.198 91C491.789 91 487.404 95.4771 487.404 101C487.404 106.523 491.789 111 497.198 111Z" fill="#1B4991"/>
<path d="M293.872 -3.06063C295.786 -5.01516 298.294 -6 300.817 -6H320.198C322.706 -6 325.214 -5.03031 327.128 -3.07578C330.957 0.833273 330.957 7.16655 327.128 11.0756C325.199 13.0453 322.662 14.015 320.124 13.9998H300.876C298.338 14.015 295.816 13.0453 293.872 11.0756C290.043 7.1817 290.043 0.833273 293.872 -3.06063Z" fill="url(#paint11_linear_1760_3192)"/>
<path d="M320.198 13.9998C325.607 13.9998 329.993 9.52271 329.993 3.99991C329.993 -1.52289 325.607 -6 320.198 -6C314.789 -6 310.404 -1.52289 310.404 3.99991C310.404 9.52271 314.789 13.9998 320.198 13.9998Z" fill="#1B4991"/>
</g>
<defs>
<linearGradient id="paint0_linear_1760_3192" x1="223.805" y1="48.6558" x2="250.131" y2="48.6558" gradientUnits="userSpaceOnUse">
<stop stop-color="#F38192" stop-opacity="0"/>
<stop offset="1" stop-color="#F05B89"/>
</linearGradient>
<linearGradient id="paint1_linear_1760_3192" x1="137.226" y1="20.0061" x2="176.6" y2="20.0061" gradientUnits="userSpaceOnUse">
<stop stop-color="#F38192" stop-opacity="0"/>
<stop offset="1" stop-color="#F05B89"/>
</linearGradient>
<linearGradient id="paint2_linear_1760_3192" x1="-9.77412" y1="157.006" x2="29.6005" y2="157.006" gradientUnits="userSpaceOnUse">
<stop stop-color="#F38192" stop-opacity="0"/>
<stop offset="1" stop-color="#F05B89"/>
</linearGradient>
<linearGradient id="paint3_linear_1760_3192" x1="396.22" y1="128.006" x2="434.61" y2="128.006" gradientUnits="userSpaceOnUse">
<stop stop-color="#F38192" stop-opacity="0"/>
<stop offset="1" stop-color="#F05B89"/>
</linearGradient>
<linearGradient id="paint4_linear_1760_3192" x1="568.22" y1="59.0061" x2="606.61" y2="59.0061" gradientUnits="userSpaceOnUse">
<stop stop-color="#F38192" stop-opacity="0"/>
<stop offset="1" stop-color="#F05B89"/>
</linearGradient>
<linearGradient id="paint5_linear_1760_3192" x1="87.2202" y1="94.0061" x2="125.61" y2="94.0061" gradientUnits="userSpaceOnUse">
<stop stop-color="#FAD776" stop-opacity="0"/>
<stop offset="1" stop-color="#FAD776"/>
</linearGradient>
<linearGradient id="paint6_linear_1760_3192" x1="548.22" y1="157.006" x2="586.61" y2="157.006" gradientUnits="userSpaceOnUse">
<stop stop-color="#FAD776" stop-opacity="0"/>
<stop offset="1" stop-color="#FAD776"/>
</linearGradient>
<linearGradient id="paint7_linear_1760_3192" x1="375.22" y1="34.5058" x2="413.61" y2="34.5058" gradientUnits="userSpaceOnUse">
<stop stop-color="#FAD776" stop-opacity="0"/>
<stop offset="1" stop-color="#FAD776"/>
</linearGradient>
<linearGradient id="paint8_linear_1760_3192" x1="156.22" y1="143.006" x2="194.61" y2="143.006" gradientUnits="userSpaceOnUse">
<stop stop-color="#1B4991" stop-opacity="0"/>
<stop offset="1" stop-color="#1B4991"/>
</linearGradient>
<linearGradient id="paint9_linear_1760_3192" x1="10.2202" y1="39.0061" x2="48.6104" y2="39.0061" gradientUnits="userSpaceOnUse">
<stop stop-color="#1B4991" stop-opacity="0"/>
<stop offset="1" stop-color="#1B4991"/>
</linearGradient>
<linearGradient id="paint10_linear_1760_3192" x1="468.22" y1="101.006" x2="506.61" y2="101.006" gradientUnits="userSpaceOnUse">
<stop stop-color="#1B4991" stop-opacity="0"/>
<stop offset="1" stop-color="#1B4991"/>
</linearGradient>
<linearGradient id="paint11_linear_1760_3192" x1="291.22" y1="4.00612" x2="329.61" y2="4.00612" gradientUnits="userSpaceOnUse">
<stop stop-color="#1B4991" stop-opacity="0"/>
<stop offset="1" stop-color="#1B4991"/>
</linearGradient>
<clipPath id="clip0_1760_3192">
<rect width="600" height="160" fill="white"/>
</clipPath>
</defs>
</svg>
