<svg width="94" height="56" viewBox="0 0 94 56" fill="none" xmlns="http://www.w3.org/2000/svg">
<path d="M6.24363 13.392C10.406 9.28065 15.8591 7.20905 21.3445 7.20905H63.485C68.9381 7.20905 74.3912 9.24878 78.5536 13.3601C86.8784 21.5828 86.8784 34.9048 78.5536 43.1275C74.3589 47.2707 68.8413 49.3105 63.3236 49.2786H21.4736C15.9559 49.3105 10.4706 47.2707 6.24363 43.1275C-2.08121 34.9367 -2.08121 21.5828 6.24363 13.392Z" fill="url(#paint0_linear)"/>
<path d="M64.9132 2.25828C65.7065 1.38757 67.0767 1.38757 67.87 2.25828L71.2445 5.9621C71.7708 6.53971 72.5852 6.75794 73.3298 6.52084L78.1041 5.00051C79.2265 4.6431 80.4131 5.32821 80.6648 6.47891L81.7353 11.3738C81.9023 12.1371 82.4985 12.7333 83.2618 12.9003L88.1567 13.9708C89.3074 14.2225 89.9925 15.4091 89.6351 16.5315L88.1148 21.3058C87.8777 22.0504 88.0959 22.8648 88.6735 23.3911L92.3773 26.7656C93.248 27.5589 93.248 28.9291 92.3773 29.7224L88.6735 33.097C88.0959 33.6232 87.8777 34.4377 88.1148 35.1822L89.6351 39.9565C89.9925 41.0789 89.3074 42.2655 88.1567 42.5172L83.2618 43.5877C82.4985 43.7547 81.9023 44.3509 81.7353 45.1143L80.6648 50.0091C80.4131 51.1598 79.2265 51.8449 78.1041 51.4875L73.3298 49.9672C72.5852 49.7301 71.7708 49.9483 71.2445 50.5259L67.87 54.2297C67.0767 55.1005 65.7065 55.1005 64.9132 54.2297L61.5387 50.5259C61.0124 49.9483 60.198 49.7301 59.4534 49.9672L54.6791 51.4875C53.5567 51.8449 52.3701 51.1598 52.1184 50.0091L51.0479 45.1143C50.8809 44.3509 50.2847 43.7547 49.5214 43.5877L44.6265 42.5172C43.4758 42.2655 42.7907 41.0789 43.1481 39.9565L44.6684 35.1822C44.9055 34.4377 44.6873 33.6232 44.1097 33.097L40.4059 29.7224C39.5352 28.9291 39.5352 27.5589 40.4059 26.7656L44.1097 23.3911C44.6873 22.8648 44.9055 22.0504 44.6684 21.3058L43.1481 16.5315C42.7907 15.4091 43.4758 14.2225 44.6265 13.9708L49.5214 12.9003C50.2847 12.7333 50.8809 12.1371 51.0479 11.3738L52.1184 6.47891C52.3701 5.32821 53.5567 4.6431 54.6791 5.00051L59.4534 6.52084C60.198 6.75794 61.0124 6.53971 61.5387 5.9621L64.9132 2.25828Z" fill="#EF4056"/>
<path d="M56.8601 28.9294L63.6497 35.4748L75.9231 23.6426" stroke="white" stroke-width="4" stroke-linecap="round" stroke-linejoin="round"/>
<path d="M66.3916 7.54934L68.9495 10.3568C70.002 11.5121 71.6309 11.9485 73.12 11.4743L76.739 10.3219L77.5504 14.0322C77.8843 15.5589 79.0767 16.7513 80.6034 17.0852L84.3137 17.8967L83.1613 21.5156C82.6871 23.0047 83.1236 24.6336 84.2788 25.6862L87.0863 28.244L84.2788 30.8019C83.1236 31.8544 82.6871 33.4833 83.1613 34.9725L84.3137 38.5914L80.6034 39.4029C79.0767 39.7367 77.8843 40.9292 77.5504 42.4559L76.7389 46.1662L73.12 45.0138C71.6309 44.5396 70.002 44.9761 68.9495 46.1313L66.3916 48.9388L63.8337 46.1313C62.7812 44.9761 61.1523 44.5396 59.6632 45.0138L56.0443 46.1662L56.6511 48.0719L56.0442 46.1662L55.2328 42.4559C54.8989 40.9292 53.7065 39.7367 52.1798 39.4029L48.4695 38.5914L49.6219 34.9725C50.0961 33.4833 49.6596 31.8545 48.5044 30.8019L45.6969 28.244L48.5044 25.6862C49.6596 24.6336 50.0961 23.0047 49.6219 21.5156L48.4695 17.8967L52.1798 17.0852C53.7065 16.7513 54.8989 15.5589 55.2328 14.0322L56.0442 10.3219L59.6632 11.4743C61.1523 11.9485 62.7812 11.512 63.8337 10.3568L66.3916 7.54934Z" stroke="white" stroke-width="4" stroke-linecap="round" stroke-linejoin="round"/>
<defs>
<linearGradient id="paint0_linear" x1="0.47884" y1="28.2569" x2="83.9502" y2="28.2569" gradientUnits="userSpaceOnUse">
<stop stop-color="#F38192" stop-opacity="0"/>
<stop offset="1" stop-color="#F05B89"/>
</linearGradient>
</defs>
</svg>
