<svg width="94" height="54" viewBox="0 0 94 54" fill="none" xmlns="http://www.w3.org/2000/svg">
<path d="M6.24363 12.3921C10.406 8.28071 15.8591 6.20911 21.3445 6.20911H63.485C68.9381 6.20911 74.3912 8.24884 78.5536 12.3602C86.8784 20.5829 86.8784 33.9049 78.5536 42.1276C74.3589 46.2708 68.8413 48.3105 63.3236 48.2787H21.4736C15.9559 48.3105 10.4706 46.2708 6.24363 42.1276C-2.08121 33.9368 -2.08121 20.5829 6.24363 12.3921Z" fill="url(#paint0_linear)"/>
<path d="M64.9132 1.25832C65.7065 0.387608 67.0767 0.387608 67.87 1.25832L71.2445 4.96213C71.7708 5.53974 72.5852 5.75797 73.3298 5.52088L78.1041 4.00054C79.2265 3.64314 80.4131 4.32824 80.6648 5.47895L81.7353 10.3738C81.9023 11.1372 82.4985 11.7334 83.2618 11.9003L88.1567 12.9708C89.3074 13.2225 89.9925 14.4091 89.6351 15.5315L88.1148 20.3059C87.8777 21.0504 88.0959 21.8649 88.6735 22.3911L92.3773 25.7656C93.248 26.5589 93.248 27.9291 92.3773 28.7225L88.6735 32.097C88.0959 32.6232 87.8777 33.4377 88.1148 34.1822L89.6351 38.9566C89.9925 40.079 89.3074 41.2656 88.1567 41.5172L83.2618 42.5878C82.4985 42.7547 81.9023 43.3509 81.7353 44.1143L80.6648 49.0091C80.4131 50.1599 79.2265 50.845 78.1041 50.4875L73.3298 48.9672C72.5852 48.7301 71.7708 48.9484 71.2445 49.526L67.87 53.2298C67.0767 54.1005 65.7065 54.1005 64.9132 53.2298L61.5387 49.526C61.0124 48.9484 60.198 48.7301 59.4534 48.9672L54.6791 50.4875C53.5567 50.845 52.3701 50.1599 52.1184 49.0091L51.0479 44.1143C50.8809 43.3509 50.2847 42.7547 49.5214 42.5878L44.6265 41.5172C43.4758 41.2656 42.7907 40.0789 43.1481 38.9566L44.6684 34.1822C44.9055 33.4377 44.6873 32.6232 44.1097 32.097L40.4059 28.7225C39.5352 27.9291 39.5352 26.5589 40.4059 25.7656L44.1097 22.3911C44.6873 21.8649 44.9055 21.0504 44.6684 20.3059L43.1481 15.5315C42.7907 14.4091 43.4758 13.2225 44.6265 12.9708L49.5214 11.9003C50.2847 11.7334 50.8809 11.1372 51.0479 10.3738L52.1184 5.47895C52.3701 4.32824 53.5567 3.64314 54.6791 4.00054L59.4534 5.52088C60.198 5.75797 61.0124 5.53974 61.5387 4.96213L64.9132 1.25832Z" fill="#EF4056"/>
<path fill-rule="evenodd" clip-rule="evenodd" d="M77.3629 21.2545C78.1296 22.0498 78.1064 23.3159 77.3112 24.0825L65.0378 35.9147C64.2631 36.6615 63.0363 36.6615 62.2616 35.9147L55.472 29.3692C54.6768 28.6026 54.6537 27.3365 55.4203 26.5413C56.1869 25.746 57.453 25.7229 58.2482 26.4895L63.6497 31.6968L74.535 21.2028C75.3302 20.4362 76.5963 20.4593 77.3629 21.2545Z" fill="white"/>
<path fill-rule="evenodd" clip-rule="evenodd" d="M66.3916 9.51895L65.3121 10.7038C63.7334 12.4366 61.29 13.0913 59.0563 12.38L57.5291 11.8937L57.1866 13.4595C56.6858 15.7495 54.8971 17.5382 52.6071 18.039L51.0412 18.3815L51.5276 19.9088C52.2389 22.1424 51.5842 24.5858 49.8514 26.1645L48.6665 27.244L49.8514 28.3235C51.5842 29.9023 52.2389 32.3456 51.5276 34.5793L51.0412 36.1066L52.6071 36.449C54.8971 36.9499 56.6858 38.7385 57.1866 41.0285L57.5291 42.5944L59.0564 42.108C61.29 41.3968 63.7334 42.0515 65.3121 43.7843L66.3916 44.9691L67.4711 43.7843C69.0499 42.0514 71.4932 41.3968 73.7269 42.108L75.2541 42.5944L75.5966 41.0285C76.0974 38.7385 77.8861 36.9498 80.1761 36.449L81.742 36.1066L81.2556 34.5793C80.5443 32.3456 81.199 29.9023 82.9319 28.3235L84.1167 27.244L82.9318 26.1645C81.199 24.5858 80.5443 22.1424 81.2556 19.9088L81.742 18.3815L80.1761 18.039C77.8861 17.5382 76.0974 15.7495 75.5966 13.4595L75.2541 11.8937L73.7269 12.38C71.4932 13.0913 69.0499 12.4366 67.4711 10.7038L66.3916 9.51895ZM67.87 5.20235C67.0767 4.33164 65.7065 4.33164 64.9132 5.20235L62.3553 8.00984C61.8291 8.58745 61.0146 8.80568 60.2701 8.56858L56.6511 7.41617C55.5287 7.05876 54.3421 7.74387 54.0904 8.89457L53.279 12.6049C53.112 13.3682 52.5158 13.9644 51.7525 14.1314L48.0422 14.9429C46.8915 15.1945 46.2063 16.3811 46.5638 17.5035L47.7162 21.1225C47.9533 21.867 47.735 22.6815 47.1574 23.2077L44.3499 25.7656C43.4792 26.5589 43.4792 27.9291 44.3499 28.7224L47.1574 31.2803C47.735 31.8066 47.9533 32.621 47.7162 33.3656L46.5638 36.9845C46.2063 38.1069 46.8914 39.2935 48.0422 39.5452L51.7525 40.3566C52.5158 40.5236 53.112 41.1198 53.279 41.8832L54.0904 45.5935C54.3421 46.7442 55.5287 47.4293 56.6511 47.0719L60.2701 45.9195C61.0146 45.6824 61.8291 45.9006 62.3553 46.4782L64.9132 49.2857C65.7065 50.1564 67.0767 50.1564 67.87 49.2857L70.4279 46.4782C70.9542 45.9006 71.7686 45.6824 72.5132 45.9195L76.1321 47.0719C77.2545 47.4293 78.4411 46.7442 78.6928 45.5935L79.5042 41.8832C79.6712 41.1198 80.2674 40.5236 81.0307 40.3566L84.741 39.5452C85.8918 39.2935 86.5769 38.1069 86.2195 36.9845L85.067 33.3656C84.8299 32.621 85.0482 31.8066 85.6258 31.2803L88.4333 28.7224C89.304 27.9291 89.304 26.5589 88.4333 25.7656L85.6258 23.2077C85.0482 22.6815 84.8299 21.867 85.067 21.1225L86.2195 17.5035C86.5769 16.3811 85.8918 15.1945 84.741 14.9428L81.0307 14.1314C80.2674 13.9644 79.6712 13.3682 79.5042 12.6049L78.6928 8.89457C78.4411 7.74387 77.2545 7.05876 76.1321 7.41617L72.5132 8.56858C71.7686 8.80568 70.9542 8.58745 70.4279 8.00984L67.87 5.20235Z" fill="white"/>
<defs>
<linearGradient id="paint0_linear" x1="0.47884" y1="27.257" x2="83.9502" y2="27.257" gradientUnits="userSpaceOnUse">
<stop stop-color="#F38192" stop-opacity="0"/>
<stop offset="1" stop-color="#F05B89"/>
</linearGradient>
</defs>
</svg>
