<svg width="81" height="79" viewBox="0 0 81 79" fill="none" xmlns="http://www.w3.org/2000/svg">
<mask id="path-1-inside-1" fill="white">
<path fill-rule="evenodd" clip-rule="evenodd" d="M42.0508 1.12739C40.9188 0.557104 39.5834 0.557105 38.4514 1.12739L2.20034 19.3901C-0.733448 20.8681 -0.733444 25.0567 2.20034 26.5347L17.2911 34.1372V58.5318C17.2911 59.2584 17.4853 59.9692 17.9301 60.5438C19.9073 63.0975 26.6289 70.1971 40.2511 70.1971C53.8733 70.1971 60.5949 63.0975 62.5721 60.5438C63.017 59.9692 63.2111 59.2584 63.2111 58.5318V34.1372L78.3019 26.5347C81.2356 25.0567 81.2356 20.8681 78.3019 19.3901L42.0508 1.12739ZM21.2911 36.1524L38.4514 44.7975C39.5834 45.3677 40.9188 45.3677 42.0508 44.7975L59.2111 36.1524V58.3447C57.4647 60.4933 51.783 66.1971 40.2511 66.1971C28.7192 66.1971 23.0375 60.4933 21.2911 58.3447V36.1524Z"/>
</mask>
<path fill-rule="evenodd" clip-rule="evenodd" d="M42.0508 1.12739C40.9188 0.557104 39.5834 0.557105 38.4514 1.12739L2.20034 19.3901C-0.733448 20.8681 -0.733444 25.0567 2.20034 26.5347L17.2911 34.1372V58.5318C17.2911 59.2584 17.4853 59.9692 17.9301 60.5438C19.9073 63.0975 26.6289 70.1971 40.2511 70.1971C53.8733 70.1971 60.5949 63.0975 62.5721 60.5438C63.017 59.9692 63.2111 59.2584 63.2111 58.5318V34.1372L78.3019 26.5347C81.2356 25.0567 81.2356 20.8681 78.3019 19.3901L42.0508 1.12739ZM21.2911 36.1524L38.4514 44.7975C39.5834 45.3677 40.9188 45.3677 42.0508 44.7975L59.2111 36.1524V58.3447C57.4647 60.4933 51.783 66.1971 40.2511 66.1971C28.7192 66.1971 23.0375 60.4933 21.2911 58.3447V36.1524Z" fill="white"/>
<path d="M38.4514 1.12739L40.2511 4.69968V4.69968L38.4514 1.12739ZM42.0508 1.12739L43.8504 -2.44489L43.8504 -2.44489L42.0508 1.12739ZM2.20034 19.3901L4 22.9624H4L2.20034 19.3901ZM2.20034 26.5347L0.400676 30.107H0.400678L2.20034 26.5347ZM17.2911 34.1372H21.2911V31.6734L19.0908 30.5649L17.2911 34.1372ZM17.9301 60.5438L14.7673 62.9925L14.7673 62.9925L17.9301 60.5438ZM62.5721 60.5438L65.7349 62.9925H65.7349L62.5721 60.5438ZM63.2111 34.1372L61.4114 30.5649L59.2111 31.6734V34.1372H63.2111ZM78.3019 26.5347L80.1015 30.107L80.1015 30.107L78.3019 26.5347ZM78.3019 19.3901L80.1015 15.8179L78.3019 19.3901ZM38.4514 44.7975L36.6518 48.3697L36.6518 48.3698L38.4514 44.7975ZM21.2911 36.1524L23.0908 32.5801L17.2911 29.6583V36.1524H21.2911ZM42.0508 44.7975L40.2511 41.2252L40.2511 41.2252L42.0508 44.7975ZM59.2111 36.1524H63.2111V29.6583L57.4114 32.5801L59.2111 36.1524ZM59.2111 58.3447L62.3151 60.8676L63.2111 59.7653V58.3447H59.2111ZM21.2911 58.3447H17.2911V59.7653L18.1871 60.8676L21.2911 58.3447ZM40.2511 4.69968L40.2511 4.69968L43.8504 -2.44489C41.5864 -3.58547 38.9158 -3.58547 36.6518 -2.44489L40.2511 4.69968ZM4 22.9624L40.2511 4.69968L36.6518 -2.44489L0.400673 15.8179L4 22.9624ZM4 22.9624C3.98647 22.9556 3.97947 22.9509 3.97737 22.9494C3.97525 22.948 3.97623 22.9484 3.97917 22.9512C3.98207 22.9539 3.98561 22.9577 3.98926 22.9623C3.99286 22.9668 3.99581 22.9712 3.99809 22.9751C4.00265 22.9828 4.0031 22.9861 4.00229 22.983C4.00136 22.9795 4 22.9722 4 22.9624C4 22.9526 4.00136 22.9453 4.00229 22.9418C4.0031 22.9388 4.00265 22.942 3.99809 22.9498C3.99581 22.9537 3.99286 22.958 3.98926 22.9626C3.98561 22.9672 3.98207 22.9709 3.97917 22.9736C3.97622 22.9764 3.97525 22.9769 3.97737 22.9754C3.97946 22.9739 3.98646 22.9692 4 22.9624L0.400673 15.8179C-5.46691 18.7739 -5.46688 27.151 0.400676 30.107L4 22.9624ZM19.0908 30.5649L4 22.9624L0.400678 30.107L15.4915 37.7095L19.0908 30.5649ZM13.2911 34.1372V58.5318H21.2911V34.1372H13.2911ZM13.2911 58.5318C13.2911 59.9532 13.673 61.5792 14.7673 62.9925L21.093 58.095C21.2975 58.3592 21.2911 58.5637 21.2911 58.5318H13.2911ZM14.7673 62.9925C17.241 66.1876 25.0198 74.1971 40.2511 74.1971V66.1971C28.2381 66.1971 22.5736 60.0074 21.0929 58.095L14.7673 62.9925ZM40.2511 74.1971C55.4824 74.1971 63.2613 66.1876 65.7349 62.9925L59.4093 58.095C57.9286 60.0074 52.2641 66.1971 40.2511 66.1971V74.1971ZM65.7349 62.9925C66.8292 61.5792 67.2111 59.9532 67.2111 58.5318H59.2111C59.2111 58.5637 59.2047 58.3592 59.4093 58.095L65.7349 62.9925ZM67.2111 58.5318V34.1372H59.2111V58.5318H67.2111ZM76.5022 22.9624L61.4114 30.5649L65.0107 37.7095L80.1015 30.107L76.5022 22.9624ZM76.5022 22.9624C76.5157 22.9692 76.5227 22.9739 76.5248 22.9754C76.5269 22.9769 76.526 22.9764 76.523 22.9736C76.5201 22.9709 76.5166 22.9672 76.5129 22.9626C76.5093 22.958 76.5064 22.9537 76.5041 22.9498C76.4995 22.942 76.4991 22.9388 76.4999 22.9418C76.5008 22.9453 76.5022 22.9526 76.5022 22.9624C76.5022 22.9722 76.5008 22.9795 76.4999 22.983C76.4991 22.9861 76.4995 22.9828 76.5041 22.9751C76.5064 22.9712 76.5093 22.9668 76.5129 22.9623C76.5166 22.9577 76.5201 22.9539 76.523 22.9512C76.526 22.9484 76.5269 22.948 76.5248 22.9494C76.5227 22.9509 76.5157 22.9556 76.5022 22.9624L80.1015 30.107C85.9691 27.151 85.9691 18.7738 80.1015 15.8179L76.5022 22.9624ZM40.2511 4.69968L76.5022 22.9624L80.1015 15.8179L43.8504 -2.44489L40.2511 4.69968ZM40.2511 41.2252L23.0908 32.5801L19.4915 39.7246L36.6518 48.3697L40.2511 41.2252ZM40.2511 41.2252V41.2252L36.6518 48.3698C38.9158 49.5103 41.5864 49.5103 43.8504 48.3697L40.2511 41.2252ZM57.4114 32.5801L40.2511 41.2252L43.8504 48.3697L61.0107 39.7246L57.4114 32.5801ZM63.2111 58.3447V36.1524H55.2111V58.3447H63.2111ZM40.2511 70.1971C53.3128 70.1971 60.0415 63.6648 62.3151 60.8676L56.1071 55.8217C54.8878 57.3218 50.2531 62.197 40.2511 62.197V70.1971ZM18.1871 60.8676C20.4607 63.6648 27.1894 70.1971 40.2511 70.1971V62.197C30.2491 62.197 25.6144 57.3218 24.3951 55.8218L18.1871 60.8676ZM17.2911 36.1524V58.3447H25.2911V36.1524H17.2911Z" fill="#1B4991" mask="url(#path-1-inside-1)"/>
<path d="M40.008 21.4484L52.2347 37.1369V74.1171" stroke="#EF4056" stroke-width="8" stroke-linecap="round" stroke-linejoin="round"/>
</svg>
