<svg width="107" height="103" viewBox="0 0 107 103" fill="none" xmlns="http://www.w3.org/2000/svg">
<rect x="2" y="13.6706" width="56.2727" height="71.7273" rx="2" stroke="#1B4991" stroke-width="4" stroke-linejoin="round"/>
<path d="M33.2159 4.8101C33.5364 2.62433 35.5681 1.11224 37.7539 1.43276L70.3597 6.21395C72.5455 6.53446 74.0576 8.5662 73.7371 10.752L66.6016 59.4134C66.281 61.5992 64.2493 63.1113 62.0635 62.7907L29.4577 58.0095C27.2719 57.689 25.7598 55.6573 26.0803 53.4715L33.2159 4.8101Z" fill="white"/>
<path fill-rule="evenodd" clip-rule="evenodd" d="M40.5509 9.92845L34.576 50.6745L59.2665 54.2951L65.2414 13.549L40.5509 9.92845ZM37.7539 1.43276C35.5681 1.11224 33.5364 2.62433 33.2159 4.8101L26.0803 53.4715C25.7598 55.6573 27.2719 57.689 29.4577 58.0095L62.0635 62.7907C64.2493 63.1113 66.281 61.5992 66.6016 59.4134L73.7371 10.752C74.0576 8.5662 72.5455 6.53446 70.3597 6.21395L37.7539 1.43276Z" fill="#EF4056"/>
<path d="M51.5516 17.8381C52.1523 15.7122 54.3626 14.4757 56.4885 15.0764L88.2014 24.0371C90.3273 24.6378 91.5637 26.8481 90.9631 28.974L77.59 76.3028C76.9893 78.4287 74.779 79.6651 72.6531 79.0645L40.9402 70.1038C38.8143 69.5031 37.5778 67.2927 38.1785 65.1668L51.5516 17.8381Z" fill="white"/>
<path fill-rule="evenodd" clip-rule="evenodd" d="M58.1625 23.8626L46.9647 63.4928L70.9791 70.2782L82.1768 30.648L58.1625 23.8626ZM56.4885 15.0764C54.3626 14.4757 52.1523 15.7122 51.5516 17.8381L38.1785 65.1668C37.5778 67.2927 38.8143 69.5031 40.9402 70.1038L72.6531 79.0645C74.779 79.6651 76.9893 78.4287 77.59 76.3028L90.9631 28.974C91.5637 26.8481 90.3273 24.6378 88.2014 24.0371L56.4885 15.0764Z" fill="#FAD776"/>
<path d="M70.4037 35.0529C71.6591 33.2351 74.1504 32.7792 75.9682 34.0346L103.084 52.7619C104.902 54.0173 105.358 56.5086 104.103 58.3264L76.1539 98.795C74.8985 100.613 72.4072 101.069 70.5894 99.8133L43.4731 81.086C41.6554 79.8306 41.1995 77.3393 42.4549 75.5216L70.4037 35.0529Z" fill="white"/>
<path fill-rule="evenodd" clip-rule="evenodd" d="M74.7133 42.8904L51.3107 76.7764L71.8443 90.9575L95.2469 57.0715L74.7133 42.8904ZM75.9682 34.0346C74.1504 32.7792 71.6591 33.2351 70.4037 35.0529L42.4549 75.5216C41.1995 77.3393 41.6554 79.8306 43.4731 81.086L70.5894 99.8133C72.4072 101.069 74.8985 100.613 76.1539 98.795L104.103 58.3264C105.358 56.5086 104.902 54.0173 103.084 52.7619L75.9682 34.0346Z" fill="#1B4991"/>
<path d="M0 17.0624C0 14.3783 2.59129 12.4559 5.16003 13.2343L48.16 26.2646C49.8466 26.7756 51 28.3303 51 30.0927V97.4607C51 100.145 48.4087 102.067 45.84 101.289L2.83997 88.2585C1.15338 87.7474 0 86.1927 0 84.4304V17.0624Z" fill="white"/>
<path fill-rule="evenodd" clip-rule="evenodd" d="M47 30.0927L4 17.0624L4 84.4304L47 97.4607V30.0927ZM5.16003 13.2343C2.59129 12.4559 0 14.3783 0 17.0624V84.4304C0 86.1927 1.15338 87.7474 2.83997 88.2585L45.84 101.289C48.4087 102.067 51 100.145 51 97.4607V30.0927C51 28.3303 49.8466 26.7756 48.16 26.2646L5.16003 13.2343Z" fill="#1B4991"/>
</svg>
