<svg width="94" height="47" viewBox="0 0 94 47" fill="none" xmlns="http://www.w3.org/2000/svg">
<path d="M6.92123 6.85397C11.5354 2.29643 17.5803 0 23.661 0H70.3748C76.4197 0 82.4646 2.2611 87.0788 6.81864C96.3071 15.9337 96.3071 30.7015 87.0788 39.8166C82.4288 44.4095 76.3124 46.6706 70.196 46.6353H23.804C17.6876 46.6706 11.6069 44.4095 6.92123 39.8166C-2.30708 30.7369 -2.30708 15.9337 6.92123 6.85397Z" fill="url(#paint0_linear)"/>
<path d="M70.3178 46.6357C83.3971 46.6357 94 36.1959 94 23.3178C94 10.4397 83.3971 0 70.3178 0C57.2385 0 46.6357 10.4397 46.6357 23.3178C46.6357 36.1959 57.2385 46.6357 70.3178 46.6357Z" fill="#EF4056"/>
<path d="M60.4806 24.0775L68.007 31.3333L81.6124 18.2171" stroke="white" stroke-width="8" stroke-linecap="round" stroke-linejoin="round"/>
<defs>
<linearGradient id="paint0_linear" x1="0.530807" y1="23.3321" x2="93.0611" y2="23.3321" gradientUnits="userSpaceOnUse">
<stop stop-color="#F38192" stop-opacity="0"/>
<stop offset="1" stop-color="#F05B89"/>
</linearGradient>
</defs>
</svg>
