<svg width="124" height="332" viewBox="0 0 124 332" fill="none" xmlns="http://www.w3.org/2000/svg">
<path d="M115 19.5H14V329.5H115V19.5Z" fill="white" stroke="#1B4991" stroke-width="5" stroke-miterlimit="10" stroke-linecap="round" stroke-linejoin="round"/>
<path d="M121.5 11H2.5V19H121.5V11Z" fill="#FAD776" stroke="#1B4991" stroke-width="5" stroke-miterlimit="10" stroke-linecap="round" stroke-linejoin="round"/>
<path d="M34.5 3H13.5V11H34.5V3Z" fill="#7FB7C0" stroke="#1B4991" stroke-width="5" stroke-miterlimit="10" stroke-linecap="round" stroke-linejoin="round"/>
<path d="M54.42 34H30.01V50.27H54.42V34Z" fill="white" stroke="#1B4991" stroke-width="5" stroke-miterlimit="10" stroke-linecap="round" stroke-linejoin="round"/>
<path d="M54.42 58.16H30.01V82.57H54.42V58.16Z" fill="#7FB7C0" stroke="#1B4991" stroke-width="5" stroke-miterlimit="10" stroke-linecap="round" stroke-linejoin="round"/>
<path d="M23.5 91.08H59.3" stroke="#1B4991" stroke-width="5" stroke-miterlimit="10" stroke-linecap="round" stroke-linejoin="round"/>
<path d="M54.42 116.5H30.01V132.77H54.42V116.5Z" fill="white" stroke="#1B4991" stroke-width="5" stroke-miterlimit="10" stroke-linecap="round" stroke-linejoin="round"/>
<path d="M54.42 140.66H30.01V165.07H54.42V140.66Z" fill="#7FB7C0" stroke="#1B4991" stroke-width="5" stroke-miterlimit="10" stroke-linecap="round" stroke-linejoin="round"/>
<path d="M23.5 173.58H59.3" stroke="#1B4991" stroke-width="5" stroke-miterlimit="10" stroke-linecap="round" stroke-linejoin="round"/>
<path d="M54.42 196.5H30.01V212.77H54.42V196.5Z" fill="white" stroke="#1B4991" stroke-width="5" stroke-miterlimit="10" stroke-linecap="round" stroke-linejoin="round"/>
<path d="M54.42 220.66H30.01V245.07H54.42V220.66Z" fill="#7FB7C0" stroke="#1B4991" stroke-width="5" stroke-miterlimit="10" stroke-linecap="round" stroke-linejoin="round"/>
<path d="M23.5 253.58H59.3" stroke="#1B4991" stroke-width="5" stroke-miterlimit="10" stroke-linecap="round" stroke-linejoin="round"/>
<path d="M99.99 34H75.58V50.27H99.99V34Z" fill="white" stroke="#1B4991" stroke-width="5" stroke-miterlimit="10" stroke-linecap="round" stroke-linejoin="round"/>
<path d="M99.99 58.16H75.58V82.57H99.99V58.16Z" fill="#7FB7C0" stroke="#1B4991" stroke-width="5" stroke-miterlimit="10" stroke-linecap="round" stroke-linejoin="round"/>
<path d="M69.07 91.08H106.5" stroke="#1B4991" stroke-width="5" stroke-miterlimit="10" stroke-linecap="round" stroke-linejoin="round"/>
<path d="M99.99 116.5H75.58V132.77H99.99V116.5Z" fill="white" stroke="#1B4991" stroke-width="5" stroke-miterlimit="10" stroke-linecap="round" stroke-linejoin="round"/>
<path d="M99.99 140.66H75.58V165.07H99.99V140.66Z" fill="#7FB7C0" stroke="#1B4991" stroke-width="5" stroke-miterlimit="10" stroke-linecap="round" stroke-linejoin="round"/>
<path d="M69.07 173.58H106.5" stroke="#1B4991" stroke-width="5" stroke-miterlimit="10" stroke-linecap="round" stroke-linejoin="round"/>
<path d="M99.99 196.5H75.58V212.77H99.99V196.5Z" fill="white" stroke="#1B4991" stroke-width="5" stroke-miterlimit="10" stroke-linecap="round" stroke-linejoin="round"/>
<path d="M99.99 220.66H75.58V245.07H99.99V220.66Z" fill="#7FB7C0" stroke="#1B4991" stroke-width="5" stroke-miterlimit="10" stroke-linecap="round" stroke-linejoin="round"/>
<path d="M69.07 253.58H106.5" stroke="#1B4991" stroke-width="5" stroke-miterlimit="10" stroke-linecap="round" stroke-linejoin="round"/>
<path d="M76.5 292.5H49.5V329.5H76.5V292.5Z" fill="white" stroke="#1B4991" stroke-width="5" stroke-miterlimit="10" stroke-linecap="round" stroke-linejoin="round"/>
<path d="M91.97 292.56C97.2333 292.56 101.5 288.293 101.5 283.03C101.5 277.767 97.2333 273.5 91.97 273.5C86.7067 273.5 82.44 277.767 82.44 283.03C82.44 288.293 86.7067 292.56 91.97 292.56Z" fill="#EF4056" stroke="#1B4991" stroke-width="5" stroke-miterlimit="10" stroke-linecap="round" stroke-linejoin="round"/>
</svg>
