<svg width="36" height="36" viewBox="0 0 36 36" fill="none" xmlns="http://www.w3.org/2000/svg">
<path fill-rule="evenodd" clip-rule="evenodd" d="M6.7498 6.30039C6.50167 6.30039 6.2998 6.09852 6.2998 5.85039C6.2998 5.60224 6.50167 5.40039 6.7498 5.40039C6.99793 5.40039 7.1998 5.60224 7.1998 5.85039C7.1998 6.09852 6.99793 6.30039 6.7498 6.30039Z" fill="#CACAFB"/>
<path fill-rule="evenodd" clip-rule="evenodd" d="M2.2498 31.4996C2.00167 31.4996 1.7998 31.2977 1.7998 31.0496C1.7998 30.8015 2.00167 30.5996 2.2498 30.5996C2.49793 30.5996 2.6998 30.8015 2.6998 31.0496C2.6998 31.2977 2.49793 31.4996 2.2498 31.4996Z" fill="#CACAFB"/>
<path fill-rule="evenodd" clip-rule="evenodd" d="M33.7498 28.8004C33.5017 28.8004 33.2998 28.5985 33.2998 28.3504C33.2998 28.1022 33.5017 27.9004 33.7498 27.9004C33.9979 27.9004 34.1998 28.1022 34.1998 28.3504C34.1998 28.5985 33.9979 28.8004 33.7498 28.8004Z" fill="#CACAFB"/>
<path fill-rule="evenodd" clip-rule="evenodd" d="M26.5496 5.4C26.3015 5.4 26.0996 5.19813 26.0996 4.95C26.0996 4.70185 26.3015 4.5 26.5496 4.5C26.7977 4.5 26.9996 4.70185 26.9996 4.95C26.9996 5.19813 26.7977 5.4 26.5496 5.4Z" fill="#CACAFB"/>
<path d="M18.9665 4.5C26.4224 4.5 32.4665 10.5442 32.4665 18C32.4665 18.2485 32.2651 18.45 32.0165 18.45C31.768 18.45 31.5665 18.2485 31.5665 18C31.5665 11.0412 25.9253 5.4 18.9665 5.4C12.0077 5.4 6.36654 11.0412 6.36654 18C6.36654 24.9588 12.0077 30.6 18.9665 30.6C23.9862 30.6 28.4648 27.6379 30.4768 23.1337C30.5782 22.9068 30.8443 22.805 31.0712 22.9064C31.2981 23.0078 31.3999 23.2739 31.2985 23.5008C29.143 28.3263 24.3444 31.5 18.9665 31.5C11.5107 31.5 5.46654 25.4558 5.46654 18C5.46654 10.5442 11.5107 4.5 18.9665 4.5Z" fill="#E1000F"/>
<path d="M32.0165 21.8667C32.0165 22.1336 31.8001 22.35 31.5332 22.35C31.2663 22.35 31.0499 22.1336 31.0499 21.8667C31.0499 21.5997 31.2663 21.3833 31.5332 21.3833C31.8001 21.3833 32.0165 21.5997 32.0165 21.8667Z" fill="#E1000F"/>
<path d="M6.52179 9.46443C6.32405 9.31389 6.04171 9.35216 5.89116 9.54991C4.37033 11.5476 3.5332 13.9859 3.5332 16.55C3.5332 16.7985 3.73467 17 3.9832 17C4.23173 17 4.4332 16.7985 4.4332 16.55C4.4332 14.1846 5.20471 11.9374 6.60727 10.0951C6.75781 9.89732 6.71954 9.61497 6.52179 9.46443Z" fill="#E1000F"/>
<path fill-rule="evenodd" clip-rule="evenodd" d="M25.1984 15.713C24.879 11.8801 22.7344 9.90039 18.9 9.90039C15.0656 9.90039 12.921 11.8801 12.6016 15.713C12.5774 16.0031 12.8308 16.2394 13.1184 16.1952L13.95 16.0672V16.2638C13.6279 16.3259 13.3905 16.4118 13.224 16.5359C12.802 16.8506 12.6 17.3538 12.6 18.0004C12.6 19.1489 13.2514 19.8004 14.4 19.8004C14.4489 19.8004 14.4961 19.7926 14.5403 19.7781C15.019 20.7064 15.7611 21.4649 16.6628 21.9433C16.6544 21.9776 16.65 22.0135 16.65 22.0504C16.65 22.6348 16.3715 23.1542 15.94 23.483C15.933 23.4879 15.9262 23.493 15.9196 23.4983C15.6205 23.7196 15.2506 23.8504 14.85 23.8504H13.95L13.8488 23.8523C12.4045 23.9055 11.25 25.0931 11.25 26.5504C11.25 26.7989 11.4515 27.0004 11.7 27.0004C11.9485 27.0004 12.15 26.7989 12.15 26.5504C12.15 25.5563 12.9559 24.7504 13.95 24.7504H14.85L14.9512 24.7485C15.3276 24.7347 15.6843 24.6437 16.006 24.4911C16.4885 25.2504 17.3783 25.4822 18.5591 25.187C18.8002 25.1267 18.9468 24.8824 18.8866 24.6413C18.8263 24.4001 18.582 24.2535 18.3409 24.3138C17.4995 24.5242 17.008 24.4103 16.7459 23.9728C17.1862 23.5385 17.4781 22.954 17.5384 22.3023C17.9708 22.4313 18.4276 22.5004 18.9 22.5004C19.3724 22.5004 19.8292 22.4313 20.2616 22.3023C20.3856 23.6423 21.4887 24.6984 22.8488 24.7485L22.95 24.7504H23.85C24.8441 24.7504 25.65 25.5563 25.65 26.5504C25.65 26.7989 25.8515 27.0004 26.1 27.0004C26.3485 27.0004 26.55 26.7989 26.55 26.5504C26.55 25.0931 25.3955 23.9055 23.9512 23.8523L23.85 23.8504H22.95C21.9559 23.8504 21.15 23.0445 21.15 22.0504C21.15 22.0135 21.1456 21.9776 21.1372 21.9433C22.0389 21.4649 22.781 20.7064 23.2597 19.7781C23.3039 19.7926 23.351 19.8004 23.4 19.8004C24.5485 19.8004 25.2 19.1489 25.2 18.0004C25.2 17.3538 24.998 16.8506 24.5759 16.5359C24.3484 16.3663 23.9882 16.268 23.4605 16.2044C23.4412 16.2018 23.4216 16.2005 23.4017 16.2004L23.4009 16.2003C23.3575 16.2002 23.3152 16.2063 23.275 16.218C23.2102 16.2367 23.1514 16.2696 23.1021 16.3131C23.0151 16.39 22.958 16.5001 22.9508 16.6236C22.9501 16.6349 22.9498 16.6462 22.95 16.6573V17.3254L22.9483 17.4495C22.8861 19.7576 21.0926 21.6004 18.9 21.6004C16.6683 21.6004 14.85 19.6912 14.85 17.3254V15.9288L18.9684 15.2952L19.0215 15.2837C19.1429 15.2496 19.2454 15.1659 19.3025 15.0516L19.7525 14.1516L19.7733 14.1033C19.8501 13.8915 19.7577 13.6511 19.5512 13.5479L19.503 13.5271C19.2912 13.4503 19.0507 13.5427 18.9475 13.7491L18.6012 14.4409L13.563 15.2158L13.5712 15.1578C14.0122 12.2184 15.7515 10.8004 18.9 10.8004L19.0616 10.8017C22.0547 10.8489 23.7358 12.2197 24.2048 15.0072L24.228 15.1559L21.2591 14.4138L21.2075 14.404C20.9841 14.375 20.7694 14.5174 20.7134 14.7413C20.6532 14.9824 20.7998 15.2267 21.0409 15.287L24.6409 16.187L24.6934 16.1969C24.9724 16.2331 25.2225 16.0022 25.1984 15.713ZM13.95 17.1859C13.8546 17.211 13.7909 17.2359 13.762 17.2574C13.5933 17.3832 13.5 17.6158 13.5 18.0004C13.5 18.5727 13.6918 18.8341 14.1801 18.8891C14.0428 18.4359 13.9637 17.9559 13.9516 17.4587L13.95 17.3254V17.1859ZM24.3 18.0004C24.3 18.5727 24.1082 18.834 23.6199 18.8891C23.7694 18.3956 23.85 17.8702 23.85 17.3254V17.1859C23.9454 17.211 24.0091 17.2359 24.038 17.2574C24.2066 17.3832 24.3 17.6158 24.3 18.0004Z" fill="#000091"/>
</svg>
